M48
; DRILL file {KiCad 8.0.1} date 2024-04-29T20:12:52-0400
; FORMAT={-:-/ absolute / metric / decimal}
; #@! TF.CreationDate,2024-04-29T20:12:52-04:00
; #@! TF.GenerationSoftware,Kicad,Pcbnew,8.0.1
; #@! TF.FileFunction,Plated,1,2,PTH
FMAT,2
METRIC
; #@! TA.AperFunction,Plated,PTH,ComponentDrill
T1C0.800
; #@! TA.AperFunction,Plated,PTH,ComponentDrill
T2C0.900
%
G90
G05
T1
X146.842Y-116.792
X146.842Y-126.952
X151.922Y-116.792
X151.922Y-126.952
X157.002Y-116.792
X157.002Y-126.952
X162.082Y-116.792
X162.082Y-126.952
X167.162Y-116.792
X167.162Y-126.952
X172.242Y-116.792
X172.242Y-126.952
T2
X93.007Y-46.267
X95.547Y-46.267
X133.722Y-143.892
X133.805Y-94.576
X135.075Y-92.376
X136.262Y-143.892
X152.572Y-56.817
X154.657Y-94.911
X155.112Y-56.817
X156.289Y-96.857
X173.323Y-36.922
X175.522Y-38.192
M30
