%TF.GenerationSoftware,KiCad,Pcbnew,8.0.1*%
%TF.CreationDate,2024-04-29T20:13:38-04:00*%
%TF.ProjectId,HackerBadgePCBV3 (Simplified),4861636b-6572-4426-9164-676550434256,1.8*%
%TF.SameCoordinates,Original*%
%TF.FileFunction,Copper,L2,Bot*%
%TF.FilePolarity,Positive*%
%FSLAX46Y46*%
G04 Gerber Fmt 4.6, Leading zero omitted, Abs format (unit mm)*
G04 Created by KiCad (PCBNEW 8.0.1) date 2024-04-29 20:13:38*
%MOMM*%
%LPD*%
G01*
G04 APERTURE LIST*
G04 Aperture macros list*
%AMRotRect*
0 Rectangle, with rotation*
0 The origin of the aperture is its center*
0 $1 length*
0 $2 width*
0 $3 Rotation angle, in degrees counterclockwise*
0 Add horizontal line*
21,1,$1,$2,0,0,$3*%
G04 Aperture macros list end*
%TA.AperFunction,NonConductor*%
%ADD10C,0.000000*%
%TD*%
%TA.AperFunction,Conductor*%
%ADD11C,0.000000*%
%TD*%
%TA.AperFunction,ComponentPad*%
%ADD12RotRect,1.800000X1.800000X130.000000*%
%TD*%
%TA.AperFunction,ComponentPad*%
%ADD13C,1.800000*%
%TD*%
%TA.AperFunction,ComponentPad*%
%ADD14R,1.800000X1.800000*%
%TD*%
%TA.AperFunction,ComponentPad*%
%ADD15RotRect,1.800000X1.800000X240.000000*%
%TD*%
%TA.AperFunction,ComponentPad*%
%ADD16RotRect,1.800000X1.800000X150.000000*%
%TD*%
%TA.AperFunction,ComponentPad*%
%ADD17C,1.600000*%
%TD*%
%TA.AperFunction,ComponentPad*%
%ADD18O,1.600000X1.600000*%
%TD*%
%TA.AperFunction,SMDPad,CuDef*%
%ADD19R,2.400000X6.100000*%
%TD*%
%TA.AperFunction,SMDPad,CuDef*%
%ADD20C,10.000000*%
%TD*%
%TA.AperFunction,Conductor*%
%ADD21C,0.500000*%
%TD*%
%TA.AperFunction,Conductor*%
%ADD22C,0.200000*%
%TD*%
G04 APERTURE END LIST*
D10*
%TA.AperFunction,NonConductor*%
G36*
X168192818Y-67034877D02*
G01*
X167663657Y-67034877D01*
X167663657Y-66505716D01*
X168192818Y-66505716D01*
X168192818Y-67034877D01*
G37*
%TD.AperFunction*%
%TA.AperFunction,NonConductor*%
G36*
X166076046Y-67034877D02*
G01*
X165546884Y-67034877D01*
X165546884Y-66505716D01*
X166076046Y-66505716D01*
X166076046Y-67034877D01*
G37*
%TD.AperFunction*%
%TA.AperFunction,NonConductor*%
G36*
X168192818Y-68093184D02*
G01*
X167663657Y-68093184D01*
X167663657Y-67564023D01*
X168192818Y-67564023D01*
X168192818Y-68093184D01*
G37*
%TD.AperFunction*%
%TA.AperFunction,NonConductor*%
G36*
X167134432Y-67034877D02*
G01*
X166605271Y-67034877D01*
X166605271Y-66505716D01*
X167134432Y-66505716D01*
X167134432Y-67034877D01*
G37*
%TD.AperFunction*%
%TA.AperFunction,NonConductor*%
G36*
X167134432Y-68093184D02*
G01*
X166605271Y-68093184D01*
X166605271Y-67564023D01*
X167134432Y-67564023D01*
X167134432Y-68093184D01*
G37*
%TD.AperFunction*%
%TA.AperFunction,NonConductor*%
G36*
X107464898Y-55440612D02*
G01*
X102783628Y-55440612D01*
X102783628Y-54233080D01*
X106000169Y-54233080D01*
X106000169Y-52579064D01*
X103037099Y-52579064D01*
X103037099Y-51371505D01*
X106000169Y-51371505D01*
X106000169Y-49720876D01*
X102797124Y-49720876D01*
X102797124Y-48513339D01*
X107464898Y-48513339D01*
X107464898Y-55440612D01*
G37*
%TD.AperFunction*%
%TA.AperFunction,NonConductor*%
G36*
X153024059Y-52116888D02*
G01*
X153019064Y-52254181D01*
X153010739Y-52388859D01*
X152999084Y-52520920D01*
X152984100Y-52650365D01*
X152965786Y-52777193D01*
X152944142Y-52901405D01*
X152919169Y-53023001D01*
X152890867Y-53141981D01*
X152859235Y-53258345D01*
X152824274Y-53372092D01*
X152785984Y-53483223D01*
X152744365Y-53591737D01*
X152699417Y-53697636D01*
X152651139Y-53800918D01*
X152599533Y-53901584D01*
X152545056Y-53999479D01*
X152488174Y-54094441D01*
X152428887Y-54186470D01*
X152367196Y-54275564D01*
X152303101Y-54361725D01*
X152236601Y-54444953D01*
X152167697Y-54525247D01*
X152096388Y-54602607D01*
X152022674Y-54677034D01*
X151946555Y-54748527D01*
X151868031Y-54817087D01*
X151787102Y-54882714D01*
X151703768Y-54945408D01*
X151618029Y-55005168D01*
X151529885Y-55061995D01*
X151439335Y-55115888D01*
X151346847Y-55166678D01*
X151252879Y-55214191D01*
X151157431Y-55258427D01*
X151060503Y-55299388D01*
X150962095Y-55337072D01*
X150862207Y-55371479D01*
X150760839Y-55402610D01*
X150657991Y-55430465D01*
X150553663Y-55455043D01*
X150447855Y-55476344D01*
X150340567Y-55494368D01*
X150231799Y-55509115D01*
X150121552Y-55520585D01*
X150009825Y-55528778D01*
X149896618Y-55533694D01*
X149781932Y-55535333D01*
X149668067Y-55533707D01*
X149555629Y-55528831D01*
X149444617Y-55520705D01*
X149335032Y-55509328D01*
X149226873Y-55494700D01*
X149120141Y-55476822D01*
X149014836Y-55455694D01*
X148910957Y-55431315D01*
X148808505Y-55403686D01*
X148707481Y-55372806D01*
X148607883Y-55338676D01*
X148509713Y-55301296D01*
X148412969Y-55260666D01*
X148317653Y-55216786D01*
X148223764Y-55169655D01*
X148131303Y-55119275D01*
X148040345Y-55065381D01*
X147951817Y-55008554D01*
X147865722Y-54948794D01*
X147782058Y-54886101D01*
X147700825Y-54820474D01*
X147622024Y-54751914D01*
X147545655Y-54680420D01*
X147471717Y-54605994D01*
X147400210Y-54528633D01*
X147331135Y-54448339D01*
X147264492Y-54365112D01*
X147200280Y-54278951D01*
X147138499Y-54189856D01*
X147079150Y-54097828D01*
X147022232Y-54002866D01*
X146967746Y-53904970D01*
X146915727Y-53804291D01*
X146867063Y-53700969D01*
X146821756Y-53595004D01*
X146779805Y-53486396D01*
X146741210Y-53375146D01*
X146705971Y-53261253D01*
X146674088Y-53144717D01*
X146645562Y-53025538D01*
X146620391Y-52903717D01*
X146598577Y-52779253D01*
X146580118Y-52652147D01*
X146565016Y-52522398D01*
X146553269Y-52390006D01*
X146544879Y-52254973D01*
X146539845Y-52117296D01*
X146538167Y-51976978D01*
X148023061Y-51976978D01*
X148023920Y-52067827D01*
X148026496Y-52156880D01*
X148030791Y-52244136D01*
X148036803Y-52329596D01*
X148044533Y-52413259D01*
X148053980Y-52495125D01*
X148065145Y-52575195D01*
X148078028Y-52653468D01*
X148092629Y-52729944D01*
X148108948Y-52804623D01*
X148126984Y-52877505D01*
X148146738Y-52948591D01*
X148168209Y-53017880D01*
X148191399Y-53085371D01*
X148216306Y-53151066D01*
X148242931Y-53214963D01*
X148270688Y-53277011D01*
X148299846Y-53337155D01*
X148330406Y-53395396D01*
X148362365Y-53451735D01*
X148395726Y-53506170D01*
X148430488Y-53558703D01*
X148466650Y-53609333D01*
X148504214Y-53658061D01*
X148543178Y-53704886D01*
X148583543Y-53749809D01*
X148625308Y-53792829D01*
X148668475Y-53833947D01*
X148713042Y-53873163D01*
X148759011Y-53910476D01*
X148806380Y-53945888D01*
X148855149Y-53979398D01*
X148905148Y-54010934D01*
X148956204Y-54040436D01*
X149008316Y-54067903D01*
X149061485Y-54093335D01*
X149115711Y-54116733D01*
X149170993Y-54138096D01*
X149227332Y-54157425D01*
X149284727Y-54174719D01*
X149343179Y-54189979D01*
X149402688Y-54203204D01*
X149463254Y-54214394D01*
X149524876Y-54223550D01*
X149587555Y-54230671D01*
X149651291Y-54235757D01*
X149716083Y-54238809D01*
X149781932Y-54239827D01*
X149847786Y-54238809D01*
X149912582Y-54235757D01*
X149976322Y-54230671D01*
X150039004Y-54223550D01*
X150100629Y-54214394D01*
X150161196Y-54203204D01*
X150220707Y-54189979D01*
X150279160Y-54174719D01*
X150336557Y-54157425D01*
X150392897Y-54138096D01*
X150448179Y-54116733D01*
X150502405Y-54093335D01*
X150555574Y-54067903D01*
X150607687Y-54040436D01*
X150658742Y-54010934D01*
X150708741Y-53979398D01*
X150757520Y-53945888D01*
X150804925Y-53910476D01*
X150850957Y-53873163D01*
X150895615Y-53833947D01*
X150938899Y-53792829D01*
X150980809Y-53749809D01*
X151021346Y-53704886D01*
X151060508Y-53658061D01*
X151098297Y-53609333D01*
X151134712Y-53558703D01*
X151169753Y-53506170D01*
X151203420Y-53451735D01*
X151235713Y-53395396D01*
X151266632Y-53337155D01*
X151296176Y-53277011D01*
X151324347Y-53214963D01*
X151350559Y-53151066D01*
X151375080Y-53085371D01*
X151397911Y-53017880D01*
X151419051Y-52948591D01*
X151438500Y-52877505D01*
X151456258Y-52804623D01*
X151472326Y-52729944D01*
X151486702Y-52653468D01*
X151499388Y-52575195D01*
X151510382Y-52495125D01*
X151519685Y-52413259D01*
X151527297Y-52329596D01*
X151537447Y-52156880D01*
X151540830Y-51976978D01*
X151539984Y-51886128D01*
X151537447Y-51797076D01*
X151533218Y-51709819D01*
X151527297Y-51624360D01*
X151519685Y-51540697D01*
X151510382Y-51458831D01*
X151499388Y-51378761D01*
X151486702Y-51300488D01*
X151472326Y-51224012D01*
X151456258Y-51149333D01*
X151438500Y-51076451D01*
X151419051Y-51005366D01*
X151397911Y-50936078D01*
X151375080Y-50868586D01*
X151350559Y-50802892D01*
X151324347Y-50738995D01*
X151296176Y-50676949D01*
X151266632Y-50616804D01*
X151235713Y-50558563D01*
X151203420Y-50502224D01*
X151169753Y-50447788D01*
X151134712Y-50395254D01*
X151098297Y-50344623D01*
X151060508Y-50295894D01*
X151021346Y-50249069D01*
X150980809Y-50204145D01*
X150938899Y-50161125D01*
X150895615Y-50120007D01*
X150850957Y-50080791D01*
X150804925Y-50043479D01*
X150757520Y-50008068D01*
X150708741Y-49974561D01*
X150658742Y-49943022D01*
X150607687Y-49913518D01*
X150555574Y-49886049D01*
X150502405Y-49860614D01*
X150448179Y-49837214D01*
X150392897Y-49815849D01*
X150336557Y-49796519D01*
X150279160Y-49779223D01*
X150220707Y-49763963D01*
X150161196Y-49750737D01*
X150100629Y-49739545D01*
X150039004Y-49730389D01*
X149976322Y-49723267D01*
X149912582Y-49718180D01*
X149847786Y-49715128D01*
X149781932Y-49714110D01*
X149716083Y-49715128D01*
X149651291Y-49718180D01*
X149587555Y-49723267D01*
X149524876Y-49730389D01*
X149463254Y-49739545D01*
X149402688Y-49750737D01*
X149343179Y-49763963D01*
X149284727Y-49779223D01*
X149227332Y-49796519D01*
X149170993Y-49815849D01*
X149115711Y-49837214D01*
X149061485Y-49860614D01*
X149008316Y-49886049D01*
X148956204Y-49913518D01*
X148905148Y-49943022D01*
X148855149Y-49974561D01*
X148806380Y-50008068D01*
X148759011Y-50043479D01*
X148713042Y-50080791D01*
X148668475Y-50120007D01*
X148625308Y-50161125D01*
X148583543Y-50204145D01*
X148543178Y-50249069D01*
X148504214Y-50295894D01*
X148466650Y-50344623D01*
X148430488Y-50395254D01*
X148395726Y-50447788D01*
X148362365Y-50502224D01*
X148330406Y-50558563D01*
X148299846Y-50616804D01*
X148270688Y-50676949D01*
X148242931Y-50738995D01*
X148216306Y-50802892D01*
X148191399Y-50868586D01*
X148168209Y-50936078D01*
X148146738Y-51005366D01*
X148126984Y-51076451D01*
X148108948Y-51149333D01*
X148092629Y-51224012D01*
X148078028Y-51300488D01*
X148065145Y-51378761D01*
X148053980Y-51458831D01*
X148044533Y-51540697D01*
X148036803Y-51624360D01*
X148030791Y-51709819D01*
X148026496Y-51797076D01*
X148023061Y-51976978D01*
X146538167Y-51976978D01*
X146539845Y-51836659D01*
X146544879Y-51698983D01*
X146553269Y-51563949D01*
X146565016Y-51431558D01*
X146580118Y-51301809D01*
X146598577Y-51174702D01*
X146620391Y-51050238D01*
X146645562Y-50928416D01*
X146674088Y-50809237D01*
X146705971Y-50692700D01*
X146741210Y-50578806D01*
X146779805Y-50467555D01*
X146821756Y-50358946D01*
X146867063Y-50252980D01*
X146915727Y-50149656D01*
X146967746Y-50048975D01*
X147022232Y-49951095D01*
X147079150Y-49856175D01*
X147138499Y-49764215D01*
X147200280Y-49675214D01*
X147264492Y-49589172D01*
X147331135Y-49506091D01*
X147400210Y-49425969D01*
X147471717Y-49348806D01*
X147545655Y-49274604D01*
X147622024Y-49203360D01*
X147700825Y-49135077D01*
X147782058Y-49069753D01*
X147865722Y-49007389D01*
X147951817Y-48947984D01*
X148040345Y-48891539D01*
X148131303Y-48838054D01*
X148223764Y-48787264D01*
X148317653Y-48739752D01*
X148412969Y-48695516D01*
X148509713Y-48654556D01*
X148607883Y-48616874D01*
X148707481Y-48582468D01*
X148808505Y-48551339D01*
X148910957Y-48523486D01*
X149014836Y-48498911D01*
X149120141Y-48477612D01*
X149226873Y-48459590D01*
X149335032Y-48444844D01*
X149444617Y-48433376D01*
X149555629Y-48425184D01*
X149668067Y-48420269D01*
X149781932Y-48418630D01*
X149896618Y-48420269D01*
X150009825Y-48425184D01*
X150121552Y-48433376D01*
X150231799Y-48444844D01*
X150340567Y-48459590D01*
X150447855Y-48477612D01*
X150553663Y-48498911D01*
X150657991Y-48523486D01*
X150760839Y-48551339D01*
X150862207Y-48582468D01*
X150962095Y-48616874D01*
X151060503Y-48654556D01*
X151157431Y-48695516D01*
X151252879Y-48739752D01*
X151346847Y-48787264D01*
X151439335Y-48838054D01*
X151529885Y-48891539D01*
X151618029Y-48947984D01*
X151703768Y-49007389D01*
X151787102Y-49069753D01*
X151868031Y-49135077D01*
X151946555Y-49203360D01*
X152022674Y-49274604D01*
X152096388Y-49348806D01*
X152167697Y-49425969D01*
X152236601Y-49506091D01*
X152303101Y-49589172D01*
X152367196Y-49675214D01*
X152428887Y-49764215D01*
X152488174Y-49856175D01*
X152545056Y-49951095D01*
X152599533Y-50048975D01*
X152651139Y-50149656D01*
X152699417Y-50252980D01*
X152744365Y-50358946D01*
X152785984Y-50467555D01*
X152824274Y-50578806D01*
X152859235Y-50692700D01*
X152890867Y-50809237D01*
X152919169Y-50928416D01*
X152944142Y-51050238D01*
X152965786Y-51174702D01*
X152984100Y-51301809D01*
X152999084Y-51431558D01*
X153010739Y-51563949D01*
X153019064Y-51698983D01*
X153024059Y-51836659D01*
X153025724Y-51976978D01*
X153024059Y-52116888D01*
G37*
%TD.AperFunction*%
%TA.AperFunction,NonConductor*%
G36*
X159071003Y-55440612D02*
G01*
X157606402Y-55440612D01*
X157606402Y-53194670D01*
X156375190Y-53194670D01*
X156276335Y-53193520D01*
X156179330Y-53190071D01*
X156084174Y-53184323D01*
X155990867Y-53176275D01*
X155899409Y-53165928D01*
X155809801Y-53153282D01*
X155722042Y-53138337D01*
X155636133Y-53121092D01*
X155552073Y-53101549D01*
X155469863Y-53079706D01*
X155389502Y-53055565D01*
X155310991Y-53029124D01*
X155234329Y-53000385D01*
X155159518Y-52969347D01*
X155086555Y-52936009D01*
X155015443Y-52900373D01*
X154945878Y-52862681D01*
X154878401Y-52823165D01*
X154813012Y-52781825D01*
X154749710Y-52738662D01*
X154688496Y-52693675D01*
X154629370Y-52646864D01*
X154572332Y-52598229D01*
X154517381Y-52547770D01*
X154464518Y-52495488D01*
X154413743Y-52441382D01*
X154365055Y-52385452D01*
X154318455Y-52327698D01*
X154273942Y-52268121D01*
X154231516Y-52206719D01*
X154191178Y-52143494D01*
X154152928Y-52078446D01*
X154116883Y-52011856D01*
X154083164Y-51943997D01*
X154051771Y-51874869D01*
X154022703Y-51804473D01*
X153995960Y-51732808D01*
X153971543Y-51659874D01*
X153949452Y-51585672D01*
X153929685Y-51510201D01*
X153912245Y-51433462D01*
X153897129Y-51355454D01*
X153884339Y-51276177D01*
X153873875Y-51195631D01*
X153865736Y-51113817D01*
X153859922Y-51030735D01*
X153856434Y-50946384D01*
X153855272Y-50860764D01*
X155363847Y-50860764D01*
X155364389Y-50903162D01*
X155366014Y-50944953D01*
X155368722Y-50986136D01*
X155372514Y-51026712D01*
X155377389Y-51066680D01*
X155383347Y-51106040D01*
X155390389Y-51144793D01*
X155398514Y-51182938D01*
X155407722Y-51220476D01*
X155418014Y-51257406D01*
X155429389Y-51293729D01*
X155441847Y-51329443D01*
X155455389Y-51364551D01*
X155470014Y-51399050D01*
X155485722Y-51432942D01*
X155502514Y-51466226D01*
X155519981Y-51498344D01*
X155538558Y-51529591D01*
X155558245Y-51559966D01*
X155579042Y-51589470D01*
X155600949Y-51618102D01*
X155623965Y-51645863D01*
X155648092Y-51672752D01*
X155673329Y-51698769D01*
X155699676Y-51723914D01*
X155727133Y-51748187D01*
X155755700Y-51771588D01*
X155785377Y-51794117D01*
X155816164Y-51815774D01*
X155848061Y-51836558D01*
X155881068Y-51856471D01*
X155915185Y-51875510D01*
X155950012Y-51893119D01*
X155986002Y-51909593D01*
X156023156Y-51924931D01*
X156061472Y-51939133D01*
X156100952Y-51952200D01*
X156141594Y-51964131D01*
X156183400Y-51974926D01*
X156226368Y-51984585D01*
X156270499Y-51993108D01*
X156315793Y-52000494D01*
X156362249Y-52006745D01*
X156409868Y-52011859D01*
X156458649Y-52015837D01*
X156508592Y-52018678D01*
X156559698Y-52020383D01*
X156611966Y-52020952D01*
X157606402Y-52020952D01*
X157606402Y-49710729D01*
X156618738Y-49710729D01*
X156566045Y-49711297D01*
X156514514Y-49713002D01*
X156464147Y-49715843D01*
X156414942Y-49719820D01*
X156366901Y-49724933D01*
X156320023Y-49731183D01*
X156274308Y-49738569D01*
X156229755Y-49747091D01*
X156186365Y-49756749D01*
X156144138Y-49767544D01*
X156103073Y-49779475D01*
X156063171Y-49792543D01*
X156024431Y-49806747D01*
X155986854Y-49822087D01*
X155950438Y-49838563D01*
X155915185Y-49856176D01*
X155881068Y-49874396D01*
X155848061Y-49893541D01*
X155816164Y-49913611D01*
X155785377Y-49934606D01*
X155755700Y-49956526D01*
X155727133Y-49979370D01*
X155699676Y-50003140D01*
X155673329Y-50027834D01*
X155648092Y-50053454D01*
X155623965Y-50079998D01*
X155600949Y-50107467D01*
X155579042Y-50135861D01*
X155558245Y-50165180D01*
X155538558Y-50195424D01*
X155519981Y-50226593D01*
X155502514Y-50258687D01*
X155485722Y-50291164D01*
X155470014Y-50324328D01*
X155455389Y-50358179D01*
X155441847Y-50392717D01*
X155429389Y-50427942D01*
X155418014Y-50463854D01*
X155407722Y-50500453D01*
X155398514Y-50537740D01*
X155390389Y-50575713D01*
X155383347Y-50614373D01*
X155377389Y-50653721D01*
X155372514Y-50693755D01*
X155368722Y-50734477D01*
X155366014Y-50775886D01*
X155364389Y-50817981D01*
X155363847Y-50860764D01*
X153855272Y-50860764D01*
X153856421Y-50775146D01*
X153859869Y-50690796D01*
X153865616Y-50607714D01*
X153873662Y-50525901D01*
X153884007Y-50445356D01*
X153896651Y-50366079D01*
X153911594Y-50288072D01*
X153928836Y-50211332D01*
X153948377Y-50135861D01*
X153970217Y-50061658D01*
X153994357Y-49988724D01*
X154020795Y-49917059D01*
X154049533Y-49846661D01*
X154080570Y-49777533D01*
X154113906Y-49709672D01*
X154149542Y-49643080D01*
X154186932Y-49577611D01*
X154226383Y-49513966D01*
X154267896Y-49452143D01*
X154311471Y-49392144D01*
X154357107Y-49333969D01*
X154404805Y-49277616D01*
X154454564Y-49223088D01*
X154506385Y-49170382D01*
X154560267Y-49119500D01*
X154616210Y-49070441D01*
X154674214Y-49023206D01*
X154734280Y-48977794D01*
X154796406Y-48934205D01*
X154860593Y-48892440D01*
X154926841Y-48852498D01*
X154995150Y-48814379D01*
X155065401Y-48777925D01*
X155137475Y-48743822D01*
X155211374Y-48712072D01*
X155287096Y-48682674D01*
X155364641Y-48655627D01*
X155444010Y-48630932D01*
X155525203Y-48608590D01*
X155608219Y-48588599D01*
X155693059Y-48570960D01*
X155779722Y-48555672D01*
X155868208Y-48542737D01*
X155958518Y-48532154D01*
X156050651Y-48523922D01*
X156144607Y-48518043D01*
X156240386Y-48514515D01*
X156337989Y-48513339D01*
X159071003Y-48513339D01*
X159071003Y-49710729D01*
X159071003Y-55440612D01*
G37*
%TD.AperFunction*%
D11*
%TA.AperFunction,Conductor*%
%TO.N,GND*%
G36*
X131295919Y-55440612D02*
G01*
X126861501Y-55440612D01*
X126861501Y-54233080D01*
X129831453Y-54233080D01*
X129831453Y-48513339D01*
X131295919Y-48513339D01*
X131295919Y-55440612D01*
G37*
%TD.AperFunction*%
D10*
%TA.AperFunction,NonConductor*%
G36*
X166076046Y-68093184D02*
G01*
X165546884Y-68093184D01*
X165546884Y-67564023D01*
X166076046Y-67564023D01*
X166076046Y-68093184D01*
G37*
%TD.AperFunction*%
%TA.AperFunction,NonConductor*%
G36*
X166076109Y-64653607D02*
G01*
X167663609Y-64653607D01*
X167663609Y-64389023D01*
X168192771Y-64389023D01*
X168192771Y-64653607D01*
X169251109Y-64653607D01*
X169251109Y-64918189D01*
X169515682Y-64918189D01*
X169515682Y-69151523D01*
X169251109Y-69151523D01*
X169251109Y-69416111D01*
X164488605Y-69416111D01*
X164488605Y-69151523D01*
X164224022Y-69151523D01*
X164224022Y-68622362D01*
X164753188Y-68622362D01*
X165017772Y-68622362D01*
X165017772Y-68886934D01*
X168721932Y-68886934D01*
X168721932Y-68622362D01*
X168986521Y-68622362D01*
X168986521Y-65447362D01*
X168721932Y-65447362D01*
X168721932Y-65182773D01*
X168192771Y-65182773D01*
X168192771Y-65711934D01*
X167663609Y-65711934D01*
X167663609Y-65182773D01*
X166076109Y-65182773D01*
X166076109Y-65711934D01*
X165546932Y-65711934D01*
X165546932Y-65182773D01*
X165017772Y-65182773D01*
X165017772Y-65447362D01*
X164753188Y-65447362D01*
X164753188Y-68622362D01*
X164224022Y-68622362D01*
X164224022Y-64918189D01*
X164488605Y-64918189D01*
X164488605Y-64653607D01*
X165546932Y-64653607D01*
X165546932Y-64389023D01*
X166076109Y-64389023D01*
X166076109Y-64653607D01*
G37*
%TD.AperFunction*%
%TA.AperFunction,NonConductor*%
G36*
X138796592Y-55440612D02*
G01*
X137227084Y-55440612D01*
X136713211Y-53860997D01*
X134212063Y-53860997D01*
X133699128Y-55440612D01*
X132129621Y-55440612D01*
X133068315Y-52717732D01*
X134583306Y-52717732D01*
X136341290Y-52717732D01*
X135488507Y-50096330D01*
X135434531Y-50096330D01*
X134583306Y-52717732D01*
X133068315Y-52717732D01*
X134517751Y-48513339D01*
X136405286Y-48513339D01*
X137856649Y-52717732D01*
X138796592Y-55440612D01*
G37*
%TD.AperFunction*%
%TA.AperFunction,NonConductor*%
G36*
X168392706Y-72824444D02*
G01*
X168657295Y-72824444D01*
X168657295Y-73089028D01*
X168921884Y-73089028D01*
X168921884Y-75999451D01*
X168657295Y-75999451D01*
X168657295Y-76264023D01*
X168392706Y-76264023D01*
X168392706Y-76528612D01*
X168128134Y-76528612D01*
X168128134Y-76793200D01*
X167863545Y-76793200D01*
X167863545Y-77057773D01*
X167598956Y-77057773D01*
X167598956Y-77322362D01*
X167334384Y-77322362D01*
X167334384Y-77586950D01*
X167069795Y-77586950D01*
X167069795Y-77851523D01*
X166540634Y-77851523D01*
X166540634Y-77586950D01*
X166276045Y-77586950D01*
X166276045Y-77322362D01*
X166011456Y-77322362D01*
X166011456Y-77057773D01*
X165746884Y-77057773D01*
X165746884Y-76793200D01*
X165482295Y-76793200D01*
X165482295Y-76528612D01*
X165217707Y-76528612D01*
X165217707Y-76264023D01*
X164953127Y-76264023D01*
X164953127Y-75999451D01*
X164688544Y-75999451D01*
X164688544Y-75734862D01*
X165217707Y-75734862D01*
X165482295Y-75734862D01*
X165482295Y-75999451D01*
X165746884Y-75999451D01*
X165746884Y-76264023D01*
X166011456Y-76264023D01*
X166011456Y-76528612D01*
X166276045Y-76528612D01*
X166276045Y-76793200D01*
X166540634Y-76793200D01*
X166540634Y-77057773D01*
X167069795Y-77057773D01*
X167069795Y-76793200D01*
X167334384Y-76793200D01*
X167334384Y-76528612D01*
X167598956Y-76528612D01*
X167598956Y-76264023D01*
X167863545Y-76264023D01*
X167863545Y-75999451D01*
X168128134Y-75999451D01*
X168128134Y-75734862D01*
X168392706Y-75734862D01*
X168392706Y-73618201D01*
X168128134Y-73618201D01*
X168128134Y-73353612D01*
X167863545Y-73353612D01*
X167863545Y-73089028D01*
X165746884Y-73089028D01*
X165746884Y-73353612D01*
X165482295Y-73353612D01*
X165482295Y-73618201D01*
X165217707Y-73618201D01*
X165217707Y-75734862D01*
X164688544Y-75734862D01*
X164688544Y-73089028D01*
X164953127Y-73089028D01*
X164953127Y-72824444D01*
X165217707Y-72824444D01*
X165217707Y-72559862D01*
X168392706Y-72559862D01*
X168392706Y-72824444D01*
G37*
%TD.AperFunction*%
%TA.AperFunction,NonConductor*%
G36*
X123893407Y-51496680D02*
G01*
X123961137Y-51496680D01*
X125540700Y-48513339D01*
X127181119Y-48513339D01*
X124654611Y-52991708D01*
X124654611Y-55440612D01*
X123199933Y-55440612D01*
X123199933Y-52991708D01*
X120673429Y-48513339D01*
X122313844Y-48513339D01*
X123893407Y-51496680D01*
G37*
%TD.AperFunction*%
%TA.AperFunction,NonConductor*%
G36*
X167334320Y-74147394D02*
G01*
X167598909Y-74147394D01*
X167598909Y-75205716D01*
X167334320Y-75205716D01*
X167334320Y-75470305D01*
X166275998Y-75470305D01*
X166275998Y-75205716D01*
X166011409Y-75205716D01*
X166011409Y-74411966D01*
X166540570Y-74411966D01*
X166540570Y-74941144D01*
X167069747Y-74941144D01*
X167069747Y-74411966D01*
X166540570Y-74411966D01*
X166011409Y-74411966D01*
X166011409Y-74147394D01*
X166275998Y-74147394D01*
X166275998Y-73882805D01*
X167334320Y-73882805D01*
X167334320Y-74147394D01*
G37*
%TD.AperFunction*%
%TA.AperFunction,NonConductor*%
G36*
X119873327Y-55440612D02*
G01*
X118408857Y-55440612D01*
X118408857Y-53194670D01*
X117177488Y-53194670D01*
X117078647Y-53193520D01*
X116981654Y-53190071D01*
X116886510Y-53184323D01*
X116793213Y-53176275D01*
X116701765Y-53165928D01*
X116612164Y-53153282D01*
X116524412Y-53138337D01*
X116438507Y-53121092D01*
X116354450Y-53101549D01*
X116272241Y-53079706D01*
X116191880Y-53055565D01*
X116113367Y-53029124D01*
X116036701Y-53000385D01*
X115961884Y-52969347D01*
X115888914Y-52936009D01*
X115817792Y-52900373D01*
X115748240Y-52862681D01*
X115680773Y-52823165D01*
X115615389Y-52781825D01*
X115552090Y-52738662D01*
X115490877Y-52693675D01*
X115431748Y-52646864D01*
X115374706Y-52598229D01*
X115319750Y-52547770D01*
X115266881Y-52495488D01*
X115216098Y-52441382D01*
X115167404Y-52385452D01*
X115120797Y-52327698D01*
X115076278Y-52268121D01*
X115033848Y-52206719D01*
X114993507Y-52143494D01*
X114955255Y-52078446D01*
X114919210Y-52011856D01*
X114885491Y-51943997D01*
X114854097Y-51874869D01*
X114825029Y-51804473D01*
X114798286Y-51732808D01*
X114773869Y-51659874D01*
X114751777Y-51585672D01*
X114732011Y-51510201D01*
X114714570Y-51433462D01*
X114699455Y-51355454D01*
X114686665Y-51276177D01*
X114676201Y-51195631D01*
X114668062Y-51113817D01*
X114662249Y-51030735D01*
X114658760Y-50946384D01*
X114657598Y-50860764D01*
X116166249Y-50860764D01*
X116166792Y-50903162D01*
X116168419Y-50944953D01*
X116171131Y-50986136D01*
X116174927Y-51026712D01*
X116179807Y-51066680D01*
X116185769Y-51106040D01*
X116192815Y-51144793D01*
X116200943Y-51182938D01*
X116210153Y-51220476D01*
X116220445Y-51257406D01*
X116231819Y-51293729D01*
X116244273Y-51329443D01*
X116257807Y-51364551D01*
X116272422Y-51399050D01*
X116288117Y-51432942D01*
X116304891Y-51466226D01*
X116322363Y-51498344D01*
X116340945Y-51529591D01*
X116360637Y-51559966D01*
X116381440Y-51589470D01*
X116403352Y-51618102D01*
X116426374Y-51645863D01*
X116450506Y-51672752D01*
X116475748Y-51698769D01*
X116502100Y-51723914D01*
X116529562Y-51748187D01*
X116558133Y-51771588D01*
X116587815Y-51794117D01*
X116618607Y-51815774D01*
X116650508Y-51836558D01*
X116683520Y-51856471D01*
X116717641Y-51875510D01*
X116752455Y-51893119D01*
X116788434Y-51909593D01*
X116825578Y-51924931D01*
X116863886Y-51939133D01*
X116903359Y-51952200D01*
X116943996Y-51964131D01*
X116985796Y-51974926D01*
X117028759Y-51984585D01*
X117072885Y-51993108D01*
X117118174Y-52000494D01*
X117164624Y-52006745D01*
X117212236Y-52011859D01*
X117261009Y-52015837D01*
X117310943Y-52018678D01*
X117362038Y-52020383D01*
X117414293Y-52020952D01*
X118408857Y-52020952D01*
X118408857Y-49710729D01*
X117421170Y-49710729D01*
X117368472Y-49711297D01*
X117316940Y-49713002D01*
X117266573Y-49715843D01*
X117217370Y-49719820D01*
X117169331Y-49724933D01*
X117122457Y-49731183D01*
X117076746Y-49738569D01*
X117032198Y-49747091D01*
X116988813Y-49756749D01*
X116946590Y-49767544D01*
X116905529Y-49779475D01*
X116865630Y-49792543D01*
X116826892Y-49806747D01*
X116789315Y-49822087D01*
X116752898Y-49838563D01*
X116717641Y-49856176D01*
X116683520Y-49874396D01*
X116650508Y-49893541D01*
X116618607Y-49913611D01*
X116587815Y-49934606D01*
X116558133Y-49956526D01*
X116529562Y-49979370D01*
X116502100Y-50003140D01*
X116475748Y-50027834D01*
X116450506Y-50053454D01*
X116426374Y-50079998D01*
X116403352Y-50107467D01*
X116381440Y-50135861D01*
X116360637Y-50165180D01*
X116340945Y-50195424D01*
X116322363Y-50226593D01*
X116304891Y-50258687D01*
X116288117Y-50291164D01*
X116272422Y-50324328D01*
X116257807Y-50358179D01*
X116244273Y-50392717D01*
X116231819Y-50427942D01*
X116220445Y-50463854D01*
X116210153Y-50500453D01*
X116200943Y-50537740D01*
X116192815Y-50575713D01*
X116185769Y-50614373D01*
X116179807Y-50653721D01*
X116174927Y-50693755D01*
X116171131Y-50734477D01*
X116168419Y-50775886D01*
X116166792Y-50817981D01*
X116166249Y-50860764D01*
X114657598Y-50860764D01*
X114658748Y-50775146D01*
X114662198Y-50690796D01*
X114667949Y-50607714D01*
X114675999Y-50525901D01*
X114686347Y-50445356D01*
X114698995Y-50366079D01*
X114713941Y-50288072D01*
X114731185Y-50211332D01*
X114750726Y-50135861D01*
X114772565Y-50061658D01*
X114796700Y-49988724D01*
X114823131Y-49917059D01*
X114851859Y-49846661D01*
X114882882Y-49777533D01*
X114916201Y-49709672D01*
X114951814Y-49643080D01*
X114989210Y-49577611D01*
X115028670Y-49513966D01*
X115070194Y-49452143D01*
X115113780Y-49392144D01*
X115159428Y-49333969D01*
X115207137Y-49277616D01*
X115256906Y-49223088D01*
X115308736Y-49170382D01*
X115362624Y-49119500D01*
X115418569Y-49070441D01*
X115476573Y-49023206D01*
X115536633Y-48977794D01*
X115598748Y-48934205D01*
X115662919Y-48892440D01*
X115729143Y-48852498D01*
X115797422Y-48814379D01*
X115867687Y-48777925D01*
X115939776Y-48743822D01*
X116013688Y-48712072D01*
X116089423Y-48682674D01*
X116166981Y-48655627D01*
X116246362Y-48630932D01*
X116327566Y-48608590D01*
X116410594Y-48588599D01*
X116495444Y-48570960D01*
X116582118Y-48555672D01*
X116670615Y-48542737D01*
X116760935Y-48532154D01*
X116853078Y-48523922D01*
X116947045Y-48518043D01*
X117042834Y-48514515D01*
X117140447Y-48513339D01*
X119873327Y-48513339D01*
X119873327Y-49710729D01*
X119873327Y-55440612D01*
G37*
%TD.AperFunction*%
%TA.AperFunction,NonConductor*%
G36*
X111216304Y-48419661D02*
G01*
X111309102Y-48422752D01*
X111400629Y-48427905D01*
X111490887Y-48435120D01*
X111579874Y-48444395D01*
X111667593Y-48455732D01*
X111754042Y-48469129D01*
X111839223Y-48484588D01*
X111923136Y-48502108D01*
X112005781Y-48521690D01*
X112087159Y-48543332D01*
X112167269Y-48567036D01*
X112246113Y-48592801D01*
X112323691Y-48620627D01*
X112400003Y-48650515D01*
X112475049Y-48682463D01*
X112548474Y-48716248D01*
X112619921Y-48751645D01*
X112689387Y-48788653D01*
X112756873Y-48827274D01*
X112822378Y-48867506D01*
X112885900Y-48909351D01*
X112947440Y-48952807D01*
X113006996Y-48997876D01*
X113064567Y-49044556D01*
X113120154Y-49092849D01*
X113173754Y-49142753D01*
X113225368Y-49194269D01*
X113274994Y-49247398D01*
X113322631Y-49302138D01*
X113368280Y-49358490D01*
X113411939Y-49416454D01*
X113452919Y-49475846D01*
X113491227Y-49536479D01*
X113526862Y-49598354D01*
X113559824Y-49661471D01*
X113590114Y-49725831D01*
X113617731Y-49791432D01*
X113642675Y-49858275D01*
X113664947Y-49926361D01*
X113684546Y-49995688D01*
X113701472Y-50066257D01*
X113715725Y-50138068D01*
X113727305Y-50211121D01*
X113736213Y-50285416D01*
X113742448Y-50360953D01*
X113746010Y-50437732D01*
X113746900Y-50515753D01*
X113745350Y-50610501D01*
X113739807Y-50702791D01*
X113730270Y-50792624D01*
X113716739Y-50880000D01*
X113699215Y-50964919D01*
X113677697Y-51047380D01*
X113652185Y-51127383D01*
X113622680Y-51204929D01*
X113589182Y-51280017D01*
X113551690Y-51352648D01*
X113510204Y-51422820D01*
X113464724Y-51490535D01*
X113415252Y-51555792D01*
X113361785Y-51618591D01*
X113304325Y-51678933D01*
X113242872Y-51736816D01*
X113178029Y-51792536D01*
X113110303Y-51846380D01*
X113039694Y-51898348D01*
X112966203Y-51948439D01*
X112889830Y-51996654D01*
X112810576Y-52042992D01*
X112728440Y-52087454D01*
X112643423Y-52130039D01*
X112555526Y-52170748D01*
X112464749Y-52209580D01*
X112371092Y-52246536D01*
X112274556Y-52281616D01*
X112175142Y-52314819D01*
X112072848Y-52346145D01*
X111967677Y-52375595D01*
X111859628Y-52403169D01*
X111105302Y-52592584D01*
X111012408Y-52615732D01*
X110923231Y-52639514D01*
X110837769Y-52663931D01*
X110756018Y-52688982D01*
X110677976Y-52714666D01*
X110603639Y-52740984D01*
X110533005Y-52767935D01*
X110466069Y-52795519D01*
X110433581Y-52809659D01*
X110402098Y-52824169D01*
X110371619Y-52839048D01*
X110342145Y-52854297D01*
X110313675Y-52869915D01*
X110286210Y-52885904D01*
X110259750Y-52902262D01*
X110234294Y-52918990D01*
X110209843Y-52936088D01*
X110186396Y-52953556D01*
X110163954Y-52971394D01*
X110142517Y-52989602D01*
X110122084Y-53008180D01*
X110102655Y-53027129D01*
X110084231Y-53046447D01*
X110066812Y-53066135D01*
X110050038Y-53086295D01*
X110034343Y-53107037D01*
X110019728Y-53128361D01*
X110006194Y-53150266D01*
X109993740Y-53172754D01*
X109982366Y-53195823D01*
X109972074Y-53219474D01*
X109962864Y-53243707D01*
X109954736Y-53268521D01*
X109947690Y-53293916D01*
X109941728Y-53319892D01*
X109936848Y-53346449D01*
X109933052Y-53373587D01*
X109930340Y-53401306D01*
X109928713Y-53429605D01*
X109928170Y-53458485D01*
X109928766Y-53489549D01*
X109930551Y-53520164D01*
X109933527Y-53550329D01*
X109937691Y-53580044D01*
X109943045Y-53609310D01*
X109949588Y-53638126D01*
X109957319Y-53666493D01*
X109966237Y-53694411D01*
X109976343Y-53721880D01*
X109987637Y-53748899D01*
X110000117Y-53775469D01*
X110013783Y-53801590D01*
X110028636Y-53827262D01*
X110044674Y-53852485D01*
X110061897Y-53877259D01*
X110080304Y-53901584D01*
X110099841Y-53925354D01*
X110120352Y-53948463D01*
X110141837Y-53970912D01*
X110164297Y-53992701D01*
X110187732Y-54013829D01*
X110212143Y-54034296D01*
X110237530Y-54054103D01*
X110263892Y-54073248D01*
X110291232Y-54091734D01*
X110319548Y-54109558D01*
X110348842Y-54126722D01*
X110379114Y-54143224D01*
X110410364Y-54159066D01*
X110442593Y-54174247D01*
X110475801Y-54188767D01*
X110509988Y-54202626D01*
X110544603Y-54215732D01*
X110579987Y-54227993D01*
X110616140Y-54239408D01*
X110653062Y-54249978D01*
X110690753Y-54259703D01*
X110729213Y-54268582D01*
X110768441Y-54276616D01*
X110808439Y-54283804D01*
X110849206Y-54290147D01*
X110890741Y-54295644D01*
X110976119Y-54304101D01*
X111064573Y-54309176D01*
X111156102Y-54310868D01*
X111203129Y-54310418D01*
X111249552Y-54309071D01*
X111295373Y-54306824D01*
X111340590Y-54303680D01*
X111385203Y-54299637D01*
X111429210Y-54294695D01*
X111472610Y-54288855D01*
X111515404Y-54282117D01*
X111557591Y-54274481D01*
X111599169Y-54265946D01*
X111640137Y-54256514D01*
X111680496Y-54246183D01*
X111720244Y-54234954D01*
X111759381Y-54222827D01*
X111797905Y-54209802D01*
X111835817Y-54195879D01*
X111872561Y-54180645D01*
X111908382Y-54164538D01*
X111943280Y-54147558D01*
X111977253Y-54129706D01*
X112010302Y-54110982D01*
X112042427Y-54091386D01*
X112073628Y-54070918D01*
X112103905Y-54049578D01*
X112133259Y-54027366D01*
X112161688Y-54004282D01*
X112189193Y-53980327D01*
X112215775Y-53955500D01*
X112241432Y-53929801D01*
X112266165Y-53903231D01*
X112289974Y-53875789D01*
X112312860Y-53847476D01*
X112334241Y-53817852D01*
X112354433Y-53787330D01*
X112373434Y-53755909D01*
X112391247Y-53723591D01*
X112407870Y-53690374D01*
X112423304Y-53656259D01*
X112437550Y-53621246D01*
X112450608Y-53585334D01*
X112462479Y-53548523D01*
X112473162Y-53510814D01*
X112482658Y-53472206D01*
X112490969Y-53432700D01*
X112498093Y-53392294D01*
X112504031Y-53350990D01*
X112508785Y-53308786D01*
X112512353Y-53265684D01*
X113929464Y-53265684D01*
X113926096Y-53358190D01*
X113920162Y-53448818D01*
X113911662Y-53537570D01*
X113900595Y-53624445D01*
X113886963Y-53709443D01*
X113870765Y-53792564D01*
X113852002Y-53873809D01*
X113830674Y-53953177D01*
X113806783Y-54030669D01*
X113780327Y-54106284D01*
X113751309Y-54180023D01*
X113719727Y-54251886D01*
X113685582Y-54321872D01*
X113648875Y-54389983D01*
X113609607Y-54456217D01*
X113567777Y-54520576D01*
X113523163Y-54582610D01*
X113476435Y-54642716D01*
X113427592Y-54700892D01*
X113376634Y-54757138D01*
X113323561Y-54811456D01*
X113268374Y-54863844D01*
X113211072Y-54914304D01*
X113151655Y-54962834D01*
X113090124Y-55009435D01*
X113026478Y-55054106D01*
X112960717Y-55096849D01*
X112892842Y-55137662D01*
X112822853Y-55176546D01*
X112750749Y-55213501D01*
X112676531Y-55248527D01*
X112600198Y-55281623D01*
X112521564Y-55312756D01*
X112441237Y-55341879D01*
X112359219Y-55368993D01*
X112275508Y-55394099D01*
X112190106Y-55417195D01*
X112103013Y-55438283D01*
X112014230Y-55457362D01*
X111923756Y-55474432D01*
X111831593Y-55489494D01*
X111737740Y-55502547D01*
X111642198Y-55513592D01*
X111544967Y-55522628D01*
X111446048Y-55529657D01*
X111345441Y-55534677D01*
X111139165Y-55538693D01*
X111034412Y-55537702D01*
X110931589Y-55534729D01*
X110830694Y-55529774D01*
X110731729Y-55522838D01*
X110634695Y-55513919D01*
X110539591Y-55503019D01*
X110446417Y-55490136D01*
X110355175Y-55475272D01*
X110265864Y-55458426D01*
X110178485Y-55439598D01*
X110093039Y-55418788D01*
X110009525Y-55395996D01*
X109927945Y-55371223D01*
X109848298Y-55344467D01*
X109770585Y-55315730D01*
X109694806Y-55285010D01*
X109620659Y-55252072D01*
X109548732Y-55217522D01*
X109479025Y-55181359D01*
X109411538Y-55143584D01*
X109346271Y-55104197D01*
X109283224Y-55063198D01*
X109222397Y-55020587D01*
X109163789Y-54976364D01*
X109107402Y-54930529D01*
X109053235Y-54883082D01*
X109001288Y-54834023D01*
X108951561Y-54783352D01*
X108904054Y-54731069D01*
X108858768Y-54677174D01*
X108815701Y-54621668D01*
X108774854Y-54564550D01*
X108735913Y-54505543D01*
X108699459Y-54445216D01*
X108665491Y-54383567D01*
X108634008Y-54320596D01*
X108605010Y-54256304D01*
X108578497Y-54190690D01*
X108554469Y-54123755D01*
X108532924Y-54055498D01*
X108513863Y-53985920D01*
X108497285Y-53915020D01*
X108483189Y-53842799D01*
X108471577Y-53769257D01*
X108462446Y-53694393D01*
X108455796Y-53618207D01*
X108451628Y-53540700D01*
X108449941Y-53461872D01*
X108450980Y-53408136D01*
X108453204Y-53355167D01*
X108456613Y-53302965D01*
X108461208Y-53251528D01*
X108466988Y-53200858D01*
X108473955Y-53150954D01*
X108482108Y-53101817D01*
X108491449Y-53053445D01*
X108501977Y-53005840D01*
X108513693Y-52959001D01*
X108526598Y-52912928D01*
X108540691Y-52867620D01*
X108555974Y-52823079D01*
X108572446Y-52779304D01*
X108590108Y-52736295D01*
X108608960Y-52694052D01*
X108628497Y-52652539D01*
X108649007Y-52611714D01*
X108670492Y-52571575D01*
X108692951Y-52532123D01*
X108716386Y-52493357D01*
X108740796Y-52455278D01*
X108766182Y-52417887D01*
X108792545Y-52381182D01*
X108819884Y-52345164D01*
X108848201Y-52309834D01*
X108877495Y-52275190D01*
X108907766Y-52241235D01*
X108939017Y-52207966D01*
X108971245Y-52175385D01*
X109004453Y-52143492D01*
X109038640Y-52112286D01*
X109073711Y-52081723D01*
X109109570Y-52051767D01*
X109146219Y-52022420D01*
X109183657Y-51993680D01*
X109221885Y-51965548D01*
X109260905Y-51938024D01*
X109300718Y-51911108D01*
X109341323Y-51884800D01*
X109424916Y-51834008D01*
X109511690Y-51785649D01*
X109601651Y-51739722D01*
X109694806Y-51696228D01*
X109790639Y-51655008D01*
X109888821Y-51615901D01*
X109989348Y-51578907D01*
X110092211Y-51544027D01*
X110197407Y-51511260D01*
X110304928Y-51480606D01*
X110414768Y-51452066D01*
X110526921Y-51425639D01*
X111149224Y-51276811D01*
X111205457Y-51263805D01*
X111260845Y-51250166D01*
X111315390Y-51235894D01*
X111369092Y-51220991D01*
X111421950Y-51205454D01*
X111473964Y-51189285D01*
X111525136Y-51172484D01*
X111575464Y-51155050D01*
X111624627Y-51136075D01*
X111672302Y-51116360D01*
X111718489Y-51095905D01*
X111763187Y-51074709D01*
X111806397Y-51052774D01*
X111848119Y-51030101D01*
X111888353Y-51006690D01*
X111927098Y-50982542D01*
X111945894Y-50969711D01*
X111964182Y-50956589D01*
X111981962Y-50943177D01*
X111999237Y-50929475D01*
X112016007Y-50915482D01*
X112032272Y-50901198D01*
X112048033Y-50886624D01*
X112063291Y-50871759D01*
X112078047Y-50856604D01*
X112092301Y-50841158D01*
X112106054Y-50825421D01*
X112119308Y-50809394D01*
X112132062Y-50793076D01*
X112144318Y-50776468D01*
X112156076Y-50759569D01*
X112167337Y-50742379D01*
X112177547Y-50724859D01*
X112187045Y-50706969D01*
X112195829Y-50688709D01*
X112203900Y-50670079D01*
X112211258Y-50651079D01*
X112217902Y-50631710D01*
X112223834Y-50611970D01*
X112229052Y-50591860D01*
X112233557Y-50571380D01*
X112237350Y-50550530D01*
X112240428Y-50529311D01*
X112242794Y-50507721D01*
X112244447Y-50485761D01*
X112245386Y-50463431D01*
X112245613Y-50440731D01*
X112245126Y-50417661D01*
X112244624Y-50389941D01*
X112243117Y-50362591D01*
X112240605Y-50335610D01*
X112237089Y-50309000D01*
X112232569Y-50282760D01*
X112227043Y-50256889D01*
X112220514Y-50231389D01*
X112212979Y-50206258D01*
X112204440Y-50181497D01*
X112194896Y-50157107D01*
X112184348Y-50133086D01*
X112172795Y-50109435D01*
X112160237Y-50086155D01*
X112146675Y-50063244D01*
X112132108Y-50040703D01*
X112116536Y-50018532D01*
X112099617Y-49996850D01*
X112081797Y-49975776D01*
X112063078Y-49955309D01*
X112043459Y-49935451D01*
X112022939Y-49916200D01*
X112001517Y-49897557D01*
X111979195Y-49879521D01*
X111955970Y-49862094D01*
X111931843Y-49845274D01*
X111906814Y-49829062D01*
X111880881Y-49813458D01*
X111854045Y-49798461D01*
X111826305Y-49784073D01*
X111797660Y-49770292D01*
X111768111Y-49757119D01*
X111737657Y-49744553D01*
X111706362Y-49732266D01*
X111674194Y-49720771D01*
X111641151Y-49710068D01*
X111607236Y-49700159D01*
X111572448Y-49691042D01*
X111536788Y-49682718D01*
X111500255Y-49675187D01*
X111462851Y-49668449D01*
X111424576Y-49662503D01*
X111385430Y-49657350D01*
X111304527Y-49649422D01*
X111220145Y-49644666D01*
X111132287Y-49643080D01*
X111067170Y-49643966D01*
X111003775Y-49646621D01*
X110942102Y-49651048D01*
X110882151Y-49657244D01*
X110823921Y-49665212D01*
X110767411Y-49674949D01*
X110712619Y-49686458D01*
X110659547Y-49699736D01*
X110608191Y-49714786D01*
X110558553Y-49731605D01*
X110510631Y-49750195D01*
X110464424Y-49770556D01*
X110419932Y-49792687D01*
X110377153Y-49816589D01*
X110336088Y-49842261D01*
X110296735Y-49869704D01*
X110259329Y-49898745D01*
X110224007Y-49929214D01*
X110190770Y-49961109D01*
X110159617Y-49994432D01*
X110130550Y-50029181D01*
X110103568Y-50065358D01*
X110078673Y-50102961D01*
X110055863Y-50141992D01*
X110035140Y-50182449D01*
X110016505Y-50224334D01*
X109999957Y-50267645D01*
X109985496Y-50312383D01*
X109973124Y-50358549D01*
X109962841Y-50406141D01*
X109954646Y-50455160D01*
X109948541Y-50505606D01*
X108544664Y-50505606D01*
X108547166Y-50428814D01*
X108552093Y-50353184D01*
X108559447Y-50278717D01*
X108569228Y-50205413D01*
X108581437Y-50133271D01*
X108596074Y-50062293D01*
X108613141Y-49992477D01*
X108632637Y-49923823D01*
X108654565Y-49856333D01*
X108678924Y-49790005D01*
X108705716Y-49724839D01*
X108734941Y-49660837D01*
X108766599Y-49597997D01*
X108800693Y-49536320D01*
X108837222Y-49475806D01*
X108876188Y-49416454D01*
X108917372Y-49358490D01*
X108960561Y-49302138D01*
X109005754Y-49247398D01*
X109052953Y-49194269D01*
X109102157Y-49142753D01*
X109153369Y-49092849D01*
X109206588Y-49044556D01*
X109261816Y-48997876D01*
X109319053Y-48952807D01*
X109378300Y-48909351D01*
X109439558Y-48867506D01*
X109502828Y-48827274D01*
X109568110Y-48788653D01*
X109635404Y-48751645D01*
X109704713Y-48716248D01*
X109776036Y-48682463D01*
X109848639Y-48650515D01*
X109922780Y-48620627D01*
X109998459Y-48592801D01*
X110075676Y-48567036D01*
X110154430Y-48543332D01*
X110234723Y-48521690D01*
X110316554Y-48502108D01*
X110399922Y-48484588D01*
X110484829Y-48469129D01*
X110571273Y-48455732D01*
X110659255Y-48444395D01*
X110748775Y-48435120D01*
X110839834Y-48427905D01*
X110932430Y-48422752D01*
X111026564Y-48419661D01*
X111122236Y-48418630D01*
X111216304Y-48419661D01*
G37*
%TD.AperFunction*%
%TA.AperFunction,NonConductor*%
G36*
X166571613Y-55440612D02*
G01*
X165002154Y-55440612D01*
X164488277Y-53860997D01*
X161987120Y-53860997D01*
X161474240Y-55440612D01*
X159904784Y-55440612D01*
X160843436Y-52717732D01*
X162358322Y-52717732D01*
X164116352Y-52717732D01*
X163263564Y-50096330D01*
X163209456Y-50096330D01*
X162358322Y-52717732D01*
X160843436Y-52717732D01*
X162292807Y-48513339D01*
X164180215Y-48513339D01*
X165631635Y-52717732D01*
X166571613Y-55440612D01*
G37*
%TD.AperFunction*%
D11*
%TA.AperFunction,Conductor*%
G36*
X142461590Y-48420269D02*
G01*
X142573607Y-48425184D01*
X142684197Y-48433376D01*
X142793360Y-48444844D01*
X142901098Y-48459590D01*
X143007408Y-48477612D01*
X143112292Y-48498911D01*
X143215749Y-48523486D01*
X143317778Y-48551339D01*
X143418382Y-48582468D01*
X143517557Y-48616874D01*
X143615306Y-48654556D01*
X143711628Y-48695516D01*
X143806522Y-48739752D01*
X143899989Y-48787264D01*
X143992028Y-48838054D01*
X144082165Y-48891539D01*
X144169924Y-48947984D01*
X144255304Y-49007389D01*
X144338307Y-49069753D01*
X144418930Y-49135077D01*
X144497176Y-49203360D01*
X144573043Y-49274604D01*
X144646532Y-49348806D01*
X144717642Y-49425969D01*
X144786374Y-49506091D01*
X144852727Y-49589172D01*
X144916702Y-49675214D01*
X144978298Y-49764215D01*
X145037515Y-49856175D01*
X145094354Y-49951095D01*
X145148814Y-50048975D01*
X145200425Y-50149656D01*
X145248705Y-50252980D01*
X145293655Y-50358946D01*
X145335276Y-50467555D01*
X145373567Y-50578806D01*
X145408528Y-50692700D01*
X145440159Y-50809237D01*
X145468460Y-50928416D01*
X145493432Y-51050238D01*
X145515074Y-51174702D01*
X145533387Y-51301809D01*
X145548370Y-51431558D01*
X145560023Y-51563949D01*
X145568347Y-51698983D01*
X145573341Y-51836659D01*
X145575006Y-51976978D01*
X145573367Y-52116888D01*
X145568452Y-52254181D01*
X145560260Y-52388859D01*
X145548792Y-52520920D01*
X145534046Y-52650365D01*
X145516024Y-52777193D01*
X145494725Y-52901405D01*
X145470150Y-53023001D01*
X145442298Y-53141981D01*
X145411169Y-53258345D01*
X145376763Y-53372092D01*
X145339081Y-53483223D01*
X145298122Y-53591737D01*
X145253887Y-53697636D01*
X145206374Y-53800918D01*
X145155585Y-53901584D01*
X145101547Y-53999479D01*
X145045130Y-54094441D01*
X144986335Y-54186470D01*
X144925161Y-54275564D01*
X144861608Y-54361725D01*
X144795676Y-54444953D01*
X144727366Y-54525247D01*
X144656678Y-54602607D01*
X144583611Y-54677034D01*
X144508166Y-54748527D01*
X144430342Y-54817087D01*
X144350140Y-54882714D01*
X144267560Y-54945408D01*
X144182601Y-55005168D01*
X144095265Y-55061995D01*
X144005550Y-55115888D01*
X143913457Y-55166678D01*
X143819832Y-55214191D01*
X143724674Y-55258427D01*
X143627983Y-55299388D01*
X143529759Y-55337072D01*
X143430002Y-55371479D01*
X143328713Y-55402610D01*
X143225892Y-55430465D01*
X143121537Y-55455043D01*
X143015650Y-55476344D01*
X142908231Y-55494368D01*
X142799279Y-55509115D01*
X142688795Y-55520585D01*
X142576778Y-55528778D01*
X142463229Y-55533694D01*
X142348148Y-55535333D01*
X142265395Y-55534553D01*
X142183727Y-55532213D01*
X142103142Y-55528315D01*
X142023641Y-55522857D01*
X141945224Y-55515839D01*
X141867890Y-55507263D01*
X141791640Y-55497127D01*
X141716473Y-55485432D01*
X141642390Y-55472178D01*
X141569390Y-55457366D01*
X141497473Y-55440994D01*
X141426639Y-55423064D01*
X141356888Y-55403575D01*
X141288221Y-55382528D01*
X141220636Y-55359922D01*
X141154134Y-55335758D01*
X141088334Y-55309833D01*
X141023697Y-55282798D01*
X140960223Y-55254654D01*
X140897913Y-55225401D01*
X140836766Y-55195038D01*
X140776783Y-55163565D01*
X140717963Y-55130983D01*
X140660307Y-55097292D01*
X140603815Y-55062490D01*
X140548486Y-55026579D01*
X140494321Y-54989558D01*
X140441319Y-54951427D01*
X140389482Y-54912186D01*
X140338808Y-54871836D01*
X140289298Y-54830375D01*
X140240953Y-54787805D01*
X140193355Y-54743896D01*
X140147004Y-54699275D01*
X140101899Y-54653940D01*
X140058039Y-54607892D01*
X140015423Y-54561131D01*
X139974053Y-54513656D01*
X139933926Y-54465469D01*
X139895043Y-54416568D01*
X139857403Y-54366955D01*
X139821006Y-54316628D01*
X139785852Y-54265588D01*
X139751940Y-54213835D01*
X139719270Y-54161368D01*
X139687841Y-54108189D01*
X139657653Y-54054297D01*
X139628705Y-53999691D01*
X139600608Y-53944170D01*
X139573862Y-53888385D01*
X139548467Y-53832336D01*
X139524423Y-53776022D01*
X139501729Y-53719444D01*
X139480385Y-53662603D01*
X139460391Y-53605497D01*
X139441745Y-53548127D01*
X139424449Y-53490492D01*
X139408500Y-53432594D01*
X139393900Y-53374431D01*
X139380647Y-53316004D01*
X139368742Y-53257314D01*
X139358183Y-53198358D01*
X139348970Y-53139139D01*
X139341104Y-53079655D01*
X140822665Y-53072882D01*
X140829323Y-53107316D01*
X140836614Y-53141275D01*
X140844540Y-53174757D01*
X140853101Y-53207764D01*
X140862295Y-53240296D01*
X140872125Y-53272351D01*
X140882588Y-53303931D01*
X140893686Y-53335034D01*
X140905418Y-53365662D01*
X140917785Y-53395814D01*
X140930786Y-53425490D01*
X140944422Y-53454689D01*
X140958691Y-53483413D01*
X140973596Y-53511661D01*
X140989134Y-53539432D01*
X141005307Y-53566727D01*
X141021640Y-53593538D01*
X141038501Y-53619846D01*
X141055890Y-53645652D01*
X141073807Y-53670956D01*
X141092253Y-53695758D01*
X141111228Y-53720057D01*
X141130730Y-53743854D01*
X141150761Y-53767149D01*
X141171321Y-53789941D01*
X141192408Y-53812231D01*
X141214024Y-53834019D01*
X141236169Y-53855305D01*
X141258842Y-53876088D01*
X141282043Y-53896369D01*
X141305772Y-53916147D01*
X141330030Y-53935424D01*
X141354777Y-53953750D01*
X141379973Y-53971521D01*
X141405619Y-53988737D01*
X141431714Y-54005398D01*
X141458259Y-54021504D01*
X141485253Y-54037054D01*
X141512696Y-54052050D01*
X141540589Y-54066491D01*
X141568930Y-54080377D01*
X141597722Y-54093708D01*
X141626962Y-54106484D01*
X141656651Y-54118705D01*
X141686790Y-54130371D01*
X141717378Y-54141482D01*
X141748415Y-54152038D01*
X141779901Y-54162039D01*
X141843164Y-54180271D01*
X141907799Y-54196071D01*
X141973808Y-54209441D01*
X142041190Y-54220380D01*
X142109946Y-54228888D01*
X142180077Y-54234965D01*
X142251584Y-54238611D01*
X142324466Y-54239827D01*
X142389511Y-54238823D01*
X142453580Y-54235811D01*
X142516670Y-54230791D01*
X142578784Y-54223763D01*
X142639919Y-54214727D01*
X142700078Y-54203682D01*
X142759258Y-54190630D01*
X142817461Y-54175569D01*
X142874687Y-54158500D01*
X142930935Y-54139423D01*
X142986205Y-54118338D01*
X143040497Y-54095244D01*
X143093811Y-54070142D01*
X143146148Y-54043031D01*
X143197507Y-54013912D01*
X143247888Y-53982784D01*
X143297088Y-53949683D01*
X143344915Y-53914653D01*
X143391369Y-53877694D01*
X143436448Y-53838807D01*
X143480154Y-53797991D01*
X143522486Y-53755247D01*
X143563444Y-53710573D01*
X143603029Y-53663971D01*
X143641240Y-53615440D01*
X143678076Y-53564980D01*
X143713539Y-53512591D01*
X143747628Y-53458273D01*
X143780343Y-53402026D01*
X143811683Y-53343850D01*
X143841650Y-53283744D01*
X143870242Y-53221710D01*
X143896867Y-53157787D01*
X143921774Y-53092014D01*
X143944964Y-53024392D01*
X143966435Y-52954920D01*
X143986189Y-52883599D01*
X144004225Y-52810428D01*
X144020544Y-52735408D01*
X144035145Y-52658538D01*
X144048027Y-52579818D01*
X144059193Y-52499248D01*
X144068640Y-52416829D01*
X144076370Y-52332559D01*
X144082382Y-52246439D01*
X144086677Y-52158469D01*
X144090112Y-51976978D01*
X144089253Y-51887763D01*
X144086677Y-51800239D01*
X144082382Y-51714408D01*
X144076370Y-51630268D01*
X144068640Y-51547819D01*
X144059193Y-51467062D01*
X144048027Y-51387997D01*
X144035145Y-51310623D01*
X144020544Y-51234941D01*
X144004225Y-51160950D01*
X143986189Y-51088651D01*
X143966435Y-51018043D01*
X143944964Y-50949127D01*
X143921774Y-50881902D01*
X143896867Y-50816368D01*
X143870242Y-50752526D01*
X143842063Y-50690056D01*
X143812482Y-50629489D01*
X143781500Y-50570825D01*
X143749117Y-50514063D01*
X143715333Y-50459203D01*
X143680148Y-50406247D01*
X143643562Y-50355193D01*
X143605576Y-50306042D01*
X143566189Y-50258793D01*
X143525402Y-50213447D01*
X143483214Y-50170004D01*
X143439626Y-50128463D01*
X143394638Y-50088825D01*
X143348250Y-50051089D01*
X143300463Y-50015256D01*
X143251275Y-49981326D01*
X143200842Y-49948968D01*
X143149324Y-49918698D01*
X143096724Y-49890515D01*
X143043040Y-49864419D01*
X142988273Y-49840412D01*
X142932422Y-49818492D01*
X142875488Y-49798659D01*
X142817471Y-49780914D01*
X142758370Y-49765257D01*
X142698186Y-49751688D01*
X142636919Y-49740206D01*
X142574569Y-49730812D01*
X142511135Y-49723505D01*
X142446618Y-49718286D01*
X142381018Y-49715154D01*
X142314334Y-49714110D01*
X142240607Y-49715432D01*
X142168254Y-49719396D01*
X142097275Y-49726002D01*
X142027670Y-49735252D01*
X141993383Y-49740867D01*
X141959439Y-49747143D01*
X141925840Y-49754080D01*
X141892583Y-49761678D01*
X141859671Y-49769936D01*
X141827101Y-49778855D01*
X141794876Y-49788434D01*
X141762994Y-49798674D01*
X141731095Y-49809534D01*
X141699672Y-49820976D01*
X141668726Y-49833000D01*
X141638255Y-49845604D01*
X141608261Y-49858790D01*
X141578743Y-49872558D01*
X141549700Y-49886907D01*
X141521134Y-49901837D01*
X141493044Y-49917349D01*
X141465429Y-49933442D01*
X141438291Y-49950117D01*
X141411628Y-49967373D01*
X141385442Y-49985210D01*
X141359730Y-50003628D01*
X141334495Y-50022628D01*
X141309735Y-50042210D01*
X141285491Y-50062346D01*
X141261801Y-50083011D01*
X141238666Y-50104204D01*
X141216085Y-50125926D01*
X141194058Y-50148176D01*
X141172587Y-50170954D01*
X141151670Y-50194262D01*
X141131308Y-50218097D01*
X141111501Y-50242462D01*
X141092249Y-50267354D01*
X141073552Y-50292776D01*
X141055411Y-50318726D01*
X141037825Y-50345204D01*
X141020794Y-50372211D01*
X141004318Y-50399747D01*
X140988399Y-50427811D01*
X140973087Y-50455967D01*
X140958435Y-50484625D01*
X140944443Y-50513786D01*
X140931111Y-50543448D01*
X140918440Y-50573613D01*
X140906429Y-50604280D01*
X140895078Y-50635448D01*
X140884388Y-50667119D01*
X140874359Y-50699292D01*
X140864991Y-50731967D01*
X140856284Y-50765144D01*
X140848238Y-50798824D01*
X140840852Y-50833005D01*
X140834129Y-50867689D01*
X140828066Y-50902874D01*
X140822665Y-50938562D01*
X139341104Y-50938562D01*
X139350697Y-50863831D01*
X139361717Y-50790157D01*
X139374163Y-50717539D01*
X139388035Y-50645979D01*
X139403333Y-50575476D01*
X139420058Y-50506030D01*
X139438209Y-50437641D01*
X139457786Y-50370309D01*
X139478789Y-50304033D01*
X139501219Y-50238815D01*
X139525075Y-50174654D01*
X139550357Y-50111550D01*
X139577065Y-50049503D01*
X139605200Y-49988513D01*
X139634761Y-49928580D01*
X139665748Y-49869704D01*
X139697631Y-49811925D01*
X139730675Y-49755282D01*
X139764878Y-49699775D01*
X139800243Y-49645405D01*
X139836769Y-49592171D01*
X139874456Y-49540073D01*
X139913305Y-49489111D01*
X139953317Y-49439286D01*
X139994491Y-49390598D01*
X140036828Y-49343045D01*
X140080329Y-49296629D01*
X140124994Y-49251349D01*
X140170823Y-49207206D01*
X140217816Y-49164198D01*
X140265975Y-49122327D01*
X140315299Y-49081592D01*
X140365649Y-49041611D01*
X140416925Y-49002845D01*
X140469127Y-48965294D01*
X140522254Y-48928959D01*
X140576306Y-48893840D01*
X140631283Y-48859936D01*
X140687186Y-48827248D01*
X140744014Y-48795775D01*
X140801766Y-48765518D01*
X140860444Y-48736476D01*
X140920046Y-48708650D01*
X140980572Y-48682039D01*
X141042023Y-48656644D01*
X141104398Y-48632465D01*
X141167698Y-48609501D01*
X141231921Y-48587753D01*
X141361834Y-48548115D01*
X141494494Y-48513762D01*
X141629902Y-48484694D01*
X141768058Y-48460911D01*
X141908960Y-48442413D01*
X142052609Y-48429200D01*
X142199005Y-48421273D01*
X142348148Y-48418630D01*
X142461590Y-48420269D01*
G37*
%TD.AperFunction*%
%TD*%
D12*
%TO.P,D3,1,K*%
%TO.N,GND*%
X156289300Y-96856700D03*
D13*
%TO.P,D3,2,A*%
%TO.N,Net-(D3-A)*%
X154656620Y-94910946D03*
%TD*%
D14*
%TO.P,D5,1,K*%
%TO.N,GND*%
X152572300Y-56816700D03*
D13*
%TO.P,D5,2,A*%
%TO.N,Net-(D5-A)*%
X155112300Y-56816701D03*
%TD*%
D15*
%TO.P,D2,1,K*%
%TO.N,GND*%
X135074600Y-92375800D03*
D13*
%TO.P,D2,2,A*%
%TO.N,Net-(D2-A)*%
X133804599Y-94575504D03*
%TD*%
D16*
%TO.P,D1,1,K*%
%TO.N,GND*%
X175522300Y-38191700D03*
D13*
%TO.P,D1,2,A*%
%TO.N,Net-(D1-A)*%
X173322596Y-36921699D03*
%TD*%
D17*
%TO.P,R4,1*%
%TO.N,VCC*%
X157002341Y-126951708D03*
D18*
%TO.P,R4,2*%
%TO.N,Net-(D4-A)*%
X157002341Y-116791708D03*
%TD*%
D17*
%TO.P,R2,1*%
%TO.N,VCC*%
X167162341Y-126951708D03*
D18*
%TO.P,R2,2*%
%TO.N,Net-(D5-A)*%
X167162341Y-116791708D03*
%TD*%
D14*
%TO.P,D6,1,K*%
%TO.N,GND*%
X136262300Y-143891700D03*
D13*
%TO.P,D6,2,A*%
%TO.N,Net-(D6-A)*%
X133722300Y-143891701D03*
%TD*%
D17*
%TO.P,R6,1*%
%TO.N,VCC*%
X146842341Y-126951708D03*
D18*
%TO.P,R6,2*%
%TO.N,Net-(D6-A)*%
X146842341Y-116791708D03*
%TD*%
D17*
%TO.P,R5,1*%
%TO.N,VCC*%
X151922341Y-126951708D03*
D18*
%TO.P,R5,2*%
%TO.N,Net-(D2-A)*%
X151922341Y-116791708D03*
%TD*%
D14*
%TO.P,D4,1,K*%
%TO.N,GND*%
X95547300Y-46266700D03*
D13*
%TO.P,D4,2,A*%
%TO.N,Net-(D4-A)*%
X93007300Y-46266701D03*
%TD*%
D19*
%TO.P,BT3,1,1*%
%TO.N,VCC*%
X168350000Y-144000000D03*
X145650000Y-144000000D03*
D20*
%TO.P,BT3,2,2*%
%TO.N,GND*%
X157000000Y-144000000D03*
%TD*%
D17*
%TO.P,R1,1*%
%TO.N,VCC*%
X172242341Y-126951708D03*
D18*
%TO.P,R1,2*%
%TO.N,Net-(D1-A)*%
X172242341Y-116791708D03*
%TD*%
D19*
%TO.P,BT1,1,1*%
%TO.N,VCC*%
X126072300Y-143991700D03*
X103372300Y-143991700D03*
D20*
%TO.P,BT1,2,2*%
%TO.N,GND*%
X114722300Y-143991700D03*
%TD*%
D17*
%TO.P,R3,1*%
%TO.N,VCC*%
X162082341Y-126951708D03*
D18*
%TO.P,R3,2*%
%TO.N,Net-(D3-A)*%
X162082341Y-116791708D03*
%TD*%
D21*
%TO.N,VCC*%
X149402333Y-126951708D02*
X149382341Y-126971700D01*
X123982341Y-134571708D02*
X106202341Y-134571708D01*
X145650000Y-144000000D02*
X142378292Y-147271708D01*
X172242341Y-126951708D02*
X167670341Y-126951708D01*
X153934349Y-126971700D02*
X153954341Y-126951708D01*
X158526341Y-126951708D02*
X153954341Y-126951708D01*
X149382341Y-126971700D02*
X153934349Y-126971700D01*
X163098341Y-126951708D02*
X158526341Y-126951708D01*
X145650000Y-128144049D02*
X145650000Y-144000000D01*
X126072300Y-143991700D02*
X126522341Y-143541659D01*
X149362349Y-126951708D02*
X146842341Y-126951708D01*
X172242341Y-142191708D02*
X170434049Y-144000000D01*
X172242341Y-132031708D02*
X172242341Y-142191708D01*
X146842341Y-126951708D02*
X145650000Y-128144049D01*
X126522341Y-143541659D02*
X126522341Y-137111708D01*
X106202341Y-134571708D02*
X103372300Y-137401749D01*
X103372300Y-137401749D02*
X103372300Y-143991700D01*
X142378292Y-147271708D02*
X129352308Y-147271708D01*
X149382341Y-126971700D02*
X149362349Y-126951708D01*
X129352308Y-147271708D02*
X126072300Y-143991700D01*
X170434049Y-144000000D02*
X168350000Y-144000000D01*
X172242341Y-126951708D02*
X172242341Y-132031708D01*
X167670341Y-126951708D02*
X163098341Y-126951708D01*
X126522341Y-137111708D02*
X123982341Y-134571708D01*
D22*
%TO.N,GND*%
X175522300Y-38191700D02*
X175522300Y-37152469D01*
X153650000Y-140650000D02*
X157000000Y-144000000D01*
D21*
%TO.N,Net-(D6-A)*%
X133722300Y-122291749D02*
X133722300Y-143891701D01*
X146842341Y-116791708D02*
X139222341Y-116791708D01*
X139222341Y-116791708D02*
X133722300Y-122291749D01*
%TO.N,Net-(D2-A)*%
X151922341Y-114251708D02*
X151922341Y-116791708D01*
X133804599Y-96133966D02*
X151922341Y-114251708D01*
X133804599Y-94575504D02*
X133804599Y-96133966D01*
%TO.N,Net-(D1-A)*%
X172242341Y-116791708D02*
X174782341Y-114251708D01*
X174782341Y-114251708D02*
X174782341Y-40591708D01*
X173322596Y-39131963D02*
X173322596Y-36921699D01*
X174782341Y-40591708D02*
X173322596Y-39131963D01*
%TO.N,Net-(D3-A)*%
X162082341Y-106631708D02*
X162082341Y-116791708D01*
X153756620Y-95810946D02*
X153756620Y-98305987D01*
X154656620Y-94910946D02*
X153756620Y-95810946D01*
X153756620Y-98305987D02*
X162082341Y-106631708D01*
%TO.N,Net-(D4-A)*%
X134142341Y-65991708D02*
X134142341Y-83771708D01*
X101122341Y-60911708D02*
X129062341Y-60911708D01*
X93007300Y-52796667D02*
X101122341Y-60911708D01*
X93007300Y-46266701D02*
X93007300Y-52796667D01*
X129062341Y-60911708D02*
X134142341Y-65991708D01*
X134142341Y-83771708D02*
X157002341Y-106631708D01*
X157002341Y-106631708D02*
X157002341Y-116791708D01*
%TO.N,Net-(D5-A)*%
X156667307Y-58371708D02*
X155112300Y-56816701D01*
X171542341Y-60211708D02*
X169702341Y-58371708D01*
X169702341Y-58371708D02*
X156667307Y-58371708D01*
X167162341Y-116791708D02*
X171542341Y-112411708D01*
X171542341Y-112411708D02*
X171542341Y-60211708D01*
%TD*%
%TA.AperFunction,Conductor*%
%TO.N,GND*%
G36*
X104868443Y-21616024D02*
G01*
X104890520Y-21619892D01*
X105049108Y-21662762D01*
X105064363Y-21667972D01*
X105304643Y-21767947D01*
X105314487Y-21772562D01*
X105553559Y-21897732D01*
X105639502Y-21942729D01*
X105645821Y-21946277D01*
X106059365Y-22194603D01*
X106063444Y-22197161D01*
X106571807Y-22529936D01*
X106574473Y-22531731D01*
X107184509Y-22954050D01*
X107186851Y-22955712D01*
X108761677Y-24101924D01*
X108763065Y-24102952D01*
X110868009Y-25685941D01*
X110872546Y-25689353D01*
X110873098Y-25689771D01*
X113609854Y-27774527D01*
X113609910Y-27774604D01*
X113609927Y-27774583D01*
X121844505Y-34057094D01*
X121862769Y-34071028D01*
X121875236Y-34081931D01*
X121892272Y-34098967D01*
X121914642Y-34111882D01*
X121927840Y-34120673D01*
X121948386Y-34136349D01*
X121970675Y-34145509D01*
X121985526Y-34152807D01*
X122006400Y-34164859D01*
X122031355Y-34171545D01*
X122046383Y-34176623D01*
X122070278Y-34186444D01*
X122094179Y-34189523D01*
X122110419Y-34192730D01*
X122133694Y-34198967D01*
X122159522Y-34198967D01*
X122175367Y-34199983D01*
X122200981Y-34203284D01*
X122224860Y-34200072D01*
X122241385Y-34198967D01*
X147796468Y-34198967D01*
X147796710Y-34198982D01*
X147804731Y-34198980D01*
X147804734Y-34198981D01*
X147870343Y-34198967D01*
X147936411Y-34198967D01*
X147944985Y-34198967D01*
X147945222Y-34198950D01*
X155856642Y-34197262D01*
X155857809Y-34197339D01*
X155865212Y-34197329D01*
X155865214Y-34197330D01*
X155930714Y-34197246D01*
X155930914Y-34197246D01*
X155930914Y-34197249D01*
X155931014Y-34197245D01*
X155996473Y-34197233D01*
X155996475Y-34197232D01*
X156004006Y-34197231D01*
X156005172Y-34197152D01*
X162035646Y-34189532D01*
X162037602Y-34189658D01*
X162044595Y-34189636D01*
X162044596Y-34189637D01*
X162109801Y-34189439D01*
X162110022Y-34189503D01*
X162110022Y-34189439D01*
X162175503Y-34189357D01*
X162175503Y-34189356D01*
X162182457Y-34189348D01*
X162184413Y-34189215D01*
X164499064Y-34182235D01*
X164501278Y-34182373D01*
X164508094Y-34182338D01*
X164508095Y-34182339D01*
X164573393Y-34182012D01*
X164613532Y-34181891D01*
X164645702Y-34181795D01*
X164647928Y-34181639D01*
X166586837Y-34171943D01*
X166590171Y-34172140D01*
X166596290Y-34172091D01*
X166596294Y-34172092D01*
X166661460Y-34171570D01*
X166685995Y-34171447D01*
X166732721Y-34171215D01*
X166736051Y-34170973D01*
X168330827Y-34158214D01*
X168335844Y-34158491D01*
X168340979Y-34158426D01*
X168340981Y-34158427D01*
X168405328Y-34157619D01*
X168405787Y-34157614D01*
X168470481Y-34157097D01*
X168470483Y-34157096D01*
X168475631Y-34157055D01*
X168480664Y-34156673D01*
X169762823Y-34140583D01*
X169770471Y-34140961D01*
X169774122Y-34140889D01*
X169774124Y-34140890D01*
X169838015Y-34139641D01*
X169838463Y-34139634D01*
X169902393Y-34138832D01*
X169902393Y-34138831D01*
X169906048Y-34138786D01*
X169913662Y-34138163D01*
X170914807Y-34118600D01*
X170926638Y-34119078D01*
X170928020Y-34119035D01*
X170928021Y-34119036D01*
X170990601Y-34117124D01*
X170991805Y-34117094D01*
X171029440Y-34116359D01*
X171055664Y-34115848D01*
X171067420Y-34114780D01*
X171819001Y-34091835D01*
X171832411Y-34092220D01*
X171832969Y-34092195D01*
X171832970Y-34092196D01*
X171895076Y-34089520D01*
X171896356Y-34089473D01*
X171958396Y-34087580D01*
X171958398Y-34087579D01*
X171958968Y-34087562D01*
X171972299Y-34086193D01*
X172190816Y-34076781D01*
X172203106Y-34076987D01*
X172204254Y-34076924D01*
X172204257Y-34076925D01*
X172266486Y-34073529D01*
X172267882Y-34073461D01*
X172330158Y-34070780D01*
X172330161Y-34070778D01*
X172331297Y-34070730D01*
X172343523Y-34069327D01*
X172511503Y-34060164D01*
X172525859Y-34060214D01*
X172526720Y-34060266D01*
X172526729Y-34060268D01*
X172587886Y-34056009D01*
X172589503Y-34055908D01*
X172650756Y-34052568D01*
X172650762Y-34052565D01*
X172651599Y-34052409D01*
X172665855Y-34050582D01*
X172787195Y-34042133D01*
X172800950Y-34041940D01*
X172805031Y-34042108D01*
X172805038Y-34042110D01*
X172864517Y-34036772D01*
X172866829Y-34036588D01*
X172926433Y-34032439D01*
X172926441Y-34032436D01*
X172930447Y-34031623D01*
X172944061Y-34029635D01*
X173022816Y-34022569D01*
X173036039Y-34022938D01*
X173036051Y-34022140D01*
X173044180Y-34022257D01*
X173044180Y-34022256D01*
X173044181Y-34022257D01*
X173101235Y-34015578D01*
X173104554Y-34015235D01*
X173161798Y-34010099D01*
X173161801Y-34010098D01*
X173169732Y-34008321D01*
X173169910Y-34009119D01*
X173182773Y-34006033D01*
X173226403Y-34000926D01*
X173241577Y-34000864D01*
X173241569Y-34000508D01*
X173249687Y-34000322D01*
X173249694Y-34000323D01*
X173258409Y-33998971D01*
X173303337Y-33992008D01*
X173307841Y-33991394D01*
X173361779Y-33985082D01*
X173361791Y-33985077D01*
X173369662Y-33983090D01*
X173369749Y-33983436D01*
X173384387Y-33979445D01*
X173388798Y-33978761D01*
X173401785Y-33976749D01*
X173427687Y-33975479D01*
X173427919Y-33975492D01*
X173476461Y-33965343D01*
X173482787Y-33964193D01*
X173531777Y-33956601D01*
X173531777Y-33956600D01*
X173531782Y-33956600D01*
X173539582Y-33954318D01*
X173539742Y-33954866D01*
X173579403Y-33946113D01*
X173586266Y-33945984D01*
X173627198Y-33934183D01*
X173636143Y-33931963D01*
X173644359Y-33930245D01*
X173677853Y-33923244D01*
X173680519Y-33921896D01*
X173720892Y-33909546D01*
X173733074Y-33908006D01*
X173763151Y-33895726D01*
X173775650Y-33891388D01*
X173806858Y-33882392D01*
X173819306Y-33874888D01*
X173849569Y-33861768D01*
X173875436Y-33854454D01*
X173891782Y-33844712D01*
X173908386Y-33836433D01*
X173926011Y-33829239D01*
X173950610Y-33810560D01*
X173962107Y-33802806D01*
X173965565Y-33800745D01*
X173972947Y-33796682D01*
X174012694Y-33776540D01*
X174016635Y-33773006D01*
X174035929Y-33758816D01*
X174040477Y-33756107D01*
X174071554Y-33724160D01*
X174077650Y-33718308D01*
X174086410Y-33710454D01*
X174091272Y-33706316D01*
X174130000Y-33675054D01*
X174130024Y-33675019D01*
X174147473Y-33655713D01*
X174147497Y-33655693D01*
X174165422Y-33628220D01*
X174181816Y-33608075D01*
X174189501Y-33600431D01*
X174206330Y-33571457D01*
X174213349Y-33560698D01*
X174215220Y-33558130D01*
X174233084Y-33533622D01*
X174238983Y-33518320D01*
X174247457Y-33500649D01*
X174253218Y-33490730D01*
X174263934Y-33472281D01*
X174273321Y-33459592D01*
X174273139Y-33459463D01*
X174277839Y-33452832D01*
X174277838Y-33452832D01*
X174277842Y-33452829D01*
X174302726Y-33405696D01*
X174305136Y-33401348D01*
X174324079Y-33368735D01*
X174331892Y-33355284D01*
X174331893Y-33355281D01*
X174335024Y-33347779D01*
X174335230Y-33347865D01*
X174341011Y-33333182D01*
X174396951Y-33227228D01*
X174403990Y-33215509D01*
X174406569Y-33211704D01*
X174406578Y-33211695D01*
X174433266Y-33158498D01*
X174434343Y-33156406D01*
X174462138Y-33103764D01*
X174462140Y-33103751D01*
X174463740Y-33099438D01*
X174469179Y-33086918D01*
X174762963Y-32501364D01*
X174769748Y-32489630D01*
X174769965Y-32489181D01*
X174769969Y-32489178D01*
X174797122Y-32433298D01*
X174797725Y-32432080D01*
X174800541Y-32426468D01*
X174825508Y-32376707D01*
X174825508Y-32376704D01*
X174825727Y-32376269D01*
X174830915Y-32363759D01*
X175236485Y-31529171D01*
X175241041Y-31521097D01*
X175242225Y-31518605D01*
X175242227Y-31518604D01*
X175269411Y-31461424D01*
X175269756Y-31460706D01*
X175297466Y-31403686D01*
X175297467Y-31403680D01*
X175298674Y-31401197D01*
X175302133Y-31392597D01*
X175799161Y-30347177D01*
X176062261Y-29800708D01*
X176062930Y-29799344D01*
X176306506Y-29311844D01*
X176307575Y-29309757D01*
X176534719Y-28877225D01*
X176536240Y-28874421D01*
X176749030Y-28494593D01*
X176751246Y-28490801D01*
X176807388Y-28398452D01*
X176953705Y-28157772D01*
X176955830Y-28154404D01*
X177050267Y-28010090D01*
X177051943Y-28007600D01*
X177145648Y-27872143D01*
X177147642Y-27869348D01*
X177238995Y-27745092D01*
X177241330Y-27742019D01*
X177330596Y-27628402D01*
X177333248Y-27625147D01*
X177420531Y-27521778D01*
X177423653Y-27518223D01*
X177509148Y-27424549D01*
X177512677Y-27420841D01*
X177596755Y-27336112D01*
X177600697Y-27332315D01*
X177683671Y-27255857D01*
X177688049Y-27252009D01*
X177770408Y-27183023D01*
X177775144Y-27179250D01*
X177857447Y-27116946D01*
X177862534Y-27113295D01*
X177945506Y-27056856D01*
X177950778Y-27053464D01*
X178035293Y-27002098D01*
X178040681Y-26999008D01*
X178127577Y-26952080D01*
X178133023Y-26949312D01*
X178223150Y-26906288D01*
X178228529Y-26903876D01*
X178322922Y-26864242D01*
X178328068Y-26862217D01*
X178427545Y-26825648D01*
X178432439Y-26823965D01*
X178537750Y-26790206D01*
X178542194Y-26788875D01*
X178649338Y-26759026D01*
X178655358Y-26757512D01*
X178906344Y-26701040D01*
X178912874Y-26699756D01*
X179185644Y-26653673D01*
X179191941Y-26652775D01*
X179272426Y-26643414D01*
X179277255Y-26642949D01*
X179363337Y-26636399D01*
X179368018Y-26636132D01*
X179456328Y-26632782D01*
X179460779Y-26632694D01*
X179551039Y-26632555D01*
X179555330Y-26632623D01*
X179647310Y-26635692D01*
X179651362Y-26635896D01*
X179739685Y-26641816D01*
X179745619Y-26642357D01*
X179939821Y-26664818D01*
X179947302Y-26665917D01*
X180137729Y-26699874D01*
X180144858Y-26701364D01*
X180286633Y-26735362D01*
X180334101Y-26746745D01*
X180340997Y-26748609D01*
X180526610Y-26804604D01*
X180533335Y-26806846D01*
X180712748Y-26872443D01*
X180719463Y-26875124D01*
X180866154Y-26938736D01*
X180890174Y-26949152D01*
X180897026Y-26952375D01*
X180991676Y-27000483D01*
X181056530Y-27033446D01*
X181063589Y-27037327D01*
X181204876Y-27121112D01*
X181214387Y-27126752D01*
X181219876Y-27130205D01*
X181252098Y-27151667D01*
X181282558Y-27171955D01*
X181286343Y-27174579D01*
X181349144Y-27219863D01*
X181353024Y-27222779D01*
X181376488Y-27241138D01*
X181411251Y-27268338D01*
X181415250Y-27271603D01*
X181468641Y-27317085D01*
X181472752Y-27320747D01*
X181521076Y-27365764D01*
X181525289Y-27369881D01*
X181568336Y-27413983D01*
X181572624Y-27418606D01*
X181577879Y-27424571D01*
X181610308Y-27461385D01*
X181614671Y-27466622D01*
X181646892Y-27507529D01*
X181651278Y-27513451D01*
X181678092Y-27552002D01*
X181682425Y-27558679D01*
X181695728Y-27580695D01*
X181702666Y-27593916D01*
X181715243Y-27621851D01*
X181761096Y-27723702D01*
X181766022Y-27736490D01*
X181815210Y-27888762D01*
X181818427Y-27900738D01*
X181841728Y-28008846D01*
X181856627Y-28077971D01*
X181858467Y-28088832D01*
X181883789Y-28292960D01*
X181884603Y-28302563D01*
X181895210Y-28534628D01*
X181895310Y-28542981D01*
X181889656Y-28803456D01*
X181889290Y-28810653D01*
X181866164Y-29099740D01*
X181865515Y-29105910D01*
X181824015Y-29423671D01*
X181823209Y-29428952D01*
X181762674Y-29775475D01*
X181761798Y-29779994D01*
X181681745Y-30155447D01*
X181680853Y-30159322D01*
X181580937Y-30563859D01*
X181580066Y-30567188D01*
X181460001Y-31001196D01*
X181459170Y-31004065D01*
X181318759Y-31467846D01*
X181317980Y-31470324D01*
X181157850Y-31961861D01*
X181156792Y-31964969D01*
X180770507Y-33052104D01*
X180769843Y-33053929D01*
X180444369Y-33926362D01*
X180440805Y-33934376D01*
X180418125Y-33996699D01*
X180417780Y-33997633D01*
X180394540Y-34059930D01*
X180392051Y-34068345D01*
X180297980Y-34326835D01*
X180293694Y-34336713D01*
X180272172Y-34397737D01*
X180271756Y-34398897D01*
X180249615Y-34459737D01*
X180246652Y-34470096D01*
X180170990Y-34684628D01*
X180165433Y-34697880D01*
X180165107Y-34698545D01*
X180145580Y-34756635D01*
X180144984Y-34758364D01*
X180124603Y-34816155D01*
X180124450Y-34816883D01*
X180120669Y-34830743D01*
X180061636Y-35006366D01*
X180056593Y-35019021D01*
X180054615Y-35023286D01*
X180036865Y-35079974D01*
X180036069Y-35082427D01*
X180017154Y-35138702D01*
X180016254Y-35143298D01*
X180012903Y-35156510D01*
X179968366Y-35298760D01*
X179962894Y-35311019D01*
X179963578Y-35311314D01*
X179960365Y-35318782D01*
X179944845Y-35373720D01*
X179943852Y-35377056D01*
X179926775Y-35431600D01*
X179925380Y-35439604D01*
X179924642Y-35439475D01*
X179922521Y-35452736D01*
X179889566Y-35569387D01*
X179883904Y-35583234D01*
X179884280Y-35583380D01*
X179881340Y-35590954D01*
X179868397Y-35644022D01*
X179867259Y-35648348D01*
X179852410Y-35700907D01*
X179851241Y-35708947D01*
X179850843Y-35708889D01*
X179848958Y-35723715D01*
X179824958Y-35822115D01*
X179819344Y-35837587D01*
X179819420Y-35837613D01*
X179816815Y-35845313D01*
X179806701Y-35896462D01*
X179805526Y-35901786D01*
X179793169Y-35952451D01*
X179792290Y-35960538D01*
X179792210Y-35960529D01*
X179790791Y-35976921D01*
X179773963Y-36062023D01*
X179766759Y-36085239D01*
X179766353Y-36086674D01*
X179759113Y-36136307D01*
X179758057Y-36142457D01*
X179748329Y-36191657D01*
X179748233Y-36193147D01*
X179747282Y-36217436D01*
X179736204Y-36293393D01*
X179729858Y-36318361D01*
X179729636Y-36318963D01*
X179729635Y-36318965D01*
X179725154Y-36367925D01*
X179724372Y-36374515D01*
X179717277Y-36423162D01*
X179717277Y-36423168D01*
X179717353Y-36423808D01*
X179717683Y-36449566D01*
X179711261Y-36519752D01*
X179706216Y-36545171D01*
X179706139Y-36545417D01*
X179706138Y-36545421D01*
X179704211Y-36594932D01*
X179703789Y-36601407D01*
X179699275Y-36650732D01*
X179699276Y-36650742D01*
X179699318Y-36650985D01*
X179701023Y-36676852D01*
X179698398Y-36744276D01*
X179695772Y-36762087D01*
X179694901Y-36769118D01*
X179695299Y-36820441D01*
X179695209Y-36826221D01*
X179693213Y-36877503D01*
X179693865Y-36884570D01*
X179695934Y-36902440D01*
X179696461Y-36970412D01*
X179694875Y-36985579D01*
X179695212Y-36985608D01*
X179694517Y-36993704D01*
X179696974Y-37047785D01*
X179697098Y-37052449D01*
X179697517Y-37106588D01*
X179698641Y-37114638D01*
X179698305Y-37114684D01*
X179700696Y-37129743D01*
X179703996Y-37202420D01*
X179703052Y-37215648D01*
X179703833Y-37215694D01*
X179703359Y-37223796D01*
X179707523Y-37281070D01*
X179707721Y-37284434D01*
X179710324Y-37341754D01*
X179711750Y-37349758D01*
X179710978Y-37349895D01*
X179713473Y-37362917D01*
X179719706Y-37448659D01*
X179719927Y-37462762D01*
X179719837Y-37464922D01*
X179725255Y-37525236D01*
X179725425Y-37527335D01*
X179729820Y-37587782D01*
X179730257Y-37589897D01*
X179732317Y-37603854D01*
X179748303Y-37781820D01*
X179748400Y-37782968D01*
X179763140Y-37966137D01*
X179763268Y-37967882D01*
X179774747Y-38141057D01*
X179774862Y-38143027D01*
X179783112Y-38306989D01*
X179783204Y-38309206D01*
X179788236Y-38464568D01*
X179788292Y-38467053D01*
X179790102Y-38613784D01*
X179790105Y-38616554D01*
X179788719Y-38755065D01*
X179788650Y-38758135D01*
X179784113Y-38888542D01*
X179783949Y-38891929D01*
X179776317Y-39014625D01*
X179776030Y-39018333D01*
X179765386Y-39133556D01*
X179764947Y-39137587D01*
X179751383Y-39245693D01*
X179750760Y-39250040D01*
X179734357Y-39351533D01*
X179733516Y-39356172D01*
X179714390Y-39451378D01*
X179713303Y-39456274D01*
X179691515Y-39545809D01*
X179690159Y-39550906D01*
X179665738Y-39635401D01*
X179664100Y-39640632D01*
X179637051Y-39720702D01*
X179635111Y-39726037D01*
X179626858Y-39747217D01*
X179621269Y-39759531D01*
X179618840Y-39764187D01*
X179598568Y-39819739D01*
X179597622Y-39822247D01*
X179574662Y-39881175D01*
X179571090Y-39889440D01*
X179570407Y-39890874D01*
X179553600Y-39942731D01*
X179552134Y-39946988D01*
X179550482Y-39951518D01*
X179532671Y-40000329D01*
X179526558Y-40019268D01*
X179526355Y-40019739D01*
X179511761Y-40071532D01*
X179510370Y-40076126D01*
X179493792Y-40127282D01*
X179493669Y-40127951D01*
X179487548Y-40149733D01*
X179486994Y-40151179D01*
X179474593Y-40203084D01*
X179473341Y-40207895D01*
X179458865Y-40259271D01*
X179458551Y-40261446D01*
X179453342Y-40283269D01*
X179452564Y-40285576D01*
X179442297Y-40337814D01*
X179441231Y-40342710D01*
X179428852Y-40394524D01*
X179428479Y-40398119D01*
X179424141Y-40420157D01*
X179423229Y-40423268D01*
X179415028Y-40476046D01*
X179414172Y-40480914D01*
X179403865Y-40533361D01*
X179403552Y-40538320D01*
X179400053Y-40560740D01*
X179399073Y-40564633D01*
X179392856Y-40618148D01*
X179392215Y-40622873D01*
X179383946Y-40676100D01*
X179383799Y-40682400D01*
X179381109Y-40705352D01*
X179380094Y-40710113D01*
X179375781Y-40764449D01*
X179375342Y-40768941D01*
X179369052Y-40823103D01*
X179369169Y-40830815D01*
X179367264Y-40854424D01*
X179366228Y-40860240D01*
X179363719Y-40915536D01*
X179363458Y-40919724D01*
X179359084Y-40974835D01*
X179359504Y-40982956D01*
X179358040Y-40983031D01*
X179358493Y-41008000D01*
X179357375Y-41015645D01*
X179356566Y-41071852D01*
X179356452Y-41075683D01*
X179353904Y-41131861D01*
X179354599Y-41139952D01*
X179353980Y-41140005D01*
X179355388Y-41153897D01*
X179355364Y-41155587D01*
X179353612Y-41168893D01*
X179354361Y-41168982D01*
X179353411Y-41177045D01*
X179354187Y-41234213D01*
X179354185Y-41237676D01*
X179353364Y-41294826D01*
X179354310Y-41302900D01*
X179353557Y-41302988D01*
X179355303Y-41316282D01*
X179355417Y-41324682D01*
X179354899Y-41337806D01*
X179354209Y-41345244D01*
X179356446Y-41403303D01*
X179356527Y-41406387D01*
X179357318Y-41464507D01*
X179358393Y-41471893D01*
X179359593Y-41484972D01*
X179360319Y-41503815D01*
X179359241Y-41517929D01*
X179359820Y-41517965D01*
X179359329Y-41526075D01*
X179363264Y-41581880D01*
X179363479Y-41585825D01*
X179365632Y-41641703D01*
X179367003Y-41649712D01*
X179366427Y-41649810D01*
X179369037Y-41663723D01*
X179384324Y-41880492D01*
X179383695Y-41894906D01*
X179384212Y-41894920D01*
X179383992Y-41903047D01*
X179389736Y-41958210D01*
X179390095Y-41962325D01*
X179394000Y-42017675D01*
X179395625Y-42025639D01*
X179395116Y-42025742D01*
X179398238Y-42039831D01*
X179425497Y-42301546D01*
X179425570Y-42303393D01*
X179433204Y-42375541D01*
X179433225Y-42375742D01*
X179440698Y-42447497D01*
X179441010Y-42449317D01*
X179481595Y-42832842D01*
X179481906Y-42836216D01*
X179497207Y-43031714D01*
X179497410Y-43034812D01*
X179507219Y-43219478D01*
X179507361Y-43223191D01*
X179511404Y-43398212D01*
X179511430Y-43402425D01*
X179509590Y-43571575D01*
X179509458Y-43576097D01*
X179501524Y-43743475D01*
X179501219Y-43748082D01*
X179486827Y-43917789D01*
X179486369Y-43922244D01*
X179464974Y-44098613D01*
X179464406Y-44102717D01*
X179435392Y-44289459D01*
X179434774Y-44293081D01*
X179397453Y-44493879D01*
X179396843Y-44496946D01*
X179351176Y-44712274D01*
X179350371Y-44715813D01*
X179228225Y-45218744D01*
X179227446Y-45221783D01*
X179064087Y-45827197D01*
X179064030Y-45827409D01*
X178519063Y-47832892D01*
X178517792Y-47836619D01*
X178499498Y-47904890D01*
X178499385Y-47905308D01*
X178482425Y-47967725D01*
X178482342Y-47968359D01*
X178482270Y-47968896D01*
X178482197Y-47969433D01*
X178482197Y-48034280D01*
X178482196Y-48034719D01*
X178481946Y-48105261D01*
X178482197Y-48109187D01*
X178482197Y-79511519D01*
X178481947Y-79519388D01*
X178479023Y-79565355D01*
X178479767Y-79569054D01*
X178482197Y-79593483D01*
X178482197Y-79597251D01*
X178494116Y-79641733D01*
X178495910Y-79649394D01*
X178504986Y-79694556D01*
X178504988Y-79694561D01*
X178506658Y-79697931D01*
X178515329Y-79720900D01*
X178516305Y-79724544D01*
X178539336Y-79764435D01*
X178543053Y-79771373D01*
X179765808Y-82238714D01*
X179766866Y-82241242D01*
X179769741Y-82247009D01*
X179769742Y-82247010D01*
X179798899Y-82305486D01*
X179830734Y-82369723D01*
X179832104Y-82372080D01*
X180203390Y-83116703D01*
X180204648Y-83119301D01*
X180518188Y-83786567D01*
X180519857Y-83790276D01*
X180646279Y-84083988D01*
X180647672Y-84087361D01*
X180760108Y-84371309D01*
X180761573Y-84375198D01*
X180862089Y-84656204D01*
X180863483Y-84660327D01*
X180955109Y-84947933D01*
X180956317Y-84951961D01*
X181041889Y-85255827D01*
X181042855Y-85259466D01*
X181124949Y-85589017D01*
X181125670Y-85592076D01*
X181206583Y-85955975D01*
X181207094Y-85958385D01*
X181288713Y-86363268D01*
X181289178Y-86365702D01*
X181465443Y-87340244D01*
X181465722Y-87341843D01*
X181660332Y-88504472D01*
X181660467Y-88505805D01*
X181672540Y-88577406D01*
X181672552Y-88577554D01*
X181672565Y-88577552D01*
X181684605Y-88649485D01*
X181684910Y-88650779D01*
X182315321Y-92389823D01*
X182316792Y-92418386D01*
X182003802Y-97292173D01*
X181694722Y-102105043D01*
X181688087Y-102137855D01*
X180113159Y-106662976D01*
X180113096Y-106663155D01*
X178529609Y-111190610D01*
X178519952Y-111211667D01*
X178516307Y-111217980D01*
X178516304Y-111217987D01*
X178505284Y-111259112D01*
X178502559Y-111267950D01*
X178488505Y-111308135D01*
X178487961Y-111315406D01*
X178484085Y-111338229D01*
X178482197Y-111345277D01*
X178482197Y-111387840D01*
X178481852Y-111397089D01*
X178478676Y-111439549D01*
X178480032Y-111446709D01*
X178482197Y-111469781D01*
X178482197Y-172892664D01*
X178462512Y-172959703D01*
X178437880Y-172987672D01*
X178014359Y-173342876D01*
X178014261Y-173342959D01*
X178011634Y-173345163D01*
X178011631Y-173345165D01*
X177958767Y-173389502D01*
X177910665Y-173429846D01*
X177910662Y-173429848D01*
X177585023Y-173702969D01*
X177435337Y-173828514D01*
X177371322Y-173856513D01*
X177355652Y-173857507D01*
X93081719Y-173857507D01*
X93014680Y-173837822D01*
X92976567Y-173799227D01*
X92845254Y-173589123D01*
X92836905Y-173573335D01*
X92789323Y-173465142D01*
X92779644Y-173429396D01*
X92779443Y-173427653D01*
X92746751Y-173143500D01*
X92745980Y-173126149D01*
X92746295Y-173113858D01*
X92763446Y-172445122D01*
X92763830Y-172438060D01*
X92861018Y-171270961D01*
X92861399Y-171267111D01*
X92880023Y-171105008D01*
X93350980Y-167005780D01*
X93351110Y-167004699D01*
X94306604Y-159412446D01*
X94306655Y-159412191D01*
X94315545Y-159341411D01*
X94315557Y-159341383D01*
X94315549Y-159341382D01*
X94317676Y-159324477D01*
X94324133Y-159273173D01*
X94324132Y-159273170D01*
X94325130Y-159265244D01*
X94325147Y-159264962D01*
X95552706Y-149491700D01*
X95733200Y-148054687D01*
X111012865Y-148054687D01*
X111085314Y-148124123D01*
X111448873Y-148417675D01*
X111835998Y-148679326D01*
X111836017Y-148679338D01*
X112243936Y-148907216D01*
X112243958Y-148907227D01*
X112669734Y-149099690D01*
X112669740Y-149099692D01*
X113110326Y-149255361D01*
X113562520Y-149373102D01*
X114023068Y-149452071D01*
X114023076Y-149452072D01*
X114488644Y-149491699D01*
X114488664Y-149491700D01*
X114955936Y-149491700D01*
X114955955Y-149491699D01*
X115421523Y-149452072D01*
X115421531Y-149452071D01*
X115882079Y-149373102D01*
X116334273Y-149255361D01*
X116774859Y-149099692D01*
X116774865Y-149099690D01*
X117200641Y-148907227D01*
X117200663Y-148907216D01*
X117608582Y-148679338D01*
X117608601Y-148679326D01*
X117995733Y-148417671D01*
X117995734Y-148417670D01*
X118359276Y-148124130D01*
X118359292Y-148124116D01*
X118423072Y-148062987D01*
X153290565Y-148062987D01*
X153363014Y-148132423D01*
X153726573Y-148425975D01*
X154113698Y-148687626D01*
X154113717Y-148687638D01*
X154521636Y-148915516D01*
X154521658Y-148915527D01*
X154947434Y-149107990D01*
X154947440Y-149107992D01*
X155388026Y-149263661D01*
X155840220Y-149381402D01*
X156300768Y-149460371D01*
X156300776Y-149460372D01*
X156766344Y-149499999D01*
X156766364Y-149500000D01*
X157233636Y-149500000D01*
X157233655Y-149499999D01*
X157699223Y-149460372D01*
X157699231Y-149460371D01*
X158159779Y-149381402D01*
X158611973Y-149263661D01*
X159052559Y-149107992D01*
X159052565Y-149107990D01*
X159478341Y-148915527D01*
X159478363Y-148915516D01*
X159886282Y-148687638D01*
X159886301Y-148687626D01*
X160273433Y-148425971D01*
X160273434Y-148425970D01*
X160636976Y-148132430D01*
X160636992Y-148132416D01*
X160709433Y-148062986D01*
X157000000Y-144353553D01*
X153290565Y-148062987D01*
X118423072Y-148062987D01*
X118431733Y-148054686D01*
X114722300Y-144345253D01*
X111012865Y-148054687D01*
X95733200Y-148054687D01*
X95854422Y-147089570D01*
X101671800Y-147089570D01*
X101671801Y-147089576D01*
X101678208Y-147149183D01*
X101728502Y-147284028D01*
X101728506Y-147284035D01*
X101814752Y-147399244D01*
X101814755Y-147399247D01*
X101929964Y-147485493D01*
X101929971Y-147485497D01*
X102064817Y-147535791D01*
X102064816Y-147535791D01*
X102071744Y-147536535D01*
X102124427Y-147542200D01*
X104620172Y-147542199D01*
X104679783Y-147535791D01*
X104814631Y-147485496D01*
X104929846Y-147399246D01*
X105016096Y-147284031D01*
X105066391Y-147149183D01*
X105072800Y-147089573D01*
X105072800Y-143991706D01*
X109217340Y-143991706D01*
X109237170Y-144458540D01*
X109296524Y-144922044D01*
X109394969Y-145378829D01*
X109394971Y-145378837D01*
X109531797Y-145825623D01*
X109531802Y-145825636D01*
X109706019Y-146259189D01*
X109706023Y-146259200D01*
X109916383Y-146676423D01*
X109916393Y-146676443D01*
X110161391Y-147074343D01*
X110439247Y-147450030D01*
X110439253Y-147450038D01*
X110659808Y-147700636D01*
X110659809Y-147700636D01*
X114368746Y-143991700D01*
X115075853Y-143991700D01*
X118784789Y-147700636D01*
X118784790Y-147700636D01*
X119005347Y-147450035D01*
X119005361Y-147450018D01*
X119283208Y-147074343D01*
X119528206Y-146676443D01*
X119528216Y-146676423D01*
X119738576Y-146259200D01*
X119738580Y-146259189D01*
X119912797Y-145825636D01*
X119912802Y-145825623D01*
X120049628Y-145378837D01*
X120049630Y-145378829D01*
X120148075Y-144922044D01*
X120207429Y-144458540D01*
X120227260Y-143991706D01*
X120227260Y-143991693D01*
X120207429Y-143524859D01*
X120148075Y-143061355D01*
X120049630Y-142604570D01*
X120049628Y-142604562D01*
X119912802Y-142157776D01*
X119912797Y-142157763D01*
X119738580Y-141724210D01*
X119738576Y-141724199D01*
X119528216Y-141306976D01*
X119528206Y-141306956D01*
X119283208Y-140909056D01*
X119005352Y-140533369D01*
X119005346Y-140533361D01*
X118784790Y-140282762D01*
X115075853Y-143991700D01*
X114368746Y-143991700D01*
X110659809Y-140282763D01*
X110439247Y-140533369D01*
X110439244Y-140533373D01*
X110161391Y-140909056D01*
X109916393Y-141306956D01*
X109916383Y-141306976D01*
X109706023Y-141724199D01*
X109706019Y-141724210D01*
X109531802Y-142157763D01*
X109531797Y-142157776D01*
X109394971Y-142604562D01*
X109394969Y-142604570D01*
X109296524Y-143061355D01*
X109237170Y-143524859D01*
X109217340Y-143991693D01*
X109217340Y-143991706D01*
X105072800Y-143991706D01*
X105072799Y-140893828D01*
X105066391Y-140834217D01*
X105019192Y-140707671D01*
X105016097Y-140699371D01*
X105016093Y-140699364D01*
X104929847Y-140584155D01*
X104929844Y-140584152D01*
X104814635Y-140497906D01*
X104814628Y-140497902D01*
X104679782Y-140447608D01*
X104679783Y-140447608D01*
X104620183Y-140441201D01*
X104620181Y-140441200D01*
X104620173Y-140441200D01*
X104620165Y-140441200D01*
X104246800Y-140441200D01*
X104179761Y-140421515D01*
X104134006Y-140368711D01*
X104122800Y-140317200D01*
X104122800Y-139928712D01*
X111012865Y-139928712D01*
X114722299Y-143638146D01*
X118431733Y-139928711D01*
X118359285Y-139859276D01*
X117995726Y-139565724D01*
X117608601Y-139304073D01*
X117608582Y-139304061D01*
X117200663Y-139076183D01*
X117200641Y-139076172D01*
X116774865Y-138883709D01*
X116774859Y-138883707D01*
X116334273Y-138728038D01*
X115882079Y-138610297D01*
X115421531Y-138531328D01*
X115421523Y-138531327D01*
X114955955Y-138491700D01*
X114488644Y-138491700D01*
X114023076Y-138531327D01*
X114023068Y-138531328D01*
X113562520Y-138610297D01*
X113110326Y-138728038D01*
X112669740Y-138883707D01*
X112669734Y-138883709D01*
X112243958Y-139076172D01*
X112243936Y-139076183D01*
X111836017Y-139304061D01*
X111835998Y-139304073D01*
X111448866Y-139565728D01*
X111448865Y-139565729D01*
X111085324Y-139859268D01*
X111085308Y-139859282D01*
X111012865Y-139928712D01*
X104122800Y-139928712D01*
X104122800Y-137763978D01*
X104142485Y-137696939D01*
X104159119Y-137676297D01*
X106476889Y-135358527D01*
X106538212Y-135325042D01*
X106564570Y-135322208D01*
X123620111Y-135322208D01*
X123687150Y-135341893D01*
X123707792Y-135358527D01*
X125735522Y-137386256D01*
X125769007Y-137447579D01*
X125771841Y-137473937D01*
X125771841Y-140317200D01*
X125752156Y-140384239D01*
X125699352Y-140429994D01*
X125647841Y-140441200D01*
X124824429Y-140441200D01*
X124824423Y-140441201D01*
X124764816Y-140447608D01*
X124629971Y-140497902D01*
X124629964Y-140497906D01*
X124514755Y-140584152D01*
X124514752Y-140584155D01*
X124428506Y-140699364D01*
X124428502Y-140699371D01*
X124378208Y-140834217D01*
X124371801Y-140893816D01*
X124371801Y-140893823D01*
X124371800Y-140893835D01*
X124371800Y-147089570D01*
X124371801Y-147089576D01*
X124378208Y-147149183D01*
X124428502Y-147284028D01*
X124428506Y-147284035D01*
X124514752Y-147399244D01*
X124514755Y-147399247D01*
X124629964Y-147485493D01*
X124629971Y-147485497D01*
X124764817Y-147535791D01*
X124764816Y-147535791D01*
X124771744Y-147536535D01*
X124824427Y-147542200D01*
X127320172Y-147542199D01*
X127379783Y-147535791D01*
X127514631Y-147485496D01*
X127629846Y-147399246D01*
X127716096Y-147284031D01*
X127766391Y-147149183D01*
X127772800Y-147089573D01*
X127772799Y-147052928D01*
X127792482Y-146985892D01*
X127845285Y-146940136D01*
X127914443Y-146930191D01*
X127977999Y-146959214D01*
X127984480Y-146965248D01*
X128873894Y-147854662D01*
X128903366Y-147874353D01*
X128947578Y-147903894D01*
X128996813Y-147936792D01*
X128996814Y-147936792D01*
X128996815Y-147936793D01*
X128996817Y-147936794D01*
X129133390Y-147993364D01*
X129133395Y-147993366D01*
X129133399Y-147993366D01*
X129133400Y-147993367D01*
X129278387Y-148022208D01*
X129278390Y-148022208D01*
X142452212Y-148022208D01*
X142549754Y-148002804D01*
X142597205Y-147993366D01*
X142733787Y-147936792D01*
X142783021Y-147903894D01*
X142783026Y-147903891D01*
X142807363Y-147887629D01*
X142856708Y-147854660D01*
X143737821Y-146973545D01*
X143799142Y-146940062D01*
X143868833Y-146945046D01*
X143924767Y-146986917D01*
X143949184Y-147052382D01*
X143949500Y-147061225D01*
X143949500Y-147097868D01*
X143949501Y-147097876D01*
X143955908Y-147157483D01*
X144006202Y-147292328D01*
X144006206Y-147292335D01*
X144092452Y-147407544D01*
X144092455Y-147407547D01*
X144207664Y-147493793D01*
X144207671Y-147493797D01*
X144342517Y-147544091D01*
X144342516Y-147544091D01*
X144349444Y-147544835D01*
X144402127Y-147550500D01*
X146897872Y-147550499D01*
X146957483Y-147544091D01*
X147092331Y-147493796D01*
X147207546Y-147407546D01*
X147293796Y-147292331D01*
X147344091Y-147157483D01*
X147350500Y-147097873D01*
X147350500Y-144000006D01*
X151495040Y-144000006D01*
X151514870Y-144466840D01*
X151574224Y-144930344D01*
X151672669Y-145387129D01*
X151672671Y-145387137D01*
X151809497Y-145833923D01*
X151809502Y-145833936D01*
X151983719Y-146267489D01*
X151983723Y-146267500D01*
X152194083Y-146684723D01*
X152194093Y-146684743D01*
X152439091Y-147082643D01*
X152716947Y-147458330D01*
X152716953Y-147458338D01*
X152937508Y-147708936D01*
X152937509Y-147708936D01*
X156646446Y-144000000D01*
X157353553Y-144000000D01*
X161062489Y-147708936D01*
X161062490Y-147708936D01*
X161283047Y-147458335D01*
X161283061Y-147458318D01*
X161560908Y-147082643D01*
X161805906Y-146684743D01*
X161805916Y-146684723D01*
X162016276Y-146267500D01*
X162016280Y-146267489D01*
X162190497Y-145833936D01*
X162190502Y-145833923D01*
X162327328Y-145387137D01*
X162327330Y-145387129D01*
X162425775Y-144930344D01*
X162485129Y-144466840D01*
X162504960Y-144000006D01*
X162504960Y-143999993D01*
X162485129Y-143533159D01*
X162425775Y-143069655D01*
X162327330Y-142612870D01*
X162327328Y-142612862D01*
X162190502Y-142166076D01*
X162190497Y-142166063D01*
X162016280Y-141732510D01*
X162016276Y-141732499D01*
X161805916Y-141315276D01*
X161805906Y-141315256D01*
X161560908Y-140917356D01*
X161283052Y-140541669D01*
X161283046Y-140541661D01*
X161062490Y-140291062D01*
X157353553Y-144000000D01*
X156646446Y-144000000D01*
X152937509Y-140291063D01*
X152716947Y-140541669D01*
X152716944Y-140541673D01*
X152439091Y-140917356D01*
X152194093Y-141315256D01*
X152194083Y-141315276D01*
X151983723Y-141732499D01*
X151983719Y-141732510D01*
X151809502Y-142166063D01*
X151809497Y-142166076D01*
X151672671Y-142612862D01*
X151672669Y-142612870D01*
X151574224Y-143069655D01*
X151514870Y-143533159D01*
X151495040Y-143999993D01*
X151495040Y-144000006D01*
X147350500Y-144000006D01*
X147350499Y-140902128D01*
X147344091Y-140842517D01*
X147340995Y-140834217D01*
X147293797Y-140707671D01*
X147293793Y-140707664D01*
X147207547Y-140592455D01*
X147207544Y-140592452D01*
X147092335Y-140506206D01*
X147092328Y-140506202D01*
X146957482Y-140455908D01*
X146957483Y-140455908D01*
X146897883Y-140449501D01*
X146897881Y-140449500D01*
X146897873Y-140449500D01*
X146897865Y-140449500D01*
X146524500Y-140449500D01*
X146457461Y-140429815D01*
X146411706Y-140377011D01*
X146400500Y-140325500D01*
X146400500Y-139937012D01*
X153290565Y-139937012D01*
X156999999Y-143646446D01*
X160709433Y-139937011D01*
X160636985Y-139867576D01*
X160273426Y-139574024D01*
X159886301Y-139312373D01*
X159886282Y-139312361D01*
X159478363Y-139084483D01*
X159478341Y-139084472D01*
X159052565Y-138892009D01*
X159052559Y-138892007D01*
X158611973Y-138736338D01*
X158159779Y-138618597D01*
X157699231Y-138539628D01*
X157699223Y-138539627D01*
X157233655Y-138500000D01*
X156766344Y-138500000D01*
X156300776Y-138539627D01*
X156300768Y-138539628D01*
X155840220Y-138618597D01*
X155388026Y-138736338D01*
X154947440Y-138892007D01*
X154947434Y-138892009D01*
X154521658Y-139084472D01*
X154521636Y-139084483D01*
X154113717Y-139312361D01*
X154113698Y-139312373D01*
X153726566Y-139574028D01*
X153726565Y-139574029D01*
X153363024Y-139867568D01*
X153363008Y-139867582D01*
X153290565Y-139937012D01*
X146400500Y-139937012D01*
X146400500Y-128506278D01*
X146420185Y-128439239D01*
X146436810Y-128418606D01*
X146576994Y-128278421D01*
X146638313Y-128244939D01*
X146675476Y-128242577D01*
X146818707Y-128255108D01*
X146842340Y-128257176D01*
X146842341Y-128257176D01*
X146842343Y-128257176D01*
X146899014Y-128252217D01*
X147069033Y-128237343D01*
X147288837Y-128178447D01*
X147495075Y-128082276D01*
X147681480Y-127951755D01*
X147842388Y-127790847D01*
X147856573Y-127770588D01*
X147867429Y-127755085D01*
X147922006Y-127711460D01*
X147969004Y-127702208D01*
X149195707Y-127702208D01*
X149219899Y-127704591D01*
X149308421Y-127722200D01*
X149308423Y-127722200D01*
X149308424Y-127722200D01*
X149456258Y-127722200D01*
X150809676Y-127722200D01*
X150876715Y-127741885D01*
X150911250Y-127775075D01*
X150922296Y-127790850D01*
X151083199Y-127951753D01*
X151083202Y-127951755D01*
X151269607Y-128082276D01*
X151475845Y-128178447D01*
X151695649Y-128237343D01*
X151857571Y-128251509D01*
X151922339Y-128257176D01*
X151922341Y-128257176D01*
X151922343Y-128257176D01*
X151979014Y-128252217D01*
X152149033Y-128237343D01*
X152368837Y-128178447D01*
X152575075Y-128082276D01*
X152761480Y-127951755D01*
X152922388Y-127790847D01*
X152930271Y-127779588D01*
X152933432Y-127775075D01*
X152988009Y-127731451D01*
X153035006Y-127722200D01*
X154008268Y-127722200D01*
X154096791Y-127704591D01*
X154120983Y-127702208D01*
X155875678Y-127702208D01*
X155942717Y-127721893D01*
X155977253Y-127755085D01*
X156002295Y-127790849D01*
X156163199Y-127951753D01*
X156163202Y-127951755D01*
X156349607Y-128082276D01*
X156555845Y-128178447D01*
X156775649Y-128237343D01*
X156937571Y-128251509D01*
X157002339Y-128257176D01*
X157002341Y-128257176D01*
X157002343Y-128257176D01*
X157059014Y-128252217D01*
X157229033Y-128237343D01*
X157448837Y-128178447D01*
X157655075Y-128082276D01*
X157841480Y-127951755D01*
X158002388Y-127790847D01*
X158016573Y-127770588D01*
X158027429Y-127755085D01*
X158082006Y-127711460D01*
X158129004Y-127702208D01*
X158452423Y-127702208D01*
X160955678Y-127702208D01*
X161022717Y-127721893D01*
X161057253Y-127755085D01*
X161082295Y-127790849D01*
X161243199Y-127951753D01*
X161243202Y-127951755D01*
X161429607Y-128082276D01*
X161635845Y-128178447D01*
X161855649Y-128237343D01*
X162017571Y-128251509D01*
X162082339Y-128257176D01*
X162082341Y-128257176D01*
X162082343Y-128257176D01*
X162139014Y-128252217D01*
X162309033Y-128237343D01*
X162528837Y-128178447D01*
X162735075Y-128082276D01*
X162921480Y-127951755D01*
X163082388Y-127790847D01*
X163096573Y-127770588D01*
X163107429Y-127755085D01*
X163162006Y-127711460D01*
X163209004Y-127702208D01*
X166035678Y-127702208D01*
X166102717Y-127721893D01*
X166137253Y-127755085D01*
X166162295Y-127790849D01*
X166323199Y-127951753D01*
X166323202Y-127951755D01*
X166509607Y-128082276D01*
X166715845Y-128178447D01*
X166935649Y-128237343D01*
X167097571Y-128251509D01*
X167162339Y-128257176D01*
X167162341Y-128257176D01*
X167162343Y-128257176D01*
X167219014Y-128252217D01*
X167389033Y-128237343D01*
X167608837Y-128178447D01*
X167815075Y-128082276D01*
X168001480Y-127951755D01*
X168162388Y-127790847D01*
X168176573Y-127770588D01*
X168187429Y-127755085D01*
X168242006Y-127711460D01*
X168289004Y-127702208D01*
X171115678Y-127702208D01*
X171182717Y-127721893D01*
X171217253Y-127755085D01*
X171242295Y-127790849D01*
X171403200Y-127951754D01*
X171438962Y-127976794D01*
X171482588Y-128031370D01*
X171491841Y-128078370D01*
X171491841Y-141829478D01*
X171472156Y-141896517D01*
X171455522Y-141917159D01*
X170262180Y-143110501D01*
X170200857Y-143143986D01*
X170131165Y-143139002D01*
X170075232Y-143097130D01*
X170050815Y-143031666D01*
X170050499Y-143022820D01*
X170050499Y-140902129D01*
X170050498Y-140902123D01*
X170050497Y-140902116D01*
X170044091Y-140842517D01*
X170040995Y-140834217D01*
X169993797Y-140707671D01*
X169993793Y-140707664D01*
X169907547Y-140592455D01*
X169907544Y-140592452D01*
X169792335Y-140506206D01*
X169792328Y-140506202D01*
X169657482Y-140455908D01*
X169657483Y-140455908D01*
X169597883Y-140449501D01*
X169597881Y-140449500D01*
X169597873Y-140449500D01*
X169597864Y-140449500D01*
X167102129Y-140449500D01*
X167102123Y-140449501D01*
X167042516Y-140455908D01*
X166907671Y-140506202D01*
X166907664Y-140506206D01*
X166792455Y-140592452D01*
X166792452Y-140592455D01*
X166706206Y-140707664D01*
X166706202Y-140707671D01*
X166655908Y-140842517D01*
X166649501Y-140902116D01*
X166649501Y-140902123D01*
X166649500Y-140902135D01*
X166649500Y-147097870D01*
X166649501Y-147097876D01*
X166655908Y-147157483D01*
X166706202Y-147292328D01*
X166706206Y-147292335D01*
X166792452Y-147407544D01*
X166792455Y-147407547D01*
X166907664Y-147493793D01*
X166907671Y-147493797D01*
X167042517Y-147544091D01*
X167042516Y-147544091D01*
X167049444Y-147544835D01*
X167102127Y-147550500D01*
X169597872Y-147550499D01*
X169657483Y-147544091D01*
X169792331Y-147493796D01*
X169907546Y-147407546D01*
X169993796Y-147292331D01*
X170044091Y-147157483D01*
X170050500Y-147097873D01*
X170050500Y-144874500D01*
X170070185Y-144807461D01*
X170122989Y-144761706D01*
X170174500Y-144750500D01*
X170507969Y-144750500D01*
X170605511Y-144731096D01*
X170652962Y-144721658D01*
X170789544Y-144665084D01*
X170842047Y-144630003D01*
X170912465Y-144582952D01*
X172825293Y-142670124D01*
X172874527Y-142596437D01*
X172907425Y-142547203D01*
X172963999Y-142410621D01*
X172992841Y-142265626D01*
X172992841Y-131957790D01*
X172992841Y-128078370D01*
X173012526Y-128011331D01*
X173045720Y-127976794D01*
X173081481Y-127951754D01*
X173242386Y-127790849D01*
X173242388Y-127790847D01*
X173372909Y-127604442D01*
X173469080Y-127398204D01*
X173527976Y-127178400D01*
X173547809Y-126951708D01*
X173527976Y-126725016D01*
X173469080Y-126505212D01*
X173372909Y-126298974D01*
X173260950Y-126139078D01*
X173242386Y-126112566D01*
X173081482Y-125951662D01*
X172895075Y-125821140D01*
X172895073Y-125821139D01*
X172688838Y-125724969D01*
X172688829Y-125724966D01*
X172469038Y-125666074D01*
X172469034Y-125666073D01*
X172469033Y-125666073D01*
X172469032Y-125666072D01*
X172469027Y-125666072D01*
X172242343Y-125646240D01*
X172242339Y-125646240D01*
X172015654Y-125666072D01*
X172015643Y-125666074D01*
X171795852Y-125724966D01*
X171795843Y-125724969D01*
X171589608Y-125821139D01*
X171589606Y-125821140D01*
X171403199Y-125951662D01*
X171242295Y-126112566D01*
X171217253Y-126148331D01*
X171162676Y-126191956D01*
X171115678Y-126201208D01*
X168289004Y-126201208D01*
X168221965Y-126181523D01*
X168187429Y-126148331D01*
X168162386Y-126112566D01*
X168001482Y-125951662D01*
X167815075Y-125821140D01*
X167815073Y-125821139D01*
X167608838Y-125724969D01*
X167608829Y-125724966D01*
X167389038Y-125666074D01*
X167389034Y-125666073D01*
X167389033Y-125666073D01*
X167389032Y-125666072D01*
X167389027Y-125666072D01*
X167162343Y-125646240D01*
X167162339Y-125646240D01*
X166935654Y-125666072D01*
X166935643Y-125666074D01*
X166715852Y-125724966D01*
X166715843Y-125724969D01*
X166509608Y-125821139D01*
X166509606Y-125821140D01*
X166323199Y-125951662D01*
X166162295Y-126112566D01*
X166137253Y-126148331D01*
X166082676Y-126191956D01*
X166035678Y-126201208D01*
X163209004Y-126201208D01*
X163141965Y-126181523D01*
X163107429Y-126148331D01*
X163082386Y-126112566D01*
X162921482Y-125951662D01*
X162735075Y-125821140D01*
X162735073Y-125821139D01*
X162528838Y-125724969D01*
X162528829Y-125724966D01*
X162309038Y-125666074D01*
X162309034Y-125666073D01*
X162309033Y-125666073D01*
X162309032Y-125666072D01*
X162309027Y-125666072D01*
X162082343Y-125646240D01*
X162082339Y-125646240D01*
X161855654Y-125666072D01*
X161855643Y-125666074D01*
X161635852Y-125724966D01*
X161635843Y-125724969D01*
X161429608Y-125821139D01*
X161429606Y-125821140D01*
X161243199Y-125951662D01*
X161082295Y-126112566D01*
X161057253Y-126148331D01*
X161002676Y-126191956D01*
X160955678Y-126201208D01*
X158129004Y-126201208D01*
X158061965Y-126181523D01*
X158027429Y-126148331D01*
X158002386Y-126112566D01*
X157841482Y-125951662D01*
X157655075Y-125821140D01*
X157655073Y-125821139D01*
X157448838Y-125724969D01*
X157448829Y-125724966D01*
X157229038Y-125666074D01*
X157229034Y-125666073D01*
X157229033Y-125666073D01*
X157229032Y-125666072D01*
X157229027Y-125666072D01*
X157002343Y-125646240D01*
X157002339Y-125646240D01*
X156775654Y-125666072D01*
X156775643Y-125666074D01*
X156555852Y-125724966D01*
X156555843Y-125724969D01*
X156349608Y-125821139D01*
X156349606Y-125821140D01*
X156163199Y-125951662D01*
X156002295Y-126112566D01*
X155977253Y-126148331D01*
X155922676Y-126191956D01*
X155875678Y-126201208D01*
X153880421Y-126201208D01*
X153791899Y-126218817D01*
X153767707Y-126221200D01*
X153063002Y-126221200D01*
X152995963Y-126201515D01*
X152961427Y-126168323D01*
X152951091Y-126153562D01*
X152926453Y-126118375D01*
X152922386Y-126112566D01*
X152761482Y-125951662D01*
X152575075Y-125821140D01*
X152575073Y-125821139D01*
X152368838Y-125724969D01*
X152368829Y-125724966D01*
X152149038Y-125666074D01*
X152149034Y-125666073D01*
X152149033Y-125666073D01*
X152149032Y-125666072D01*
X152149027Y-125666072D01*
X151922343Y-125646240D01*
X151922339Y-125646240D01*
X151695654Y-125666072D01*
X151695643Y-125666074D01*
X151475852Y-125724966D01*
X151475843Y-125724969D01*
X151269608Y-125821139D01*
X151269606Y-125821140D01*
X151083199Y-125951662D01*
X150922295Y-126112566D01*
X150883255Y-126168323D01*
X150828679Y-126211948D01*
X150781680Y-126221200D01*
X149588967Y-126221200D01*
X149564775Y-126218817D01*
X149476252Y-126201208D01*
X149476250Y-126201208D01*
X149436267Y-126201208D01*
X147969004Y-126201208D01*
X147901965Y-126181523D01*
X147867429Y-126148331D01*
X147842386Y-126112566D01*
X147681482Y-125951662D01*
X147495075Y-125821140D01*
X147495073Y-125821139D01*
X147288838Y-125724969D01*
X147288829Y-125724966D01*
X147069038Y-125666074D01*
X147069034Y-125666073D01*
X147069033Y-125666073D01*
X147069032Y-125666072D01*
X147069027Y-125666072D01*
X146842343Y-125646240D01*
X146842339Y-125646240D01*
X146615654Y-125666072D01*
X146615643Y-125666074D01*
X146395852Y-125724966D01*
X146395843Y-125724969D01*
X146189608Y-125821139D01*
X146189606Y-125821140D01*
X146003199Y-125951662D01*
X145842295Y-126112566D01*
X145711773Y-126298973D01*
X145711772Y-126298975D01*
X145615602Y-126505210D01*
X145615599Y-126505219D01*
X145556707Y-126725010D01*
X145556705Y-126725021D01*
X145536873Y-126951706D01*
X145536873Y-126951711D01*
X145551470Y-127118569D01*
X145537703Y-127187068D01*
X145515623Y-127217056D01*
X145067050Y-127665630D01*
X145067044Y-127665638D01*
X145029251Y-127722199D01*
X145029252Y-127722200D01*
X144984913Y-127788557D01*
X144928343Y-127925131D01*
X144928340Y-127925141D01*
X144899500Y-128070128D01*
X144899500Y-140325500D01*
X144879815Y-140392539D01*
X144827011Y-140438294D01*
X144775500Y-140449500D01*
X144402130Y-140449500D01*
X144402123Y-140449501D01*
X144342516Y-140455908D01*
X144207671Y-140506202D01*
X144207664Y-140506206D01*
X144092455Y-140592452D01*
X144092452Y-140592455D01*
X144006206Y-140707664D01*
X144006202Y-140707671D01*
X143955908Y-140842517D01*
X143949501Y-140902116D01*
X143949501Y-140902123D01*
X143949500Y-140902135D01*
X143949500Y-144587769D01*
X143929815Y-144654808D01*
X143913181Y-144675450D01*
X142103743Y-146484889D01*
X142042420Y-146518374D01*
X142016062Y-146521208D01*
X129714538Y-146521208D01*
X129647499Y-146501523D01*
X129626857Y-146484889D01*
X127809118Y-144667150D01*
X127775633Y-144605827D01*
X127772799Y-144579469D01*
X127772799Y-143891707D01*
X132317000Y-143891707D01*
X132336164Y-144122998D01*
X132336166Y-144123009D01*
X132393142Y-144348001D01*
X132486375Y-144560549D01*
X132613316Y-144754848D01*
X132613319Y-144754852D01*
X132613321Y-144754854D01*
X132770516Y-144925614D01*
X132770519Y-144925616D01*
X132770522Y-144925619D01*
X132953665Y-145068165D01*
X132953671Y-145068169D01*
X132953674Y-145068171D01*
X133157797Y-145178637D01*
X133271787Y-145217769D01*
X133377315Y-145253998D01*
X133377317Y-145253998D01*
X133377319Y-145253999D01*
X133606251Y-145292201D01*
X133606252Y-145292201D01*
X133838348Y-145292201D01*
X133838349Y-145292201D01*
X134067281Y-145253999D01*
X134286803Y-145178637D01*
X134490926Y-145068171D01*
X134535102Y-145033788D01*
X134552429Y-145020301D01*
X134674084Y-144925614D01*
X134682811Y-144916133D01*
X134742694Y-144880142D01*
X134812532Y-144882239D01*
X134870150Y-144921761D01*
X134890224Y-144956780D01*
X134918946Y-145033788D01*
X134918949Y-145033793D01*
X135005109Y-145148887D01*
X135005112Y-145148890D01*
X135120206Y-145235050D01*
X135120213Y-145235054D01*
X135254920Y-145285296D01*
X135254927Y-145285298D01*
X135314455Y-145291699D01*
X135314472Y-145291700D01*
X136012300Y-145291700D01*
X136012300Y-144266977D01*
X136088606Y-144311033D01*
X136203056Y-144341700D01*
X136321544Y-144341700D01*
X136435994Y-144311033D01*
X136512300Y-144266977D01*
X136512300Y-145291700D01*
X137210128Y-145291700D01*
X137210144Y-145291699D01*
X137269672Y-145285298D01*
X137269679Y-145285296D01*
X137404386Y-145235054D01*
X137404393Y-145235050D01*
X137519487Y-145148890D01*
X137519490Y-145148887D01*
X137605650Y-145033793D01*
X137605654Y-145033786D01*
X137655896Y-144899079D01*
X137655898Y-144899072D01*
X137662299Y-144839544D01*
X137662300Y-144839527D01*
X137662300Y-144141700D01*
X136637578Y-144141700D01*
X136681633Y-144065394D01*
X136712300Y-143950944D01*
X136712300Y-143832456D01*
X136681633Y-143718006D01*
X136637578Y-143641700D01*
X137662300Y-143641700D01*
X137662300Y-142943872D01*
X137662299Y-142943855D01*
X137655898Y-142884327D01*
X137655896Y-142884320D01*
X137605654Y-142749613D01*
X137605650Y-142749606D01*
X137519490Y-142634512D01*
X137519487Y-142634509D01*
X137404393Y-142548349D01*
X137404386Y-142548345D01*
X137269679Y-142498103D01*
X137269672Y-142498101D01*
X137210144Y-142491700D01*
X136512300Y-142491700D01*
X136512300Y-143516422D01*
X136435994Y-143472367D01*
X136321544Y-143441700D01*
X136203056Y-143441700D01*
X136088606Y-143472367D01*
X136012300Y-143516422D01*
X136012300Y-142491700D01*
X135314455Y-142491700D01*
X135254927Y-142498101D01*
X135254920Y-142498103D01*
X135120213Y-142548345D01*
X135120206Y-142548349D01*
X135005112Y-142634509D01*
X135005109Y-142634512D01*
X134918949Y-142749606D01*
X134918946Y-142749611D01*
X134890224Y-142826620D01*
X134848352Y-142882553D01*
X134782888Y-142906970D01*
X134714615Y-142892118D01*
X134682815Y-142867272D01*
X134674084Y-142857788D01*
X134615573Y-142812247D01*
X134520637Y-142738355D01*
X134479824Y-142681645D01*
X134472800Y-142640502D01*
X134472800Y-122653978D01*
X134492485Y-122586939D01*
X134509119Y-122566297D01*
X139496889Y-117578527D01*
X139558212Y-117545042D01*
X139584570Y-117542208D01*
X145715678Y-117542208D01*
X145782717Y-117561893D01*
X145817253Y-117595085D01*
X145842295Y-117630849D01*
X146003199Y-117791753D01*
X146003202Y-117791755D01*
X146189607Y-117922276D01*
X146395845Y-118018447D01*
X146615649Y-118077343D01*
X146777571Y-118091509D01*
X146842339Y-118097176D01*
X146842341Y-118097176D01*
X146842343Y-118097176D01*
X146899014Y-118092217D01*
X147069033Y-118077343D01*
X147288837Y-118018447D01*
X147495075Y-117922276D01*
X147681480Y-117791755D01*
X147842388Y-117630847D01*
X147972909Y-117444442D01*
X148069080Y-117238204D01*
X148127976Y-117018400D01*
X148147809Y-116791708D01*
X148127976Y-116565016D01*
X148069080Y-116345212D01*
X147972909Y-116138974D01*
X147842388Y-115952569D01*
X147842386Y-115952566D01*
X147681482Y-115791662D01*
X147495075Y-115661140D01*
X147495073Y-115661139D01*
X147288838Y-115564969D01*
X147288829Y-115564966D01*
X147069038Y-115506074D01*
X147069034Y-115506073D01*
X147069033Y-115506073D01*
X147069032Y-115506072D01*
X147069027Y-115506072D01*
X146842343Y-115486240D01*
X146842339Y-115486240D01*
X146615654Y-115506072D01*
X146615643Y-115506074D01*
X146395852Y-115564966D01*
X146395843Y-115564969D01*
X146189608Y-115661139D01*
X146189606Y-115661140D01*
X146003199Y-115791662D01*
X145842295Y-115952566D01*
X145817253Y-115988331D01*
X145762676Y-116031956D01*
X145715678Y-116041208D01*
X139148417Y-116041208D01*
X139119583Y-116046942D01*
X139119584Y-116046943D01*
X139003434Y-116070047D01*
X139003424Y-116070050D01*
X138923422Y-116103187D01*
X138923423Y-116103188D01*
X138866846Y-116126623D01*
X138784713Y-116181503D01*
X138743926Y-116208755D01*
X138743922Y-116208758D01*
X133139350Y-121813329D01*
X133139344Y-121813337D01*
X133090112Y-121887017D01*
X133090113Y-121887018D01*
X133057221Y-121936245D01*
X133057214Y-121936257D01*
X133000642Y-122072835D01*
X133000640Y-122072841D01*
X132971800Y-122217828D01*
X132971800Y-142640502D01*
X132952115Y-142707541D01*
X132923963Y-142738355D01*
X132770518Y-142857786D01*
X132770516Y-142857787D01*
X132770516Y-142857788D01*
X132747718Y-142882553D01*
X132613316Y-143028553D01*
X132486375Y-143222852D01*
X132393142Y-143435400D01*
X132336166Y-143660392D01*
X132336164Y-143660403D01*
X132317000Y-143891694D01*
X132317000Y-143891707D01*
X127772799Y-143891707D01*
X127772799Y-140893829D01*
X127772798Y-140893823D01*
X127772797Y-140893816D01*
X127766391Y-140834217D01*
X127719192Y-140707671D01*
X127716097Y-140699371D01*
X127716093Y-140699364D01*
X127629847Y-140584155D01*
X127629844Y-140584152D01*
X127514635Y-140497906D01*
X127514628Y-140497902D01*
X127379782Y-140447608D01*
X127372238Y-140445826D01*
X127372777Y-140443544D01*
X127319019Y-140421267D01*
X127279180Y-140363868D01*
X127272841Y-140324728D01*
X127272841Y-137037787D01*
X127244000Y-136892800D01*
X127243999Y-136892799D01*
X127243999Y-136892795D01*
X127243997Y-136892790D01*
X127187428Y-136756219D01*
X127187421Y-136756206D01*
X127105293Y-136633293D01*
X127105292Y-136633292D01*
X127000757Y-136528757D01*
X124460762Y-133988760D01*
X124460755Y-133988754D01*
X124387070Y-133939520D01*
X124387070Y-133939521D01*
X124337832Y-133906621D01*
X124201258Y-133850051D01*
X124201248Y-133850048D01*
X124056261Y-133821208D01*
X124056259Y-133821208D01*
X106276258Y-133821208D01*
X106128423Y-133821208D01*
X106128421Y-133821208D01*
X105983433Y-133850048D01*
X105983423Y-133850051D01*
X105846852Y-133906620D01*
X105846839Y-133906627D01*
X105723925Y-133988756D01*
X105723921Y-133988759D01*
X102789345Y-136923335D01*
X102756279Y-136972826D01*
X102756277Y-136972829D01*
X102707219Y-137046248D01*
X102707212Y-137046260D01*
X102650643Y-137182831D01*
X102650640Y-137182841D01*
X102621800Y-137327828D01*
X102621800Y-140317200D01*
X102602115Y-140384239D01*
X102549311Y-140429994D01*
X102497800Y-140441200D01*
X102124430Y-140441200D01*
X102124423Y-140441201D01*
X102064816Y-140447608D01*
X101929971Y-140497902D01*
X101929964Y-140497906D01*
X101814755Y-140584152D01*
X101814752Y-140584155D01*
X101728506Y-140699364D01*
X101728502Y-140699371D01*
X101678208Y-140834217D01*
X101671801Y-140893816D01*
X101671801Y-140893823D01*
X101671800Y-140893835D01*
X101671800Y-147089570D01*
X95854422Y-147089570D01*
X96075172Y-145332052D01*
X96076024Y-145326348D01*
X96078229Y-145313617D01*
X96084791Y-145275735D01*
X96084790Y-145275726D01*
X96085088Y-145268419D01*
X96085241Y-145259580D01*
X96085198Y-145252239D01*
X96078190Y-145201353D01*
X96077536Y-145195617D01*
X96075999Y-145178639D01*
X96072907Y-145144488D01*
X96072905Y-145144482D01*
X96071297Y-145137330D01*
X96069152Y-145128732D01*
X96067220Y-145121689D01*
X96067220Y-145121687D01*
X96047270Y-145074326D01*
X96045164Y-145068979D01*
X96044866Y-145068169D01*
X93047557Y-136910098D01*
X92446059Y-135257684D01*
X91884680Y-133690966D01*
X91375847Y-132246446D01*
X91375611Y-132245771D01*
X90931968Y-130960598D01*
X90931640Y-130959634D01*
X90565924Y-129871297D01*
X90565438Y-129869821D01*
X90403996Y-129368678D01*
X90290827Y-129017383D01*
X90289978Y-129014635D01*
X90120150Y-128439914D01*
X90118681Y-128434485D01*
X90083338Y-128291016D01*
X90081083Y-128279568D01*
X90077482Y-128255273D01*
X90076169Y-128234565D01*
X90077986Y-128146015D01*
X90078204Y-128140803D01*
X90085950Y-128018316D01*
X90086420Y-128012843D01*
X90099038Y-127896394D01*
X90099799Y-127890637D01*
X90117061Y-127780115D01*
X90118142Y-127774159D01*
X90139810Y-127669505D01*
X90141260Y-127663315D01*
X90144539Y-127650767D01*
X90167079Y-127564505D01*
X90168914Y-127558178D01*
X90198693Y-127464946D01*
X90200967Y-127458461D01*
X90208682Y-127438258D01*
X90234469Y-127370733D01*
X90237191Y-127364177D01*
X90274279Y-127281647D01*
X90277485Y-127275045D01*
X90300235Y-127231516D01*
X90318041Y-127197447D01*
X90321700Y-127190935D01*
X90365688Y-127117931D01*
X90369820Y-127111530D01*
X90417244Y-127042818D01*
X90421808Y-127036629D01*
X90472747Y-126971901D01*
X90477751Y-126965941D01*
X90532320Y-126904938D01*
X90537711Y-126899280D01*
X90551005Y-126886182D01*
X90596184Y-126841669D01*
X90601852Y-126836425D01*
X90664469Y-126782024D01*
X90670396Y-126777189D01*
X90737433Y-126725872D01*
X90743513Y-126721504D01*
X90815294Y-126673178D01*
X90821485Y-126669271D01*
X90898306Y-126623936D01*
X90904522Y-126620506D01*
X90986653Y-126578226D01*
X90992818Y-126575267D01*
X91080492Y-126536161D01*
X91086585Y-126533638D01*
X91179986Y-126497868D01*
X91185947Y-126495760D01*
X91285226Y-126463514D01*
X91291072Y-126461775D01*
X91396280Y-126433271D01*
X91401950Y-126431877D01*
X91513288Y-126407300D01*
X91518703Y-126406231D01*
X91636151Y-126385807D01*
X91641350Y-126385018D01*
X91764834Y-126368971D01*
X91769811Y-126368428D01*
X91899388Y-126356950D01*
X91904101Y-126356625D01*
X92039655Y-126349913D01*
X92044200Y-126349772D01*
X92180359Y-126348069D01*
X92186778Y-126348155D01*
X92439044Y-126358149D01*
X92450910Y-126359335D01*
X92452252Y-126359373D01*
X92452255Y-126359374D01*
X92514814Y-126361157D01*
X92515878Y-126361194D01*
X92578414Y-126363672D01*
X92578415Y-126363671D01*
X92579758Y-126363725D01*
X92591666Y-126363349D01*
X92667151Y-126365502D01*
X92681508Y-126366758D01*
X92681558Y-126366758D01*
X92681563Y-126366760D01*
X92743327Y-126367684D01*
X92744770Y-126367715D01*
X92806544Y-126369478D01*
X92806547Y-126369477D01*
X92808857Y-126369543D01*
X92816599Y-126369165D01*
X92855309Y-126369367D01*
X92856215Y-126369376D01*
X92890161Y-126369884D01*
X92895932Y-126370291D01*
X92899275Y-126370272D01*
X92899277Y-126370273D01*
X92910268Y-126370212D01*
X92912798Y-126370223D01*
X92919237Y-126370321D01*
X92919238Y-126370320D01*
X92923200Y-126370380D01*
X92927517Y-126370118D01*
X92961985Y-126369929D01*
X92963109Y-126369929D01*
X92992191Y-126370080D01*
X92999336Y-126370505D01*
X93001930Y-126370459D01*
X93001932Y-126370460D01*
X93015113Y-126370229D01*
X93017844Y-126370213D01*
X93025708Y-126370255D01*
X93025711Y-126370254D01*
X93029094Y-126370272D01*
X93034344Y-126369895D01*
X93064252Y-126369375D01*
X93065397Y-126369361D01*
X93089372Y-126369230D01*
X93098376Y-126369655D01*
X93099996Y-126369604D01*
X93099998Y-126369605D01*
X93115371Y-126369127D01*
X93118492Y-126369070D01*
X93127736Y-126369020D01*
X93127737Y-126369019D01*
X93130375Y-126369005D01*
X93136879Y-126368459D01*
X93161636Y-126367690D01*
X93163256Y-126367650D01*
X93181340Y-126367336D01*
X93192861Y-126367719D01*
X93193256Y-126367700D01*
X93193259Y-126367701D01*
X93210746Y-126366876D01*
X93214307Y-126366761D01*
X93224916Y-126366578D01*
X93224919Y-126366576D01*
X93226587Y-126366548D01*
X93234786Y-126365745D01*
X93254131Y-126364833D01*
X93255946Y-126364761D01*
X93267798Y-126364393D01*
X93279593Y-126364591D01*
X93281660Y-126364724D01*
X93281665Y-126364723D01*
X93281668Y-126364724D01*
X93300909Y-126363441D01*
X93305285Y-126363229D01*
X93316920Y-126362868D01*
X93316920Y-126362867D01*
X93317369Y-126362854D01*
X93327927Y-126361641D01*
X93341395Y-126360744D01*
X93343730Y-126360612D01*
X93348379Y-126360392D01*
X93359182Y-126360353D01*
X93365487Y-126360605D01*
X93365496Y-126360607D01*
X93385920Y-126358742D01*
X93391258Y-126358373D01*
X93403516Y-126357796D01*
X93403527Y-126357792D01*
X93405644Y-126357412D01*
X93416310Y-126355968D01*
X93423222Y-126355337D01*
X93437428Y-126355676D01*
X93437433Y-126355111D01*
X93445561Y-126355172D01*
X93445565Y-126355171D01*
X93445570Y-126355172D01*
X93465952Y-126352644D01*
X93472886Y-126351984D01*
X93484636Y-126351202D01*
X93484645Y-126351198D01*
X93490408Y-126350047D01*
X93515745Y-126348727D01*
X93515728Y-126348257D01*
X93523848Y-126347951D01*
X93523849Y-126347950D01*
X93523852Y-126347951D01*
X93541958Y-126344870D01*
X93551440Y-126343633D01*
X93560505Y-126342806D01*
X93560512Y-126342803D01*
X93560514Y-126342803D01*
X93568440Y-126341016D01*
X93568811Y-126342663D01*
X93600430Y-126337428D01*
X93604918Y-126337541D01*
X93616165Y-126334826D01*
X93629987Y-126332311D01*
X93631854Y-126332080D01*
X93631860Y-126332077D01*
X93634906Y-126331286D01*
X93647174Y-126327343D01*
X93648272Y-126327078D01*
X93656488Y-126325391D01*
X93660809Y-126324656D01*
X93674790Y-126323088D01*
X93682080Y-126322688D01*
X93683783Y-126322129D01*
X93698948Y-126318377D01*
X93708217Y-126315517D01*
X93708446Y-126316259D01*
X93731856Y-126309484D01*
X93735454Y-126309003D01*
X93743286Y-126305739D01*
X93761885Y-126299662D01*
X93770304Y-126297631D01*
X93770309Y-126297628D01*
X93777889Y-126294709D01*
X93777923Y-126294799D01*
X93798506Y-126286762D01*
X93801874Y-126285918D01*
X93802354Y-126285651D01*
X93817667Y-126278956D01*
X93822246Y-126276756D01*
X93822253Y-126276755D01*
X93829268Y-126272173D01*
X93849367Y-126261539D01*
X93869484Y-126253159D01*
X93869490Y-126253153D01*
X93876520Y-126249077D01*
X93876779Y-126249524D01*
X93881989Y-126246424D01*
X93881889Y-126246260D01*
X93888824Y-126242028D01*
X93888828Y-126242027D01*
X93889786Y-126241253D01*
X93895794Y-126236996D01*
X93898768Y-126234563D01*
X93898770Y-126234563D01*
X93899928Y-126233615D01*
X93918154Y-126221237D01*
X93926794Y-126216433D01*
X93939613Y-126204016D01*
X93951654Y-126194608D01*
X93951589Y-126194529D01*
X93957864Y-126189368D01*
X93957870Y-126189365D01*
X93963390Y-126183459D01*
X93976130Y-126171618D01*
X93980216Y-126168323D01*
X93998462Y-126153608D01*
X93998463Y-126153605D01*
X93998518Y-126153562D01*
X93999312Y-126152718D01*
X93999857Y-126152143D01*
X94000742Y-126151212D01*
X94000787Y-126151148D01*
X94000792Y-126151145D01*
X94009475Y-126139072D01*
X94017022Y-126130338D01*
X94021452Y-126124752D01*
X94021457Y-126124748D01*
X94021460Y-126124742D01*
X94026511Y-126118375D01*
X94026533Y-126118392D01*
X94036140Y-126105640D01*
X94047867Y-126093097D01*
X94058051Y-126073998D01*
X94067285Y-126059275D01*
X94076135Y-126047147D01*
X94076135Y-126047145D01*
X94078398Y-126044045D01*
X94081820Y-126038602D01*
X94082028Y-126038213D01*
X94082031Y-126038211D01*
X94091172Y-126014054D01*
X94097724Y-125999610D01*
X94109882Y-125976816D01*
X94115331Y-125953340D01*
X94120153Y-125937477D01*
X94121559Y-125933764D01*
X94122365Y-125931692D01*
X94127864Y-125917950D01*
X94127864Y-125917944D01*
X94128128Y-125917286D01*
X94128673Y-125914968D01*
X94128677Y-125914958D01*
X94130971Y-125892081D01*
X94131212Y-125889890D01*
X94131624Y-125886431D01*
X94133959Y-125873118D01*
X94141132Y-125842228D01*
X94140519Y-125824030D01*
X94141322Y-125805178D01*
X94143481Y-125787095D01*
X94138958Y-125755692D01*
X94137764Y-125742210D01*
X94136699Y-125710519D01*
X94131396Y-125693098D01*
X94127292Y-125674675D01*
X94126053Y-125666074D01*
X92102185Y-111611441D01*
X92080157Y-111458143D01*
X91447410Y-107054626D01*
X91269189Y-105814321D01*
X91269064Y-105813426D01*
X90813103Y-102446607D01*
X90652428Y-101260182D01*
X90652286Y-101259092D01*
X90434574Y-99531558D01*
X90434456Y-99530576D01*
X90282162Y-98213347D01*
X90281900Y-98210871D01*
X90211426Y-97471517D01*
X90199039Y-97341565D01*
X90198682Y-97336868D01*
X90195212Y-97276033D01*
X90185429Y-97104519D01*
X90185259Y-97094742D01*
X90186721Y-97028698D01*
X90189206Y-97006602D01*
X90193691Y-96984680D01*
X90195427Y-96977338D01*
X90210180Y-96922468D01*
X90212432Y-96915034D01*
X90222752Y-96884448D01*
X90229670Y-96863945D01*
X90232444Y-96856520D01*
X90252024Y-96808866D01*
X90255349Y-96801476D01*
X90256352Y-96799430D01*
X90277192Y-96756884D01*
X90281049Y-96749629D01*
X90305192Y-96707658D01*
X90309539Y-96700653D01*
X90336109Y-96660876D01*
X90340930Y-96654159D01*
X90360717Y-96628440D01*
X90370097Y-96616247D01*
X90375300Y-96609930D01*
X90407338Y-96573557D01*
X90412891Y-96567655D01*
X90448076Y-96532619D01*
X90453872Y-96527208D01*
X90486168Y-96498931D01*
X90492529Y-96493360D01*
X90498482Y-96488467D01*
X90540989Y-96455699D01*
X90547036Y-96451323D01*
X90593595Y-96419725D01*
X90599655Y-96415865D01*
X90643311Y-96389823D01*
X90652331Y-96384939D01*
X90776040Y-96324468D01*
X90787714Y-96319486D01*
X90922525Y-96269973D01*
X90933509Y-96266511D01*
X91087945Y-96225637D01*
X91098147Y-96223393D01*
X91271987Y-96192776D01*
X91281316Y-96191498D01*
X91473987Y-96172560D01*
X91482506Y-96172019D01*
X91693184Y-96165962D01*
X91700989Y-96165983D01*
X91928672Y-96173787D01*
X91935771Y-96174235D01*
X92179618Y-96196703D01*
X92186076Y-96197472D01*
X92449556Y-96235909D01*
X92453726Y-96236591D01*
X92502317Y-96245389D01*
X92516414Y-96248805D01*
X92516521Y-96248837D01*
X92516527Y-96248840D01*
X92577204Y-96258961D01*
X92578891Y-96259254D01*
X92639538Y-96270236D01*
X92641493Y-96270590D01*
X92643932Y-96271160D01*
X92647758Y-96271735D01*
X92647762Y-96271737D01*
X92708011Y-96280797D01*
X92709936Y-96281103D01*
X92765213Y-96290324D01*
X92769559Y-96291266D01*
X92772287Y-96291624D01*
X92772291Y-96291626D01*
X92773575Y-96291794D01*
X92773766Y-96291823D01*
X92773832Y-96291828D01*
X92831857Y-96299445D01*
X92834079Y-96299758D01*
X92882201Y-96306996D01*
X92888961Y-96308327D01*
X92908835Y-96310488D01*
X92949066Y-96314863D01*
X92951712Y-96315181D01*
X92992705Y-96320563D01*
X93002543Y-96322268D01*
X93002600Y-96322272D01*
X93002604Y-96322274D01*
X93060106Y-96326981D01*
X93063202Y-96327277D01*
X93096944Y-96330946D01*
X93105747Y-96332226D01*
X93109492Y-96332908D01*
X93109498Y-96332910D01*
X93115825Y-96333221D01*
X93121281Y-96333653D01*
X93125786Y-96333711D01*
X93165254Y-96335655D01*
X93169155Y-96335911D01*
X93196115Y-96338119D01*
X93204618Y-96339112D01*
X93206587Y-96339411D01*
X93206593Y-96339413D01*
X93209803Y-96339476D01*
X93217403Y-96339862D01*
X93224756Y-96340465D01*
X93224762Y-96340463D01*
X93229078Y-96340251D01*
X93251044Y-96341117D01*
X93255985Y-96341753D01*
X93255994Y-96341756D01*
X93283885Y-96341677D01*
X93296935Y-96342331D01*
X93304788Y-96343140D01*
X93304789Y-96343139D01*
X93304794Y-96343141D01*
X93307890Y-96343053D01*
X93317479Y-96343152D01*
X93323595Y-96343454D01*
X93323602Y-96343452D01*
X93327920Y-96343099D01*
X93347158Y-96343020D01*
X93353265Y-96343469D01*
X93353273Y-96343471D01*
X93363330Y-96342892D01*
X93372892Y-96342713D01*
X93376443Y-96342784D01*
X93376446Y-96342783D01*
X93378405Y-96342822D01*
X93393770Y-96342278D01*
X93401773Y-96342599D01*
X93401780Y-96342601D01*
X93410527Y-96341805D01*
X93421412Y-96341296D01*
X93423760Y-96341290D01*
X93423767Y-96341288D01*
X93424368Y-96341208D01*
X93442643Y-96341201D01*
X93442645Y-96340302D01*
X93450763Y-96340315D01*
X93450771Y-96340317D01*
X93457526Y-96339440D01*
X93469973Y-96338459D01*
X93470169Y-96338453D01*
X93470390Y-96338447D01*
X93470398Y-96338444D01*
X93474587Y-96337772D01*
X93492635Y-96337131D01*
X93492614Y-96336638D01*
X93500731Y-96336291D01*
X93500731Y-96336290D01*
X93500733Y-96336291D01*
X93504596Y-96335613D01*
X93514743Y-96334436D01*
X93516578Y-96334086D01*
X93516580Y-96334086D01*
X93516580Y-96334085D01*
X93524575Y-96332562D01*
X93524877Y-96334148D01*
X93544287Y-96331375D01*
X93544234Y-96330809D01*
X93552320Y-96330037D01*
X93552331Y-96330038D01*
X93552340Y-96330035D01*
X93552464Y-96330024D01*
X93556120Y-96329442D01*
X93562628Y-96327977D01*
X93562630Y-96327977D01*
X93562631Y-96327976D01*
X93567650Y-96326847D01*
X93572502Y-96325403D01*
X93575514Y-96324710D01*
X93587327Y-96322592D01*
X93593321Y-96321814D01*
X93606111Y-96320822D01*
X93606336Y-96320817D01*
X93624948Y-96315313D01*
X93638659Y-96312095D01*
X93655851Y-96309080D01*
X93655854Y-96309078D01*
X93660116Y-96308331D01*
X93663563Y-96307524D01*
X93663569Y-96307524D01*
X93676407Y-96302681D01*
X93692387Y-96297856D01*
X93703926Y-96295206D01*
X93703929Y-96295203D01*
X93708751Y-96293407D01*
X93716980Y-96291118D01*
X93716975Y-96291102D01*
X93724698Y-96288569D01*
X93724698Y-96288568D01*
X93724703Y-96288568D01*
X93730589Y-96285740D01*
X93749120Y-96278604D01*
X93753704Y-96277250D01*
X93754771Y-96276596D01*
X93784088Y-96263522D01*
X93790196Y-96261702D01*
X93790204Y-96261696D01*
X93796031Y-96259091D01*
X93798567Y-96257847D01*
X93798524Y-96257766D01*
X93805689Y-96253930D01*
X93805689Y-96253929D01*
X93805694Y-96253928D01*
X93814800Y-96247393D01*
X93833411Y-96236363D01*
X93851056Y-96227890D01*
X93854996Y-96226081D01*
X93859545Y-96224091D01*
X93881025Y-96206920D01*
X93893468Y-96198170D01*
X93916884Y-96183766D01*
X93916890Y-96183758D01*
X93923196Y-96178636D01*
X93923841Y-96179429D01*
X93924843Y-96178610D01*
X93924295Y-96177941D01*
X93930583Y-96172792D01*
X93930585Y-96172789D01*
X93930588Y-96172788D01*
X93945139Y-96157285D01*
X93958126Y-96145292D01*
X93974725Y-96132024D01*
X93974724Y-96132024D01*
X93974729Y-96132021D01*
X93976859Y-96129126D01*
X93995351Y-96109070D01*
X93998961Y-96105932D01*
X94007707Y-96092957D01*
X94020106Y-96077417D01*
X94030815Y-96066010D01*
X94036899Y-96054655D01*
X94049944Y-96035050D01*
X94058631Y-96024358D01*
X94063456Y-96013564D01*
X94073839Y-95994862D01*
X94080449Y-95985060D01*
X94086193Y-95968362D01*
X94095051Y-95948490D01*
X94103712Y-95932904D01*
X94106404Y-95922151D01*
X94113488Y-95901663D01*
X94118017Y-95891536D01*
X94120608Y-95875339D01*
X94126146Y-95853585D01*
X94131412Y-95838694D01*
X94132468Y-95825194D01*
X94135803Y-95804757D01*
X94139090Y-95791634D01*
X94138792Y-95773496D01*
X94140303Y-95752050D01*
X94143344Y-95732860D01*
X94142438Y-95724239D01*
X94142137Y-95701603D01*
X94142814Y-95692957D01*
X94138377Y-95669081D01*
X94137630Y-95664613D01*
X94136927Y-95659872D01*
X94136927Y-95659868D01*
X94136925Y-95659863D01*
X94135888Y-95652865D01*
X94133822Y-95642212D01*
X94130377Y-95609417D01*
X94021780Y-94575510D01*
X132399299Y-94575510D01*
X132418463Y-94806801D01*
X132418465Y-94806812D01*
X132475441Y-95031804D01*
X132568674Y-95244352D01*
X132695615Y-95438651D01*
X132695618Y-95438655D01*
X132695620Y-95438657D01*
X132852815Y-95609417D01*
X133000339Y-95724239D01*
X133006261Y-95728848D01*
X133047074Y-95785559D01*
X133054099Y-95826702D01*
X133054099Y-96207884D01*
X133054099Y-96207886D01*
X133054098Y-96207886D01*
X133082939Y-96352873D01*
X133082942Y-96352883D01*
X133139511Y-96489453D01*
X133139515Y-96489462D01*
X133145840Y-96498926D01*
X133145841Y-96498931D01*
X133145843Y-96498931D01*
X133219993Y-96609907D01*
X133221650Y-96612386D01*
X133221651Y-96612387D01*
X151135522Y-114526256D01*
X151169007Y-114587579D01*
X151171841Y-114613937D01*
X151171841Y-115665044D01*
X151152156Y-115732083D01*
X151118966Y-115766618D01*
X151083204Y-115791659D01*
X150922292Y-115952570D01*
X150791773Y-116138973D01*
X150791772Y-116138975D01*
X150695602Y-116345210D01*
X150695599Y-116345219D01*
X150636707Y-116565010D01*
X150636705Y-116565021D01*
X150616873Y-116791706D01*
X150616873Y-116791709D01*
X150636705Y-117018394D01*
X150636707Y-117018405D01*
X150695599Y-117238196D01*
X150695602Y-117238205D01*
X150791772Y-117444440D01*
X150791773Y-117444442D01*
X150922295Y-117630849D01*
X151083199Y-117791753D01*
X151083202Y-117791755D01*
X151269607Y-117922276D01*
X151475845Y-118018447D01*
X151695649Y-118077343D01*
X151857571Y-118091509D01*
X151922339Y-118097176D01*
X151922341Y-118097176D01*
X151922343Y-118097176D01*
X151979014Y-118092217D01*
X152149033Y-118077343D01*
X152368837Y-118018447D01*
X152575075Y-117922276D01*
X152761480Y-117791755D01*
X152922388Y-117630847D01*
X153052909Y-117444442D01*
X153149080Y-117238204D01*
X153207976Y-117018400D01*
X153227809Y-116791708D01*
X153207976Y-116565016D01*
X153149080Y-116345212D01*
X153052909Y-116138974D01*
X152922388Y-115952569D01*
X152761480Y-115791661D01*
X152756714Y-115788323D01*
X152725716Y-115766618D01*
X152682092Y-115712040D01*
X152672841Y-115665044D01*
X152672841Y-114177787D01*
X152644000Y-114032800D01*
X152643999Y-114032799D01*
X152643999Y-114032795D01*
X152643997Y-114032790D01*
X152587428Y-113896219D01*
X152587421Y-113896206D01*
X152505293Y-113773293D01*
X152505292Y-113773292D01*
X152400757Y-113668757D01*
X134622326Y-95890325D01*
X134588841Y-95829002D01*
X134593825Y-95759310D01*
X134633844Y-95704792D01*
X134756383Y-95609417D01*
X134913578Y-95438657D01*
X135040523Y-95244353D01*
X135133756Y-95031804D01*
X135190733Y-94806809D01*
X135201270Y-94679648D01*
X135209899Y-94575510D01*
X135209899Y-94575497D01*
X135190734Y-94344206D01*
X135190730Y-94344186D01*
X135166551Y-94248706D01*
X135169175Y-94178886D01*
X135209131Y-94121568D01*
X135273732Y-94094951D01*
X135307319Y-94095982D01*
X135392000Y-94110221D01*
X135392002Y-94110222D01*
X135534762Y-94093151D01*
X135666935Y-94036553D01*
X135777802Y-93945013D01*
X135777805Y-93945009D01*
X135813121Y-93896644D01*
X135813124Y-93896639D01*
X136162035Y-93292306D01*
X136162035Y-93292305D01*
X135274600Y-92779944D01*
X135350906Y-92735890D01*
X135434690Y-92652106D01*
X135493933Y-92549494D01*
X135524600Y-92435044D01*
X135524600Y-92346932D01*
X136412034Y-92859292D01*
X136412035Y-92859292D01*
X136760946Y-92254964D01*
X136785178Y-92200187D01*
X136785180Y-92200181D01*
X136809021Y-92058399D01*
X136809022Y-92058397D01*
X136791951Y-91915637D01*
X136735353Y-91783464D01*
X136643813Y-91672597D01*
X136643809Y-91672594D01*
X136595444Y-91637278D01*
X136595439Y-91637275D01*
X135991106Y-91288363D01*
X135991105Y-91288363D01*
X135478744Y-92175797D01*
X135434690Y-92099494D01*
X135350906Y-92015710D01*
X135248294Y-91956467D01*
X135133844Y-91925800D01*
X135045731Y-91925800D01*
X135558092Y-91038364D01*
X135558092Y-91038363D01*
X134953764Y-90689453D01*
X134898987Y-90665221D01*
X134898981Y-90665219D01*
X134757199Y-90641378D01*
X134757197Y-90641377D01*
X134614437Y-90658448D01*
X134482264Y-90715046D01*
X134371397Y-90806586D01*
X134371394Y-90806590D01*
X134336081Y-90854951D01*
X133987163Y-91459292D01*
X133987163Y-91459293D01*
X134874599Y-91971654D01*
X134798294Y-92015710D01*
X134714510Y-92099494D01*
X134655267Y-92202106D01*
X134624600Y-92316556D01*
X134624600Y-92404667D01*
X133737164Y-91892306D01*
X133737163Y-91892306D01*
X133388253Y-92496635D01*
X133364021Y-92551412D01*
X133364019Y-92551418D01*
X133340178Y-92693200D01*
X133340177Y-92693202D01*
X133357248Y-92835962D01*
X133413846Y-92968135D01*
X133467600Y-93033237D01*
X133495105Y-93097465D01*
X133483519Y-93166367D01*
X133436521Y-93218068D01*
X133412245Y-93229468D01*
X133240103Y-93288565D01*
X133240094Y-93288568D01*
X133035970Y-93399035D01*
X133035964Y-93399039D01*
X132852821Y-93541585D01*
X132852818Y-93541588D01*
X132695615Y-93712356D01*
X132568674Y-93906655D01*
X132475441Y-94119203D01*
X132418465Y-94344195D01*
X132418463Y-94344206D01*
X132399299Y-94575497D01*
X132399299Y-94575510D01*
X94021780Y-94575510D01*
X90840038Y-64283578D01*
X90838785Y-64271578D01*
X90298287Y-59093364D01*
X89281316Y-49350325D01*
X88971674Y-46266707D01*
X91602000Y-46266707D01*
X91621164Y-46497998D01*
X91621166Y-46498009D01*
X91678142Y-46723001D01*
X91771375Y-46935549D01*
X91898316Y-47129848D01*
X91898319Y-47129852D01*
X91898321Y-47129854D01*
X92055516Y-47300614D01*
X92194496Y-47408786D01*
X92208962Y-47420045D01*
X92249775Y-47476756D01*
X92256800Y-47517899D01*
X92256800Y-52870585D01*
X92256800Y-52870587D01*
X92256799Y-52870587D01*
X92285640Y-53015574D01*
X92285643Y-53015584D01*
X92342213Y-53152157D01*
X92342214Y-53152158D01*
X92342216Y-53152162D01*
X92354646Y-53170764D01*
X92354647Y-53170766D01*
X92424351Y-53275087D01*
X92424352Y-53275088D01*
X100643925Y-61494660D01*
X100643927Y-61494662D01*
X100673399Y-61514353D01*
X100717611Y-61543894D01*
X100766846Y-61576792D01*
X100766847Y-61576792D01*
X100766848Y-61576793D01*
X100766850Y-61576794D01*
X100903423Y-61633364D01*
X100903428Y-61633366D01*
X100903432Y-61633366D01*
X100903433Y-61633367D01*
X101048420Y-61662208D01*
X101048423Y-61662208D01*
X101048424Y-61662208D01*
X101196258Y-61662208D01*
X128700111Y-61662208D01*
X128767150Y-61681893D01*
X128787792Y-61698527D01*
X133355522Y-66266257D01*
X133389007Y-66327580D01*
X133391841Y-66353938D01*
X133391841Y-83845626D01*
X133391841Y-83845628D01*
X133391840Y-83845628D01*
X133420681Y-83990615D01*
X133420684Y-83990625D01*
X133477253Y-84127196D01*
X133477259Y-84127207D01*
X133486396Y-84140880D01*
X133486398Y-84140885D01*
X133559387Y-84250122D01*
X133559393Y-84250129D01*
X156215522Y-106906257D01*
X156249007Y-106967580D01*
X156251841Y-106993938D01*
X156251841Y-115665044D01*
X156232156Y-115732083D01*
X156198966Y-115766618D01*
X156163204Y-115791659D01*
X156002292Y-115952570D01*
X155871773Y-116138973D01*
X155871772Y-116138975D01*
X155775602Y-116345210D01*
X155775599Y-116345219D01*
X155716707Y-116565010D01*
X155716705Y-116565021D01*
X155696873Y-116791706D01*
X155696873Y-116791709D01*
X155716705Y-117018394D01*
X155716707Y-117018405D01*
X155775599Y-117238196D01*
X155775602Y-117238205D01*
X155871772Y-117444440D01*
X155871773Y-117444442D01*
X156002295Y-117630849D01*
X156163199Y-117791753D01*
X156163202Y-117791755D01*
X156349607Y-117922276D01*
X156555845Y-118018447D01*
X156775649Y-118077343D01*
X156937571Y-118091509D01*
X157002339Y-118097176D01*
X157002341Y-118097176D01*
X157002343Y-118097176D01*
X157059014Y-118092217D01*
X157229033Y-118077343D01*
X157448837Y-118018447D01*
X157655075Y-117922276D01*
X157841480Y-117791755D01*
X158002388Y-117630847D01*
X158132909Y-117444442D01*
X158229080Y-117238204D01*
X158287976Y-117018400D01*
X158307809Y-116791708D01*
X158287976Y-116565016D01*
X158229080Y-116345212D01*
X158132909Y-116138974D01*
X158002388Y-115952569D01*
X157841480Y-115791661D01*
X157836714Y-115788323D01*
X157805716Y-115766618D01*
X157762092Y-115712040D01*
X157752841Y-115665044D01*
X157752841Y-106557787D01*
X157724000Y-106412800D01*
X157723999Y-106412799D01*
X157723999Y-106412795D01*
X157723997Y-106412790D01*
X157667427Y-106276217D01*
X157667426Y-106276215D01*
X157634527Y-106226978D01*
X157634526Y-106226976D01*
X157585297Y-106153297D01*
X157585293Y-106153292D01*
X149811908Y-98379907D01*
X153006119Y-98379907D01*
X153034960Y-98524894D01*
X153034963Y-98524904D01*
X153091533Y-98661477D01*
X153091534Y-98661478D01*
X153091536Y-98661482D01*
X153112200Y-98692407D01*
X153112201Y-98692409D01*
X153173671Y-98784407D01*
X153173672Y-98784408D01*
X161295522Y-106906256D01*
X161329007Y-106967579D01*
X161331841Y-106993937D01*
X161331841Y-115665044D01*
X161312156Y-115732083D01*
X161278966Y-115766618D01*
X161243204Y-115791659D01*
X161082292Y-115952570D01*
X160951773Y-116138973D01*
X160951772Y-116138975D01*
X160855602Y-116345210D01*
X160855599Y-116345219D01*
X160796707Y-116565010D01*
X160796705Y-116565021D01*
X160776873Y-116791706D01*
X160776873Y-116791709D01*
X160796705Y-117018394D01*
X160796707Y-117018405D01*
X160855599Y-117238196D01*
X160855602Y-117238205D01*
X160951772Y-117444440D01*
X160951773Y-117444442D01*
X161082295Y-117630849D01*
X161243199Y-117791753D01*
X161243202Y-117791755D01*
X161429607Y-117922276D01*
X161635845Y-118018447D01*
X161855649Y-118077343D01*
X162017571Y-118091509D01*
X162082339Y-118097176D01*
X162082341Y-118097176D01*
X162082343Y-118097176D01*
X162139014Y-118092217D01*
X162309033Y-118077343D01*
X162528837Y-118018447D01*
X162735075Y-117922276D01*
X162921480Y-117791755D01*
X163082388Y-117630847D01*
X163212909Y-117444442D01*
X163309080Y-117238204D01*
X163367976Y-117018400D01*
X163387809Y-116791708D01*
X163367976Y-116565016D01*
X163309080Y-116345212D01*
X163212909Y-116138974D01*
X163082388Y-115952569D01*
X162921480Y-115791661D01*
X162916714Y-115788323D01*
X162885716Y-115766618D01*
X162842092Y-115712040D01*
X162832841Y-115665044D01*
X162832841Y-106557787D01*
X162811682Y-106451418D01*
X162811682Y-106451417D01*
X162804000Y-106412796D01*
X162749749Y-106281825D01*
X162748105Y-106277230D01*
X162665295Y-106153296D01*
X162665294Y-106153295D01*
X162665292Y-106153292D01*
X162560757Y-106048757D01*
X154543439Y-98031438D01*
X154509954Y-97970115D01*
X154507120Y-97943757D01*
X154507120Y-97251480D01*
X154526805Y-97184441D01*
X154579609Y-97138686D01*
X154648767Y-97128742D01*
X154712323Y-97157767D01*
X154726110Y-97171775D01*
X155056139Y-97565090D01*
X155839300Y-96907941D01*
X155839300Y-96915944D01*
X155869967Y-97030394D01*
X155929210Y-97133006D01*
X156012994Y-97216790D01*
X156115606Y-97276033D01*
X156163268Y-97288804D01*
X155377535Y-97948113D01*
X155826091Y-98482681D01*
X155869271Y-98524182D01*
X155994351Y-98595081D01*
X155994354Y-98595082D01*
X156134342Y-98627866D01*
X156277900Y-98619889D01*
X156413392Y-98571787D01*
X156463126Y-98538412D01*
X156463127Y-98538411D01*
X156997690Y-98089859D01*
X156340542Y-97306700D01*
X156348544Y-97306700D01*
X156462994Y-97276033D01*
X156565606Y-97216790D01*
X156649390Y-97133006D01*
X156708633Y-97030394D01*
X156721404Y-96982731D01*
X157380713Y-97768464D01*
X157915277Y-97319913D01*
X157956782Y-97276728D01*
X158027681Y-97151648D01*
X158027682Y-97151645D01*
X158060467Y-97011657D01*
X158052489Y-96868099D01*
X158004387Y-96732607D01*
X157971015Y-96682878D01*
X157522457Y-96148307D01*
X156739300Y-96805455D01*
X156739300Y-96797456D01*
X156708633Y-96683006D01*
X156649390Y-96580394D01*
X156565606Y-96496610D01*
X156462994Y-96437367D01*
X156415330Y-96424595D01*
X157201064Y-95765286D01*
X156752508Y-95230718D01*
X156709328Y-95189217D01*
X156584248Y-95118318D01*
X156584245Y-95118317D01*
X156444256Y-95085532D01*
X156300701Y-95093510D01*
X156220011Y-95122157D01*
X156150249Y-95126035D01*
X156089465Y-95091581D01*
X156056957Y-95029735D01*
X156054950Y-94995062D01*
X156061920Y-94910951D01*
X156061920Y-94910939D01*
X156042755Y-94679648D01*
X156042753Y-94679637D01*
X155985777Y-94454645D01*
X155892544Y-94242097D01*
X155765603Y-94047798D01*
X155765600Y-94047795D01*
X155765599Y-94047793D01*
X155608404Y-93877033D01*
X155608399Y-93877029D01*
X155608397Y-93877027D01*
X155425254Y-93734481D01*
X155425248Y-93734477D01*
X155221124Y-93624010D01*
X155221115Y-93624007D01*
X155001604Y-93548648D01*
X154829902Y-93519996D01*
X154772669Y-93510446D01*
X154540571Y-93510446D01*
X154494784Y-93518086D01*
X154311635Y-93548648D01*
X154092124Y-93624007D01*
X154092115Y-93624010D01*
X153887991Y-93734477D01*
X153887985Y-93734481D01*
X153704842Y-93877027D01*
X153704839Y-93877030D01*
X153704836Y-93877032D01*
X153704836Y-93877033D01*
X153686783Y-93896644D01*
X153547636Y-94047798D01*
X153420695Y-94242097D01*
X153327462Y-94454645D01*
X153270486Y-94679637D01*
X153270484Y-94679648D01*
X153251320Y-94910939D01*
X153251320Y-94910952D01*
X153270485Y-95142250D01*
X153270485Y-95142253D01*
X153272074Y-95148524D01*
X153269450Y-95218344D01*
X153239551Y-95266645D01*
X153173668Y-95332529D01*
X153173663Y-95332535D01*
X153124622Y-95405934D01*
X153124621Y-95405936D01*
X153109477Y-95428600D01*
X153091536Y-95455450D01*
X153091532Y-95455457D01*
X153034963Y-95592028D01*
X153034960Y-95592038D01*
X153006120Y-95737025D01*
X153006120Y-95737028D01*
X153006120Y-98379905D01*
X153006120Y-98379907D01*
X153006119Y-98379907D01*
X149811908Y-98379907D01*
X134929160Y-83497159D01*
X134895675Y-83435836D01*
X134892841Y-83409478D01*
X134892841Y-75999453D01*
X164183044Y-75999453D01*
X164188188Y-76071391D01*
X164228726Y-76209445D01*
X164306511Y-76330481D01*
X164306513Y-76330483D01*
X164415250Y-76424705D01*
X164447761Y-76439552D01*
X164500564Y-76485306D01*
X164571094Y-76595053D01*
X164571098Y-76595057D01*
X164679827Y-76689272D01*
X164679830Y-76689275D01*
X164679831Y-76689275D01*
X164679833Y-76689277D01*
X164712326Y-76704115D01*
X164765127Y-76749868D01*
X164835676Y-76859644D01*
X164944413Y-76953866D01*
X164976915Y-76968709D01*
X165029718Y-77014462D01*
X165029719Y-77014463D01*
X165100264Y-77124232D01*
X165209001Y-77218454D01*
X165209005Y-77218456D01*
X165209007Y-77218457D01*
X165241519Y-77233305D01*
X165294323Y-77279059D01*
X165364851Y-77388803D01*
X165364855Y-77388807D01*
X165473584Y-77483022D01*
X165473587Y-77483025D01*
X165473588Y-77483025D01*
X165473590Y-77483027D01*
X165506070Y-77497860D01*
X165558872Y-77543613D01*
X165592321Y-77595660D01*
X165629425Y-77653394D01*
X165738162Y-77747616D01*
X165762410Y-77758689D01*
X165770666Y-77762460D01*
X165823469Y-77808214D01*
X165856910Y-77860248D01*
X165894014Y-77917982D01*
X166002751Y-78012204D01*
X166002755Y-78012206D01*
X166002757Y-78012207D01*
X166035269Y-78027055D01*
X166088073Y-78072809D01*
X166158601Y-78182553D01*
X166158605Y-78182557D01*
X166267334Y-78276772D01*
X166267340Y-78276777D01*
X166307808Y-78295258D01*
X166398214Y-78336546D01*
X166398217Y-78336546D01*
X166398218Y-78336547D01*
X166540634Y-78357023D01*
X166540637Y-78357023D01*
X167069795Y-78357023D01*
X167141735Y-78351878D01*
X167279787Y-78311342D01*
X167400827Y-78233554D01*
X167495049Y-78124817D01*
X167509882Y-78092334D01*
X167555632Y-78039534D01*
X167665416Y-77968981D01*
X167759638Y-77860244D01*
X167774488Y-77827727D01*
X167820238Y-77774925D01*
X167929988Y-77704393D01*
X168024210Y-77595656D01*
X168039053Y-77563151D01*
X168084801Y-77510352D01*
X168194577Y-77439804D01*
X168288799Y-77331067D01*
X168303632Y-77298584D01*
X168349382Y-77245784D01*
X168459166Y-77175231D01*
X168553388Y-77066494D01*
X168568238Y-77033977D01*
X168613988Y-76981175D01*
X168723738Y-76910643D01*
X168817960Y-76801906D01*
X168832803Y-76769401D01*
X168878551Y-76716602D01*
X168988327Y-76646054D01*
X169082549Y-76537317D01*
X169097381Y-76504836D01*
X169143132Y-76452036D01*
X169252916Y-76381482D01*
X169347138Y-76272745D01*
X169388426Y-76182335D01*
X169406907Y-76141870D01*
X169406908Y-76141865D01*
X169427384Y-75999451D01*
X169427384Y-73089028D01*
X169422239Y-73017088D01*
X169381703Y-72879036D01*
X169303915Y-72757996D01*
X169245057Y-72706995D01*
X169195183Y-72663778D01*
X169195181Y-72663777D01*
X169195178Y-72663774D01*
X169162668Y-72648927D01*
X169109866Y-72603173D01*
X169039327Y-72493414D01*
X169039326Y-72493412D01*
X168980468Y-72442411D01*
X168930594Y-72399194D01*
X168930592Y-72399193D01*
X168930589Y-72399190D01*
X168898077Y-72384342D01*
X168845274Y-72338588D01*
X168774737Y-72228830D01*
X168715879Y-72177829D01*
X168666005Y-72134612D01*
X168666003Y-72134610D01*
X168666000Y-72134608D01*
X168665996Y-72134606D01*
X168535125Y-72074838D01*
X168535120Y-72074837D01*
X168392706Y-72054362D01*
X165217707Y-72054362D01*
X165217704Y-72054362D01*
X165145766Y-72059506D01*
X165007712Y-72100044D01*
X164886676Y-72177829D01*
X164886672Y-72177833D01*
X164792457Y-72286562D01*
X164792452Y-72286570D01*
X164777609Y-72319071D01*
X164731855Y-72371873D01*
X164622097Y-72442411D01*
X164622092Y-72442415D01*
X164527877Y-72551144D01*
X164527869Y-72551155D01*
X164513027Y-72583655D01*
X164467274Y-72636456D01*
X164357514Y-72706995D01*
X164357509Y-72706999D01*
X164263294Y-72815728D01*
X164263288Y-72815737D01*
X164203520Y-72946608D01*
X164203519Y-72946613D01*
X164183044Y-73089027D01*
X164183044Y-75999453D01*
X134892841Y-75999453D01*
X134892841Y-69151525D01*
X163718522Y-69151525D01*
X163723666Y-69223463D01*
X163764204Y-69361517D01*
X163841989Y-69482553D01*
X163950726Y-69576776D01*
X163983223Y-69591617D01*
X164036027Y-69637371D01*
X164106572Y-69747140D01*
X164106576Y-69747145D01*
X164215305Y-69841360D01*
X164215311Y-69841365D01*
X164255779Y-69859846D01*
X164346185Y-69901134D01*
X164346188Y-69901134D01*
X164346189Y-69901135D01*
X164488605Y-69921611D01*
X164488608Y-69921611D01*
X169251109Y-69921611D01*
X169323049Y-69916466D01*
X169461101Y-69875930D01*
X169582141Y-69798142D01*
X169676363Y-69689405D01*
X169691212Y-69656888D01*
X169736963Y-69604086D01*
X169846714Y-69533554D01*
X169940936Y-69424817D01*
X170000706Y-69293939D01*
X170021182Y-69151523D01*
X170021182Y-64918189D01*
X170016037Y-64846249D01*
X169975501Y-64708197D01*
X169897713Y-64587157D01*
X169838855Y-64536156D01*
X169788981Y-64492939D01*
X169788979Y-64492937D01*
X169788976Y-64492935D01*
X169756485Y-64478097D01*
X169703685Y-64432345D01*
X169633140Y-64322575D01*
X169588135Y-64283578D01*
X169524408Y-64228357D01*
X169524406Y-64228355D01*
X169524403Y-64228353D01*
X169524399Y-64228351D01*
X169393528Y-64168583D01*
X169393523Y-64168582D01*
X169251109Y-64148107D01*
X168700425Y-64148107D01*
X168633386Y-64128422D01*
X168596109Y-64091146D01*
X168574802Y-64057991D01*
X168466065Y-63963769D01*
X168466061Y-63963767D01*
X168335190Y-63903999D01*
X168335185Y-63903998D01*
X168192771Y-63883523D01*
X167663609Y-63883523D01*
X167663606Y-63883523D01*
X167591668Y-63888667D01*
X167453614Y-63929205D01*
X167332578Y-64006990D01*
X167291931Y-64053899D01*
X167247382Y-64105311D01*
X167188605Y-64143084D01*
X167153671Y-64148107D01*
X166583763Y-64148107D01*
X166516724Y-64128422D01*
X166479447Y-64091146D01*
X166458140Y-64057991D01*
X166349403Y-63963769D01*
X166349399Y-63963767D01*
X166218528Y-63903999D01*
X166218523Y-63903998D01*
X166076109Y-63883523D01*
X165546932Y-63883523D01*
X165546929Y-63883523D01*
X165474991Y-63888667D01*
X165336937Y-63929205D01*
X165215901Y-64006990D01*
X165175254Y-64053899D01*
X165130705Y-64105311D01*
X165071928Y-64143084D01*
X165036994Y-64148107D01*
X164488602Y-64148107D01*
X164416664Y-64153251D01*
X164278610Y-64193789D01*
X164157574Y-64271574D01*
X164157570Y-64271578D01*
X164063355Y-64380307D01*
X164063350Y-64380315D01*
X164048508Y-64412814D01*
X164002754Y-64465616D01*
X163892992Y-64536156D01*
X163892987Y-64536160D01*
X163798772Y-64644889D01*
X163798766Y-64644898D01*
X163738998Y-64775769D01*
X163738997Y-64775774D01*
X163718522Y-64918188D01*
X163718522Y-69151525D01*
X134892841Y-69151525D01*
X134892841Y-65917787D01*
X134864000Y-65772800D01*
X134863999Y-65772799D01*
X134863999Y-65772795D01*
X134807425Y-65636213D01*
X134774527Y-65586978D01*
X134774526Y-65586976D01*
X134725297Y-65513297D01*
X134725293Y-65513292D01*
X129540762Y-60328760D01*
X129540755Y-60328754D01*
X129467070Y-60279520D01*
X129467070Y-60279521D01*
X129417832Y-60246621D01*
X129281258Y-60190051D01*
X129281248Y-60190048D01*
X129136261Y-60161208D01*
X129136259Y-60161208D01*
X101484571Y-60161208D01*
X101417532Y-60141523D01*
X101396890Y-60124889D01*
X93794119Y-52522118D01*
X93760634Y-52460795D01*
X93757800Y-52434437D01*
X93757800Y-47517899D01*
X93777485Y-47450860D01*
X93805638Y-47420045D01*
X93959084Y-47300614D01*
X93967811Y-47291133D01*
X94027694Y-47255142D01*
X94097532Y-47257239D01*
X94155150Y-47296761D01*
X94175224Y-47331780D01*
X94203946Y-47408788D01*
X94203949Y-47408793D01*
X94290109Y-47523887D01*
X94290112Y-47523890D01*
X94405206Y-47610050D01*
X94405213Y-47610054D01*
X94539920Y-47660296D01*
X94539927Y-47660298D01*
X94599455Y-47666699D01*
X94599472Y-47666700D01*
X95297300Y-47666700D01*
X95297300Y-46641977D01*
X95373606Y-46686033D01*
X95488056Y-46716700D01*
X95606544Y-46716700D01*
X95720994Y-46686033D01*
X95797300Y-46641977D01*
X95797300Y-47666700D01*
X96495128Y-47666700D01*
X96495144Y-47666699D01*
X96554672Y-47660298D01*
X96554679Y-47660296D01*
X96689386Y-47610054D01*
X96689393Y-47610050D01*
X96804487Y-47523890D01*
X96804490Y-47523887D01*
X96890650Y-47408793D01*
X96890654Y-47408786D01*
X96940896Y-47274079D01*
X96940898Y-47274072D01*
X96947299Y-47214544D01*
X96947300Y-47214527D01*
X96947300Y-46752042D01*
X99852206Y-46752042D01*
X99852206Y-56912042D01*
X151048300Y-56912042D01*
X151115339Y-56931727D01*
X151161094Y-56984531D01*
X151172300Y-57036042D01*
X151172300Y-57764544D01*
X151178701Y-57824072D01*
X151178703Y-57824079D01*
X151228945Y-57958786D01*
X151228949Y-57958793D01*
X151315109Y-58073887D01*
X151315112Y-58073890D01*
X151430206Y-58160050D01*
X151430213Y-58160054D01*
X151564920Y-58210296D01*
X151564927Y-58210298D01*
X151624455Y-58216699D01*
X151624472Y-58216700D01*
X152322300Y-58216700D01*
X152322300Y-57191977D01*
X152398606Y-57236033D01*
X152513056Y-57266700D01*
X152631544Y-57266700D01*
X152745994Y-57236033D01*
X152822300Y-57191977D01*
X152822300Y-58216700D01*
X153520128Y-58216700D01*
X153520144Y-58216699D01*
X153579672Y-58210298D01*
X153579679Y-58210296D01*
X153714386Y-58160054D01*
X153714393Y-58160050D01*
X153829487Y-58073890D01*
X153829490Y-58073887D01*
X153915650Y-57958793D01*
X153915655Y-57958784D01*
X153944375Y-57881782D01*
X153986246Y-57825848D01*
X154051710Y-57801430D01*
X154119983Y-57816281D01*
X154151784Y-57841129D01*
X154160516Y-57850614D01*
X154160519Y-57850616D01*
X154160522Y-57850619D01*
X154343665Y-57993165D01*
X154343671Y-57993169D01*
X154343674Y-57993171D01*
X154547797Y-58103637D01*
X154661787Y-58142769D01*
X154767315Y-58178998D01*
X154767317Y-58178998D01*
X154767319Y-58178999D01*
X154996251Y-58217201D01*
X154996252Y-58217201D01*
X155228347Y-58217201D01*
X155228349Y-58217201D01*
X155356574Y-58195803D01*
X155425935Y-58204184D01*
X155464662Y-58230431D01*
X156188893Y-58954662D01*
X156218365Y-58974353D01*
X156262577Y-59003894D01*
X156311812Y-59036792D01*
X156311813Y-59036792D01*
X156311814Y-59036793D01*
X156311816Y-59036794D01*
X156448389Y-59093364D01*
X156448394Y-59093366D01*
X156448398Y-59093366D01*
X156448399Y-59093367D01*
X156593386Y-59122208D01*
X156593389Y-59122208D01*
X156593390Y-59122208D01*
X156741224Y-59122208D01*
X169340111Y-59122208D01*
X169407150Y-59141893D01*
X169427792Y-59158527D01*
X170755522Y-60486257D01*
X170789007Y-60547580D01*
X170791841Y-60573938D01*
X170791841Y-112049477D01*
X170772156Y-112116516D01*
X170755522Y-112137158D01*
X167427689Y-115464990D01*
X167366366Y-115498475D01*
X167329202Y-115500837D01*
X167162344Y-115486240D01*
X167162339Y-115486240D01*
X166935654Y-115506072D01*
X166935643Y-115506074D01*
X166715852Y-115564966D01*
X166715843Y-115564969D01*
X166509608Y-115661139D01*
X166509606Y-115661140D01*
X166323199Y-115791662D01*
X166162295Y-115952566D01*
X166031773Y-116138973D01*
X166031772Y-116138975D01*
X165935602Y-116345210D01*
X165935599Y-116345219D01*
X165876707Y-116565010D01*
X165876705Y-116565021D01*
X165856873Y-116791706D01*
X165856873Y-116791709D01*
X165876705Y-117018394D01*
X165876707Y-117018405D01*
X165935599Y-117238196D01*
X165935602Y-117238205D01*
X166031772Y-117444440D01*
X166031773Y-117444442D01*
X166162295Y-117630849D01*
X166323199Y-117791753D01*
X166323202Y-117791755D01*
X166509607Y-117922276D01*
X166715845Y-118018447D01*
X166935649Y-118077343D01*
X167097571Y-118091509D01*
X167162339Y-118097176D01*
X167162341Y-118097176D01*
X167162343Y-118097176D01*
X167219014Y-118092217D01*
X167389033Y-118077343D01*
X167608837Y-118018447D01*
X167815075Y-117922276D01*
X168001480Y-117791755D01*
X168162388Y-117630847D01*
X168292909Y-117444442D01*
X168389080Y-117238204D01*
X168447976Y-117018400D01*
X168467809Y-116791709D01*
X170936873Y-116791709D01*
X170956705Y-117018394D01*
X170956707Y-117018405D01*
X171015599Y-117238196D01*
X171015602Y-117238205D01*
X171111772Y-117444440D01*
X171111773Y-117444442D01*
X171242295Y-117630849D01*
X171403199Y-117791753D01*
X171403202Y-117791755D01*
X171589607Y-117922276D01*
X171795845Y-118018447D01*
X172015649Y-118077343D01*
X172177571Y-118091509D01*
X172242339Y-118097176D01*
X172242341Y-118097176D01*
X172242343Y-118097176D01*
X172299014Y-118092217D01*
X172469033Y-118077343D01*
X172688837Y-118018447D01*
X172895075Y-117922276D01*
X173081480Y-117791755D01*
X173242388Y-117630847D01*
X173372909Y-117444442D01*
X173469080Y-117238204D01*
X173527976Y-117018400D01*
X173547809Y-116791708D01*
X173533210Y-116624845D01*
X173546976Y-116556347D01*
X173569054Y-116526361D01*
X175365292Y-114730124D01*
X175447425Y-114607203D01*
X175503999Y-114470621D01*
X175503999Y-114470620D01*
X175532841Y-114325626D01*
X175532841Y-40517790D01*
X175532841Y-40517787D01*
X175504000Y-40372800D01*
X175503999Y-40372799D01*
X175503999Y-40372795D01*
X175503997Y-40372790D01*
X175447428Y-40236219D01*
X175447421Y-40236206D01*
X175365293Y-40113293D01*
X175317448Y-40065448D01*
X175260757Y-40008757D01*
X175095155Y-39843155D01*
X175061671Y-39781833D01*
X175066655Y-39712141D01*
X175108527Y-39656208D01*
X175173991Y-39631791D01*
X175242264Y-39646643D01*
X175244837Y-39648088D01*
X175643135Y-39878046D01*
X175697912Y-39902278D01*
X175697918Y-39902280D01*
X175839700Y-39926121D01*
X175839702Y-39926122D01*
X175982462Y-39909051D01*
X176114635Y-39852453D01*
X176225502Y-39760913D01*
X176225505Y-39760909D01*
X176260821Y-39712544D01*
X176260824Y-39712539D01*
X176609735Y-39108206D01*
X176609735Y-39108205D01*
X175722300Y-38595844D01*
X175798606Y-38551790D01*
X175882390Y-38468006D01*
X175941633Y-38365394D01*
X175972300Y-38250944D01*
X175972300Y-38162832D01*
X176859734Y-38675192D01*
X176859735Y-38675192D01*
X177208646Y-38070864D01*
X177232878Y-38016087D01*
X177232880Y-38016081D01*
X177256721Y-37874299D01*
X177256722Y-37874297D01*
X177239651Y-37731537D01*
X177183053Y-37599364D01*
X177091513Y-37488497D01*
X177091509Y-37488494D01*
X177043144Y-37453178D01*
X177043139Y-37453175D01*
X176438806Y-37104263D01*
X176438805Y-37104263D01*
X175926444Y-37991697D01*
X175882390Y-37915394D01*
X175798606Y-37831610D01*
X175695994Y-37772367D01*
X175581544Y-37741700D01*
X175493431Y-37741700D01*
X176005792Y-36854264D01*
X176005792Y-36854263D01*
X175401464Y-36505353D01*
X175346687Y-36481121D01*
X175346681Y-36481119D01*
X175204899Y-36457278D01*
X175204897Y-36457277D01*
X175062137Y-36474348D01*
X174929964Y-36530946D01*
X174864656Y-36584870D01*
X174800428Y-36612374D01*
X174731526Y-36600787D01*
X174679826Y-36553789D01*
X174665501Y-36519690D01*
X174663946Y-36513550D01*
X174651753Y-36465399D01*
X174558520Y-36252850D01*
X174538105Y-36221603D01*
X174431579Y-36058551D01*
X174431576Y-36058548D01*
X174431575Y-36058546D01*
X174274380Y-35887786D01*
X174274375Y-35887782D01*
X174274373Y-35887780D01*
X174091230Y-35745234D01*
X174091224Y-35745230D01*
X173887100Y-35634763D01*
X173887091Y-35634760D01*
X173667580Y-35559401D01*
X173495878Y-35530749D01*
X173438645Y-35521199D01*
X173206547Y-35521199D01*
X173160760Y-35528839D01*
X172977611Y-35559401D01*
X172758100Y-35634760D01*
X172758091Y-35634763D01*
X172553967Y-35745230D01*
X172553961Y-35745234D01*
X172370818Y-35887780D01*
X172370815Y-35887783D01*
X172370812Y-35887785D01*
X172370812Y-35887786D01*
X172347065Y-35913582D01*
X172213612Y-36058551D01*
X172086671Y-36252850D01*
X171993438Y-36465398D01*
X171936462Y-36690390D01*
X171936460Y-36690401D01*
X171917296Y-36921692D01*
X171917296Y-36921705D01*
X171936460Y-37152996D01*
X171936462Y-37153007D01*
X171993438Y-37377999D01*
X172086671Y-37590547D01*
X172213612Y-37784846D01*
X172213615Y-37784850D01*
X172213617Y-37784852D01*
X172370812Y-37955612D01*
X172524258Y-38075043D01*
X172565071Y-38131754D01*
X172572096Y-38172897D01*
X172572096Y-39205881D01*
X172572096Y-39205883D01*
X172572095Y-39205883D01*
X172600936Y-39350870D01*
X172600939Y-39350880D01*
X172657508Y-39487451D01*
X172657514Y-39487462D01*
X172670294Y-39506587D01*
X172670296Y-39506592D01*
X172739642Y-39610377D01*
X172739648Y-39610384D01*
X173995522Y-40866256D01*
X174029007Y-40927579D01*
X174031841Y-40953937D01*
X174031841Y-113889477D01*
X174012156Y-113956516D01*
X173995522Y-113977158D01*
X172507689Y-115464990D01*
X172446366Y-115498475D01*
X172409202Y-115500837D01*
X172242344Y-115486240D01*
X172242339Y-115486240D01*
X172015654Y-115506072D01*
X172015643Y-115506074D01*
X171795852Y-115564966D01*
X171795843Y-115564969D01*
X171589608Y-115661139D01*
X171589606Y-115661140D01*
X171403199Y-115791662D01*
X171242295Y-115952566D01*
X171111773Y-116138973D01*
X171111772Y-116138975D01*
X171015602Y-116345210D01*
X171015599Y-116345219D01*
X170956707Y-116565010D01*
X170956705Y-116565021D01*
X170936873Y-116791706D01*
X170936873Y-116791709D01*
X168467809Y-116791709D01*
X168467809Y-116791708D01*
X168453210Y-116624845D01*
X168466976Y-116556347D01*
X168489054Y-116526361D01*
X172125292Y-112890124D01*
X172207425Y-112767203D01*
X172263999Y-112630621D01*
X172292841Y-112485626D01*
X172292841Y-112337791D01*
X172292841Y-60137790D01*
X172292841Y-60137787D01*
X172264000Y-59992800D01*
X172263999Y-59992799D01*
X172263999Y-59992795D01*
X172207425Y-59856213D01*
X172174527Y-59806978D01*
X172174526Y-59806976D01*
X172125297Y-59733297D01*
X172125293Y-59733292D01*
X170180758Y-57788757D01*
X170093829Y-57730674D01*
X170057836Y-57706624D01*
X170057834Y-57706623D01*
X170057831Y-57706621D01*
X169921258Y-57650051D01*
X169921248Y-57650048D01*
X169776261Y-57621208D01*
X169776259Y-57621208D01*
X157029537Y-57621208D01*
X156962498Y-57601523D01*
X156941856Y-57584889D01*
X156529369Y-57172402D01*
X156495884Y-57111079D01*
X156496844Y-57054280D01*
X156498434Y-57048006D01*
X156500273Y-57025801D01*
X156525426Y-56960619D01*
X156581827Y-56919380D01*
X156623850Y-56912042D01*
X168432206Y-56912042D01*
X168432206Y-46752042D01*
X99852206Y-46752042D01*
X96947300Y-46752042D01*
X96947300Y-46516700D01*
X95922578Y-46516700D01*
X95966633Y-46440394D01*
X95997300Y-46325944D01*
X95997300Y-46207456D01*
X95966633Y-46093006D01*
X95922578Y-46016700D01*
X96947300Y-46016700D01*
X96947300Y-45318872D01*
X96947299Y-45318855D01*
X96940898Y-45259327D01*
X96940896Y-45259320D01*
X96890654Y-45124613D01*
X96890650Y-45124606D01*
X96804490Y-45009512D01*
X96804487Y-45009509D01*
X96689393Y-44923349D01*
X96689386Y-44923345D01*
X96554679Y-44873103D01*
X96554672Y-44873101D01*
X96495144Y-44866700D01*
X95797300Y-44866700D01*
X95797300Y-45891422D01*
X95720994Y-45847367D01*
X95606544Y-45816700D01*
X95488056Y-45816700D01*
X95373606Y-45847367D01*
X95297300Y-45891422D01*
X95297300Y-44866700D01*
X94599455Y-44866700D01*
X94539927Y-44873101D01*
X94539920Y-44873103D01*
X94405213Y-44923345D01*
X94405206Y-44923349D01*
X94290112Y-45009509D01*
X94290109Y-45009512D01*
X94203949Y-45124606D01*
X94203946Y-45124611D01*
X94175224Y-45201620D01*
X94133352Y-45257553D01*
X94067888Y-45281970D01*
X93999615Y-45267118D01*
X93967815Y-45242272D01*
X93959084Y-45232788D01*
X93959077Y-45232782D01*
X93775934Y-45090236D01*
X93775928Y-45090232D01*
X93571804Y-44979765D01*
X93571795Y-44979762D01*
X93352284Y-44904403D01*
X93164698Y-44873101D01*
X93123349Y-44866201D01*
X92891251Y-44866201D01*
X92849902Y-44873101D01*
X92662315Y-44904403D01*
X92442804Y-44979762D01*
X92442795Y-44979765D01*
X92238671Y-45090232D01*
X92238665Y-45090236D01*
X92055522Y-45232782D01*
X92055519Y-45232785D01*
X92055516Y-45232787D01*
X92055516Y-45232788D01*
X92032718Y-45257553D01*
X91898316Y-45403553D01*
X91771375Y-45597852D01*
X91678142Y-45810400D01*
X91621166Y-46035392D01*
X91621164Y-46035403D01*
X91602000Y-46266694D01*
X91602000Y-46266707D01*
X88971674Y-46266707D01*
X88324301Y-39819739D01*
X88309034Y-39667703D01*
X88308946Y-39666789D01*
X88282476Y-39381985D01*
X88017230Y-36528045D01*
X88017135Y-36526954D01*
X87841457Y-34382501D01*
X87841237Y-34379310D01*
X87831395Y-34203283D01*
X87771387Y-33130034D01*
X87771195Y-33122904D01*
X87771207Y-33116406D01*
X87771695Y-32843531D01*
X87772940Y-32826235D01*
X87773852Y-32819850D01*
X87794703Y-32766727D01*
X87848161Y-32689623D01*
X87854806Y-32680890D01*
X87928152Y-32592879D01*
X87934313Y-32586024D01*
X88025285Y-32492131D01*
X88031027Y-32486578D01*
X88137236Y-32390337D01*
X88142701Y-32385668D01*
X88261638Y-32289865D01*
X88266894Y-32285856D01*
X88396038Y-32192771D01*
X88401235Y-32189224D01*
X88405186Y-32186671D01*
X88537923Y-32100893D01*
X88543138Y-32097703D01*
X88684767Y-32015863D01*
X88690215Y-32012895D01*
X88834010Y-31939163D01*
X88839779Y-31936392D01*
X88982943Y-31872178D01*
X88989270Y-31869550D01*
X89128627Y-31816178D01*
X89135769Y-31813692D01*
X89267974Y-31772195D01*
X89276296Y-31769899D01*
X89397501Y-31740971D01*
X89407327Y-31739044D01*
X89521353Y-31721473D01*
X89530048Y-31720448D01*
X89568950Y-31717251D01*
X89575527Y-31716886D01*
X89616327Y-31715718D01*
X89623381Y-31715718D01*
X89851940Y-31722261D01*
X89861265Y-31722881D01*
X90061336Y-31743773D01*
X90073533Y-31745665D01*
X90251576Y-31782478D01*
X90265536Y-31786228D01*
X90434031Y-31842227D01*
X90448051Y-31847858D01*
X90620814Y-31929816D01*
X90633283Y-31936633D01*
X90779604Y-32027904D01*
X90821756Y-32054197D01*
X90831830Y-32061196D01*
X91042432Y-32223542D01*
X91043346Y-32224246D01*
X91050970Y-32230626D01*
X91289836Y-32447384D01*
X91295387Y-32452746D01*
X91431730Y-32592895D01*
X91533862Y-32697879D01*
X91564544Y-32729417D01*
X91568506Y-32733686D01*
X91854595Y-33056849D01*
X91870937Y-33075308D01*
X91873743Y-33078592D01*
X92212748Y-33489516D01*
X92214723Y-33491972D01*
X92421575Y-33756105D01*
X92592804Y-33974752D01*
X92592836Y-33974792D01*
X92594710Y-33977249D01*
X93245031Y-34852037D01*
X93493795Y-35186666D01*
X93495105Y-35188462D01*
X93574071Y-35298760D01*
X94577629Y-36700512D01*
X94608661Y-36743856D01*
X94608733Y-36744062D01*
X94608783Y-36744027D01*
X95000589Y-37293249D01*
X95109659Y-37446139D01*
X95112595Y-37450855D01*
X95124837Y-37467834D01*
X95146430Y-37497783D01*
X95152927Y-37506793D01*
X95153291Y-37507300D01*
X95193568Y-37563759D01*
X95197084Y-37568040D01*
X95601971Y-38129611D01*
X95606185Y-38136289D01*
X95645764Y-38190357D01*
X95646289Y-38191079D01*
X95685650Y-38245670D01*
X95690697Y-38251740D01*
X96045133Y-38735934D01*
X96051087Y-38745190D01*
X96089704Y-38796835D01*
X96090453Y-38797847D01*
X96128613Y-38849977D01*
X96135710Y-38858358D01*
X96262529Y-39027956D01*
X96442523Y-39268666D01*
X96448579Y-39277875D01*
X96449682Y-39279319D01*
X96484468Y-39324863D01*
X96487734Y-39329138D01*
X96488497Y-39330148D01*
X96527148Y-39381837D01*
X96534351Y-39390173D01*
X96626040Y-39510217D01*
X96631135Y-39517808D01*
X96671746Y-39570063D01*
X96672285Y-39570763D01*
X96710733Y-39621100D01*
X96710735Y-39621101D01*
X96712464Y-39623365D01*
X96718490Y-39630209D01*
X96798779Y-39733518D01*
X96804864Y-39742409D01*
X96845135Y-39793175D01*
X96845897Y-39794145D01*
X96885582Y-39845207D01*
X96892767Y-39853219D01*
X96961922Y-39940397D01*
X96969203Y-39950790D01*
X97009065Y-39999839D01*
X97009935Y-40000922D01*
X97042789Y-40042338D01*
X97049195Y-40050414D01*
X97057755Y-40059752D01*
X97115974Y-40131390D01*
X97124429Y-40143133D01*
X97124567Y-40143351D01*
X97124570Y-40143355D01*
X97124572Y-40143358D01*
X97164048Y-40190564D01*
X97165119Y-40191864D01*
X97203929Y-40239618D01*
X97204107Y-40239786D01*
X97214027Y-40250328D01*
X97261444Y-40307030D01*
X97269869Y-40318360D01*
X97270972Y-40320035D01*
X97270974Y-40320037D01*
X97270975Y-40320039D01*
X97310663Y-40365913D01*
X97311987Y-40367470D01*
X97350922Y-40414027D01*
X97350924Y-40414029D01*
X97352390Y-40415377D01*
X97362235Y-40425524D01*
X97388637Y-40456041D01*
X97398869Y-40467867D01*
X97407265Y-40478733D01*
X97409641Y-40482189D01*
X97419621Y-40493266D01*
X97449596Y-40526537D01*
X97451155Y-40528303D01*
X97468031Y-40547809D01*
X97490195Y-40573428D01*
X97493326Y-40576211D01*
X97503067Y-40585889D01*
X97528869Y-40614528D01*
X97537182Y-40624808D01*
X97541277Y-40630463D01*
X97541279Y-40630466D01*
X97578871Y-40670213D01*
X97581338Y-40672821D01*
X97583375Y-40675027D01*
X97619558Y-40715190D01*
X97622440Y-40718388D01*
X97622442Y-40718389D01*
X97627740Y-40722910D01*
X97637334Y-40732027D01*
X97653044Y-40748638D01*
X97661226Y-40759596D01*
X97661776Y-40759173D01*
X97666733Y-40765614D01*
X97706907Y-40805666D01*
X97709448Y-40808275D01*
X97746782Y-40847749D01*
X97748415Y-40849475D01*
X97748417Y-40849476D01*
X97754725Y-40854602D01*
X97754286Y-40855141D01*
X97765025Y-40863607D01*
X97772188Y-40870748D01*
X97781496Y-40882402D01*
X97781816Y-40882138D01*
X97786997Y-40888393D01*
X97786998Y-40888394D01*
X97818481Y-40917609D01*
X97827105Y-40925611D01*
X97830308Y-40928693D01*
X97869030Y-40967299D01*
X97875490Y-40972240D01*
X97874354Y-40973724D01*
X97896910Y-40994483D01*
X97897871Y-40993613D01*
X97903327Y-40999637D01*
X97903329Y-40999639D01*
X97903331Y-40999641D01*
X97938179Y-41029231D01*
X97943070Y-41033384D01*
X97947150Y-41037006D01*
X97985370Y-41072473D01*
X97985373Y-41072474D01*
X97991998Y-41077176D01*
X97990794Y-41078871D01*
X98010550Y-41095467D01*
X98011552Y-41094456D01*
X98017320Y-41100166D01*
X98017324Y-41100171D01*
X98054492Y-41128394D01*
X98056227Y-41129711D01*
X98061500Y-41133947D01*
X98088790Y-41157119D01*
X98098751Y-41165577D01*
X98098753Y-41165577D01*
X98105581Y-41169985D01*
X98104599Y-41171506D01*
X98124223Y-41186196D01*
X98124916Y-41185395D01*
X98131065Y-41190706D01*
X98131067Y-41190708D01*
X98131069Y-41190709D01*
X98131071Y-41190711D01*
X98168386Y-41215238D01*
X98175264Y-41220101D01*
X98193017Y-41233580D01*
X98210841Y-41247115D01*
X98210844Y-41247116D01*
X98217903Y-41251145D01*
X98217388Y-41252046D01*
X98240549Y-41266987D01*
X98240663Y-41266831D01*
X98243534Y-41268912D01*
X98246261Y-41270672D01*
X98246655Y-41271045D01*
X98247245Y-41271604D01*
X98281845Y-41290349D01*
X98290876Y-41295749D01*
X98322113Y-41316282D01*
X98323753Y-41317360D01*
X98331066Y-41320898D01*
X98330676Y-41321704D01*
X98349128Y-41331790D01*
X98349769Y-41330746D01*
X98356697Y-41334993D01*
X98356701Y-41334996D01*
X98394799Y-41351966D01*
X98403484Y-41356250D01*
X98404156Y-41356614D01*
X98404373Y-41356732D01*
X98417443Y-41364918D01*
X98418698Y-41365817D01*
X98419058Y-41366075D01*
X98419514Y-41366246D01*
X98434895Y-41373268D01*
X98440071Y-41376073D01*
X98445042Y-41377261D01*
X98481703Y-41392569D01*
X98483934Y-41393957D01*
X98483936Y-41393957D01*
X98483937Y-41393958D01*
X98492612Y-41396590D01*
X98507069Y-41401980D01*
X98510495Y-41403506D01*
X98513584Y-41404882D01*
X98513586Y-41404882D01*
X98521382Y-41407194D01*
X98521226Y-41407717D01*
X98550197Y-41417343D01*
X98551641Y-41418103D01*
X98557395Y-41419405D01*
X98573728Y-41424301D01*
X98577645Y-41425776D01*
X98580080Y-41426016D01*
X98616873Y-41435486D01*
X98622260Y-41437801D01*
X98624624Y-41438143D01*
X98624799Y-41438169D01*
X98643017Y-41442228D01*
X98644094Y-41442555D01*
X98650567Y-41442766D01*
X98673859Y-41445756D01*
X98674921Y-41445997D01*
X98686667Y-41449271D01*
X98695647Y-41452258D01*
X98695648Y-41452258D01*
X98696829Y-41452485D01*
X98709883Y-41454337D01*
X98713073Y-41454629D01*
X98713079Y-41454631D01*
X98720545Y-41454337D01*
X98732778Y-41454460D01*
X98735056Y-41454596D01*
X98745438Y-41455655D01*
X98752119Y-41456623D01*
X98762737Y-41458639D01*
X98771248Y-41460644D01*
X98771256Y-41460643D01*
X98776954Y-41461217D01*
X98784480Y-41461316D01*
X98784482Y-41461315D01*
X98784485Y-41461316D01*
X98791357Y-41460502D01*
X98802147Y-41459699D01*
X98809072Y-41459488D01*
X98820195Y-41459647D01*
X98831190Y-41460300D01*
X98840876Y-41461258D01*
X98848126Y-41462263D01*
X98852331Y-41462292D01*
X98857947Y-41461889D01*
X98857948Y-41461888D01*
X98857954Y-41461889D01*
X98863766Y-41460695D01*
X98873310Y-41459121D01*
X98884540Y-41457721D01*
X98896052Y-41456831D01*
X98910071Y-41456403D01*
X98919091Y-41456455D01*
X98925010Y-41456707D01*
X98925014Y-41456705D01*
X98925016Y-41456706D01*
X98928518Y-41456395D01*
X98932720Y-41455711D01*
X98932725Y-41455711D01*
X98937689Y-41454216D01*
X98946407Y-41451934D01*
X98960263Y-41448844D01*
X98971869Y-41446831D01*
X98986294Y-41445032D01*
X98995048Y-41444257D01*
X99000482Y-41443971D01*
X99000492Y-41443967D01*
X99004161Y-41443286D01*
X99007699Y-41442364D01*
X99007703Y-41442364D01*
X99012782Y-41440300D01*
X99021092Y-41437265D01*
X99034883Y-41432779D01*
X99046238Y-41429673D01*
X99047250Y-41429447D01*
X99058043Y-41427039D01*
X99067046Y-41425378D01*
X99073162Y-41424482D01*
X99073164Y-41424480D01*
X99077822Y-41423159D01*
X99081534Y-41421802D01*
X99081540Y-41421801D01*
X99087797Y-41418533D01*
X99096039Y-41414608D01*
X99107039Y-41409861D01*
X99117787Y-41405804D01*
X99124860Y-41403503D01*
X99134416Y-41400813D01*
X99138942Y-41399732D01*
X99141945Y-41399015D01*
X99141947Y-41399013D01*
X99148156Y-41396639D01*
X99152851Y-41394396D01*
X99152857Y-41394395D01*
X99160547Y-41389395D01*
X99169077Y-41384326D01*
X99175486Y-41380856D01*
X99185424Y-41376035D01*
X99186987Y-41375361D01*
X99197350Y-41371431D01*
X99206052Y-41368570D01*
X99206054Y-41368569D01*
X99211257Y-41366064D01*
X99216975Y-41362988D01*
X99220414Y-41360935D01*
X99220419Y-41360933D01*
X99228686Y-41354393D01*
X99257954Y-41337171D01*
X99265146Y-41334177D01*
X99265384Y-41333993D01*
X99282023Y-41323179D01*
X99283344Y-41322465D01*
X99290607Y-41315588D01*
X99307950Y-41301884D01*
X99313486Y-41298260D01*
X99322254Y-41293027D01*
X99332560Y-41287441D01*
X99332565Y-41287435D01*
X99335084Y-41285608D01*
X99334967Y-41285472D01*
X99341128Y-41280171D01*
X99341133Y-41280169D01*
X99342710Y-41278404D01*
X99349848Y-41271055D01*
X99357206Y-41264081D01*
X99366810Y-41255867D01*
X99393712Y-41235147D01*
X99393837Y-41234983D01*
X99394662Y-41234192D01*
X99399449Y-41229388D01*
X99399560Y-41229499D01*
X99421339Y-41208632D01*
X99423371Y-41207213D01*
X99443017Y-41183842D01*
X99452627Y-41173644D01*
X99474790Y-41152640D01*
X99476023Y-41150630D01*
X99494773Y-41128866D01*
X99494257Y-41128394D01*
X99499737Y-41122401D01*
X99499742Y-41122398D01*
X99521558Y-41091183D01*
X99528261Y-41082448D01*
X99552763Y-41053306D01*
X99552764Y-41053302D01*
X99557138Y-41046453D01*
X99558308Y-41047200D01*
X99566518Y-41035509D01*
X99565289Y-41034563D01*
X99570245Y-41028123D01*
X99570252Y-41028117D01*
X99590016Y-40994010D01*
X99595648Y-40985178D01*
X99618233Y-40952867D01*
X99621806Y-40943020D01*
X99631082Y-40923152D01*
X99636328Y-40914099D01*
X99636327Y-40914099D01*
X99636330Y-40914096D01*
X99646592Y-40876044D01*
X99649753Y-40866033D01*
X99650462Y-40864080D01*
X99663200Y-40828992D01*
X99664104Y-40818546D01*
X99667917Y-40796969D01*
X99831139Y-40191766D01*
X99835394Y-40178855D01*
X99837173Y-40174307D01*
X99837180Y-40174296D01*
X99851423Y-40116656D01*
X99852033Y-40114291D01*
X99867496Y-40056964D01*
X99867496Y-40056957D01*
X99868141Y-40052118D01*
X99870674Y-40038753D01*
X100281921Y-38374607D01*
X100283948Y-38368161D01*
X100284920Y-38364118D01*
X100284923Y-38364114D01*
X100299956Y-38301627D01*
X100315413Y-38239081D01*
X100315412Y-38239079D01*
X100316405Y-38235065D01*
X100317578Y-38228381D01*
X100340164Y-38134504D01*
X124430752Y-38134504D01*
X124430890Y-38135808D01*
X124434092Y-38160132D01*
X124434532Y-38177545D01*
X124432558Y-38202087D01*
X124432491Y-38203308D01*
X124436288Y-38253252D01*
X124436605Y-38259516D01*
X124437871Y-38309575D01*
X124438063Y-38310798D01*
X124442505Y-38335007D01*
X124443704Y-38350780D01*
X124442977Y-38375264D01*
X124442971Y-38376594D01*
X124449290Y-38426323D01*
X124449922Y-38432550D01*
X124453721Y-38482509D01*
X124454000Y-38483841D01*
X124459624Y-38507643D01*
X124461430Y-38521850D01*
X124461930Y-38546015D01*
X124462004Y-38547638D01*
X124470823Y-38597020D01*
X124471764Y-38603184D01*
X124478092Y-38652974D01*
X124478506Y-38654547D01*
X124485239Y-38677750D01*
X124485610Y-38679826D01*
X124487519Y-38690512D01*
X124489207Y-38714293D01*
X124489390Y-38716197D01*
X124500690Y-38765155D01*
X124501935Y-38771241D01*
X124510767Y-38820697D01*
X124511345Y-38822515D01*
X124519128Y-38845043D01*
X124521768Y-38856482D01*
X124524597Y-38879770D01*
X124524922Y-38881982D01*
X124538670Y-38930397D01*
X124540209Y-38936379D01*
X124551525Y-38985404D01*
X124552320Y-38987531D01*
X124561066Y-39009264D01*
X124563968Y-39019481D01*
X124563971Y-39019490D01*
X124567874Y-39042147D01*
X124568390Y-39044754D01*
X124584552Y-39092523D01*
X124586370Y-39098370D01*
X124600142Y-39146864D01*
X124601196Y-39149306D01*
X124610826Y-39170174D01*
X124613921Y-39179322D01*
X124618842Y-39201326D01*
X124619578Y-39204275D01*
X124629522Y-39229494D01*
X124638101Y-39251252D01*
X124640198Y-39256981D01*
X124656383Y-39304815D01*
X124657728Y-39307549D01*
X124668173Y-39327523D01*
X124671395Y-39335693D01*
X124677259Y-39356947D01*
X124678270Y-39360290D01*
X124699108Y-39406383D01*
X124701473Y-39411978D01*
X124720028Y-39459037D01*
X124721715Y-39462078D01*
X124732887Y-39481101D01*
X124735758Y-39487451D01*
X124736191Y-39488409D01*
X124742945Y-39508924D01*
X124744250Y-39512584D01*
X124767340Y-39557667D01*
X124769962Y-39563111D01*
X124790839Y-39609290D01*
X124792880Y-39612577D01*
X124804730Y-39630672D01*
X124808081Y-39637215D01*
X124815690Y-39657025D01*
X124817295Y-39660919D01*
X124842595Y-39704922D01*
X124845461Y-39710200D01*
X124868590Y-39755358D01*
X124871032Y-39758894D01*
X124883460Y-39775994D01*
X124886852Y-39781892D01*
X124895252Y-39800951D01*
X124897199Y-39805096D01*
X124897200Y-39805097D01*
X124924629Y-39847883D01*
X124927730Y-39852987D01*
X124953063Y-39897044D01*
X124955853Y-39900694D01*
X124968889Y-39916921D01*
X124972316Y-39922268D01*
X124981465Y-39940585D01*
X124983740Y-39944879D01*
X125013233Y-39986354D01*
X125016561Y-39991281D01*
X125044028Y-40034124D01*
X125044030Y-40034126D01*
X125047195Y-40037875D01*
X125060755Y-40053182D01*
X125064216Y-40058049D01*
X125074107Y-40075678D01*
X125076716Y-40080080D01*
X125108183Y-40120122D01*
X125111732Y-40124868D01*
X125116370Y-40131390D01*
X125141255Y-40166386D01*
X125144768Y-40170163D01*
X125158855Y-40184604D01*
X125162381Y-40189091D01*
X125172998Y-40206061D01*
X125175908Y-40210473D01*
X125175909Y-40210474D01*
X125175910Y-40210476D01*
X125198198Y-40236206D01*
X125209288Y-40249009D01*
X125213056Y-40253576D01*
X125244543Y-40293643D01*
X125244546Y-40293645D01*
X125248376Y-40297388D01*
X125262975Y-40310986D01*
X125266588Y-40315157D01*
X125277897Y-40331449D01*
X125281121Y-40335865D01*
X125316305Y-40372769D01*
X125320283Y-40377145D01*
X125353400Y-40415377D01*
X125353670Y-40415688D01*
X125353671Y-40415689D01*
X125357764Y-40419322D01*
X125372895Y-40432125D01*
X125376520Y-40435927D01*
X125376649Y-40436062D01*
X125388753Y-40451836D01*
X125392136Y-40456035D01*
X125392140Y-40456039D01*
X125392141Y-40456040D01*
X125425558Y-40487900D01*
X125429044Y-40491223D01*
X125433225Y-40495404D01*
X125468417Y-40532316D01*
X125468420Y-40532319D01*
X125468422Y-40532320D01*
X125472688Y-40535758D01*
X125488394Y-40547809D01*
X125492332Y-40551563D01*
X125505174Y-40566741D01*
X125508773Y-40570795D01*
X125547321Y-40604186D01*
X125551698Y-40608164D01*
X125588596Y-40643343D01*
X125592954Y-40646524D01*
X125609287Y-40657861D01*
X125613477Y-40661491D01*
X125627092Y-40676106D01*
X125630821Y-40679922D01*
X125670889Y-40711410D01*
X125675456Y-40715179D01*
X125713985Y-40748552D01*
X125713990Y-40748556D01*
X125713994Y-40748557D01*
X125718459Y-40751502D01*
X125735363Y-40762076D01*
X125739870Y-40765617D01*
X125754342Y-40779736D01*
X125758074Y-40783206D01*
X125758076Y-40783208D01*
X125799630Y-40812758D01*
X125804325Y-40816270D01*
X125844383Y-40847749D01*
X125844385Y-40847750D01*
X125848822Y-40850380D01*
X125866402Y-40860240D01*
X125871288Y-40863714D01*
X125886554Y-40877240D01*
X125890334Y-40880430D01*
X125890341Y-40880438D01*
X125933175Y-40907898D01*
X125938084Y-40911214D01*
X125979580Y-40940723D01*
X125979583Y-40940724D01*
X125983904Y-40943014D01*
X126002212Y-40952157D01*
X126007557Y-40955584D01*
X126023800Y-40968634D01*
X126027411Y-40971395D01*
X126027413Y-40971397D01*
X126071494Y-40996743D01*
X126076560Y-40999820D01*
X126119369Y-41027266D01*
X126119375Y-41027268D01*
X126123554Y-41029231D01*
X126142552Y-41037602D01*
X126148447Y-41040991D01*
X126165582Y-41053445D01*
X126169092Y-41055868D01*
X126169094Y-41055869D01*
X126214276Y-41079009D01*
X126219488Y-41081839D01*
X126263537Y-41107168D01*
X126263541Y-41107169D01*
X126267482Y-41108794D01*
X126287263Y-41116391D01*
X126293804Y-41119742D01*
X126311904Y-41131597D01*
X126315161Y-41133618D01*
X126315163Y-41133619D01*
X126315167Y-41133622D01*
X126361356Y-41154503D01*
X126366764Y-41157110D01*
X126405688Y-41177045D01*
X126411881Y-41180217D01*
X126411883Y-41180217D01*
X126415584Y-41181537D01*
X126436072Y-41188282D01*
X126443367Y-41191581D01*
X126462401Y-41202759D01*
X126465426Y-41204437D01*
X126512491Y-41222994D01*
X126518065Y-41225351D01*
X126542361Y-41236335D01*
X126564170Y-41246195D01*
X126567508Y-41247204D01*
X126588757Y-41253064D01*
X126596928Y-41256286D01*
X126616903Y-41266731D01*
X126619641Y-41268078D01*
X126619644Y-41268080D01*
X126667468Y-41284261D01*
X126673211Y-41286364D01*
X126712161Y-41301722D01*
X126720190Y-41304888D01*
X126720195Y-41304888D01*
X126723216Y-41305642D01*
X126745152Y-41310547D01*
X126754295Y-41313641D01*
X126775181Y-41323280D01*
X126777596Y-41324322D01*
X126777600Y-41324325D01*
X126777603Y-41324326D01*
X126777606Y-41324327D01*
X126803888Y-41331790D01*
X126826093Y-41338095D01*
X126831913Y-41339904D01*
X126879706Y-41356076D01*
X126879708Y-41356076D01*
X126882368Y-41356602D01*
X126904972Y-41360494D01*
X126915200Y-41363399D01*
X126936952Y-41372155D01*
X126939058Y-41372942D01*
X126988096Y-41384261D01*
X126994081Y-41385800D01*
X127017923Y-41392570D01*
X127042482Y-41399544D01*
X127042483Y-41399544D01*
X127044741Y-41399876D01*
X127067980Y-41402697D01*
X127079425Y-41405338D01*
X127101946Y-41413120D01*
X127103770Y-41413700D01*
X127103773Y-41413700D01*
X127103774Y-41413701D01*
X127149134Y-41421801D01*
X127153228Y-41422532D01*
X127159317Y-41423778D01*
X127208266Y-41435076D01*
X127208267Y-41435076D01*
X127208271Y-41435077D01*
X127208274Y-41435076D01*
X127210177Y-41435259D01*
X127233939Y-41436945D01*
X127246716Y-41439226D01*
X127269855Y-41445943D01*
X127271480Y-41446371D01*
X127271488Y-41446374D01*
X127321279Y-41452700D01*
X127327412Y-41453637D01*
X127376828Y-41462462D01*
X127376830Y-41462461D01*
X127376831Y-41462462D01*
X127378509Y-41462539D01*
X127402612Y-41463035D01*
X127405971Y-41463462D01*
X127416820Y-41464842D01*
X127440587Y-41470459D01*
X127441948Y-41470744D01*
X127441949Y-41470744D01*
X127441952Y-41470745D01*
X127491921Y-41474544D01*
X127498112Y-41475171D01*
X127547876Y-41481496D01*
X127547883Y-41481494D01*
X127549280Y-41481489D01*
X127573689Y-41480762D01*
X127581569Y-41481361D01*
X127589450Y-41481960D01*
X127613657Y-41486402D01*
X127614877Y-41486593D01*
X127614884Y-41486596D01*
X127664969Y-41487861D01*
X127671209Y-41488177D01*
X127721160Y-41491976D01*
X127721167Y-41491974D01*
X127722447Y-41491904D01*
X127746921Y-41489934D01*
X127756574Y-41490178D01*
X127769622Y-41491199D01*
X127777283Y-41492207D01*
X127777284Y-41492208D01*
X127835282Y-41492208D01*
X127838417Y-41492248D01*
X127896390Y-41493714D01*
X127896391Y-41493713D01*
X127896396Y-41493714D01*
X127896400Y-41493712D01*
X127904080Y-41492899D01*
X127917155Y-41492208D01*
X147348362Y-41492208D01*
X147361437Y-41492899D01*
X147369117Y-41493713D01*
X147369121Y-41493714D01*
X147369125Y-41493713D01*
X147369126Y-41493714D01*
X147427092Y-41492248D01*
X147430228Y-41492208D01*
X147488231Y-41492208D01*
X147488233Y-41492208D01*
X147488234Y-41492207D01*
X147495888Y-41491199D01*
X147508930Y-41490177D01*
X147518608Y-41489932D01*
X147543110Y-41491907D01*
X147544351Y-41491975D01*
X147544356Y-41491976D01*
X147594325Y-41488175D01*
X147600556Y-41487860D01*
X147650632Y-41486595D01*
X147650638Y-41486592D01*
X147651893Y-41486395D01*
X147676049Y-41481961D01*
X147691830Y-41480761D01*
X147716239Y-41481489D01*
X147717632Y-41481494D01*
X147717640Y-41481496D01*
X147767398Y-41475172D01*
X147773600Y-41474543D01*
X147823564Y-41470745D01*
X147823565Y-41470744D01*
X147824950Y-41470454D01*
X147848694Y-41464842D01*
X147854874Y-41464056D01*
X147862903Y-41463035D01*
X147887008Y-41462538D01*
X147888680Y-41462461D01*
X147888687Y-41462462D01*
X147933488Y-41454461D01*
X147938080Y-41453641D01*
X147944228Y-41452701D01*
X147994027Y-41446374D01*
X147994035Y-41446370D01*
X147995641Y-41445948D01*
X148018797Y-41439226D01*
X148031573Y-41436945D01*
X148055341Y-41435259D01*
X148057235Y-41435076D01*
X148057243Y-41435077D01*
X148106231Y-41423769D01*
X148112276Y-41422533D01*
X148161740Y-41413701D01*
X148161742Y-41413699D01*
X148163574Y-41413118D01*
X148186084Y-41405339D01*
X148197529Y-41402697D01*
X148220780Y-41399874D01*
X148223028Y-41399544D01*
X148223032Y-41399544D01*
X148271457Y-41385792D01*
X148277400Y-41384263D01*
X148315974Y-41375361D01*
X148326456Y-41372942D01*
X148328616Y-41372134D01*
X148350315Y-41363398D01*
X148360554Y-41360491D01*
X148383187Y-41356594D01*
X148385804Y-41356076D01*
X148385809Y-41356076D01*
X148433595Y-41339905D01*
X148439392Y-41338102D01*
X148487914Y-41324325D01*
X148487918Y-41324322D01*
X148490419Y-41323242D01*
X148511227Y-41313637D01*
X148520375Y-41310542D01*
X148542328Y-41305634D01*
X148545317Y-41304887D01*
X148545323Y-41304887D01*
X148592304Y-41286362D01*
X148597997Y-41284277D01*
X148645870Y-41268080D01*
X148645875Y-41268076D01*
X148648648Y-41266713D01*
X148668587Y-41256284D01*
X148676746Y-41253067D01*
X148698007Y-41247204D01*
X148701339Y-41246196D01*
X148701340Y-41246195D01*
X148701343Y-41246195D01*
X148747460Y-41225344D01*
X148752979Y-41223009D01*
X148800089Y-41204436D01*
X148800093Y-41204432D01*
X148803173Y-41202724D01*
X148822152Y-41191577D01*
X148824074Y-41190708D01*
X148829448Y-41188278D01*
X148849927Y-41181536D01*
X148853625Y-41180218D01*
X148853632Y-41180217D01*
X148898739Y-41157113D01*
X148904164Y-41154500D01*
X148950346Y-41133622D01*
X148950349Y-41133618D01*
X148953640Y-41131577D01*
X148971714Y-41119738D01*
X148972562Y-41119303D01*
X148978262Y-41116384D01*
X148998013Y-41108799D01*
X149001966Y-41107169D01*
X149001976Y-41107167D01*
X149045962Y-41081873D01*
X149051236Y-41079009D01*
X149096419Y-41055869D01*
X149096424Y-41055864D01*
X149099940Y-41053437D01*
X149117056Y-41040995D01*
X149122961Y-41037600D01*
X149142002Y-41029211D01*
X149146136Y-41027268D01*
X149146144Y-41027266D01*
X149188935Y-40999831D01*
X149194049Y-40996725D01*
X149223294Y-40979910D01*
X149238100Y-40971397D01*
X149238104Y-40971392D01*
X149241790Y-40968575D01*
X149257963Y-40955578D01*
X149263305Y-40952154D01*
X149281608Y-40943013D01*
X149285927Y-40940725D01*
X149285927Y-40940724D01*
X149285932Y-40940723D01*
X149327452Y-40911196D01*
X149332281Y-40907934D01*
X149375173Y-40880438D01*
X149375178Y-40880431D01*
X149378913Y-40877280D01*
X149394211Y-40863723D01*
X149399093Y-40860251D01*
X149416663Y-40850396D01*
X149421133Y-40847747D01*
X149461166Y-40816286D01*
X149465914Y-40812734D01*
X149507437Y-40783208D01*
X149507439Y-40783205D01*
X149507441Y-40783204D01*
X149511165Y-40779742D01*
X149525642Y-40765617D01*
X149530132Y-40762088D01*
X149547031Y-40751516D01*
X149551519Y-40748557D01*
X149551523Y-40748556D01*
X149590057Y-40715175D01*
X149594615Y-40711415D01*
X149596272Y-40710113D01*
X149634693Y-40679921D01*
X149634696Y-40679916D01*
X149638434Y-40676091D01*
X149652041Y-40661485D01*
X149656226Y-40657859D01*
X149672559Y-40646524D01*
X149676912Y-40643346D01*
X149676911Y-40643346D01*
X149676914Y-40643345D01*
X149713857Y-40608121D01*
X149718166Y-40604205D01*
X149756736Y-40570797D01*
X149756742Y-40570786D01*
X149760378Y-40566693D01*
X149773171Y-40551570D01*
X149777119Y-40547806D01*
X149792820Y-40535762D01*
X149797082Y-40532325D01*
X149797091Y-40532321D01*
X149832287Y-40495404D01*
X149836449Y-40491240D01*
X149873371Y-40456040D01*
X149873374Y-40456033D01*
X149876811Y-40451769D01*
X149888861Y-40436065D01*
X149888948Y-40435973D01*
X149892617Y-40432124D01*
X149907780Y-40419296D01*
X149911840Y-40415690D01*
X149911844Y-40415688D01*
X149945260Y-40377110D01*
X149949178Y-40372800D01*
X149984395Y-40335862D01*
X149984397Y-40335857D01*
X149987636Y-40331421D01*
X149998931Y-40315149D01*
X150002548Y-40310975D01*
X150017139Y-40297387D01*
X150020968Y-40293645D01*
X150020967Y-40293645D01*
X150020971Y-40293643D01*
X150052484Y-40253540D01*
X150056227Y-40249006D01*
X150089604Y-40210476D01*
X150089605Y-40210472D01*
X150089607Y-40210471D01*
X150092552Y-40206005D01*
X150103137Y-40189084D01*
X150106661Y-40184600D01*
X150120745Y-40170164D01*
X150124252Y-40166392D01*
X150124253Y-40166389D01*
X150124257Y-40166387D01*
X150153789Y-40124855D01*
X150157305Y-40120153D01*
X150188800Y-40080078D01*
X150188805Y-40080064D01*
X150191436Y-40075629D01*
X150201295Y-40058051D01*
X150204758Y-40053181D01*
X150218279Y-40037923D01*
X150221482Y-40034128D01*
X150221482Y-40034127D01*
X150221486Y-40034124D01*
X150248972Y-39991247D01*
X150252250Y-39986395D01*
X150281772Y-39944883D01*
X150281774Y-39944878D01*
X150284083Y-39940520D01*
X150293205Y-39922252D01*
X150296629Y-39916911D01*
X150309635Y-39900727D01*
X150312444Y-39897052D01*
X150312447Y-39897050D01*
X150337793Y-39852967D01*
X150340860Y-39847918D01*
X150368314Y-39805097D01*
X150368316Y-39805087D01*
X150370286Y-39800897D01*
X150378661Y-39781892D01*
X150382053Y-39775994D01*
X150394511Y-39758855D01*
X150396913Y-39755376D01*
X150396914Y-39755372D01*
X150396917Y-39755370D01*
X150420058Y-39710184D01*
X150422905Y-39704944D01*
X150448217Y-39660925D01*
X150448219Y-39660919D01*
X150449835Y-39656997D01*
X150457434Y-39637210D01*
X150460786Y-39630664D01*
X150472625Y-39612592D01*
X150474668Y-39609301D01*
X150474669Y-39609298D01*
X150474672Y-39609295D01*
X150495565Y-39563077D01*
X150498144Y-39557723D01*
X150521265Y-39512584D01*
X150521266Y-39512576D01*
X150522570Y-39508920D01*
X150529321Y-39488410D01*
X150532626Y-39481103D01*
X150543800Y-39462076D01*
X150545485Y-39459040D01*
X150557614Y-39428277D01*
X150564054Y-39411943D01*
X150566406Y-39406383D01*
X150587244Y-39360292D01*
X150588258Y-39356937D01*
X150594119Y-39335692D01*
X150597338Y-39327529D01*
X150607765Y-39307591D01*
X150609128Y-39304821D01*
X150609129Y-39304820D01*
X150625321Y-39256961D01*
X150627412Y-39251252D01*
X150645936Y-39204275D01*
X150645937Y-39204265D01*
X150646689Y-39201256D01*
X150651595Y-39179311D01*
X150654687Y-39170173D01*
X150664316Y-39149314D01*
X150665371Y-39146869D01*
X150665370Y-39146869D01*
X150665374Y-39146864D01*
X150679147Y-39098361D01*
X150680958Y-39092535D01*
X150697125Y-39044758D01*
X150697125Y-39044753D01*
X150697649Y-39042107D01*
X150701543Y-39019491D01*
X150704448Y-39009260D01*
X150713187Y-38987552D01*
X150713988Y-38985410D01*
X150713990Y-38985407D01*
X150725304Y-38936379D01*
X150726836Y-38930421D01*
X150740593Y-38881982D01*
X150740593Y-38881980D01*
X150740594Y-38881977D01*
X150740923Y-38879735D01*
X150743747Y-38856477D01*
X150746385Y-38845046D01*
X150754158Y-38822549D01*
X150754747Y-38820697D01*
X150754749Y-38820691D01*
X150763582Y-38771220D01*
X150764826Y-38765142D01*
X150776125Y-38716191D01*
X150776124Y-38716184D01*
X150776309Y-38714266D01*
X150777994Y-38690521D01*
X150780275Y-38677747D01*
X150787002Y-38654575D01*
X150787423Y-38652977D01*
X150787423Y-38652976D01*
X150787424Y-38652974D01*
X150793756Y-38603134D01*
X150794682Y-38597071D01*
X150803511Y-38547640D01*
X150803511Y-38547636D01*
X150803585Y-38546013D01*
X150804084Y-38521856D01*
X150805889Y-38507652D01*
X150811498Y-38483921D01*
X150811790Y-38482524D01*
X150811793Y-38482517D01*
X150815592Y-38432535D01*
X150816224Y-38426319D01*
X150822544Y-38376593D01*
X150822537Y-38375167D01*
X150821810Y-38350774D01*
X150823009Y-38335001D01*
X150827447Y-38310829D01*
X150827642Y-38309586D01*
X150827644Y-38309582D01*
X150828909Y-38259509D01*
X150829224Y-38253277D01*
X150833025Y-38203310D01*
X150833023Y-38203304D01*
X150832957Y-38202086D01*
X150830982Y-38177545D01*
X150831026Y-38175818D01*
X150831422Y-38160131D01*
X150834625Y-38135805D01*
X150834763Y-38134511D01*
X150833496Y-38084424D01*
X150833496Y-38078151D01*
X150833681Y-38070864D01*
X150834763Y-38028072D01*
X150834762Y-38028068D01*
X150834621Y-38026739D01*
X150831423Y-38002455D01*
X150830983Y-37985030D01*
X150832955Y-37960533D01*
X150833024Y-37959276D01*
X150833025Y-37959272D01*
X150829226Y-37909322D01*
X150828910Y-37903067D01*
X150827645Y-37853002D01*
X150827458Y-37851812D01*
X150823009Y-37827579D01*
X150821810Y-37811801D01*
X150822537Y-37787442D01*
X150822544Y-37785989D01*
X150816224Y-37736263D01*
X150815593Y-37730049D01*
X150811793Y-37680065D01*
X150811791Y-37680062D01*
X150811505Y-37678693D01*
X150805889Y-37654928D01*
X150804084Y-37640723D01*
X150803585Y-37616571D01*
X150803510Y-37614946D01*
X150803511Y-37614941D01*
X150799155Y-37590548D01*
X150794690Y-37565547D01*
X150793750Y-37559399D01*
X150787424Y-37509608D01*
X150787423Y-37509605D01*
X150787006Y-37508021D01*
X150780276Y-37484833D01*
X150777997Y-37472076D01*
X150776311Y-37448332D01*
X150776124Y-37446396D01*
X150776125Y-37446391D01*
X150764814Y-37397388D01*
X150763580Y-37391349D01*
X150763579Y-37391344D01*
X150754748Y-37341887D01*
X150754746Y-37341882D01*
X150754151Y-37340009D01*
X150746385Y-37317534D01*
X150743748Y-37306109D01*
X150740923Y-37282845D01*
X150740593Y-37280602D01*
X150740593Y-37280598D01*
X150726844Y-37232182D01*
X150725309Y-37226215D01*
X150713991Y-37177174D01*
X150713988Y-37177168D01*
X150713212Y-37175089D01*
X150704449Y-37153318D01*
X150701641Y-37143432D01*
X150701544Y-37143088D01*
X150697652Y-37120488D01*
X150697125Y-37117824D01*
X150697125Y-37117822D01*
X150680953Y-37070029D01*
X150679143Y-37064204D01*
X150679140Y-37064195D01*
X150665374Y-37015716D01*
X150665371Y-37015712D01*
X150664329Y-37013297D01*
X150654690Y-36992411D01*
X150651594Y-36983261D01*
X150646691Y-36961332D01*
X150645937Y-36958311D01*
X150645937Y-36958306D01*
X150635948Y-36932972D01*
X150627413Y-36911327D01*
X150625310Y-36905584D01*
X150624246Y-36902440D01*
X150609129Y-36857760D01*
X150609127Y-36857757D01*
X150607780Y-36855019D01*
X150597335Y-36835044D01*
X150594113Y-36826873D01*
X150588253Y-36805624D01*
X150587244Y-36802286D01*
X150587243Y-36802283D01*
X150566400Y-36756181D01*
X150564043Y-36750607D01*
X150545486Y-36703542D01*
X150543808Y-36700517D01*
X150532630Y-36681483D01*
X150529331Y-36674188D01*
X150522586Y-36653700D01*
X150521265Y-36649995D01*
X150498159Y-36604880D01*
X150495545Y-36599455D01*
X150474671Y-36553283D01*
X150474668Y-36553279D01*
X150474667Y-36553277D01*
X150472646Y-36550020D01*
X150460791Y-36531920D01*
X150457440Y-36525379D01*
X150449843Y-36505598D01*
X150448218Y-36501657D01*
X150448217Y-36501653D01*
X150422888Y-36457604D01*
X150420046Y-36452369D01*
X150396918Y-36407210D01*
X150396917Y-36407208D01*
X150394494Y-36403698D01*
X150382040Y-36386563D01*
X150378651Y-36380668D01*
X150370280Y-36361670D01*
X150368317Y-36357491D01*
X150368315Y-36357485D01*
X150340869Y-36314676D01*
X150337792Y-36309610D01*
X150312446Y-36265529D01*
X150312444Y-36265527D01*
X150309683Y-36261916D01*
X150296633Y-36245673D01*
X150293205Y-36240325D01*
X150284063Y-36222020D01*
X150281772Y-36217697D01*
X150281772Y-36217696D01*
X150252263Y-36176200D01*
X150248946Y-36171289D01*
X150221487Y-36128457D01*
X150221479Y-36128450D01*
X150218289Y-36124670D01*
X150204763Y-36109404D01*
X150201289Y-36104518D01*
X150191429Y-36086938D01*
X150188797Y-36082498D01*
X150157319Y-36042441D01*
X150153807Y-36037746D01*
X150124257Y-35996192D01*
X150124255Y-35996190D01*
X150120785Y-35992458D01*
X150106666Y-35977985D01*
X150103125Y-35973479D01*
X150092551Y-35956575D01*
X150089606Y-35952110D01*
X150089605Y-35952106D01*
X150089601Y-35952101D01*
X150056228Y-35913572D01*
X150052459Y-35909005D01*
X150020971Y-35868937D01*
X150017155Y-35865208D01*
X150002540Y-35851593D01*
X149998910Y-35847403D01*
X149987573Y-35831070D01*
X149984392Y-35826712D01*
X149949213Y-35789814D01*
X149945235Y-35785437D01*
X149911844Y-35746889D01*
X149907789Y-35743289D01*
X149892611Y-35730447D01*
X149888859Y-35726511D01*
X149876807Y-35710804D01*
X149873364Y-35706531D01*
X149836462Y-35671349D01*
X149832280Y-35667167D01*
X149797088Y-35630255D01*
X149792839Y-35626831D01*
X149777100Y-35614754D01*
X149773160Y-35610997D01*
X149760362Y-35595869D01*
X149756729Y-35591776D01*
X149718203Y-35558404D01*
X149713827Y-35554427D01*
X149676915Y-35519235D01*
X149672546Y-35516046D01*
X149656207Y-35504703D01*
X149652026Y-35501081D01*
X149638413Y-35486467D01*
X149634691Y-35482658D01*
X149594619Y-35451168D01*
X149590050Y-35447397D01*
X149551523Y-35414025D01*
X149547088Y-35411101D01*
X149530142Y-35400499D01*
X149525651Y-35396969D01*
X149511192Y-35382865D01*
X149507437Y-35379373D01*
X149501882Y-35375423D01*
X149465916Y-35349846D01*
X149461174Y-35346300D01*
X149421133Y-35314834D01*
X149416737Y-35312228D01*
X149399106Y-35302337D01*
X149394237Y-35298875D01*
X149378917Y-35285303D01*
X149375175Y-35282145D01*
X149375174Y-35282144D01*
X149375173Y-35282143D01*
X149332327Y-35254675D01*
X149327405Y-35251350D01*
X149285932Y-35221858D01*
X149285929Y-35221857D01*
X149285928Y-35221856D01*
X149281627Y-35219577D01*
X149263306Y-35210426D01*
X149257955Y-35206996D01*
X149241763Y-35193984D01*
X149238099Y-35191183D01*
X149194045Y-35165852D01*
X149188934Y-35162747D01*
X149146141Y-35135313D01*
X149142010Y-35133372D01*
X149122954Y-35124974D01*
X149117053Y-35121581D01*
X149099926Y-35109134D01*
X149096422Y-35106715D01*
X149096419Y-35106713D01*
X149074800Y-35095640D01*
X149051259Y-35083583D01*
X149045979Y-35080715D01*
X149001971Y-35055411D01*
X148998061Y-35053800D01*
X148978261Y-35046196D01*
X148971718Y-35042845D01*
X148953651Y-35031011D01*
X148950343Y-35028958D01*
X148904174Y-35008085D01*
X148898731Y-35005463D01*
X148853629Y-34982363D01*
X148850005Y-34981071D01*
X148829456Y-34974305D01*
X148822152Y-34971003D01*
X148803129Y-34959833D01*
X148800087Y-34958145D01*
X148753037Y-34939594D01*
X148747440Y-34937227D01*
X148701344Y-34916387D01*
X148698017Y-34915381D01*
X148676751Y-34909515D01*
X148674978Y-34908816D01*
X148668577Y-34906292D01*
X148648591Y-34895841D01*
X148645863Y-34894499D01*
X148598043Y-34878319D01*
X148592304Y-34876218D01*
X148545326Y-34857695D01*
X148542389Y-34856962D01*
X148520359Y-34852034D01*
X148511222Y-34848942D01*
X148490339Y-34839305D01*
X148487916Y-34838259D01*
X148487914Y-34838258D01*
X148458880Y-34830012D01*
X148439420Y-34824486D01*
X148433564Y-34822665D01*
X148385806Y-34806507D01*
X148385804Y-34806506D01*
X148385802Y-34806506D01*
X148383183Y-34805988D01*
X148360532Y-34802085D01*
X148350312Y-34799182D01*
X148328525Y-34790414D01*
X148326455Y-34789640D01*
X148277415Y-34778321D01*
X148271431Y-34776782D01*
X148223030Y-34763038D01*
X148220828Y-34762714D01*
X148197535Y-34759885D01*
X148186084Y-34757242D01*
X148163538Y-34749452D01*
X148161739Y-34748881D01*
X148112291Y-34740050D01*
X148106208Y-34738806D01*
X148057249Y-34727507D01*
X148057246Y-34727506D01*
X148057243Y-34727506D01*
X148057239Y-34727506D01*
X148055332Y-34727322D01*
X148031564Y-34725635D01*
X148018800Y-34723355D01*
X147995606Y-34716624D01*
X147994025Y-34716208D01*
X147944233Y-34709880D01*
X147938069Y-34708939D01*
X147888688Y-34700120D01*
X147887065Y-34700046D01*
X147862908Y-34699545D01*
X147848691Y-34697738D01*
X147824893Y-34692117D01*
X147823559Y-34691837D01*
X147773600Y-34688038D01*
X147767373Y-34687406D01*
X147717644Y-34681087D01*
X147717640Y-34681087D01*
X147717639Y-34681087D01*
X147716314Y-34681093D01*
X147691830Y-34681820D01*
X147676057Y-34680621D01*
X147651838Y-34676178D01*
X147650627Y-34675987D01*
X147600567Y-34674721D01*
X147594303Y-34674404D01*
X147544358Y-34670607D01*
X147544356Y-34670607D01*
X147544355Y-34670607D01*
X147543124Y-34670675D01*
X147518590Y-34672648D01*
X147508946Y-34672404D01*
X147495902Y-34671384D01*
X147488235Y-34670375D01*
X147488233Y-34670375D01*
X147430228Y-34670375D01*
X147427092Y-34670335D01*
X147369126Y-34668868D01*
X147361437Y-34669684D01*
X147348362Y-34670375D01*
X127917155Y-34670375D01*
X127904080Y-34669684D01*
X127896390Y-34668868D01*
X127838417Y-34670335D01*
X127835282Y-34670375D01*
X127777279Y-34670375D01*
X127769618Y-34671383D01*
X127756574Y-34672403D01*
X127746914Y-34672647D01*
X127722359Y-34670673D01*
X127721162Y-34670607D01*
X127721160Y-34670607D01*
X127721157Y-34670607D01*
X127721155Y-34670607D01*
X127671227Y-34674403D01*
X127664962Y-34674720D01*
X127614889Y-34675986D01*
X127613721Y-34676170D01*
X127589456Y-34680621D01*
X127573686Y-34681820D01*
X127549226Y-34681093D01*
X127547876Y-34681087D01*
X127547875Y-34681087D01*
X127547871Y-34681087D01*
X127498140Y-34687406D01*
X127491915Y-34688038D01*
X127441952Y-34691837D01*
X127440626Y-34692116D01*
X127416823Y-34697739D01*
X127402605Y-34699546D01*
X127378449Y-34700046D01*
X127376823Y-34700121D01*
X127327443Y-34708938D01*
X127321283Y-34709879D01*
X127271492Y-34716207D01*
X127269933Y-34716618D01*
X127246712Y-34723356D01*
X127233948Y-34725635D01*
X127210184Y-34727322D01*
X127208274Y-34727506D01*
X127208271Y-34727506D01*
X127208267Y-34727506D01*
X127208265Y-34727507D01*
X127159310Y-34738805D01*
X127153228Y-34740049D01*
X127103774Y-34748881D01*
X127101983Y-34749450D01*
X127079419Y-34757244D01*
X127078356Y-34757490D01*
X127067977Y-34759885D01*
X127044700Y-34762712D01*
X127042486Y-34763038D01*
X127042482Y-34763038D01*
X127042482Y-34763039D01*
X126994079Y-34776783D01*
X126988099Y-34778321D01*
X126939060Y-34789640D01*
X126936922Y-34790439D01*
X126915196Y-34799183D01*
X126904962Y-34802089D01*
X126882309Y-34805992D01*
X126879708Y-34806507D01*
X126831957Y-34822663D01*
X126826094Y-34824486D01*
X126777601Y-34838257D01*
X126775162Y-34839310D01*
X126754285Y-34848943D01*
X126745139Y-34852037D01*
X126723123Y-34856962D01*
X126720186Y-34857695D01*
X126673208Y-34876218D01*
X126667481Y-34878314D01*
X126649282Y-34884472D01*
X126619645Y-34894500D01*
X126616944Y-34895829D01*
X126596930Y-34906294D01*
X126588763Y-34909514D01*
X126567442Y-34915396D01*
X126564170Y-34916386D01*
X126518083Y-34937222D01*
X126512487Y-34939588D01*
X126465430Y-34958142D01*
X126462395Y-34959826D01*
X126443370Y-34970998D01*
X126436063Y-34974302D01*
X126415522Y-34981065D01*
X126411881Y-34982363D01*
X126366776Y-35005464D01*
X126361339Y-35008084D01*
X126315164Y-35028961D01*
X126311921Y-35030974D01*
X126293800Y-35042841D01*
X126287254Y-35046194D01*
X126267423Y-35053811D01*
X126263543Y-35055410D01*
X126219534Y-35080715D01*
X126214253Y-35083583D01*
X126169098Y-35106710D01*
X126165606Y-35109120D01*
X126148457Y-35121581D01*
X126142552Y-35124976D01*
X126123470Y-35133387D01*
X126119371Y-35135313D01*
X126076575Y-35162748D01*
X126071467Y-35165852D01*
X126027413Y-35191183D01*
X126023798Y-35193947D01*
X126007557Y-35206995D01*
X126002205Y-35210426D01*
X125983881Y-35219578D01*
X125979579Y-35221858D01*
X125938101Y-35251353D01*
X125933168Y-35254685D01*
X125890342Y-35282141D01*
X125886611Y-35285290D01*
X125871279Y-35298871D01*
X125866400Y-35302340D01*
X125848793Y-35312217D01*
X125844375Y-35314836D01*
X125804336Y-35346300D01*
X125799585Y-35349854D01*
X125758070Y-35379376D01*
X125754373Y-35382814D01*
X125739861Y-35396969D01*
X125735373Y-35400496D01*
X125718423Y-35411101D01*
X125713985Y-35414027D01*
X125675461Y-35447397D01*
X125670897Y-35451164D01*
X125630820Y-35482660D01*
X125627127Y-35486438D01*
X125613482Y-35501084D01*
X125609303Y-35504704D01*
X125592981Y-35516035D01*
X125588599Y-35519235D01*
X125551693Y-35554421D01*
X125547317Y-35558397D01*
X125508782Y-35591776D01*
X125505148Y-35595870D01*
X125492328Y-35611020D01*
X125488385Y-35614778D01*
X125472621Y-35626874D01*
X125468418Y-35630261D01*
X125433231Y-35667168D01*
X125429052Y-35671347D01*
X125392143Y-35706537D01*
X125388708Y-35710799D01*
X125376638Y-35726527D01*
X125372876Y-35730472D01*
X125357692Y-35743319D01*
X125353668Y-35746892D01*
X125320290Y-35785424D01*
X125316315Y-35789797D01*
X125281122Y-35826710D01*
X125277923Y-35831092D01*
X125266585Y-35847422D01*
X125262961Y-35851605D01*
X125248303Y-35865261D01*
X125244545Y-35868934D01*
X125213043Y-35909019D01*
X125209277Y-35913582D01*
X125175910Y-35952104D01*
X125172977Y-35956552D01*
X125162375Y-35973495D01*
X125158846Y-35977985D01*
X125144697Y-35992491D01*
X125141258Y-35996190D01*
X125111745Y-36037692D01*
X125108191Y-36042444D01*
X125076716Y-36082498D01*
X125074122Y-36086872D01*
X125064225Y-36104517D01*
X125063262Y-36105870D01*
X125060756Y-36109394D01*
X125047160Y-36124743D01*
X125044024Y-36128458D01*
X125016566Y-36171289D01*
X125013233Y-36176224D01*
X124983743Y-36217694D01*
X124981454Y-36222015D01*
X124972308Y-36240325D01*
X124968882Y-36245669D01*
X124955856Y-36261881D01*
X124953064Y-36265534D01*
X124927733Y-36309587D01*
X124924629Y-36314696D01*
X124897197Y-36357486D01*
X124895271Y-36361586D01*
X124886860Y-36380668D01*
X124883465Y-36386573D01*
X124871004Y-36403722D01*
X124868594Y-36407214D01*
X124845467Y-36452369D01*
X124842599Y-36457650D01*
X124817294Y-36501659D01*
X124815695Y-36505539D01*
X124808078Y-36525370D01*
X124804725Y-36531916D01*
X124792858Y-36550037D01*
X124790845Y-36553280D01*
X124769968Y-36599455D01*
X124767348Y-36604892D01*
X124744247Y-36649997D01*
X124742951Y-36653634D01*
X124736187Y-36674178D01*
X124732884Y-36681483D01*
X124721708Y-36700512D01*
X124720028Y-36703542D01*
X124701478Y-36750589D01*
X124699112Y-36756185D01*
X124678271Y-36802283D01*
X124677278Y-36805567D01*
X124671400Y-36826874D01*
X124668183Y-36835035D01*
X124657710Y-36855066D01*
X124656383Y-36857764D01*
X124640195Y-36905605D01*
X124638095Y-36911341D01*
X124619579Y-36958304D01*
X124618835Y-36961284D01*
X124613919Y-36983261D01*
X124610824Y-36992408D01*
X124601182Y-37013307D01*
X124600141Y-37015718D01*
X124586374Y-37064195D01*
X124584550Y-37070059D01*
X124568390Y-37117821D01*
X124567875Y-37120421D01*
X124563970Y-37143088D01*
X124561065Y-37153317D01*
X124552309Y-37175075D01*
X124551524Y-37177176D01*
X124540205Y-37226215D01*
X124538667Y-37232195D01*
X124524922Y-37280602D01*
X124524596Y-37282816D01*
X124521769Y-37306093D01*
X124519129Y-37317534D01*
X124511334Y-37340099D01*
X124510765Y-37341890D01*
X124501933Y-37391344D01*
X124500689Y-37397426D01*
X124489389Y-37446389D01*
X124489209Y-37448258D01*
X124487519Y-37472067D01*
X124485240Y-37484829D01*
X124478502Y-37508050D01*
X124478091Y-37509609D01*
X124471763Y-37559400D01*
X124470822Y-37565560D01*
X124462005Y-37614940D01*
X124461930Y-37616572D01*
X124461430Y-37640719D01*
X124459623Y-37654938D01*
X124454000Y-37678742D01*
X124453721Y-37680068D01*
X124449922Y-37730031D01*
X124449290Y-37736256D01*
X124442971Y-37785987D01*
X124442977Y-37787347D01*
X124443704Y-37811801D01*
X124442505Y-37827573D01*
X124438066Y-37851766D01*
X124437871Y-37853003D01*
X124436605Y-37903065D01*
X124436288Y-37909328D01*
X124432491Y-37959273D01*
X124432559Y-37960520D01*
X124434532Y-37985037D01*
X124434092Y-38002451D01*
X124430886Y-38026821D01*
X124430752Y-38028080D01*
X124431671Y-38064390D01*
X124431834Y-38070864D01*
X124432019Y-38078153D01*
X124432019Y-38084422D01*
X124430752Y-38134504D01*
X100340164Y-38134504D01*
X101671606Y-32600353D01*
X101673084Y-32595568D01*
X101674554Y-32589336D01*
X101689057Y-32527820D01*
X101689173Y-32527337D01*
X101704282Y-32464540D01*
X101704281Y-32464536D01*
X101705486Y-32459532D01*
X101706329Y-32454572D01*
X101711478Y-32432738D01*
X102507395Y-29057200D01*
X102696609Y-28259234D01*
X102843466Y-27639901D01*
X102843515Y-27639694D01*
X102885508Y-27463943D01*
X103136327Y-26414213D01*
X103389713Y-25366549D01*
X103607625Y-24482188D01*
X103704269Y-24097682D01*
X103793592Y-23748277D01*
X103875805Y-23433253D01*
X103951433Y-23150619D01*
X103951553Y-23150177D01*
X104020941Y-22898625D01*
X104021154Y-22897866D01*
X104084665Y-22675922D01*
X104085007Y-22674750D01*
X104143058Y-22480690D01*
X104143595Y-22478944D01*
X104196398Y-22311619D01*
X104197126Y-22309388D01*
X104244894Y-22167436D01*
X104245875Y-22164632D01*
X104268955Y-22101123D01*
X104288737Y-22046686D01*
X104290047Y-22043245D01*
X104327785Y-21948493D01*
X104329622Y-21944129D01*
X104361808Y-21871609D01*
X104364388Y-21866163D01*
X104390198Y-21814934D01*
X104393811Y-21808277D01*
X104415321Y-21771401D01*
X104418892Y-21765648D01*
X104421265Y-21762053D01*
X104462377Y-21723190D01*
X104470172Y-21718652D01*
X104473835Y-21716604D01*
X104590713Y-21653879D01*
X104607527Y-21646406D01*
X104673355Y-21622825D01*
X104698412Y-21616700D01*
X104752421Y-21609337D01*
X104779423Y-21608628D01*
X104868443Y-21616024D01*
G37*
%TD.AperFunction*%
%TD*%
M02*
