%TF.GenerationSoftware,KiCad,Pcbnew,8.0.1*%
%TF.CreationDate,2024-04-29T20:13:38-04:00*%
%TF.ProjectId,HackerBadgePCBV3 (Simplified),4861636b-6572-4426-9164-676550434256,1.8*%
%TF.SameCoordinates,Original*%
%TF.FileFunction,Profile,NP*%
%FSLAX46Y46*%
G04 Gerber Fmt 4.6, Leading zero omitted, Abs format (unit mm)*
G04 Created by KiCad (PCBNEW 8.0.1) date 2024-04-29 20:13:38*
%MOMM*%
%LPD*%
G01*
G04 APERTURE LIST*
%TA.AperFunction,Profile*%
%ADD10C,0.100000*%
%TD*%
G04 APERTURE END LIST*
D10*
X104966393Y-21121939D02*
X105219037Y-21190234D01*
X105522283Y-21316408D01*
X105887838Y-21507801D01*
X106327410Y-21771756D01*
X106852707Y-22115616D01*
X107475437Y-22546722D01*
X109060026Y-23700041D01*
X111174840Y-25290452D01*
X113913541Y-27376690D01*
X122199586Y-33698467D01*
X147870519Y-33698467D01*
X155930474Y-33696747D01*
X162108979Y-33688941D01*
X164571483Y-33681516D01*
X166658180Y-33671081D01*
X168400587Y-33657140D01*
X169830225Y-33639198D01*
X170978610Y-33616758D01*
X171877262Y-33589324D01*
X172242788Y-33573579D01*
X172557699Y-33556400D01*
X172825937Y-33537724D01*
X173051440Y-33517490D01*
X173238148Y-33495636D01*
X173390002Y-33472099D01*
X173510941Y-33446817D01*
X173604905Y-33419729D01*
X173675834Y-33390772D01*
X173727667Y-33359885D01*
X173764344Y-33327005D01*
X173789806Y-33292071D01*
X173866007Y-33160880D01*
X173988774Y-32928354D01*
X174348607Y-32211156D01*
X174818505Y-31244193D01*
X175347667Y-30131181D01*
X175613255Y-29579547D01*
X175861577Y-29082549D01*
X176095481Y-28637145D01*
X176317808Y-28240292D01*
X176531404Y-27888947D01*
X176635817Y-27729389D01*
X176739113Y-27580068D01*
X176841649Y-27440602D01*
X176943779Y-27310611D01*
X177045860Y-27189716D01*
X177148247Y-27077535D01*
X177251296Y-26973689D01*
X177355361Y-26877797D01*
X177460799Y-26789478D01*
X177567964Y-26708353D01*
X177677214Y-26634040D01*
X177788902Y-26566161D01*
X177903385Y-26504333D01*
X178021019Y-26448178D01*
X178142158Y-26397314D01*
X178267158Y-26351362D01*
X178396375Y-26309940D01*
X178530164Y-26272669D01*
X178812882Y-26209058D01*
X179118156Y-26157484D01*
X179226926Y-26144833D01*
X179337177Y-26136444D01*
X179448668Y-26132214D01*
X179561159Y-26132040D01*
X179674410Y-26135818D01*
X179788183Y-26143445D01*
X180016332Y-26169832D01*
X180243686Y-26210374D01*
X180468329Y-26264244D01*
X180688341Y-26330616D01*
X180901804Y-26408663D01*
X181106801Y-26497558D01*
X181301414Y-26596474D01*
X181483723Y-26704584D01*
X181569664Y-26761828D01*
X181651810Y-26821061D01*
X181729922Y-26882179D01*
X181803759Y-26945078D01*
X181873081Y-27009656D01*
X181937650Y-27075809D01*
X181997224Y-27143434D01*
X182051564Y-27212427D01*
X182100432Y-27282685D01*
X182143585Y-27354104D01*
X182231669Y-27549759D01*
X182301100Y-27764696D01*
X182351745Y-27999674D01*
X182383473Y-28255455D01*
X182396150Y-28532800D01*
X182389645Y-28832469D01*
X182363826Y-29155222D01*
X182318560Y-29501821D01*
X182253714Y-29873026D01*
X182169158Y-30269598D01*
X182064757Y-30692297D01*
X181940381Y-31141884D01*
X181795896Y-31619120D01*
X181631171Y-32124765D01*
X181240470Y-33224325D01*
X180887561Y-34170299D01*
X180743138Y-34567152D01*
X180618525Y-34920482D01*
X180512565Y-35235711D01*
X180424100Y-35518264D01*
X180351974Y-35773565D01*
X180295028Y-36007038D01*
X180252105Y-36224107D01*
X180222048Y-36430195D01*
X180203698Y-36630727D01*
X180195898Y-36831127D01*
X180197492Y-37036818D01*
X180207320Y-37253225D01*
X180224226Y-37485771D01*
X180247052Y-37739881D01*
X180262386Y-37930437D01*
X180274478Y-38112858D01*
X180283264Y-38287473D01*
X180288677Y-38454613D01*
X180290650Y-38614610D01*
X180289117Y-38767793D01*
X180284013Y-38914494D01*
X180275271Y-39055043D01*
X180262825Y-39189771D01*
X180246609Y-39319008D01*
X180226556Y-39443086D01*
X180202600Y-39562336D01*
X180174676Y-39677087D01*
X180142716Y-39787671D01*
X180106655Y-39894418D01*
X180066427Y-39997659D01*
X180026212Y-40107865D01*
X179990229Y-40218897D01*
X179958479Y-40331583D01*
X179930963Y-40446749D01*
X179907679Y-40565222D01*
X179888629Y-40687829D01*
X179873812Y-40815397D01*
X179863228Y-40948753D01*
X179856877Y-41088723D01*
X179854760Y-41236135D01*
X179856876Y-41391815D01*
X179863225Y-41556590D01*
X179888625Y-41916734D01*
X179930958Y-42323180D01*
X179980216Y-42788668D01*
X179996791Y-43000443D01*
X180007513Y-43202297D01*
X180012016Y-43397272D01*
X180009938Y-43588411D01*
X180000915Y-43778756D01*
X179984583Y-43971350D01*
X179960577Y-44169236D01*
X179928536Y-44375457D01*
X179888093Y-44593055D01*
X179838886Y-44825072D01*
X179712725Y-45344539D01*
X179547140Y-45958197D01*
X178982697Y-48035356D01*
X178982697Y-79531357D01*
X180247052Y-82082641D01*
X180654554Y-82899895D01*
X180975537Y-83583005D01*
X181109619Y-83894514D01*
X181229315Y-84196794D01*
X181337039Y-84497950D01*
X181435204Y-84806085D01*
X181526226Y-85129301D01*
X181612518Y-85475700D01*
X181696496Y-85853387D01*
X181780573Y-86270464D01*
X181958683Y-87255198D01*
X182166164Y-88494726D01*
X182820910Y-92378109D01*
X182504826Y-97300058D01*
X182188742Y-102222021D01*
X180585714Y-106827880D01*
X178982697Y-111411171D01*
X178982697Y-173183964D01*
X178282775Y-173770985D01*
X177582873Y-174358007D01*
X92735588Y-174358007D01*
X92396922Y-173816132D01*
X92293205Y-173580304D01*
X92244521Y-173157149D01*
X92263571Y-172414377D01*
X92363055Y-171219695D01*
X92854121Y-166945440D01*
X93819322Y-159276054D01*
X95580388Y-145255243D01*
X92577543Y-137082109D01*
X91975308Y-135427669D01*
X91413024Y-133858424D01*
X90903128Y-132410888D01*
X90458055Y-131121573D01*
X90090240Y-130026990D01*
X89812119Y-129163653D01*
X89636127Y-128568075D01*
X89590315Y-128382105D01*
X89574699Y-128276767D01*
X89577865Y-128122456D01*
X89587328Y-127972816D01*
X89603032Y-127827890D01*
X89624926Y-127687717D01*
X89652955Y-127552340D01*
X89687065Y-127421800D01*
X89727202Y-127296138D01*
X89773313Y-127175396D01*
X89825344Y-127059615D01*
X89883242Y-126948836D01*
X89946952Y-126843101D01*
X90016421Y-126742450D01*
X90091595Y-126646926D01*
X90172421Y-126556570D01*
X90258844Y-126471422D01*
X90350810Y-126391525D01*
X90448267Y-126316920D01*
X90551161Y-126247647D01*
X90659436Y-126183749D01*
X90773041Y-126125267D01*
X90891921Y-126072242D01*
X91016022Y-126024715D01*
X91145291Y-125982728D01*
X91279674Y-125946322D01*
X91419117Y-125915539D01*
X91563566Y-125890419D01*
X91712969Y-125871004D01*
X91867270Y-125857336D01*
X92026416Y-125849456D01*
X92190353Y-125847405D01*
X92532388Y-125860956D01*
X92754947Y-125867303D01*
X92860852Y-125868890D01*
X92962424Y-125869419D01*
X93059102Y-125868889D01*
X93150322Y-125867301D01*
X93235524Y-125864655D01*
X93314143Y-125860951D01*
X93385619Y-125856189D01*
X93449390Y-125850368D01*
X93504891Y-125843488D01*
X93551563Y-125835550D01*
X93588842Y-125826554D01*
X93603783Y-125821658D01*
X93616165Y-125816499D01*
X93625918Y-125811074D01*
X93632972Y-125805385D01*
X93637255Y-125799431D01*
X93638699Y-125793212D01*
X91606699Y-111682109D01*
X90773438Y-105883145D01*
X90156077Y-101324550D01*
X89937619Y-99591088D01*
X89784249Y-98264555D01*
X89699671Y-97377232D01*
X89684336Y-97108360D01*
X89687588Y-96961396D01*
X89707155Y-96865753D01*
X89731939Y-96773575D01*
X89761866Y-96684886D01*
X89796861Y-96599711D01*
X89836850Y-96518075D01*
X89881759Y-96440003D01*
X89931513Y-96365518D01*
X89986038Y-96294647D01*
X90045259Y-96227414D01*
X90109102Y-96163844D01*
X90177493Y-96103962D01*
X90250357Y-96047791D01*
X90327619Y-95995358D01*
X90409206Y-95946688D01*
X90585055Y-95860731D01*
X90777308Y-95790120D01*
X90985369Y-95735054D01*
X91208645Y-95695730D01*
X91446538Y-95672347D01*
X91698455Y-95665104D01*
X91963798Y-95674199D01*
X92241975Y-95699830D01*
X92532388Y-95742196D01*
X92663875Y-95766004D01*
X92787358Y-95786603D01*
X92902772Y-95803961D01*
X93010049Y-95818045D01*
X93109124Y-95828821D01*
X93199932Y-95836257D01*
X93282404Y-95840319D01*
X93320495Y-95841075D01*
X93356477Y-95840975D01*
X93390342Y-95840015D01*
X93422082Y-95838191D01*
X93451690Y-95835499D01*
X93479155Y-95831934D01*
X93504471Y-95827493D01*
X93527629Y-95822172D01*
X93548621Y-95815966D01*
X93567438Y-95808870D01*
X93584072Y-95800882D01*
X93598515Y-95791997D01*
X93610759Y-95782210D01*
X93620795Y-95771518D01*
X93628616Y-95759917D01*
X93634212Y-95747401D01*
X93637576Y-95733968D01*
X93638699Y-95719613D01*
X90342344Y-64336508D01*
X88783419Y-49401308D01*
X87810811Y-39715441D01*
X87518578Y-36571133D01*
X87341969Y-34415308D01*
X87270664Y-33140016D01*
X87271276Y-32798836D01*
X87294344Y-32637309D01*
X87326582Y-32573635D01*
X87363869Y-32509714D01*
X87452609Y-32381722D01*
X87558613Y-32254523D01*
X87679930Y-32129310D01*
X87814609Y-32007271D01*
X87960697Y-31889598D01*
X88116245Y-31777481D01*
X88279299Y-31672111D01*
X88447911Y-31574678D01*
X88620127Y-31486374D01*
X88793997Y-31408388D01*
X88967569Y-31341912D01*
X89138892Y-31288136D01*
X89306015Y-31248250D01*
X89466986Y-31223445D01*
X89544556Y-31217070D01*
X89619855Y-31214912D01*
X89889807Y-31222640D01*
X90144347Y-31249220D01*
X90388701Y-31299744D01*
X90628094Y-31379306D01*
X90867751Y-31493000D01*
X91112899Y-31645917D01*
X91368762Y-31843153D01*
X91640566Y-32089799D01*
X91933537Y-32390950D01*
X92252900Y-32751699D01*
X92603881Y-33177138D01*
X92991705Y-33672361D01*
X93898785Y-34892533D01*
X95015944Y-36452959D01*
X95559933Y-37215505D01*
X96051038Y-37896658D01*
X96492467Y-38499693D01*
X96887429Y-39027884D01*
X97068488Y-39264936D01*
X97239132Y-39484505D01*
X97399764Y-39687000D01*
X97550784Y-39872830D01*
X97692593Y-40042405D01*
X97825592Y-40196134D01*
X97950183Y-40334426D01*
X98066765Y-40457691D01*
X98175741Y-40566337D01*
X98277512Y-40660775D01*
X98372477Y-40741412D01*
X98461039Y-40808660D01*
X98543598Y-40862926D01*
X98620555Y-40904620D01*
X98657058Y-40920881D01*
X98692311Y-40934152D01*
X98726365Y-40944485D01*
X98759268Y-40951930D01*
X98791072Y-40956540D01*
X98821826Y-40958365D01*
X98851581Y-40957456D01*
X98880387Y-40953864D01*
X98908293Y-40947641D01*
X98935350Y-40938838D01*
X98961609Y-40927506D01*
X98987118Y-40913696D01*
X99011929Y-40897459D01*
X99036092Y-40878847D01*
X99082672Y-40834700D01*
X99127259Y-40781665D01*
X99170254Y-40720150D01*
X99367104Y-39990256D01*
X99813721Y-38182977D01*
X101202254Y-32411531D01*
X102020301Y-28942139D01*
X102356614Y-27523818D01*
X102649701Y-26297188D01*
X102903497Y-25247829D01*
X103121938Y-24361320D01*
X103219131Y-23974629D01*
X103308960Y-23623243D01*
X103391919Y-23305360D01*
X103468498Y-23019177D01*
X103539191Y-22762892D01*
X103604489Y-22534703D01*
X103664883Y-22332806D01*
X103720867Y-22155401D01*
X103772931Y-22000683D01*
X103821568Y-21866850D01*
X103867270Y-21752101D01*
X103910529Y-21654633D01*
X103951836Y-21572642D01*
X103991684Y-21504328D01*
X104011215Y-21474735D01*
X104030565Y-21447886D01*
X104049796Y-21423555D01*
X104068970Y-21401516D01*
X104107392Y-21363413D01*
X104146322Y-21331776D01*
X104186253Y-21304803D01*
X104227676Y-21280691D01*
X104394992Y-21190897D01*
X104566078Y-21129612D01*
X104752643Y-21104179D01*
X104966393Y-21121939D01*
X147572110Y-35174662D02*
X147719913Y-35185901D01*
X147865567Y-35204410D01*
X148008889Y-35230004D01*
X148149697Y-35262503D01*
X148287807Y-35301722D01*
X148423036Y-35347478D01*
X148555203Y-35399590D01*
X148684123Y-35457874D01*
X148809615Y-35522147D01*
X148931494Y-35592226D01*
X149049579Y-35667929D01*
X149163686Y-35749072D01*
X149273632Y-35835473D01*
X149379236Y-35926949D01*
X149480313Y-36023316D01*
X149576681Y-36124393D01*
X149668157Y-36229997D01*
X149754558Y-36339943D01*
X149835701Y-36454050D01*
X149911404Y-36572135D01*
X149981484Y-36694014D01*
X150045757Y-36819506D01*
X150104041Y-36948426D01*
X150156153Y-37080593D01*
X150201910Y-37215823D01*
X150241129Y-37353933D01*
X150273627Y-37494741D01*
X150299222Y-37638064D01*
X150317730Y-37783719D01*
X150328970Y-37931522D01*
X150332757Y-38081292D01*
X150328970Y-38231060D01*
X150317730Y-38378863D01*
X150299222Y-38524517D01*
X150273627Y-38667840D01*
X150241129Y-38808647D01*
X150201910Y-38946757D01*
X150156153Y-39081987D01*
X150104041Y-39214153D01*
X150045757Y-39343074D01*
X149981484Y-39468565D01*
X149911404Y-39590445D01*
X149835701Y-39708529D01*
X149754558Y-39822636D01*
X149668157Y-39932583D01*
X149576681Y-40038186D01*
X149480313Y-40139264D01*
X149379236Y-40235632D01*
X149273632Y-40327108D01*
X149163686Y-40413509D01*
X149049579Y-40494652D01*
X148931494Y-40570355D01*
X148809615Y-40640435D01*
X148684123Y-40704708D01*
X148555203Y-40762992D01*
X148423036Y-40815104D01*
X148287807Y-40860861D01*
X148149697Y-40900080D01*
X148008889Y-40932579D01*
X147865567Y-40958173D01*
X147719913Y-40976682D01*
X147572110Y-40987921D01*
X147422341Y-40991708D01*
X127843176Y-40991708D01*
X127693406Y-40987921D01*
X127545603Y-40976682D01*
X127399948Y-40958173D01*
X127256625Y-40932579D01*
X127115817Y-40900080D01*
X126977707Y-40860861D01*
X126842477Y-40815104D01*
X126710310Y-40762992D01*
X126581390Y-40704708D01*
X126455898Y-40640435D01*
X126334019Y-40570355D01*
X126215934Y-40494652D01*
X126101827Y-40413509D01*
X125991881Y-40327108D01*
X125886277Y-40235632D01*
X125785200Y-40139264D01*
X125688833Y-40038186D01*
X125597357Y-39932583D01*
X125510956Y-39822636D01*
X125429813Y-39708529D01*
X125354110Y-39590445D01*
X125284031Y-39468565D01*
X125219758Y-39343074D01*
X125161474Y-39214153D01*
X125109362Y-39081987D01*
X125063606Y-38946757D01*
X125024387Y-38808647D01*
X124991888Y-38667840D01*
X124966294Y-38524517D01*
X124947785Y-38378863D01*
X124936546Y-38231060D01*
X124932759Y-38081292D01*
X124936546Y-37931522D01*
X124947785Y-37783719D01*
X124966294Y-37638064D01*
X124991888Y-37494741D01*
X125024387Y-37353933D01*
X125063606Y-37215823D01*
X125109362Y-37080593D01*
X125161474Y-36948426D01*
X125219758Y-36819506D01*
X125284031Y-36694014D01*
X125354110Y-36572135D01*
X125429813Y-36454050D01*
X125510956Y-36339943D01*
X125597357Y-36229997D01*
X125688833Y-36124393D01*
X125785200Y-36023316D01*
X125886277Y-35926949D01*
X125991881Y-35835473D01*
X126101827Y-35749072D01*
X126215934Y-35667929D01*
X126334019Y-35592226D01*
X126455898Y-35522147D01*
X126581390Y-35457874D01*
X126710310Y-35399590D01*
X126842477Y-35347478D01*
X126977707Y-35301722D01*
X127115817Y-35262503D01*
X127256625Y-35230004D01*
X127399948Y-35204410D01*
X127545603Y-35185901D01*
X127693406Y-35174662D01*
X127843176Y-35170875D01*
X147422341Y-35170875D01*
X147572110Y-35174662D01*
M02*
