%TF.GenerationSoftware,KiCad,Pcbnew,8.0.1*%
%TF.CreationDate,2024-04-29T20:13:38-04:00*%
%TF.ProjectId,HackerBadgePCBV3 (Simplified),4861636b-6572-4426-9164-676550434256,1.8*%
%TF.SameCoordinates,Original*%
%TF.FileFunction,Soldermask,Bot*%
%TF.FilePolarity,Negative*%
%FSLAX46Y46*%
G04 Gerber Fmt 4.6, Leading zero omitted, Abs format (unit mm)*
G04 Created by KiCad (PCBNEW 8.0.1) date 2024-04-29 20:13:38*
%MOMM*%
%LPD*%
G01*
G04 APERTURE LIST*
G04 Aperture macros list*
%AMRotRect*
0 Rectangle, with rotation*
0 The origin of the aperture is its center*
0 $1 length*
0 $2 width*
0 $3 Rotation angle, in degrees counterclockwise*
0 Add horizontal line*
21,1,$1,$2,0,0,$3*%
G04 Aperture macros list end*
%ADD10C,0.000000*%
%ADD11C,0.150000*%
%ADD12RotRect,1.800000X1.800000X130.000000*%
%ADD13C,1.800000*%
%ADD14R,1.800000X1.800000*%
%ADD15RotRect,1.800000X1.800000X240.000000*%
%ADD16RotRect,1.800000X1.800000X150.000000*%
%ADD17C,1.600000*%
%ADD18O,1.600000X1.600000*%
%ADD19R,2.400000X6.100000*%
%ADD20C,10.000000*%
G04 APERTURE END LIST*
D10*
G36*
X111284034Y-48419661D02*
G01*
X111376832Y-48422752D01*
X111468359Y-48427905D01*
X111558617Y-48435120D01*
X111647604Y-48444395D01*
X111735323Y-48455732D01*
X111821772Y-48469129D01*
X111906953Y-48484588D01*
X111990866Y-48502108D01*
X112073511Y-48521690D01*
X112154889Y-48543332D01*
X112234999Y-48567036D01*
X112313843Y-48592801D01*
X112391421Y-48620627D01*
X112467733Y-48650515D01*
X112542779Y-48682463D01*
X112616204Y-48716248D01*
X112687651Y-48751645D01*
X112757117Y-48788653D01*
X112824603Y-48827274D01*
X112890108Y-48867506D01*
X112953630Y-48909351D01*
X113015170Y-48952807D01*
X113074726Y-48997876D01*
X113132297Y-49044556D01*
X113187884Y-49092849D01*
X113241484Y-49142753D01*
X113293098Y-49194269D01*
X113342724Y-49247398D01*
X113390361Y-49302138D01*
X113436010Y-49358490D01*
X113479669Y-49416454D01*
X113520649Y-49475846D01*
X113558957Y-49536479D01*
X113594592Y-49598354D01*
X113627554Y-49661471D01*
X113657844Y-49725831D01*
X113685461Y-49791432D01*
X113710405Y-49858275D01*
X113732677Y-49926361D01*
X113752276Y-49995688D01*
X113769202Y-50066257D01*
X113783455Y-50138068D01*
X113795035Y-50211121D01*
X113803943Y-50285416D01*
X113810178Y-50360953D01*
X113813740Y-50437732D01*
X113814630Y-50515753D01*
X113813080Y-50610501D01*
X113807537Y-50702791D01*
X113798000Y-50792624D01*
X113784469Y-50880000D01*
X113766945Y-50964919D01*
X113745427Y-51047380D01*
X113719915Y-51127383D01*
X113690410Y-51204929D01*
X113656912Y-51280017D01*
X113619420Y-51352648D01*
X113577934Y-51422820D01*
X113532454Y-51490535D01*
X113482982Y-51555792D01*
X113429515Y-51618591D01*
X113372055Y-51678933D01*
X113310602Y-51736816D01*
X113245759Y-51792536D01*
X113178033Y-51846380D01*
X113107424Y-51898348D01*
X113033933Y-51948439D01*
X112957560Y-51996654D01*
X112878306Y-52042992D01*
X112796170Y-52087454D01*
X112711153Y-52130039D01*
X112623256Y-52170748D01*
X112532479Y-52209580D01*
X112438822Y-52246536D01*
X112342286Y-52281616D01*
X112242872Y-52314819D01*
X112140578Y-52346145D01*
X112035407Y-52375595D01*
X111927358Y-52403169D01*
X111173032Y-52592584D01*
X111080138Y-52615732D01*
X110990961Y-52639514D01*
X110905499Y-52663931D01*
X110823748Y-52688982D01*
X110745706Y-52714666D01*
X110671369Y-52740984D01*
X110600735Y-52767935D01*
X110533799Y-52795519D01*
X110501311Y-52809659D01*
X110469828Y-52824169D01*
X110439349Y-52839048D01*
X110409875Y-52854297D01*
X110381405Y-52869915D01*
X110353940Y-52885904D01*
X110327480Y-52902262D01*
X110302024Y-52918990D01*
X110277573Y-52936088D01*
X110254126Y-52953556D01*
X110231684Y-52971394D01*
X110210247Y-52989602D01*
X110189814Y-53008180D01*
X110170385Y-53027129D01*
X110151961Y-53046447D01*
X110134542Y-53066135D01*
X110117768Y-53086295D01*
X110102073Y-53107037D01*
X110087458Y-53128361D01*
X110073924Y-53150266D01*
X110061470Y-53172754D01*
X110050096Y-53195823D01*
X110039804Y-53219474D01*
X110030594Y-53243707D01*
X110022466Y-53268521D01*
X110015420Y-53293916D01*
X110009458Y-53319892D01*
X110004578Y-53346449D01*
X110000782Y-53373587D01*
X109998070Y-53401306D01*
X109996443Y-53429605D01*
X109995900Y-53458485D01*
X109996496Y-53489549D01*
X109998281Y-53520164D01*
X110001257Y-53550329D01*
X110005421Y-53580044D01*
X110010775Y-53609310D01*
X110017318Y-53638126D01*
X110025049Y-53666493D01*
X110033967Y-53694411D01*
X110044073Y-53721880D01*
X110055367Y-53748899D01*
X110067847Y-53775469D01*
X110081513Y-53801590D01*
X110096366Y-53827262D01*
X110112404Y-53852485D01*
X110129627Y-53877259D01*
X110148034Y-53901584D01*
X110167571Y-53925354D01*
X110188082Y-53948463D01*
X110209567Y-53970912D01*
X110232027Y-53992701D01*
X110255462Y-54013829D01*
X110279873Y-54034296D01*
X110305260Y-54054103D01*
X110331622Y-54073248D01*
X110358962Y-54091734D01*
X110387278Y-54109558D01*
X110416572Y-54126722D01*
X110446844Y-54143224D01*
X110478094Y-54159066D01*
X110510323Y-54174247D01*
X110543531Y-54188767D01*
X110577718Y-54202626D01*
X110612333Y-54215732D01*
X110647717Y-54227993D01*
X110683870Y-54239408D01*
X110720792Y-54249978D01*
X110758483Y-54259703D01*
X110796943Y-54268582D01*
X110836171Y-54276616D01*
X110876169Y-54283804D01*
X110916936Y-54290147D01*
X110958471Y-54295644D01*
X111043849Y-54304101D01*
X111132303Y-54309176D01*
X111223832Y-54310868D01*
X111270859Y-54310418D01*
X111317282Y-54309071D01*
X111363103Y-54306824D01*
X111408320Y-54303680D01*
X111452933Y-54299637D01*
X111496940Y-54294695D01*
X111540340Y-54288855D01*
X111583134Y-54282117D01*
X111625321Y-54274481D01*
X111666899Y-54265946D01*
X111707867Y-54256514D01*
X111748226Y-54246183D01*
X111787974Y-54234954D01*
X111827111Y-54222827D01*
X111865635Y-54209802D01*
X111903547Y-54195879D01*
X111940291Y-54180645D01*
X111976112Y-54164538D01*
X112011010Y-54147558D01*
X112044983Y-54129706D01*
X112078032Y-54110982D01*
X112110157Y-54091386D01*
X112141358Y-54070918D01*
X112171635Y-54049578D01*
X112200989Y-54027366D01*
X112229418Y-54004282D01*
X112256923Y-53980327D01*
X112283505Y-53955500D01*
X112309162Y-53929801D01*
X112333895Y-53903231D01*
X112357704Y-53875789D01*
X112380590Y-53847476D01*
X112401971Y-53817852D01*
X112422163Y-53787330D01*
X112441164Y-53755909D01*
X112458977Y-53723591D01*
X112475600Y-53690374D01*
X112491034Y-53656259D01*
X112505280Y-53621246D01*
X112518338Y-53585334D01*
X112530209Y-53548523D01*
X112540892Y-53510814D01*
X112550388Y-53472206D01*
X112558699Y-53432700D01*
X112565823Y-53392294D01*
X112571761Y-53350990D01*
X112576515Y-53308786D01*
X112580083Y-53265684D01*
X113997194Y-53265684D01*
X113993826Y-53358190D01*
X113987892Y-53448818D01*
X113979392Y-53537570D01*
X113968325Y-53624445D01*
X113954693Y-53709443D01*
X113938495Y-53792564D01*
X113919732Y-53873809D01*
X113898404Y-53953177D01*
X113874513Y-54030669D01*
X113848057Y-54106284D01*
X113819039Y-54180023D01*
X113787457Y-54251886D01*
X113753312Y-54321872D01*
X113716605Y-54389983D01*
X113677337Y-54456217D01*
X113635507Y-54520576D01*
X113590893Y-54582610D01*
X113544165Y-54642716D01*
X113495322Y-54700892D01*
X113444364Y-54757138D01*
X113391291Y-54811456D01*
X113336104Y-54863844D01*
X113278802Y-54914304D01*
X113219385Y-54962834D01*
X113157854Y-55009435D01*
X113094208Y-55054106D01*
X113028447Y-55096849D01*
X112960572Y-55137662D01*
X112890583Y-55176546D01*
X112818479Y-55213501D01*
X112744261Y-55248527D01*
X112667928Y-55281623D01*
X112589294Y-55312756D01*
X112508967Y-55341879D01*
X112426949Y-55368993D01*
X112343238Y-55394099D01*
X112257836Y-55417195D01*
X112170743Y-55438283D01*
X112081960Y-55457362D01*
X111991486Y-55474432D01*
X111899323Y-55489494D01*
X111805470Y-55502547D01*
X111709928Y-55513592D01*
X111612697Y-55522628D01*
X111513778Y-55529657D01*
X111413171Y-55534677D01*
X111206895Y-55538693D01*
X111102142Y-55537702D01*
X110999319Y-55534729D01*
X110898424Y-55529774D01*
X110799459Y-55522838D01*
X110702425Y-55513919D01*
X110607321Y-55503019D01*
X110514147Y-55490136D01*
X110422905Y-55475272D01*
X110333594Y-55458426D01*
X110246215Y-55439598D01*
X110160769Y-55418788D01*
X110077255Y-55395996D01*
X109995675Y-55371223D01*
X109916028Y-55344467D01*
X109838315Y-55315730D01*
X109762536Y-55285010D01*
X109688389Y-55252072D01*
X109616462Y-55217522D01*
X109546755Y-55181359D01*
X109479268Y-55143584D01*
X109414001Y-55104197D01*
X109350954Y-55063198D01*
X109290127Y-55020587D01*
X109231519Y-54976364D01*
X109175132Y-54930529D01*
X109120965Y-54883082D01*
X109069018Y-54834023D01*
X109019291Y-54783352D01*
X108971784Y-54731069D01*
X108926498Y-54677174D01*
X108883431Y-54621668D01*
X108842584Y-54564550D01*
X108803643Y-54505543D01*
X108767189Y-54445216D01*
X108733221Y-54383567D01*
X108701738Y-54320596D01*
X108672740Y-54256304D01*
X108646227Y-54190690D01*
X108622199Y-54123755D01*
X108600654Y-54055498D01*
X108581593Y-53985920D01*
X108565015Y-53915020D01*
X108550919Y-53842799D01*
X108539307Y-53769257D01*
X108530176Y-53694393D01*
X108523526Y-53618207D01*
X108519358Y-53540700D01*
X108517671Y-53461872D01*
X108518710Y-53408136D01*
X108520934Y-53355167D01*
X108524343Y-53302965D01*
X108528938Y-53251528D01*
X108534718Y-53200858D01*
X108541685Y-53150954D01*
X108549838Y-53101817D01*
X108559179Y-53053445D01*
X108569707Y-53005840D01*
X108581423Y-52959001D01*
X108594328Y-52912928D01*
X108608421Y-52867620D01*
X108623704Y-52823079D01*
X108640176Y-52779304D01*
X108657838Y-52736295D01*
X108676690Y-52694052D01*
X108696227Y-52652539D01*
X108716737Y-52611714D01*
X108738222Y-52571575D01*
X108760681Y-52532123D01*
X108784116Y-52493357D01*
X108808526Y-52455278D01*
X108833912Y-52417887D01*
X108860275Y-52381182D01*
X108887614Y-52345164D01*
X108915931Y-52309834D01*
X108945225Y-52275190D01*
X108975496Y-52241235D01*
X109006747Y-52207966D01*
X109038975Y-52175385D01*
X109072183Y-52143492D01*
X109106370Y-52112286D01*
X109141441Y-52081723D01*
X109177300Y-52051767D01*
X109213949Y-52022420D01*
X109251387Y-51993680D01*
X109289615Y-51965548D01*
X109328635Y-51938024D01*
X109368448Y-51911108D01*
X109409053Y-51884800D01*
X109492646Y-51834008D01*
X109579420Y-51785649D01*
X109669381Y-51739722D01*
X109762536Y-51696228D01*
X109858369Y-51655008D01*
X109956551Y-51615901D01*
X110057078Y-51578907D01*
X110159941Y-51544027D01*
X110265137Y-51511260D01*
X110372658Y-51480606D01*
X110482498Y-51452066D01*
X110594651Y-51425639D01*
X111216954Y-51276811D01*
X111273187Y-51263805D01*
X111328575Y-51250166D01*
X111383120Y-51235894D01*
X111436822Y-51220991D01*
X111489680Y-51205454D01*
X111541694Y-51189285D01*
X111592866Y-51172484D01*
X111643194Y-51155050D01*
X111692357Y-51136075D01*
X111740032Y-51116360D01*
X111786219Y-51095905D01*
X111830917Y-51074709D01*
X111874127Y-51052774D01*
X111915849Y-51030101D01*
X111956083Y-51006690D01*
X111994828Y-50982542D01*
X112013624Y-50969711D01*
X112031912Y-50956589D01*
X112049692Y-50943177D01*
X112066967Y-50929475D01*
X112083737Y-50915482D01*
X112100002Y-50901198D01*
X112115763Y-50886624D01*
X112131021Y-50871759D01*
X112145777Y-50856604D01*
X112160031Y-50841158D01*
X112173784Y-50825421D01*
X112187038Y-50809394D01*
X112199792Y-50793076D01*
X112212048Y-50776468D01*
X112223806Y-50759569D01*
X112235067Y-50742379D01*
X112245277Y-50724859D01*
X112254775Y-50706969D01*
X112263559Y-50688709D01*
X112271630Y-50670079D01*
X112278988Y-50651079D01*
X112285632Y-50631710D01*
X112291564Y-50611970D01*
X112296782Y-50591860D01*
X112301287Y-50571380D01*
X112305080Y-50550530D01*
X112308158Y-50529311D01*
X112310524Y-50507721D01*
X112312177Y-50485761D01*
X112313116Y-50463431D01*
X112313343Y-50440731D01*
X112312856Y-50417661D01*
X112312354Y-50389941D01*
X112310847Y-50362591D01*
X112308335Y-50335610D01*
X112304819Y-50309000D01*
X112300299Y-50282760D01*
X112294773Y-50256889D01*
X112288244Y-50231389D01*
X112280709Y-50206258D01*
X112272170Y-50181497D01*
X112262626Y-50157107D01*
X112252078Y-50133086D01*
X112240525Y-50109435D01*
X112227967Y-50086155D01*
X112214405Y-50063244D01*
X112199838Y-50040703D01*
X112184266Y-50018532D01*
X112167347Y-49996850D01*
X112149527Y-49975776D01*
X112130808Y-49955309D01*
X112111189Y-49935451D01*
X112090669Y-49916200D01*
X112069247Y-49897557D01*
X112046925Y-49879521D01*
X112023700Y-49862094D01*
X111999573Y-49845274D01*
X111974544Y-49829062D01*
X111948611Y-49813458D01*
X111921775Y-49798461D01*
X111894035Y-49784073D01*
X111865390Y-49770292D01*
X111835841Y-49757119D01*
X111805387Y-49744553D01*
X111774092Y-49732266D01*
X111741924Y-49720771D01*
X111708881Y-49710068D01*
X111674966Y-49700159D01*
X111640178Y-49691042D01*
X111604518Y-49682718D01*
X111567985Y-49675187D01*
X111530581Y-49668449D01*
X111492306Y-49662503D01*
X111453160Y-49657350D01*
X111372257Y-49649422D01*
X111287875Y-49644666D01*
X111200017Y-49643080D01*
X111134900Y-49643966D01*
X111071505Y-49646621D01*
X111009832Y-49651048D01*
X110949881Y-49657244D01*
X110891651Y-49665212D01*
X110835141Y-49674949D01*
X110780349Y-49686458D01*
X110727277Y-49699736D01*
X110675921Y-49714786D01*
X110626283Y-49731605D01*
X110578361Y-49750195D01*
X110532154Y-49770556D01*
X110487662Y-49792687D01*
X110444883Y-49816589D01*
X110403818Y-49842261D01*
X110364465Y-49869704D01*
X110327059Y-49898745D01*
X110291737Y-49929214D01*
X110258500Y-49961109D01*
X110227347Y-49994432D01*
X110198280Y-50029181D01*
X110171298Y-50065358D01*
X110146403Y-50102961D01*
X110123593Y-50141992D01*
X110102870Y-50182449D01*
X110084235Y-50224334D01*
X110067687Y-50267645D01*
X110053226Y-50312383D01*
X110040854Y-50358549D01*
X110030571Y-50406141D01*
X110022376Y-50455160D01*
X110016271Y-50505606D01*
X108612394Y-50505606D01*
X108614896Y-50428814D01*
X108619823Y-50353184D01*
X108627177Y-50278717D01*
X108636958Y-50205413D01*
X108649167Y-50133271D01*
X108663804Y-50062293D01*
X108680871Y-49992477D01*
X108700367Y-49923823D01*
X108722295Y-49856333D01*
X108746654Y-49790005D01*
X108773446Y-49724839D01*
X108802671Y-49660837D01*
X108834329Y-49597997D01*
X108868423Y-49536320D01*
X108904952Y-49475806D01*
X108943918Y-49416454D01*
X108985102Y-49358490D01*
X109028291Y-49302138D01*
X109073484Y-49247398D01*
X109120683Y-49194269D01*
X109169887Y-49142753D01*
X109221099Y-49092849D01*
X109274318Y-49044556D01*
X109329546Y-48997876D01*
X109386783Y-48952807D01*
X109446030Y-48909351D01*
X109507288Y-48867506D01*
X109570558Y-48827274D01*
X109635840Y-48788653D01*
X109703134Y-48751645D01*
X109772443Y-48716248D01*
X109843766Y-48682463D01*
X109916369Y-48650515D01*
X109990510Y-48620627D01*
X110066189Y-48592801D01*
X110143406Y-48567036D01*
X110222160Y-48543332D01*
X110302453Y-48521690D01*
X110384284Y-48502108D01*
X110467652Y-48484588D01*
X110552559Y-48469129D01*
X110639003Y-48455732D01*
X110726985Y-48444395D01*
X110816505Y-48435120D01*
X110907564Y-48427905D01*
X111000160Y-48422752D01*
X111094294Y-48419661D01*
X111189966Y-48418630D01*
X111284034Y-48419661D01*
G37*
G36*
X159138733Y-55440612D02*
G01*
X157674132Y-55440612D01*
X157674132Y-53194670D01*
X156442920Y-53194670D01*
X156344065Y-53193520D01*
X156247060Y-53190071D01*
X156151904Y-53184323D01*
X156058597Y-53176275D01*
X155967139Y-53165928D01*
X155877531Y-53153282D01*
X155789772Y-53138337D01*
X155703863Y-53121092D01*
X155619803Y-53101549D01*
X155537593Y-53079706D01*
X155457232Y-53055565D01*
X155378721Y-53029124D01*
X155302059Y-53000385D01*
X155227248Y-52969347D01*
X155154285Y-52936009D01*
X155083173Y-52900373D01*
X155013608Y-52862681D01*
X154946131Y-52823165D01*
X154880742Y-52781825D01*
X154817440Y-52738662D01*
X154756226Y-52693675D01*
X154697100Y-52646864D01*
X154640062Y-52598229D01*
X154585111Y-52547770D01*
X154532248Y-52495488D01*
X154481473Y-52441382D01*
X154432785Y-52385452D01*
X154386185Y-52327698D01*
X154341672Y-52268121D01*
X154299246Y-52206719D01*
X154258908Y-52143494D01*
X154220658Y-52078446D01*
X154184613Y-52011856D01*
X154150894Y-51943997D01*
X154119501Y-51874869D01*
X154090433Y-51804473D01*
X154063690Y-51732808D01*
X154039273Y-51659874D01*
X154017182Y-51585672D01*
X153997415Y-51510201D01*
X153979975Y-51433462D01*
X153964859Y-51355454D01*
X153952069Y-51276177D01*
X153941605Y-51195631D01*
X153933466Y-51113817D01*
X153927652Y-51030735D01*
X153924164Y-50946384D01*
X153923002Y-50860764D01*
X155431577Y-50860764D01*
X155432119Y-50903162D01*
X155433744Y-50944953D01*
X155436452Y-50986136D01*
X155440244Y-51026712D01*
X155445119Y-51066680D01*
X155451077Y-51106040D01*
X155458119Y-51144793D01*
X155466244Y-51182938D01*
X155475452Y-51220476D01*
X155485744Y-51257406D01*
X155497119Y-51293729D01*
X155509577Y-51329443D01*
X155523119Y-51364551D01*
X155537744Y-51399050D01*
X155553452Y-51432942D01*
X155570244Y-51466226D01*
X155587711Y-51498344D01*
X155606288Y-51529591D01*
X155625975Y-51559966D01*
X155646772Y-51589470D01*
X155668679Y-51618102D01*
X155691695Y-51645863D01*
X155715822Y-51672752D01*
X155741059Y-51698769D01*
X155767406Y-51723914D01*
X155794863Y-51748187D01*
X155823430Y-51771588D01*
X155853107Y-51794117D01*
X155883894Y-51815774D01*
X155915791Y-51836558D01*
X155948798Y-51856471D01*
X155982915Y-51875510D01*
X156017742Y-51893119D01*
X156053732Y-51909593D01*
X156090886Y-51924931D01*
X156129202Y-51939133D01*
X156168682Y-51952200D01*
X156209324Y-51964131D01*
X156251130Y-51974926D01*
X156294098Y-51984585D01*
X156338229Y-51993108D01*
X156383523Y-52000494D01*
X156429979Y-52006745D01*
X156477598Y-52011859D01*
X156526379Y-52015837D01*
X156576322Y-52018678D01*
X156627428Y-52020383D01*
X156679696Y-52020952D01*
X157674132Y-52020952D01*
X157674132Y-49710729D01*
X156686468Y-49710729D01*
X156633775Y-49711297D01*
X156582244Y-49713002D01*
X156531877Y-49715843D01*
X156482672Y-49719820D01*
X156434631Y-49724933D01*
X156387753Y-49731183D01*
X156342038Y-49738569D01*
X156297485Y-49747091D01*
X156254095Y-49756749D01*
X156211868Y-49767544D01*
X156170803Y-49779475D01*
X156130901Y-49792543D01*
X156092161Y-49806747D01*
X156054584Y-49822087D01*
X156018168Y-49838563D01*
X155982915Y-49856176D01*
X155948798Y-49874396D01*
X155915791Y-49893541D01*
X155883894Y-49913611D01*
X155853107Y-49934606D01*
X155823430Y-49956526D01*
X155794863Y-49979370D01*
X155767406Y-50003140D01*
X155741059Y-50027834D01*
X155715822Y-50053454D01*
X155691695Y-50079998D01*
X155668679Y-50107467D01*
X155646772Y-50135861D01*
X155625975Y-50165180D01*
X155606288Y-50195424D01*
X155587711Y-50226593D01*
X155570244Y-50258687D01*
X155553452Y-50291164D01*
X155537744Y-50324328D01*
X155523119Y-50358179D01*
X155509577Y-50392717D01*
X155497119Y-50427942D01*
X155485744Y-50463854D01*
X155475452Y-50500453D01*
X155466244Y-50537740D01*
X155458119Y-50575713D01*
X155451077Y-50614373D01*
X155445119Y-50653721D01*
X155440244Y-50693755D01*
X155436452Y-50734477D01*
X155433744Y-50775886D01*
X155432119Y-50817981D01*
X155431577Y-50860764D01*
X153923002Y-50860764D01*
X153924151Y-50775146D01*
X153927599Y-50690796D01*
X153933346Y-50607714D01*
X153941392Y-50525901D01*
X153951737Y-50445356D01*
X153964381Y-50366079D01*
X153979324Y-50288072D01*
X153996566Y-50211332D01*
X154016107Y-50135861D01*
X154037947Y-50061658D01*
X154062087Y-49988724D01*
X154088525Y-49917059D01*
X154117263Y-49846661D01*
X154148300Y-49777533D01*
X154181636Y-49709672D01*
X154217272Y-49643080D01*
X154254662Y-49577611D01*
X154294113Y-49513966D01*
X154335626Y-49452143D01*
X154379201Y-49392144D01*
X154424837Y-49333969D01*
X154472535Y-49277616D01*
X154522294Y-49223088D01*
X154574115Y-49170382D01*
X154627997Y-49119500D01*
X154683940Y-49070441D01*
X154741944Y-49023206D01*
X154802010Y-48977794D01*
X154864136Y-48934205D01*
X154928323Y-48892440D01*
X154994571Y-48852498D01*
X155062880Y-48814379D01*
X155133131Y-48777925D01*
X155205205Y-48743822D01*
X155279104Y-48712072D01*
X155354826Y-48682674D01*
X155432371Y-48655627D01*
X155511740Y-48630932D01*
X155592933Y-48608590D01*
X155675949Y-48588599D01*
X155760789Y-48570960D01*
X155847452Y-48555672D01*
X155935938Y-48542737D01*
X156026248Y-48532154D01*
X156118381Y-48523922D01*
X156212337Y-48518043D01*
X156308116Y-48514515D01*
X156405719Y-48513339D01*
X159138733Y-48513339D01*
X159138733Y-49710729D01*
X159138733Y-55440612D01*
G37*
G36*
X166076046Y-68093184D02*
G01*
X165546884Y-68093184D01*
X165546884Y-67564023D01*
X166076046Y-67564023D01*
X166076046Y-68093184D01*
G37*
G36*
X166639343Y-55440612D02*
G01*
X165069884Y-55440612D01*
X164556007Y-53860997D01*
X162054850Y-53860997D01*
X161541970Y-55440612D01*
X159972514Y-55440612D01*
X160911166Y-52717732D01*
X162426052Y-52717732D01*
X164184082Y-52717732D01*
X163331294Y-50096330D01*
X163277186Y-50096330D01*
X162426052Y-52717732D01*
X160911166Y-52717732D01*
X162360537Y-48513339D01*
X164247945Y-48513339D01*
X165699365Y-52717732D01*
X166639343Y-55440612D01*
G37*
G36*
X131363649Y-55440612D02*
G01*
X126929231Y-55440612D01*
X126929231Y-54233080D01*
X129899183Y-54233080D01*
X129899183Y-48513339D01*
X131363649Y-48513339D01*
X131363649Y-55440612D01*
G37*
G36*
X123961137Y-51496680D02*
G01*
X124028867Y-51496680D01*
X125608430Y-48513339D01*
X127248849Y-48513339D01*
X124722341Y-52991708D01*
X124722341Y-55440612D01*
X123267663Y-55440612D01*
X123267663Y-52991708D01*
X120741159Y-48513339D01*
X122381574Y-48513339D01*
X123961137Y-51496680D01*
G37*
G36*
X168192818Y-67034877D02*
G01*
X167663657Y-67034877D01*
X167663657Y-66505716D01*
X168192818Y-66505716D01*
X168192818Y-67034877D01*
G37*
G36*
X168392706Y-72824444D02*
G01*
X168657295Y-72824444D01*
X168657295Y-73089028D01*
X168921884Y-73089028D01*
X168921884Y-75999451D01*
X168657295Y-75999451D01*
X168657295Y-76264023D01*
X168392706Y-76264023D01*
X168392706Y-76528612D01*
X168128134Y-76528612D01*
X168128134Y-76793200D01*
X167863545Y-76793200D01*
X167863545Y-77057773D01*
X167598956Y-77057773D01*
X167598956Y-77322362D01*
X167334384Y-77322362D01*
X167334384Y-77586950D01*
X167069795Y-77586950D01*
X167069795Y-77851523D01*
X166540634Y-77851523D01*
X166540634Y-77586950D01*
X166276045Y-77586950D01*
X166276045Y-77322362D01*
X166011456Y-77322362D01*
X166011456Y-77057773D01*
X165746884Y-77057773D01*
X165746884Y-76793200D01*
X165482295Y-76793200D01*
X165482295Y-76528612D01*
X165217707Y-76528612D01*
X165217707Y-76264023D01*
X164953127Y-76264023D01*
X164953127Y-75999451D01*
X164688544Y-75999451D01*
X164688544Y-75734862D01*
X165217707Y-75734862D01*
X165482295Y-75734862D01*
X165482295Y-75999451D01*
X165746884Y-75999451D01*
X165746884Y-76264023D01*
X166011456Y-76264023D01*
X166011456Y-76528612D01*
X166276045Y-76528612D01*
X166276045Y-76793200D01*
X166540634Y-76793200D01*
X166540634Y-77057773D01*
X167069795Y-77057773D01*
X167069795Y-76793200D01*
X167334384Y-76793200D01*
X167334384Y-76528612D01*
X167598956Y-76528612D01*
X167598956Y-76264023D01*
X167863545Y-76264023D01*
X167863545Y-75999451D01*
X168128134Y-75999451D01*
X168128134Y-75734862D01*
X168392706Y-75734862D01*
X168392706Y-73618201D01*
X168128134Y-73618201D01*
X168128134Y-73353612D01*
X167863545Y-73353612D01*
X167863545Y-73089028D01*
X165746884Y-73089028D01*
X165746884Y-73353612D01*
X165482295Y-73353612D01*
X165482295Y-73618201D01*
X165217707Y-73618201D01*
X165217707Y-75734862D01*
X164688544Y-75734862D01*
X164688544Y-73089028D01*
X164953127Y-73089028D01*
X164953127Y-72824444D01*
X165217707Y-72824444D01*
X165217707Y-72559862D01*
X168392706Y-72559862D01*
X168392706Y-72824444D01*
G37*
G36*
X166076109Y-64653607D02*
G01*
X167663609Y-64653607D01*
X167663609Y-64389023D01*
X168192771Y-64389023D01*
X168192771Y-64653607D01*
X169251109Y-64653607D01*
X169251109Y-64918189D01*
X169515682Y-64918189D01*
X169515682Y-69151523D01*
X169251109Y-69151523D01*
X169251109Y-69416111D01*
X164488605Y-69416111D01*
X164488605Y-69151523D01*
X164224022Y-69151523D01*
X164224022Y-68622362D01*
X164753188Y-68622362D01*
X165017772Y-68622362D01*
X165017772Y-68886934D01*
X168721932Y-68886934D01*
X168721932Y-68622362D01*
X168986521Y-68622362D01*
X168986521Y-65447362D01*
X168721932Y-65447362D01*
X168721932Y-65182773D01*
X168192771Y-65182773D01*
X168192771Y-65711934D01*
X167663609Y-65711934D01*
X167663609Y-65182773D01*
X166076109Y-65182773D01*
X166076109Y-65711934D01*
X165546932Y-65711934D01*
X165546932Y-65182773D01*
X165017772Y-65182773D01*
X165017772Y-65447362D01*
X164753188Y-65447362D01*
X164753188Y-68622362D01*
X164224022Y-68622362D01*
X164224022Y-64918189D01*
X164488605Y-64918189D01*
X164488605Y-64653607D01*
X165546932Y-64653607D01*
X165546932Y-64389023D01*
X166076109Y-64389023D01*
X166076109Y-64653607D01*
G37*
G36*
X167134432Y-68093184D02*
G01*
X166605271Y-68093184D01*
X166605271Y-67564023D01*
X167134432Y-67564023D01*
X167134432Y-68093184D01*
G37*
G36*
X142529320Y-48420269D02*
G01*
X142641337Y-48425184D01*
X142751927Y-48433376D01*
X142861090Y-48444844D01*
X142968828Y-48459590D01*
X143075138Y-48477612D01*
X143180022Y-48498911D01*
X143283479Y-48523486D01*
X143385508Y-48551339D01*
X143486112Y-48582468D01*
X143585287Y-48616874D01*
X143683036Y-48654556D01*
X143779358Y-48695516D01*
X143874252Y-48739752D01*
X143967719Y-48787264D01*
X144059758Y-48838054D01*
X144149895Y-48891539D01*
X144237654Y-48947984D01*
X144323034Y-49007389D01*
X144406037Y-49069753D01*
X144486660Y-49135077D01*
X144564906Y-49203360D01*
X144640773Y-49274604D01*
X144714262Y-49348806D01*
X144785372Y-49425969D01*
X144854104Y-49506091D01*
X144920457Y-49589172D01*
X144984432Y-49675214D01*
X145046028Y-49764215D01*
X145105245Y-49856175D01*
X145162084Y-49951095D01*
X145216544Y-50048975D01*
X145268155Y-50149656D01*
X145316435Y-50252980D01*
X145361385Y-50358946D01*
X145403006Y-50467555D01*
X145441297Y-50578806D01*
X145476258Y-50692700D01*
X145507889Y-50809237D01*
X145536190Y-50928416D01*
X145561162Y-51050238D01*
X145582804Y-51174702D01*
X145601117Y-51301809D01*
X145616100Y-51431558D01*
X145627753Y-51563949D01*
X145636077Y-51698983D01*
X145641071Y-51836659D01*
X145642736Y-51976978D01*
X145641097Y-52116888D01*
X145636182Y-52254181D01*
X145627990Y-52388859D01*
X145616522Y-52520920D01*
X145601776Y-52650365D01*
X145583754Y-52777193D01*
X145562455Y-52901405D01*
X145537880Y-53023001D01*
X145510028Y-53141981D01*
X145478899Y-53258345D01*
X145444493Y-53372092D01*
X145406811Y-53483223D01*
X145365852Y-53591737D01*
X145321617Y-53697636D01*
X145274104Y-53800918D01*
X145223315Y-53901584D01*
X145169277Y-53999479D01*
X145112860Y-54094441D01*
X145054065Y-54186470D01*
X144992891Y-54275564D01*
X144929338Y-54361725D01*
X144863406Y-54444953D01*
X144795096Y-54525247D01*
X144724408Y-54602607D01*
X144651341Y-54677034D01*
X144575896Y-54748527D01*
X144498072Y-54817087D01*
X144417870Y-54882714D01*
X144335290Y-54945408D01*
X144250331Y-55005168D01*
X144162995Y-55061995D01*
X144073280Y-55115888D01*
X143981187Y-55166678D01*
X143887562Y-55214191D01*
X143792404Y-55258427D01*
X143695713Y-55299388D01*
X143597489Y-55337072D01*
X143497732Y-55371479D01*
X143396443Y-55402610D01*
X143293622Y-55430465D01*
X143189267Y-55455043D01*
X143083380Y-55476344D01*
X142975961Y-55494368D01*
X142867009Y-55509115D01*
X142756525Y-55520585D01*
X142644508Y-55528778D01*
X142530959Y-55533694D01*
X142415878Y-55535333D01*
X142333125Y-55534553D01*
X142251457Y-55532213D01*
X142170872Y-55528315D01*
X142091371Y-55522857D01*
X142012954Y-55515839D01*
X141935620Y-55507263D01*
X141859370Y-55497127D01*
X141784203Y-55485432D01*
X141710120Y-55472178D01*
X141637120Y-55457366D01*
X141565203Y-55440994D01*
X141494369Y-55423064D01*
X141424618Y-55403575D01*
X141355951Y-55382528D01*
X141288366Y-55359922D01*
X141221864Y-55335758D01*
X141156064Y-55309833D01*
X141091427Y-55282798D01*
X141027953Y-55254654D01*
X140965643Y-55225401D01*
X140904496Y-55195038D01*
X140844513Y-55163565D01*
X140785693Y-55130983D01*
X140728037Y-55097292D01*
X140671545Y-55062490D01*
X140616216Y-55026579D01*
X140562051Y-54989558D01*
X140509049Y-54951427D01*
X140457212Y-54912186D01*
X140406538Y-54871836D01*
X140357028Y-54830375D01*
X140308683Y-54787805D01*
X140261085Y-54743896D01*
X140214734Y-54699275D01*
X140169629Y-54653940D01*
X140125769Y-54607892D01*
X140083153Y-54561131D01*
X140041783Y-54513656D01*
X140001656Y-54465469D01*
X139962773Y-54416568D01*
X139925133Y-54366955D01*
X139888736Y-54316628D01*
X139853582Y-54265588D01*
X139819670Y-54213835D01*
X139787000Y-54161368D01*
X139755571Y-54108189D01*
X139725383Y-54054297D01*
X139696435Y-53999691D01*
X139668338Y-53944170D01*
X139641592Y-53888385D01*
X139616197Y-53832336D01*
X139592153Y-53776022D01*
X139569459Y-53719444D01*
X139548115Y-53662603D01*
X139528121Y-53605497D01*
X139509475Y-53548127D01*
X139492179Y-53490492D01*
X139476230Y-53432594D01*
X139461630Y-53374431D01*
X139448377Y-53316004D01*
X139436472Y-53257314D01*
X139425913Y-53198358D01*
X139416700Y-53139139D01*
X139408834Y-53079655D01*
X140890395Y-53072882D01*
X140897053Y-53107316D01*
X140904344Y-53141275D01*
X140912270Y-53174757D01*
X140920831Y-53207764D01*
X140930025Y-53240296D01*
X140939855Y-53272351D01*
X140950318Y-53303931D01*
X140961416Y-53335034D01*
X140973148Y-53365662D01*
X140985515Y-53395814D01*
X140998516Y-53425490D01*
X141012152Y-53454689D01*
X141026421Y-53483413D01*
X141041326Y-53511661D01*
X141056864Y-53539432D01*
X141073037Y-53566727D01*
X141089370Y-53593538D01*
X141106231Y-53619846D01*
X141123620Y-53645652D01*
X141141537Y-53670956D01*
X141159983Y-53695758D01*
X141178958Y-53720057D01*
X141198460Y-53743854D01*
X141218491Y-53767149D01*
X141239051Y-53789941D01*
X141260138Y-53812231D01*
X141281754Y-53834019D01*
X141303899Y-53855305D01*
X141326572Y-53876088D01*
X141349773Y-53896369D01*
X141373502Y-53916147D01*
X141397760Y-53935424D01*
X141422507Y-53953750D01*
X141447703Y-53971521D01*
X141473349Y-53988737D01*
X141499444Y-54005398D01*
X141525989Y-54021504D01*
X141552983Y-54037054D01*
X141580426Y-54052050D01*
X141608319Y-54066491D01*
X141636660Y-54080377D01*
X141665452Y-54093708D01*
X141694692Y-54106484D01*
X141724381Y-54118705D01*
X141754520Y-54130371D01*
X141785108Y-54141482D01*
X141816145Y-54152038D01*
X141847631Y-54162039D01*
X141910894Y-54180271D01*
X141975529Y-54196071D01*
X142041538Y-54209441D01*
X142108920Y-54220380D01*
X142177676Y-54228888D01*
X142247807Y-54234965D01*
X142319314Y-54238611D01*
X142392196Y-54239827D01*
X142457241Y-54238823D01*
X142521310Y-54235811D01*
X142584400Y-54230791D01*
X142646514Y-54223763D01*
X142707649Y-54214727D01*
X142767808Y-54203682D01*
X142826988Y-54190630D01*
X142885191Y-54175569D01*
X142942417Y-54158500D01*
X142998665Y-54139423D01*
X143053935Y-54118338D01*
X143108227Y-54095244D01*
X143161541Y-54070142D01*
X143213878Y-54043031D01*
X143265237Y-54013912D01*
X143315618Y-53982784D01*
X143364818Y-53949683D01*
X143412645Y-53914653D01*
X143459099Y-53877694D01*
X143504178Y-53838807D01*
X143547884Y-53797991D01*
X143590216Y-53755247D01*
X143631174Y-53710573D01*
X143670759Y-53663971D01*
X143708970Y-53615440D01*
X143745806Y-53564980D01*
X143781269Y-53512591D01*
X143815358Y-53458273D01*
X143848073Y-53402026D01*
X143879413Y-53343850D01*
X143909380Y-53283744D01*
X143937972Y-53221710D01*
X143964597Y-53157787D01*
X143989504Y-53092014D01*
X144012694Y-53024392D01*
X144034165Y-52954920D01*
X144053919Y-52883599D01*
X144071955Y-52810428D01*
X144088274Y-52735408D01*
X144102875Y-52658538D01*
X144115757Y-52579818D01*
X144126923Y-52499248D01*
X144136370Y-52416829D01*
X144144100Y-52332559D01*
X144150112Y-52246439D01*
X144154407Y-52158469D01*
X144157842Y-51976978D01*
X144156983Y-51887763D01*
X144154407Y-51800239D01*
X144150112Y-51714408D01*
X144144100Y-51630268D01*
X144136370Y-51547819D01*
X144126923Y-51467062D01*
X144115757Y-51387997D01*
X144102875Y-51310623D01*
X144088274Y-51234941D01*
X144071955Y-51160950D01*
X144053919Y-51088651D01*
X144034165Y-51018043D01*
X144012694Y-50949127D01*
X143989504Y-50881902D01*
X143964597Y-50816368D01*
X143937972Y-50752526D01*
X143909793Y-50690056D01*
X143880212Y-50629489D01*
X143849230Y-50570825D01*
X143816847Y-50514063D01*
X143783063Y-50459203D01*
X143747878Y-50406247D01*
X143711292Y-50355193D01*
X143673306Y-50306042D01*
X143633919Y-50258793D01*
X143593132Y-50213447D01*
X143550944Y-50170004D01*
X143507356Y-50128463D01*
X143462368Y-50088825D01*
X143415980Y-50051089D01*
X143368193Y-50015256D01*
X143319005Y-49981326D01*
X143268572Y-49948968D01*
X143217054Y-49918698D01*
X143164454Y-49890515D01*
X143110770Y-49864419D01*
X143056003Y-49840412D01*
X143000152Y-49818492D01*
X142943218Y-49798659D01*
X142885201Y-49780914D01*
X142826100Y-49765257D01*
X142765916Y-49751688D01*
X142704649Y-49740206D01*
X142642299Y-49730812D01*
X142578865Y-49723505D01*
X142514348Y-49718286D01*
X142448748Y-49715154D01*
X142382064Y-49714110D01*
X142308337Y-49715432D01*
X142235984Y-49719396D01*
X142165005Y-49726002D01*
X142095400Y-49735252D01*
X142061113Y-49740867D01*
X142027169Y-49747143D01*
X141993570Y-49754080D01*
X141960313Y-49761678D01*
X141927401Y-49769936D01*
X141894831Y-49778855D01*
X141862606Y-49788434D01*
X141830724Y-49798674D01*
X141798825Y-49809534D01*
X141767402Y-49820976D01*
X141736456Y-49833000D01*
X141705985Y-49845604D01*
X141675991Y-49858790D01*
X141646473Y-49872558D01*
X141617430Y-49886907D01*
X141588864Y-49901837D01*
X141560774Y-49917349D01*
X141533159Y-49933442D01*
X141506021Y-49950117D01*
X141479358Y-49967373D01*
X141453172Y-49985210D01*
X141427460Y-50003628D01*
X141402225Y-50022628D01*
X141377465Y-50042210D01*
X141353221Y-50062346D01*
X141329531Y-50083011D01*
X141306396Y-50104204D01*
X141283815Y-50125926D01*
X141261788Y-50148176D01*
X141240317Y-50170954D01*
X141219400Y-50194262D01*
X141199038Y-50218097D01*
X141179231Y-50242462D01*
X141159979Y-50267354D01*
X141141282Y-50292776D01*
X141123141Y-50318726D01*
X141105555Y-50345204D01*
X141088524Y-50372211D01*
X141072048Y-50399747D01*
X141056129Y-50427811D01*
X141040817Y-50455967D01*
X141026165Y-50484625D01*
X141012173Y-50513786D01*
X140998841Y-50543448D01*
X140986170Y-50573613D01*
X140974159Y-50604280D01*
X140962808Y-50635448D01*
X140952118Y-50667119D01*
X140942089Y-50699292D01*
X140932721Y-50731967D01*
X140924014Y-50765144D01*
X140915968Y-50798824D01*
X140908582Y-50833005D01*
X140901859Y-50867689D01*
X140895796Y-50902874D01*
X140890395Y-50938562D01*
X139408834Y-50938562D01*
X139418427Y-50863831D01*
X139429447Y-50790157D01*
X139441893Y-50717539D01*
X139455765Y-50645979D01*
X139471063Y-50575476D01*
X139487788Y-50506030D01*
X139505939Y-50437641D01*
X139525516Y-50370309D01*
X139546519Y-50304033D01*
X139568949Y-50238815D01*
X139592805Y-50174654D01*
X139618087Y-50111550D01*
X139644795Y-50049503D01*
X139672930Y-49988513D01*
X139702491Y-49928580D01*
X139733478Y-49869704D01*
X139765361Y-49811925D01*
X139798405Y-49755282D01*
X139832608Y-49699775D01*
X139867973Y-49645405D01*
X139904499Y-49592171D01*
X139942186Y-49540073D01*
X139981035Y-49489111D01*
X140021047Y-49439286D01*
X140062221Y-49390598D01*
X140104558Y-49343045D01*
X140148059Y-49296629D01*
X140192724Y-49251349D01*
X140238553Y-49207206D01*
X140285546Y-49164198D01*
X140333705Y-49122327D01*
X140383029Y-49081592D01*
X140433379Y-49041611D01*
X140484655Y-49002845D01*
X140536857Y-48965294D01*
X140589984Y-48928959D01*
X140644036Y-48893840D01*
X140699013Y-48859936D01*
X140754916Y-48827248D01*
X140811744Y-48795775D01*
X140869496Y-48765518D01*
X140928174Y-48736476D01*
X140987776Y-48708650D01*
X141048302Y-48682039D01*
X141109753Y-48656644D01*
X141172128Y-48632465D01*
X141235428Y-48609501D01*
X141299651Y-48587753D01*
X141429564Y-48548115D01*
X141562224Y-48513762D01*
X141697632Y-48484694D01*
X141835788Y-48460911D01*
X141976690Y-48442413D01*
X142120339Y-48429200D01*
X142266735Y-48421273D01*
X142415878Y-48418630D01*
X142529320Y-48420269D01*
G37*
G36*
X167334320Y-74147394D02*
G01*
X167598909Y-74147394D01*
X167598909Y-75205716D01*
X167334320Y-75205716D01*
X167334320Y-75470305D01*
X166275998Y-75470305D01*
X166275998Y-75205716D01*
X166011409Y-75205716D01*
X166011409Y-74411966D01*
X166540570Y-74411966D01*
X166540570Y-74941144D01*
X167069747Y-74941144D01*
X167069747Y-74411966D01*
X166540570Y-74411966D01*
X166011409Y-74411966D01*
X166011409Y-74147394D01*
X166275998Y-74147394D01*
X166275998Y-73882805D01*
X167334320Y-73882805D01*
X167334320Y-74147394D01*
G37*
G36*
X168192818Y-68093184D02*
G01*
X167663657Y-68093184D01*
X167663657Y-67564023D01*
X168192818Y-67564023D01*
X168192818Y-68093184D01*
G37*
G36*
X153091789Y-52116888D02*
G01*
X153086794Y-52254181D01*
X153078469Y-52388859D01*
X153066814Y-52520920D01*
X153051830Y-52650365D01*
X153033516Y-52777193D01*
X153011872Y-52901405D01*
X152986899Y-53023001D01*
X152958597Y-53141981D01*
X152926965Y-53258345D01*
X152892004Y-53372092D01*
X152853714Y-53483223D01*
X152812095Y-53591737D01*
X152767147Y-53697636D01*
X152718869Y-53800918D01*
X152667263Y-53901584D01*
X152612786Y-53999479D01*
X152555904Y-54094441D01*
X152496617Y-54186470D01*
X152434926Y-54275564D01*
X152370831Y-54361725D01*
X152304331Y-54444953D01*
X152235427Y-54525247D01*
X152164118Y-54602607D01*
X152090404Y-54677034D01*
X152014285Y-54748527D01*
X151935761Y-54817087D01*
X151854832Y-54882714D01*
X151771498Y-54945408D01*
X151685759Y-55005168D01*
X151597615Y-55061995D01*
X151507065Y-55115888D01*
X151414577Y-55166678D01*
X151320609Y-55214191D01*
X151225161Y-55258427D01*
X151128233Y-55299388D01*
X151029825Y-55337072D01*
X150929937Y-55371479D01*
X150828569Y-55402610D01*
X150725721Y-55430465D01*
X150621393Y-55455043D01*
X150515585Y-55476344D01*
X150408297Y-55494368D01*
X150299529Y-55509115D01*
X150189282Y-55520585D01*
X150077555Y-55528778D01*
X149964348Y-55533694D01*
X149849662Y-55535333D01*
X149735797Y-55533707D01*
X149623359Y-55528831D01*
X149512347Y-55520705D01*
X149402762Y-55509328D01*
X149294603Y-55494700D01*
X149187871Y-55476822D01*
X149082566Y-55455694D01*
X148978687Y-55431315D01*
X148876235Y-55403686D01*
X148775211Y-55372806D01*
X148675613Y-55338676D01*
X148577443Y-55301296D01*
X148480699Y-55260666D01*
X148385383Y-55216786D01*
X148291494Y-55169655D01*
X148199033Y-55119275D01*
X148108075Y-55065381D01*
X148019547Y-55008554D01*
X147933452Y-54948794D01*
X147849788Y-54886101D01*
X147768555Y-54820474D01*
X147689754Y-54751914D01*
X147613385Y-54680420D01*
X147539447Y-54605994D01*
X147467940Y-54528633D01*
X147398865Y-54448339D01*
X147332222Y-54365112D01*
X147268010Y-54278951D01*
X147206229Y-54189856D01*
X147146880Y-54097828D01*
X147089962Y-54002866D01*
X147035476Y-53904970D01*
X146983457Y-53804291D01*
X146934793Y-53700969D01*
X146889486Y-53595004D01*
X146847535Y-53486396D01*
X146808940Y-53375146D01*
X146773701Y-53261253D01*
X146741818Y-53144717D01*
X146713292Y-53025538D01*
X146688121Y-52903717D01*
X146666307Y-52779253D01*
X146647848Y-52652147D01*
X146632746Y-52522398D01*
X146620999Y-52390006D01*
X146612609Y-52254973D01*
X146607575Y-52117296D01*
X146605897Y-51976978D01*
X148090791Y-51976978D01*
X148091650Y-52067827D01*
X148094226Y-52156880D01*
X148098521Y-52244136D01*
X148104533Y-52329596D01*
X148112263Y-52413259D01*
X148121710Y-52495125D01*
X148132875Y-52575195D01*
X148145758Y-52653468D01*
X148160359Y-52729944D01*
X148176678Y-52804623D01*
X148194714Y-52877505D01*
X148214468Y-52948591D01*
X148235939Y-53017880D01*
X148259129Y-53085371D01*
X148284036Y-53151066D01*
X148310661Y-53214963D01*
X148338418Y-53277011D01*
X148367576Y-53337155D01*
X148398136Y-53395396D01*
X148430095Y-53451735D01*
X148463456Y-53506170D01*
X148498218Y-53558703D01*
X148534380Y-53609333D01*
X148571944Y-53658061D01*
X148610908Y-53704886D01*
X148651273Y-53749809D01*
X148693038Y-53792829D01*
X148736205Y-53833947D01*
X148780772Y-53873163D01*
X148826741Y-53910476D01*
X148874110Y-53945888D01*
X148922879Y-53979398D01*
X148972878Y-54010934D01*
X149023934Y-54040436D01*
X149076046Y-54067903D01*
X149129215Y-54093335D01*
X149183441Y-54116733D01*
X149238723Y-54138096D01*
X149295062Y-54157425D01*
X149352457Y-54174719D01*
X149410909Y-54189979D01*
X149470418Y-54203204D01*
X149530984Y-54214394D01*
X149592606Y-54223550D01*
X149655285Y-54230671D01*
X149719021Y-54235757D01*
X149783813Y-54238809D01*
X149849662Y-54239827D01*
X149915516Y-54238809D01*
X149980312Y-54235757D01*
X150044052Y-54230671D01*
X150106734Y-54223550D01*
X150168359Y-54214394D01*
X150228926Y-54203204D01*
X150288437Y-54189979D01*
X150346890Y-54174719D01*
X150404287Y-54157425D01*
X150460627Y-54138096D01*
X150515909Y-54116733D01*
X150570135Y-54093335D01*
X150623304Y-54067903D01*
X150675417Y-54040436D01*
X150726472Y-54010934D01*
X150776471Y-53979398D01*
X150825250Y-53945888D01*
X150872655Y-53910476D01*
X150918687Y-53873163D01*
X150963345Y-53833947D01*
X151006629Y-53792829D01*
X151048539Y-53749809D01*
X151089076Y-53704886D01*
X151128238Y-53658061D01*
X151166027Y-53609333D01*
X151202442Y-53558703D01*
X151237483Y-53506170D01*
X151271150Y-53451735D01*
X151303443Y-53395396D01*
X151334362Y-53337155D01*
X151363906Y-53277011D01*
X151392077Y-53214963D01*
X151418289Y-53151066D01*
X151442810Y-53085371D01*
X151465641Y-53017880D01*
X151486781Y-52948591D01*
X151506230Y-52877505D01*
X151523988Y-52804623D01*
X151540056Y-52729944D01*
X151554432Y-52653468D01*
X151567118Y-52575195D01*
X151578112Y-52495125D01*
X151587415Y-52413259D01*
X151595027Y-52329596D01*
X151605177Y-52156880D01*
X151608560Y-51976978D01*
X151607714Y-51886128D01*
X151605177Y-51797076D01*
X151600948Y-51709819D01*
X151595027Y-51624360D01*
X151587415Y-51540697D01*
X151578112Y-51458831D01*
X151567118Y-51378761D01*
X151554432Y-51300488D01*
X151540056Y-51224012D01*
X151523988Y-51149333D01*
X151506230Y-51076451D01*
X151486781Y-51005366D01*
X151465641Y-50936078D01*
X151442810Y-50868586D01*
X151418289Y-50802892D01*
X151392077Y-50738995D01*
X151363906Y-50676949D01*
X151334362Y-50616804D01*
X151303443Y-50558563D01*
X151271150Y-50502224D01*
X151237483Y-50447788D01*
X151202442Y-50395254D01*
X151166027Y-50344623D01*
X151128238Y-50295894D01*
X151089076Y-50249069D01*
X151048539Y-50204145D01*
X151006629Y-50161125D01*
X150963345Y-50120007D01*
X150918687Y-50080791D01*
X150872655Y-50043479D01*
X150825250Y-50008068D01*
X150776471Y-49974561D01*
X150726472Y-49943022D01*
X150675417Y-49913518D01*
X150623304Y-49886049D01*
X150570135Y-49860614D01*
X150515909Y-49837214D01*
X150460627Y-49815849D01*
X150404287Y-49796519D01*
X150346890Y-49779223D01*
X150288437Y-49763963D01*
X150228926Y-49750737D01*
X150168359Y-49739545D01*
X150106734Y-49730389D01*
X150044052Y-49723267D01*
X149980312Y-49718180D01*
X149915516Y-49715128D01*
X149849662Y-49714110D01*
X149783813Y-49715128D01*
X149719021Y-49718180D01*
X149655285Y-49723267D01*
X149592606Y-49730389D01*
X149530984Y-49739545D01*
X149470418Y-49750737D01*
X149410909Y-49763963D01*
X149352457Y-49779223D01*
X149295062Y-49796519D01*
X149238723Y-49815849D01*
X149183441Y-49837214D01*
X149129215Y-49860614D01*
X149076046Y-49886049D01*
X149023934Y-49913518D01*
X148972878Y-49943022D01*
X148922879Y-49974561D01*
X148874110Y-50008068D01*
X148826741Y-50043479D01*
X148780772Y-50080791D01*
X148736205Y-50120007D01*
X148693038Y-50161125D01*
X148651273Y-50204145D01*
X148610908Y-50249069D01*
X148571944Y-50295894D01*
X148534380Y-50344623D01*
X148498218Y-50395254D01*
X148463456Y-50447788D01*
X148430095Y-50502224D01*
X148398136Y-50558563D01*
X148367576Y-50616804D01*
X148338418Y-50676949D01*
X148310661Y-50738995D01*
X148284036Y-50802892D01*
X148259129Y-50868586D01*
X148235939Y-50936078D01*
X148214468Y-51005366D01*
X148194714Y-51076451D01*
X148176678Y-51149333D01*
X148160359Y-51224012D01*
X148145758Y-51300488D01*
X148132875Y-51378761D01*
X148121710Y-51458831D01*
X148112263Y-51540697D01*
X148104533Y-51624360D01*
X148098521Y-51709819D01*
X148094226Y-51797076D01*
X148090791Y-51976978D01*
X146605897Y-51976978D01*
X146607575Y-51836659D01*
X146612609Y-51698983D01*
X146620999Y-51563949D01*
X146632746Y-51431558D01*
X146647848Y-51301809D01*
X146666307Y-51174702D01*
X146688121Y-51050238D01*
X146713292Y-50928416D01*
X146741818Y-50809237D01*
X146773701Y-50692700D01*
X146808940Y-50578806D01*
X146847535Y-50467555D01*
X146889486Y-50358946D01*
X146934793Y-50252980D01*
X146983457Y-50149656D01*
X147035476Y-50048975D01*
X147089962Y-49951095D01*
X147146880Y-49856175D01*
X147206229Y-49764215D01*
X147268010Y-49675214D01*
X147332222Y-49589172D01*
X147398865Y-49506091D01*
X147467940Y-49425969D01*
X147539447Y-49348806D01*
X147613385Y-49274604D01*
X147689754Y-49203360D01*
X147768555Y-49135077D01*
X147849788Y-49069753D01*
X147933452Y-49007389D01*
X148019547Y-48947984D01*
X148108075Y-48891539D01*
X148199033Y-48838054D01*
X148291494Y-48787264D01*
X148385383Y-48739752D01*
X148480699Y-48695516D01*
X148577443Y-48654556D01*
X148675613Y-48616874D01*
X148775211Y-48582468D01*
X148876235Y-48551339D01*
X148978687Y-48523486D01*
X149082566Y-48498911D01*
X149187871Y-48477612D01*
X149294603Y-48459590D01*
X149402762Y-48444844D01*
X149512347Y-48433376D01*
X149623359Y-48425184D01*
X149735797Y-48420269D01*
X149849662Y-48418630D01*
X149964348Y-48420269D01*
X150077555Y-48425184D01*
X150189282Y-48433376D01*
X150299529Y-48444844D01*
X150408297Y-48459590D01*
X150515585Y-48477612D01*
X150621393Y-48498911D01*
X150725721Y-48523486D01*
X150828569Y-48551339D01*
X150929937Y-48582468D01*
X151029825Y-48616874D01*
X151128233Y-48654556D01*
X151225161Y-48695516D01*
X151320609Y-48739752D01*
X151414577Y-48787264D01*
X151507065Y-48838054D01*
X151597615Y-48891539D01*
X151685759Y-48947984D01*
X151771498Y-49007389D01*
X151854832Y-49069753D01*
X151935761Y-49135077D01*
X152014285Y-49203360D01*
X152090404Y-49274604D01*
X152164118Y-49348806D01*
X152235427Y-49425969D01*
X152304331Y-49506091D01*
X152370831Y-49589172D01*
X152434926Y-49675214D01*
X152496617Y-49764215D01*
X152555904Y-49856175D01*
X152612786Y-49951095D01*
X152667263Y-50048975D01*
X152718869Y-50149656D01*
X152767147Y-50252980D01*
X152812095Y-50358946D01*
X152853714Y-50467555D01*
X152892004Y-50578806D01*
X152926965Y-50692700D01*
X152958597Y-50809237D01*
X152986899Y-50928416D01*
X153011872Y-51050238D01*
X153033516Y-51174702D01*
X153051830Y-51301809D01*
X153066814Y-51431558D01*
X153078469Y-51563949D01*
X153086794Y-51698983D01*
X153091789Y-51836659D01*
X153093454Y-51976978D01*
X153091789Y-52116888D01*
G37*
G36*
X167134432Y-67034877D02*
G01*
X166605271Y-67034877D01*
X166605271Y-66505716D01*
X167134432Y-66505716D01*
X167134432Y-67034877D01*
G37*
G36*
X166076046Y-67034877D02*
G01*
X165546884Y-67034877D01*
X165546884Y-66505716D01*
X166076046Y-66505716D01*
X166076046Y-67034877D01*
G37*
G36*
X119941057Y-55440612D02*
G01*
X118476587Y-55440612D01*
X118476587Y-53194670D01*
X117245218Y-53194670D01*
X117146377Y-53193520D01*
X117049384Y-53190071D01*
X116954240Y-53184323D01*
X116860943Y-53176275D01*
X116769495Y-53165928D01*
X116679894Y-53153282D01*
X116592142Y-53138337D01*
X116506237Y-53121092D01*
X116422180Y-53101549D01*
X116339971Y-53079706D01*
X116259610Y-53055565D01*
X116181097Y-53029124D01*
X116104431Y-53000385D01*
X116029614Y-52969347D01*
X115956644Y-52936009D01*
X115885522Y-52900373D01*
X115815970Y-52862681D01*
X115748503Y-52823165D01*
X115683119Y-52781825D01*
X115619820Y-52738662D01*
X115558607Y-52693675D01*
X115499478Y-52646864D01*
X115442436Y-52598229D01*
X115387480Y-52547770D01*
X115334611Y-52495488D01*
X115283828Y-52441382D01*
X115235134Y-52385452D01*
X115188527Y-52327698D01*
X115144008Y-52268121D01*
X115101578Y-52206719D01*
X115061237Y-52143494D01*
X115022985Y-52078446D01*
X114986940Y-52011856D01*
X114953221Y-51943997D01*
X114921827Y-51874869D01*
X114892759Y-51804473D01*
X114866016Y-51732808D01*
X114841599Y-51659874D01*
X114819507Y-51585672D01*
X114799741Y-51510201D01*
X114782300Y-51433462D01*
X114767185Y-51355454D01*
X114754395Y-51276177D01*
X114743931Y-51195631D01*
X114735792Y-51113817D01*
X114729979Y-51030735D01*
X114726490Y-50946384D01*
X114725328Y-50860764D01*
X116233979Y-50860764D01*
X116234522Y-50903162D01*
X116236149Y-50944953D01*
X116238861Y-50986136D01*
X116242657Y-51026712D01*
X116247537Y-51066680D01*
X116253499Y-51106040D01*
X116260545Y-51144793D01*
X116268673Y-51182938D01*
X116277883Y-51220476D01*
X116288175Y-51257406D01*
X116299549Y-51293729D01*
X116312003Y-51329443D01*
X116325537Y-51364551D01*
X116340152Y-51399050D01*
X116355847Y-51432942D01*
X116372621Y-51466226D01*
X116390093Y-51498344D01*
X116408675Y-51529591D01*
X116428367Y-51559966D01*
X116449170Y-51589470D01*
X116471082Y-51618102D01*
X116494104Y-51645863D01*
X116518236Y-51672752D01*
X116543478Y-51698769D01*
X116569830Y-51723914D01*
X116597292Y-51748187D01*
X116625863Y-51771588D01*
X116655545Y-51794117D01*
X116686337Y-51815774D01*
X116718238Y-51836558D01*
X116751250Y-51856471D01*
X116785371Y-51875510D01*
X116820185Y-51893119D01*
X116856164Y-51909593D01*
X116893308Y-51924931D01*
X116931616Y-51939133D01*
X116971089Y-51952200D01*
X117011726Y-51964131D01*
X117053526Y-51974926D01*
X117096489Y-51984585D01*
X117140615Y-51993108D01*
X117185904Y-52000494D01*
X117232354Y-52006745D01*
X117279966Y-52011859D01*
X117328739Y-52015837D01*
X117378673Y-52018678D01*
X117429768Y-52020383D01*
X117482023Y-52020952D01*
X118476587Y-52020952D01*
X118476587Y-49710729D01*
X117488900Y-49710729D01*
X117436202Y-49711297D01*
X117384670Y-49713002D01*
X117334303Y-49715843D01*
X117285100Y-49719820D01*
X117237061Y-49724933D01*
X117190187Y-49731183D01*
X117144476Y-49738569D01*
X117099928Y-49747091D01*
X117056543Y-49756749D01*
X117014320Y-49767544D01*
X116973259Y-49779475D01*
X116933360Y-49792543D01*
X116894622Y-49806747D01*
X116857045Y-49822087D01*
X116820628Y-49838563D01*
X116785371Y-49856176D01*
X116751250Y-49874396D01*
X116718238Y-49893541D01*
X116686337Y-49913611D01*
X116655545Y-49934606D01*
X116625863Y-49956526D01*
X116597292Y-49979370D01*
X116569830Y-50003140D01*
X116543478Y-50027834D01*
X116518236Y-50053454D01*
X116494104Y-50079998D01*
X116471082Y-50107467D01*
X116449170Y-50135861D01*
X116428367Y-50165180D01*
X116408675Y-50195424D01*
X116390093Y-50226593D01*
X116372621Y-50258687D01*
X116355847Y-50291164D01*
X116340152Y-50324328D01*
X116325537Y-50358179D01*
X116312003Y-50392717D01*
X116299549Y-50427942D01*
X116288175Y-50463854D01*
X116277883Y-50500453D01*
X116268673Y-50537740D01*
X116260545Y-50575713D01*
X116253499Y-50614373D01*
X116247537Y-50653721D01*
X116242657Y-50693755D01*
X116238861Y-50734477D01*
X116236149Y-50775886D01*
X116234522Y-50817981D01*
X116233979Y-50860764D01*
X114725328Y-50860764D01*
X114726478Y-50775146D01*
X114729928Y-50690796D01*
X114735679Y-50607714D01*
X114743729Y-50525901D01*
X114754077Y-50445356D01*
X114766725Y-50366079D01*
X114781671Y-50288072D01*
X114798915Y-50211332D01*
X114818456Y-50135861D01*
X114840295Y-50061658D01*
X114864430Y-49988724D01*
X114890861Y-49917059D01*
X114919589Y-49846661D01*
X114950612Y-49777533D01*
X114983931Y-49709672D01*
X115019544Y-49643080D01*
X115056940Y-49577611D01*
X115096400Y-49513966D01*
X115137924Y-49452143D01*
X115181510Y-49392144D01*
X115227158Y-49333969D01*
X115274867Y-49277616D01*
X115324636Y-49223088D01*
X115376466Y-49170382D01*
X115430354Y-49119500D01*
X115486299Y-49070441D01*
X115544303Y-49023206D01*
X115604363Y-48977794D01*
X115666478Y-48934205D01*
X115730649Y-48892440D01*
X115796873Y-48852498D01*
X115865152Y-48814379D01*
X115935417Y-48777925D01*
X116007506Y-48743822D01*
X116081418Y-48712072D01*
X116157153Y-48682674D01*
X116234711Y-48655627D01*
X116314092Y-48630932D01*
X116395296Y-48608590D01*
X116478324Y-48588599D01*
X116563174Y-48570960D01*
X116649848Y-48555672D01*
X116738345Y-48542737D01*
X116828665Y-48532154D01*
X116920808Y-48523922D01*
X117014775Y-48518043D01*
X117110564Y-48514515D01*
X117208177Y-48513339D01*
X119941057Y-48513339D01*
X119941057Y-49710729D01*
X119941057Y-55440612D01*
G37*
G36*
X107532628Y-55440612D02*
G01*
X102851358Y-55440612D01*
X102851358Y-54233080D01*
X106067899Y-54233080D01*
X106067899Y-52579064D01*
X103104829Y-52579064D01*
X103104829Y-51371505D01*
X106067899Y-51371505D01*
X106067899Y-49720876D01*
X102864854Y-49720876D01*
X102864854Y-48513339D01*
X107532628Y-48513339D01*
X107532628Y-55440612D01*
G37*
G36*
X138864322Y-55440612D02*
G01*
X137294814Y-55440612D01*
X136780941Y-53860997D01*
X134279793Y-53860997D01*
X133766858Y-55440612D01*
X132197351Y-55440612D01*
X133136045Y-52717732D01*
X134651036Y-52717732D01*
X136409020Y-52717732D01*
X135556237Y-50096330D01*
X135502261Y-50096330D01*
X134651036Y-52717732D01*
X133136045Y-52717732D01*
X134585481Y-48513339D01*
X136473016Y-48513339D01*
X137924379Y-52717732D01*
X138864322Y-55440612D01*
G37*
D11*
G36*
X165282180Y-149221708D02*
G01*
X165793136Y-149221708D01*
X165793136Y-148236920D01*
X165677853Y-148236920D01*
X165677853Y-149112287D01*
X165282180Y-149112287D01*
X165282180Y-149221708D01*
G37*
G36*
X164923143Y-148236920D02*
G01*
X164923143Y-148346341D01*
X165019375Y-148346341D01*
X165019375Y-149112287D01*
X164923143Y-149112287D01*
X164923143Y-149221708D01*
X165230889Y-149221708D01*
X165230889Y-149112287D01*
X165134657Y-149112287D01*
X165134657Y-148346341D01*
X165230889Y-148346341D01*
X165230889Y-148236920D01*
X164923143Y-148236920D01*
G37*
G36*
X163758105Y-149221708D02*
G01*
X163872899Y-149221708D01*
X163872899Y-148561031D01*
X163871969Y-148508747D01*
X163869541Y-148455819D01*
X163866117Y-148404101D01*
X163863373Y-148369544D01*
X163866060Y-148369544D01*
X163878950Y-148417472D01*
X163895613Y-148465043D01*
X164232180Y-149221708D01*
X164288600Y-149221708D01*
X164624434Y-148470417D01*
X164640877Y-148422271D01*
X164653042Y-148373754D01*
X164653987Y-148369544D01*
X164656674Y-148369544D01*
X164653615Y-148419011D01*
X164652056Y-148472622D01*
X164651432Y-148522494D01*
X164651301Y-148562496D01*
X164651301Y-149221708D01*
X164762431Y-149221708D01*
X164762431Y-148236920D01*
X164610024Y-148236920D01*
X164307651Y-148923487D01*
X164288231Y-148969034D01*
X164270188Y-149016550D01*
X164262466Y-149041701D01*
X164258314Y-149041701D01*
X164240988Y-148995051D01*
X164221887Y-148946459D01*
X164210931Y-148920800D01*
X163902452Y-148236920D01*
X163758105Y-148236920D01*
X163758105Y-149221708D01*
G37*
G36*
X162984099Y-149221708D02*
G01*
X163506046Y-149221708D01*
X163506046Y-148236920D01*
X163006081Y-148236920D01*
X163006081Y-148346341D01*
X163390763Y-148346341D01*
X163390763Y-148658972D01*
X163034902Y-148658972D01*
X163034902Y-148768393D01*
X163390763Y-148768393D01*
X163390763Y-149112287D01*
X162984099Y-149112287D01*
X162984099Y-149221708D01*
G37*
G36*
X162843904Y-149190444D02*
G01*
X162843904Y-149049761D01*
X162801751Y-149075914D01*
X162787972Y-149082489D01*
X162741470Y-149100225D01*
X162719340Y-149106913D01*
X162671790Y-149118163D01*
X162646800Y-149122545D01*
X162597262Y-149127493D01*
X162579389Y-149127918D01*
X162529517Y-149125552D01*
X162476666Y-149115940D01*
X162430707Y-149096826D01*
X162420387Y-149090061D01*
X162386387Y-149053779D01*
X162369720Y-149006452D01*
X162367874Y-148980884D01*
X162376186Y-148931107D01*
X162385460Y-148911763D01*
X162417454Y-148872056D01*
X162433820Y-148858030D01*
X162474412Y-148829801D01*
X162506849Y-148811380D01*
X162550751Y-148788360D01*
X162594905Y-148765780D01*
X162597951Y-148764241D01*
X162641735Y-148741280D01*
X162685742Y-148716472D01*
X162694183Y-148711484D01*
X162735765Y-148683335D01*
X162771608Y-148652622D01*
X162804297Y-148613647D01*
X162823631Y-148579593D01*
X162838306Y-148532257D01*
X162842438Y-148483850D01*
X162837561Y-148432179D01*
X162821399Y-148383025D01*
X162812885Y-148367102D01*
X162783473Y-148326870D01*
X162746955Y-148293371D01*
X162735216Y-148285036D01*
X162690590Y-148260005D01*
X162644631Y-148242455D01*
X162625795Y-148237165D01*
X162575383Y-148226886D01*
X162524165Y-148221847D01*
X162500254Y-148221289D01*
X162448439Y-148222388D01*
X162394999Y-148226448D01*
X162343170Y-148234753D01*
X162292251Y-148250628D01*
X162288007Y-148252552D01*
X162288007Y-148377604D01*
X162334703Y-148357088D01*
X162387597Y-148342433D01*
X162438963Y-148334419D01*
X162495074Y-148330893D01*
X162511978Y-148330710D01*
X162561666Y-148333970D01*
X162587693Y-148338281D01*
X162635602Y-148353310D01*
X162654860Y-148363194D01*
X162693007Y-148394472D01*
X162702976Y-148407402D01*
X162720378Y-148454800D01*
X162721538Y-148473592D01*
X162714346Y-148522488D01*
X162707616Y-148538804D01*
X162677432Y-148578715D01*
X162666095Y-148588874D01*
X162624716Y-148617841D01*
X162598928Y-148632594D01*
X162553579Y-148656343D01*
X162508070Y-148679244D01*
X162462769Y-148702626D01*
X162419619Y-148727036D01*
X162407686Y-148734199D01*
X162365840Y-148762560D01*
X162326884Y-148795769D01*
X162324643Y-148797946D01*
X162290891Y-148837193D01*
X162267979Y-148875371D01*
X162251589Y-148923972D01*
X162246974Y-148972580D01*
X162250993Y-149024043D01*
X162264416Y-149072740D01*
X162275551Y-149095922D01*
X162304221Y-149136347D01*
X162340653Y-149169573D01*
X162352487Y-149177744D01*
X162397654Y-149201947D01*
X162444701Y-149218393D01*
X162464106Y-149223173D01*
X162512363Y-149231805D01*
X162562612Y-149236454D01*
X162597218Y-149237339D01*
X162646666Y-149234908D01*
X162655104Y-149234164D01*
X162705141Y-149228085D01*
X162725202Y-149224883D01*
X162774569Y-149214942D01*
X162792857Y-149210228D01*
X162838885Y-149193104D01*
X162843904Y-149190444D01*
G37*
G36*
X161368677Y-149221708D02*
G01*
X161529389Y-149221708D01*
X161910163Y-148771324D01*
X161936297Y-148736885D01*
X161938984Y-148736885D01*
X161938984Y-149221708D01*
X162054267Y-149221708D01*
X162054267Y-148236920D01*
X161938984Y-148236920D01*
X161938984Y-148699761D01*
X161936297Y-148699761D01*
X161910163Y-148666055D01*
X161541845Y-148236920D01*
X161398230Y-148236920D01*
X161820770Y-148709286D01*
X161368677Y-149221708D01*
G37*
G36*
X160720456Y-149221708D02*
G01*
X161242403Y-149221708D01*
X161242403Y-148236920D01*
X160742438Y-148236920D01*
X160742438Y-148346341D01*
X161127121Y-148346341D01*
X161127121Y-148658972D01*
X160771259Y-148658972D01*
X160771259Y-148768393D01*
X161127121Y-148768393D01*
X161127121Y-149112287D01*
X160720456Y-149112287D01*
X160720456Y-149221708D01*
G37*
G36*
X159893939Y-148236920D02*
G01*
X160218782Y-148857786D01*
X160218782Y-149221708D01*
X160334308Y-149221708D01*
X160334308Y-148860472D01*
X160650847Y-148236920D01*
X160519689Y-148236920D01*
X160299137Y-148681931D01*
X160279957Y-148729883D01*
X160275202Y-148742259D01*
X160273248Y-148742259D01*
X160253837Y-148695289D01*
X160247114Y-148681931D01*
X160016304Y-148236920D01*
X159893939Y-148236920D01*
G37*
G36*
X110882180Y-149221708D02*
G01*
X111393136Y-149221708D01*
X111393136Y-148236920D01*
X111277853Y-148236920D01*
X111277853Y-149112287D01*
X110882180Y-149112287D01*
X110882180Y-149221708D01*
G37*
G36*
X110523143Y-148236920D02*
G01*
X110523143Y-148346341D01*
X110619375Y-148346341D01*
X110619375Y-149112287D01*
X110523143Y-149112287D01*
X110523143Y-149221708D01*
X110830889Y-149221708D01*
X110830889Y-149112287D01*
X110734657Y-149112287D01*
X110734657Y-148346341D01*
X110830889Y-148346341D01*
X110830889Y-148236920D01*
X110523143Y-148236920D01*
G37*
G36*
X109358105Y-149221708D02*
G01*
X109472899Y-149221708D01*
X109472899Y-148561031D01*
X109471969Y-148508747D01*
X109469541Y-148455819D01*
X109466117Y-148404101D01*
X109463373Y-148369544D01*
X109466060Y-148369544D01*
X109478950Y-148417472D01*
X109495613Y-148465043D01*
X109832180Y-149221708D01*
X109888600Y-149221708D01*
X110224434Y-148470417D01*
X110240877Y-148422271D01*
X110253042Y-148373754D01*
X110253987Y-148369544D01*
X110256674Y-148369544D01*
X110253615Y-148419011D01*
X110252056Y-148472622D01*
X110251432Y-148522494D01*
X110251301Y-148562496D01*
X110251301Y-149221708D01*
X110362431Y-149221708D01*
X110362431Y-148236920D01*
X110210024Y-148236920D01*
X109907651Y-148923487D01*
X109888231Y-148969034D01*
X109870188Y-149016550D01*
X109862466Y-149041701D01*
X109858314Y-149041701D01*
X109840988Y-148995051D01*
X109821887Y-148946459D01*
X109810931Y-148920800D01*
X109502452Y-148236920D01*
X109358105Y-148236920D01*
X109358105Y-149221708D01*
G37*
G36*
X108584099Y-149221708D02*
G01*
X109106046Y-149221708D01*
X109106046Y-148236920D01*
X108606081Y-148236920D01*
X108606081Y-148346341D01*
X108990763Y-148346341D01*
X108990763Y-148658972D01*
X108634902Y-148658972D01*
X108634902Y-148768393D01*
X108990763Y-148768393D01*
X108990763Y-149112287D01*
X108584099Y-149112287D01*
X108584099Y-149221708D01*
G37*
G36*
X108443904Y-149190444D02*
G01*
X108443904Y-149049761D01*
X108401751Y-149075914D01*
X108387972Y-149082489D01*
X108341470Y-149100225D01*
X108319340Y-149106913D01*
X108271790Y-149118163D01*
X108246800Y-149122545D01*
X108197262Y-149127493D01*
X108179389Y-149127918D01*
X108129517Y-149125552D01*
X108076666Y-149115940D01*
X108030707Y-149096826D01*
X108020387Y-149090061D01*
X107986387Y-149053779D01*
X107969720Y-149006452D01*
X107967874Y-148980884D01*
X107976186Y-148931107D01*
X107985460Y-148911763D01*
X108017454Y-148872056D01*
X108033820Y-148858030D01*
X108074412Y-148829801D01*
X108106849Y-148811380D01*
X108150751Y-148788360D01*
X108194905Y-148765780D01*
X108197951Y-148764241D01*
X108241735Y-148741280D01*
X108285742Y-148716472D01*
X108294183Y-148711484D01*
X108335765Y-148683335D01*
X108371608Y-148652622D01*
X108404297Y-148613647D01*
X108423631Y-148579593D01*
X108438306Y-148532257D01*
X108442438Y-148483850D01*
X108437561Y-148432179D01*
X108421399Y-148383025D01*
X108412885Y-148367102D01*
X108383473Y-148326870D01*
X108346955Y-148293371D01*
X108335216Y-148285036D01*
X108290590Y-148260005D01*
X108244631Y-148242455D01*
X108225795Y-148237165D01*
X108175383Y-148226886D01*
X108124165Y-148221847D01*
X108100254Y-148221289D01*
X108048439Y-148222388D01*
X107994999Y-148226448D01*
X107943170Y-148234753D01*
X107892251Y-148250628D01*
X107888007Y-148252552D01*
X107888007Y-148377604D01*
X107934703Y-148357088D01*
X107987597Y-148342433D01*
X108038963Y-148334419D01*
X108095074Y-148330893D01*
X108111978Y-148330710D01*
X108161666Y-148333970D01*
X108187693Y-148338281D01*
X108235602Y-148353310D01*
X108254860Y-148363194D01*
X108293007Y-148394472D01*
X108302976Y-148407402D01*
X108320378Y-148454800D01*
X108321538Y-148473592D01*
X108314346Y-148522488D01*
X108307616Y-148538804D01*
X108277432Y-148578715D01*
X108266095Y-148588874D01*
X108224716Y-148617841D01*
X108198928Y-148632594D01*
X108153579Y-148656343D01*
X108108070Y-148679244D01*
X108062769Y-148702626D01*
X108019619Y-148727036D01*
X108007686Y-148734199D01*
X107965840Y-148762560D01*
X107926884Y-148795769D01*
X107924643Y-148797946D01*
X107890891Y-148837193D01*
X107867979Y-148875371D01*
X107851589Y-148923972D01*
X107846974Y-148972580D01*
X107850993Y-149024043D01*
X107864416Y-149072740D01*
X107875551Y-149095922D01*
X107904221Y-149136347D01*
X107940653Y-149169573D01*
X107952487Y-149177744D01*
X107997654Y-149201947D01*
X108044701Y-149218393D01*
X108064106Y-149223173D01*
X108112363Y-149231805D01*
X108162612Y-149236454D01*
X108197218Y-149237339D01*
X108246666Y-149234908D01*
X108255104Y-149234164D01*
X108305141Y-149228085D01*
X108325202Y-149224883D01*
X108374569Y-149214942D01*
X108392857Y-149210228D01*
X108438885Y-149193104D01*
X108443904Y-149190444D01*
G37*
G36*
X106968677Y-149221708D02*
G01*
X107129389Y-149221708D01*
X107510163Y-148771324D01*
X107536297Y-148736885D01*
X107538984Y-148736885D01*
X107538984Y-149221708D01*
X107654267Y-149221708D01*
X107654267Y-148236920D01*
X107538984Y-148236920D01*
X107538984Y-148699761D01*
X107536297Y-148699761D01*
X107510163Y-148666055D01*
X107141845Y-148236920D01*
X106998230Y-148236920D01*
X107420770Y-148709286D01*
X106968677Y-149221708D01*
G37*
G36*
X106320456Y-149221708D02*
G01*
X106842403Y-149221708D01*
X106842403Y-148236920D01*
X106342438Y-148236920D01*
X106342438Y-148346341D01*
X106727121Y-148346341D01*
X106727121Y-148658972D01*
X106371259Y-148658972D01*
X106371259Y-148768393D01*
X106727121Y-148768393D01*
X106727121Y-149112287D01*
X106320456Y-149112287D01*
X106320456Y-149221708D01*
G37*
G36*
X105493939Y-148236920D02*
G01*
X105818782Y-148857786D01*
X105818782Y-149221708D01*
X105934308Y-149221708D01*
X105934308Y-148860472D01*
X106250847Y-148236920D01*
X106119689Y-148236920D01*
X105899137Y-148681931D01*
X105879957Y-148729883D01*
X105875202Y-148742259D01*
X105873248Y-148742259D01*
X105853837Y-148695289D01*
X105847114Y-148681931D01*
X105616304Y-148236920D01*
X105493939Y-148236920D01*
G37*
D10*
%TO.C,d*%
G36*
X162648417Y-94988818D02*
G01*
X162640260Y-94996974D01*
X162632103Y-94988818D01*
X162640260Y-94980661D01*
X162648417Y-94988818D01*
G37*
G36*
X163939084Y-94966773D02*
G01*
X164040006Y-94997879D01*
X164132488Y-95057471D01*
X164193175Y-95121269D01*
X164254902Y-95223363D01*
X164301990Y-95352541D01*
X164330462Y-95491172D01*
X164337385Y-95639134D01*
X164319724Y-95777784D01*
X164278908Y-95903935D01*
X164216368Y-96014400D01*
X164133534Y-96105993D01*
X164031837Y-96175526D01*
X163912707Y-96219813D01*
X163876331Y-96225440D01*
X163795545Y-96225069D01*
X163710008Y-96212303D01*
X163635379Y-96188887D01*
X163554630Y-96140022D01*
X163472776Y-96060326D01*
X163403521Y-95959938D01*
X163350993Y-95844965D01*
X163319323Y-95721515D01*
X163312562Y-95670955D01*
X163309215Y-95573576D01*
X163321886Y-95477850D01*
X163351892Y-95369565D01*
X163385640Y-95286633D01*
X163451204Y-95181212D01*
X163532898Y-95094453D01*
X163626629Y-95027991D01*
X163728301Y-94983466D01*
X163833817Y-94962514D01*
X163939084Y-94966773D01*
G37*
G36*
X163632488Y-86134823D02*
G01*
X163632474Y-86159800D01*
X163629684Y-86166587D01*
X163640600Y-86165070D01*
X163654388Y-86168244D01*
X163675906Y-86195538D01*
X163699613Y-86242236D01*
X163722217Y-86301670D01*
X163740425Y-86367174D01*
X163742116Y-86375111D01*
X163752485Y-86453645D01*
X163756631Y-86547275D01*
X163754741Y-86644188D01*
X163747000Y-86732566D01*
X163733595Y-86800597D01*
X163725173Y-86824999D01*
X163697713Y-86883820D01*
X163667278Y-86929683D01*
X163646023Y-86951744D01*
X163609512Y-86972474D01*
X163559175Y-86976590D01*
X163541758Y-86976458D01*
X163513111Y-86979959D01*
X163515376Y-86988880D01*
X163524795Y-86996389D01*
X163522194Y-87003147D01*
X163518518Y-87002585D01*
X163491539Y-86990356D01*
X163453938Y-86967114D01*
X163432425Y-86949490D01*
X163384171Y-86885843D01*
X163345378Y-86798481D01*
X163319023Y-86693442D01*
X163315805Y-86671978D01*
X163309097Y-86600569D01*
X163305545Y-86518201D01*
X163305096Y-86433567D01*
X163307694Y-86355358D01*
X163313284Y-86292265D01*
X163321811Y-86252980D01*
X163333572Y-86221904D01*
X163342571Y-86192808D01*
X163343225Y-86190538D01*
X163358847Y-86164207D01*
X163386794Y-86130193D01*
X163401449Y-86116503D01*
X163564854Y-86116503D01*
X163578282Y-86122472D01*
X163586918Y-86121295D01*
X163589158Y-86111597D01*
X163586766Y-86109644D01*
X163567406Y-86111597D01*
X163564854Y-86116503D01*
X163401449Y-86116503D01*
X163408334Y-86110071D01*
X163446949Y-86091458D01*
X163502519Y-86085823D01*
X163511305Y-86085869D01*
X163564516Y-86093653D01*
X163607373Y-86111373D01*
X163607613Y-86111597D01*
X163632488Y-86134823D01*
G37*
G36*
X165089813Y-85658567D02*
G01*
X165150152Y-85692056D01*
X165192699Y-85720468D01*
X165227292Y-85744985D01*
X165258478Y-85769887D01*
X165292888Y-85800833D01*
X165337155Y-85843484D01*
X165397910Y-85903497D01*
X165456813Y-85964802D01*
X165525330Y-86043643D01*
X165586091Y-86121525D01*
X165636067Y-86193995D01*
X165672226Y-86256597D01*
X165691539Y-86304875D01*
X165690976Y-86334376D01*
X165689263Y-86338297D01*
X165698034Y-86353545D01*
X165704704Y-86361072D01*
X165717668Y-86394898D01*
X165731347Y-86448107D01*
X165744177Y-86512464D01*
X165754594Y-86579735D01*
X165761035Y-86641684D01*
X165761467Y-86664894D01*
X165761936Y-86690076D01*
X165761072Y-86712171D01*
X165765568Y-86754790D01*
X165781227Y-86773587D01*
X165782899Y-86774276D01*
X165818374Y-86792122D01*
X165867338Y-86820141D01*
X165919250Y-86851898D01*
X165963569Y-86880959D01*
X165989755Y-86900887D01*
X166002843Y-86911697D01*
X166024879Y-86921830D01*
X166043295Y-86932491D01*
X166076263Y-86962269D01*
X166116950Y-87004317D01*
X166159008Y-87051758D01*
X166196094Y-87097714D01*
X166221861Y-87135310D01*
X166228141Y-87146281D01*
X166304488Y-87305644D01*
X166349604Y-87461551D01*
X166351712Y-87484643D01*
X166363896Y-87618140D01*
X166358174Y-87675406D01*
X166347769Y-87779548D01*
X166301627Y-87949915D01*
X166273402Y-88028504D01*
X166227732Y-88140430D01*
X166181872Y-88230883D01*
X166132232Y-88306589D01*
X166075224Y-88374276D01*
X166069524Y-88380378D01*
X166030588Y-88423874D01*
X166003089Y-88457732D01*
X165992669Y-88475064D01*
X165992619Y-88476177D01*
X165979500Y-88487919D01*
X165966534Y-88492973D01*
X165936446Y-88513515D01*
X165902099Y-88541850D01*
X165873876Y-88569220D01*
X165862161Y-88586869D01*
X165862348Y-88587974D01*
X165879248Y-88599858D01*
X165915180Y-88611023D01*
X165918337Y-88611722D01*
X165956211Y-88622564D01*
X165976355Y-88632711D01*
X165982772Y-88637372D01*
X166013148Y-88652182D01*
X166057922Y-88670235D01*
X166061377Y-88671521D01*
X166140416Y-88701094D01*
X166194084Y-88721578D01*
X166227463Y-88735017D01*
X166245635Y-88743454D01*
X166253683Y-88748933D01*
X166262424Y-88754851D01*
X166294071Y-88772586D01*
X166338999Y-88795887D01*
X166368559Y-88812536D01*
X166398468Y-88835543D01*
X166405810Y-88851426D01*
X166402951Y-88858810D01*
X166415234Y-88855949D01*
X166423794Y-88856303D01*
X166455380Y-88868859D01*
X166501629Y-88892612D01*
X166554771Y-88923033D01*
X166607033Y-88955593D01*
X166650644Y-88985761D01*
X166677832Y-89009008D01*
X166680799Y-89011614D01*
X166705010Y-89029533D01*
X166747091Y-89059094D01*
X166800183Y-89095453D01*
X166881622Y-89155494D01*
X166993799Y-89251133D01*
X167101142Y-89355819D01*
X167191805Y-89458567D01*
X167223698Y-89498154D01*
X167251676Y-89532153D01*
X167265744Y-89548291D01*
X167284871Y-89571614D01*
X167316393Y-89617832D01*
X167354338Y-89678121D01*
X167394010Y-89744779D01*
X167430712Y-89810107D01*
X167459748Y-89866403D01*
X167465918Y-89879231D01*
X167491270Y-89931547D01*
X167509885Y-89969332D01*
X167518101Y-89985132D01*
X167518169Y-89985208D01*
X167534521Y-89983066D01*
X167568093Y-89971992D01*
X167590987Y-89964985D01*
X167640107Y-89961986D01*
X167675605Y-89976205D01*
X167689265Y-90005378D01*
X167693521Y-90024117D01*
X167712079Y-90037694D01*
X167714639Y-90037959D01*
X167724586Y-90047899D01*
X167731042Y-90075779D01*
X167734716Y-90126487D01*
X167734719Y-90126632D01*
X167736316Y-90204906D01*
X167737240Y-90265656D01*
X167739858Y-90367653D01*
X167743596Y-90476167D01*
X167747977Y-90576037D01*
X167751197Y-90643722D01*
X167752463Y-90685483D01*
X167753169Y-90708746D01*
X167751963Y-90752791D01*
X167746907Y-90782434D01*
X167737328Y-90804250D01*
X167722556Y-90824817D01*
X167718958Y-90829225D01*
X167689894Y-90857936D01*
X167667535Y-90869678D01*
X167653709Y-90873677D01*
X167628668Y-90902052D01*
X167609836Y-90950846D01*
X167601005Y-91011953D01*
X167600619Y-91022268D01*
X167601596Y-91058396D01*
X167611832Y-91082824D01*
X167617824Y-91087893D01*
X167637744Y-91104744D01*
X167685745Y-91133346D01*
X167726055Y-91158252D01*
X167763887Y-91186105D01*
X167781740Y-91205392D01*
X167789823Y-91217608D01*
X167818720Y-91236396D01*
X167841608Y-91252617D01*
X167842010Y-91253044D01*
X167874964Y-91288066D01*
X167909883Y-91332528D01*
X167938632Y-91376105D01*
X167953480Y-91408897D01*
X167961407Y-91426614D01*
X167985448Y-91456393D01*
X168005907Y-91479906D01*
X168042316Y-91537778D01*
X168070941Y-91595626D01*
X168079128Y-91612171D01*
X168111883Y-91693711D01*
X168136118Y-91773022D01*
X168137187Y-91777396D01*
X168149304Y-91833157D01*
X168155708Y-91874898D01*
X168155030Y-91893872D01*
X168152719Y-91899190D01*
X168160792Y-91920393D01*
X168166200Y-91931027D01*
X168176771Y-91968962D01*
X168185379Y-92019775D01*
X168191674Y-92068869D01*
X168201513Y-92142617D01*
X168211566Y-92215536D01*
X168214155Y-92237336D01*
X168219273Y-92314230D01*
X168221625Y-92408667D01*
X168221319Y-92510630D01*
X168220893Y-92525491D01*
X168218978Y-92592235D01*
X168218466Y-92610099D01*
X168213177Y-92697055D01*
X168212245Y-92704939D01*
X168205561Y-92761478D01*
X168196542Y-92809669D01*
X168182417Y-92878309D01*
X168167015Y-92947923D01*
X168152237Y-93010264D01*
X168139980Y-93057087D01*
X168132145Y-93080147D01*
X168128811Y-93086709D01*
X168119041Y-93119261D01*
X168118319Y-93123659D01*
X168103220Y-93181184D01*
X168076931Y-93254837D01*
X168043795Y-93333403D01*
X168008152Y-93405666D01*
X167973565Y-93467247D01*
X167927914Y-93542672D01*
X167884648Y-93608304D01*
X167847075Y-93659428D01*
X167818499Y-93691330D01*
X167802228Y-93699297D01*
X167796498Y-93696594D01*
X167790819Y-93703239D01*
X167790893Y-93703477D01*
X167782864Y-93726768D01*
X167754205Y-93762051D01*
X167711575Y-93803676D01*
X167661632Y-93845996D01*
X167611033Y-93883364D01*
X167566438Y-93910132D01*
X167534505Y-93920651D01*
X167512389Y-93929134D01*
X167479485Y-93950615D01*
X167440997Y-93980216D01*
X167500810Y-94015506D01*
X167514938Y-94023533D01*
X167554874Y-94043006D01*
X167580498Y-94050796D01*
X167595327Y-94054882D01*
X167634951Y-94071520D01*
X167665746Y-94085970D01*
X167690440Y-94097557D01*
X167754521Y-94129294D01*
X167819916Y-94163031D01*
X167879351Y-94195071D01*
X167925548Y-94221715D01*
X167951234Y-94239264D01*
X167970137Y-94252604D01*
X168000953Y-94262870D01*
X168027905Y-94270444D01*
X168064470Y-94290805D01*
X168073436Y-94296567D01*
X168085766Y-94303654D01*
X168112396Y-94318961D01*
X168144218Y-94336281D01*
X168171516Y-94351139D01*
X168244496Y-94389706D01*
X168325036Y-94431265D01*
X168358428Y-94448536D01*
X168437522Y-94491383D01*
X168496028Y-94525276D01*
X168506792Y-94531512D01*
X168559733Y-94565068D01*
X168589841Y-94588198D01*
X168598224Y-94597605D01*
X168609280Y-94613609D01*
X168629758Y-94643252D01*
X168665343Y-94705475D01*
X168699535Y-94773642D01*
X168726889Y-94837120D01*
X168738627Y-94874624D01*
X168741961Y-94885277D01*
X168742291Y-94887041D01*
X168740921Y-94909461D01*
X168720440Y-94907740D01*
X168714306Y-94905697D01*
X168709240Y-94909832D01*
X168730245Y-94932280D01*
X168748984Y-94951421D01*
X168771201Y-94983782D01*
X168786801Y-95025680D01*
X168798321Y-95084806D01*
X168808299Y-95168853D01*
X168812404Y-95212978D01*
X168820220Y-95364219D01*
X168819385Y-95409464D01*
X168817416Y-95516138D01*
X168803423Y-95676059D01*
X168777667Y-95851303D01*
X168774118Y-95869743D01*
X168739577Y-96049190D01*
X168723273Y-96126982D01*
X168708399Y-96198238D01*
X168696979Y-96253256D01*
X168690646Y-96284192D01*
X168686312Y-96302787D01*
X168669692Y-96358401D01*
X168645399Y-96428764D01*
X168615762Y-96508190D01*
X168583109Y-96590993D01*
X168549770Y-96671489D01*
X168518073Y-96743994D01*
X168490347Y-96802821D01*
X168468920Y-96842286D01*
X168456122Y-96856705D01*
X168447527Y-96862212D01*
X168435348Y-96887829D01*
X168430565Y-96899469D01*
X168398729Y-96935246D01*
X168347836Y-96969293D01*
X168287593Y-96995925D01*
X168227704Y-97009457D01*
X168192726Y-97009430D01*
X168128783Y-96997235D01*
X168071242Y-96973534D01*
X168033166Y-96942801D01*
X168028005Y-96938323D01*
X167997032Y-96921092D01*
X167945902Y-96897301D01*
X167882087Y-96870076D01*
X167813060Y-96842540D01*
X167746295Y-96817817D01*
X167689265Y-96799033D01*
X167679133Y-96795888D01*
X167616535Y-96773299D01*
X167541825Y-96742692D01*
X167469033Y-96709753D01*
X167457051Y-96704047D01*
X167380774Y-96669160D01*
X167303633Y-96635848D01*
X167240645Y-96610630D01*
X167194732Y-96592570D01*
X167134269Y-96566366D01*
X167089250Y-96544111D01*
X167084769Y-96541638D01*
X167036003Y-96520189D01*
X167001057Y-96514714D01*
X166986539Y-96526358D01*
X166984536Y-96541083D01*
X166981940Y-96554906D01*
X166975811Y-96587533D01*
X166975663Y-96588323D01*
X166968393Y-96620160D01*
X166963580Y-96641235D01*
X166963069Y-96643464D01*
X166962217Y-96687214D01*
X166972238Y-96736669D01*
X166974219Y-96742928D01*
X166983473Y-96784838D01*
X166983195Y-96812516D01*
X166981040Y-96818358D01*
X166971758Y-96848548D01*
X166956551Y-96881668D01*
X166918313Y-96935905D01*
X166860909Y-97003579D01*
X166787498Y-97080707D01*
X166769553Y-97096910D01*
X166721491Y-97132814D01*
X166661083Y-97171970D01*
X166594890Y-97210785D01*
X166529472Y-97245671D01*
X166471391Y-97273037D01*
X166427207Y-97289294D01*
X166403480Y-97290850D01*
X166397365Y-97288067D01*
X166381506Y-97292987D01*
X166381096Y-97293693D01*
X166360659Y-97307394D01*
X166314556Y-97329962D01*
X166247448Y-97359466D01*
X166163995Y-97393974D01*
X166068856Y-97431556D01*
X165971498Y-97468458D01*
X165966691Y-97470280D01*
X165862161Y-97508216D01*
X165710388Y-97554451D01*
X165504277Y-97599040D01*
X165279740Y-97630382D01*
X165043377Y-97647593D01*
X164801789Y-97649793D01*
X164753092Y-97648510D01*
X164637118Y-97643482D01*
X164535220Y-97634978D01*
X164440001Y-97621564D01*
X164344063Y-97601807D01*
X164240009Y-97574273D01*
X164120440Y-97537528D01*
X163977961Y-97490139D01*
X163969723Y-97487333D01*
X163916259Y-97468458D01*
X164964923Y-97468458D01*
X164973080Y-97476615D01*
X164981236Y-97468458D01*
X164973080Y-97460301D01*
X164964923Y-97468458D01*
X163916259Y-97468458D01*
X163822046Y-97435197D01*
X163700269Y-97388010D01*
X163598828Y-97343328D01*
X163512155Y-97298707D01*
X163434682Y-97251705D01*
X163420847Y-97242654D01*
X163378809Y-97216541D01*
X163353475Y-97206265D01*
X163336509Y-97209939D01*
X163319574Y-97225680D01*
X163300743Y-97247797D01*
X163290584Y-97264540D01*
X163289629Y-97269564D01*
X163273322Y-97300957D01*
X163240801Y-97347122D01*
X163197173Y-97402218D01*
X163147546Y-97460401D01*
X163097027Y-97515826D01*
X163050723Y-97562650D01*
X163013740Y-97595030D01*
X162991186Y-97607122D01*
X162981959Y-97611177D01*
X162953281Y-97631890D01*
X162915311Y-97664273D01*
X162892588Y-97683471D01*
X162847481Y-97715042D01*
X162811713Y-97732278D01*
X162781944Y-97743656D01*
X162749372Y-97764851D01*
X162728750Y-97777800D01*
X162688998Y-97786570D01*
X162662728Y-97790329D01*
X162639606Y-97803942D01*
X162638132Y-97805586D01*
X162612236Y-97813380D01*
X162562879Y-97817433D01*
X162497725Y-97817999D01*
X162424438Y-97815331D01*
X162350683Y-97809683D01*
X162284124Y-97801309D01*
X162232424Y-97790463D01*
X162152761Y-97763672D01*
X162066231Y-97728008D01*
X161986963Y-97689489D01*
X161927132Y-97653575D01*
X161921221Y-97649451D01*
X161893117Y-97632773D01*
X161881686Y-97631312D01*
X161871012Y-97628639D01*
X161842997Y-97611033D01*
X161805670Y-97584115D01*
X161767069Y-97553687D01*
X161735230Y-97525555D01*
X161706440Y-97499749D01*
X161668358Y-97468458D01*
X161645147Y-97447232D01*
X161605176Y-97403943D01*
X161564687Y-97354264D01*
X161534289Y-97316064D01*
X161501535Y-97279004D01*
X161480122Y-97259651D01*
X161469926Y-97251775D01*
X161457537Y-97228274D01*
X161456179Y-97221727D01*
X161444047Y-97189304D01*
X161422044Y-97138872D01*
X161393481Y-97078185D01*
X161385297Y-97061032D01*
X161343092Y-96963069D01*
X161304324Y-96858662D01*
X161273074Y-96759497D01*
X161253426Y-96677257D01*
X161251548Y-96667090D01*
X161243461Y-96624711D01*
X161232499Y-96568059D01*
X161514958Y-96568059D01*
X161518612Y-96661251D01*
X161528899Y-96744701D01*
X161547127Y-96832235D01*
X161551083Y-96848556D01*
X161575904Y-96944837D01*
X161599769Y-97027793D01*
X161621171Y-97092787D01*
X161638604Y-97135184D01*
X161650559Y-97150346D01*
X161657469Y-97155706D01*
X161676761Y-97182737D01*
X161701067Y-97224911D01*
X161712983Y-97245308D01*
X161774009Y-97321093D01*
X161858330Y-97397335D01*
X161959118Y-97469510D01*
X162069544Y-97533094D01*
X162182778Y-97583563D01*
X162291993Y-97616393D01*
X162297778Y-97617613D01*
X162428150Y-97634634D01*
X162550647Y-97631293D01*
X162658881Y-97608293D01*
X162746460Y-97566339D01*
X162750169Y-97563909D01*
X162783871Y-97544596D01*
X162827679Y-97522030D01*
X162840495Y-97515617D01*
X162868433Y-97499998D01*
X162874568Y-97493482D01*
X162877013Y-97487592D01*
X162897289Y-97463016D01*
X162933258Y-97423759D01*
X162980605Y-97374656D01*
X162986671Y-97368482D01*
X163032654Y-97320107D01*
X163069969Y-97276040D01*
X163101951Y-97230466D01*
X163131939Y-97177568D01*
X163163268Y-97111529D01*
X163199275Y-97026535D01*
X163243297Y-96916768D01*
X163258429Y-96878287D01*
X163286239Y-96803886D01*
X163304317Y-96745856D01*
X163314872Y-96694618D01*
X163320111Y-96640588D01*
X163322242Y-96574186D01*
X163322319Y-96569553D01*
X163320236Y-96409704D01*
X163307609Y-96275293D01*
X163283242Y-96160639D01*
X163245938Y-96060060D01*
X163194499Y-95967877D01*
X163186789Y-95956171D01*
X163159548Y-95916339D01*
X163131666Y-95879133D01*
X163097748Y-95837925D01*
X163052397Y-95786088D01*
X162990215Y-95716994D01*
X162962228Y-95684761D01*
X162935908Y-95650850D01*
X162925745Y-95632448D01*
X162919459Y-95622590D01*
X162893118Y-95608728D01*
X162874061Y-95598488D01*
X162860491Y-95576263D01*
X162851839Y-95557639D01*
X162821148Y-95523505D01*
X162774412Y-95481906D01*
X162718106Y-95438140D01*
X162658703Y-95397504D01*
X162602678Y-95365296D01*
X162544184Y-95339549D01*
X162491659Y-95328101D01*
X162431387Y-95329125D01*
X162351667Y-95337561D01*
X162267843Y-95352503D01*
X162195385Y-95374734D01*
X162122309Y-95407283D01*
X162076212Y-95429147D01*
X162041700Y-95443083D01*
X162028507Y-95444967D01*
X162028503Y-95444905D01*
X162017484Y-95452454D01*
X161988161Y-95479121D01*
X161944946Y-95520755D01*
X161892253Y-95573200D01*
X161868493Y-95597414D01*
X161806611Y-95664697D01*
X161758826Y-95726446D01*
X161716776Y-95794310D01*
X161672102Y-95879938D01*
X161644430Y-95937503D01*
X161586147Y-96078123D01*
X161561092Y-96163384D01*
X161547101Y-96210993D01*
X161538752Y-96261265D01*
X161524481Y-96347194D01*
X161515478Y-96497809D01*
X161514958Y-96568059D01*
X161232499Y-96568059D01*
X161230976Y-96560188D01*
X161215406Y-96480287D01*
X161198062Y-96391772D01*
X161191539Y-96358211D01*
X161174089Y-96264905D01*
X161173447Y-96261265D01*
X161473850Y-96261265D01*
X161482007Y-96269422D01*
X161490164Y-96261265D01*
X161482007Y-96253108D01*
X161473850Y-96261265D01*
X161173447Y-96261265D01*
X161158793Y-96178235D01*
X161147108Y-96106642D01*
X161140494Y-96058573D01*
X161134029Y-96011527D01*
X161122043Y-95939459D01*
X161106563Y-95854907D01*
X161089355Y-95767920D01*
X161087792Y-95760292D01*
X161072788Y-95682744D01*
X161061556Y-95616738D01*
X161055159Y-95569051D01*
X161054657Y-95546463D01*
X161056334Y-95533596D01*
X161048227Y-95501049D01*
X161042777Y-95487700D01*
X161030331Y-95431902D01*
X161020628Y-95348390D01*
X161014005Y-95240653D01*
X161010798Y-95112181D01*
X161008918Y-94925590D01*
X160911210Y-94862551D01*
X160909573Y-94861493D01*
X160859232Y-94826868D01*
X160820013Y-94796155D01*
X160800284Y-94775893D01*
X160791645Y-94764858D01*
X160774876Y-94756650D01*
X161204366Y-94756650D01*
X161211331Y-94775813D01*
X161217254Y-94781695D01*
X161219666Y-94806945D01*
X161219308Y-94807945D01*
X161214210Y-94840285D01*
X161210519Y-94898211D01*
X161208210Y-94975119D01*
X161207259Y-95064403D01*
X161207643Y-95159457D01*
X161209338Y-95253678D01*
X161212319Y-95340459D01*
X161216563Y-95413196D01*
X161222046Y-95465282D01*
X161234110Y-95542781D01*
X161249070Y-95637527D01*
X161262743Y-95722922D01*
X161264520Y-95734012D01*
X161274902Y-95802974D01*
X161283067Y-95863948D01*
X161287378Y-95904848D01*
X161291392Y-95950983D01*
X161299548Y-96026307D01*
X161309907Y-96110839D01*
X161320987Y-96191933D01*
X161322872Y-96203056D01*
X161333491Y-96238726D01*
X161345802Y-96253108D01*
X161353743Y-96248574D01*
X161357715Y-96224560D01*
X161356730Y-96195792D01*
X161360929Y-96163384D01*
X161522791Y-96163384D01*
X161530947Y-96171541D01*
X161539104Y-96163384D01*
X161530947Y-96155228D01*
X161522791Y-96163384D01*
X161360929Y-96163384D01*
X161364656Y-96134624D01*
X161382264Y-96061145D01*
X161407118Y-95981655D01*
X161436782Y-95902453D01*
X161468823Y-95829839D01*
X161500806Y-95770111D01*
X161530295Y-95729570D01*
X161554856Y-95714515D01*
X161569922Y-95711983D01*
X161558827Y-95700904D01*
X161554405Y-95696392D01*
X161555193Y-95676807D01*
X161573835Y-95641521D01*
X161612324Y-95586265D01*
X161618881Y-95577441D01*
X161657056Y-95529123D01*
X161689318Y-95493024D01*
X161709266Y-95476396D01*
X161723251Y-95465968D01*
X161740204Y-95435098D01*
X161751192Y-95414821D01*
X161782595Y-95393540D01*
X161802738Y-95384065D01*
X161816432Y-95363420D01*
X161816500Y-95362309D01*
X161832330Y-95344546D01*
X161867544Y-95330923D01*
X161872548Y-95329761D01*
X161900098Y-95318886D01*
X161899792Y-95308038D01*
X161900569Y-95300397D01*
X161924981Y-95286924D01*
X161975728Y-95267456D01*
X162054574Y-95241322D01*
X162163284Y-95207850D01*
X162166977Y-95206908D01*
X162204822Y-95202252D01*
X162266257Y-95198858D01*
X162343628Y-95197037D01*
X162429279Y-95197098D01*
X162462385Y-95197433D01*
X162550658Y-95197006D01*
X162611095Y-95194035D01*
X162647308Y-95188248D01*
X162662908Y-95179370D01*
X162680857Y-95167284D01*
X162717027Y-95174597D01*
X162727358Y-95177929D01*
X162760758Y-95175363D01*
X162779796Y-95145913D01*
X162784802Y-95088621D01*
X162776105Y-95002527D01*
X162767466Y-94943568D01*
X162759914Y-94886878D01*
X162755821Y-94849637D01*
X162751132Y-94819529D01*
X162740342Y-94788462D01*
X162736627Y-94778675D01*
X162747332Y-94768587D01*
X162757426Y-94765556D01*
X162749740Y-94748195D01*
X162742284Y-94735955D01*
X162729016Y-94698607D01*
X162718569Y-94651759D01*
X162712525Y-94605617D01*
X162712467Y-94570383D01*
X162719976Y-94556262D01*
X162728728Y-94554534D01*
X162719171Y-94543943D01*
X162711068Y-94529419D01*
X162698493Y-94488038D01*
X162684634Y-94427339D01*
X162682624Y-94416356D01*
X162964309Y-94416356D01*
X162966511Y-94444297D01*
X162975136Y-94497210D01*
X162990662Y-94578501D01*
X162998196Y-94621768D01*
X163002784Y-94663008D01*
X163001319Y-94682137D01*
X162999535Y-94696986D01*
X163007793Y-94729069D01*
X163008908Y-94732212D01*
X163018591Y-94770495D01*
X163029677Y-94828371D01*
X163039981Y-94894604D01*
X163050705Y-94969791D01*
X163062994Y-95051649D01*
X163068869Y-95088621D01*
X163073748Y-95119325D01*
X163080324Y-95160564D01*
X163090674Y-95231632D01*
X163098179Y-95290616D01*
X163100949Y-95314942D01*
X163107166Y-95361381D01*
X163115289Y-95406621D01*
X163128112Y-95467138D01*
X163129189Y-95471124D01*
X163144706Y-95506413D01*
X163172648Y-95557217D01*
X163207817Y-95613959D01*
X163209988Y-95617294D01*
X163247925Y-95682558D01*
X163279997Y-95749551D01*
X163299463Y-95804272D01*
X163307256Y-95833425D01*
X163321437Y-95877630D01*
X163332629Y-95902153D01*
X163340473Y-95915783D01*
X163358649Y-95962849D01*
X163380742Y-96034766D01*
X163405375Y-96126887D01*
X163431169Y-96234564D01*
X163444365Y-96303139D01*
X163460367Y-96444243D01*
X163464483Y-96569553D01*
X163465251Y-96592946D01*
X163458822Y-96736563D01*
X163440882Y-96862410D01*
X163440322Y-96865060D01*
X163427483Y-96921355D01*
X163416173Y-96963555D01*
X163408782Y-96982702D01*
X163407927Y-96985143D01*
X163421400Y-97002251D01*
X163456712Y-97029105D01*
X163508181Y-97061711D01*
X163570125Y-97096078D01*
X163638154Y-97130299D01*
X163729113Y-97171777D01*
X163823419Y-97209039D01*
X163928250Y-97244657D01*
X164050782Y-97281206D01*
X164198192Y-97321257D01*
X164254350Y-97336112D01*
X164319630Y-97353624D01*
X164368729Y-97367084D01*
X164393953Y-97374403D01*
X164395445Y-97374877D01*
X164429563Y-97382385D01*
X164475520Y-97389239D01*
X164548423Y-97396524D01*
X164638986Y-97403492D01*
X164735532Y-97409386D01*
X164828447Y-97413690D01*
X164908115Y-97415888D01*
X164964923Y-97415465D01*
X165016123Y-97411847D01*
X165099397Y-97403293D01*
X165197444Y-97391286D01*
X165302392Y-97376960D01*
X165406370Y-97361449D01*
X165501507Y-97345885D01*
X165579932Y-97331403D01*
X165633773Y-97319136D01*
X165678903Y-97306228D01*
X165758580Y-97282024D01*
X165838308Y-97256418D01*
X165907599Y-97232813D01*
X165955963Y-97214612D01*
X165982774Y-97203501D01*
X166029374Y-97184442D01*
X166048498Y-97176581D01*
X166126131Y-97143178D01*
X166225253Y-97098833D01*
X166339951Y-97046178D01*
X166362818Y-97035661D01*
X166418537Y-97010896D01*
X166460090Y-96993671D01*
X166479822Y-96987212D01*
X166485623Y-96985995D01*
X166515773Y-96969835D01*
X166558860Y-96939812D01*
X166606724Y-96902224D01*
X166651204Y-96863367D01*
X166684140Y-96829539D01*
X166696151Y-96814213D01*
X166714458Y-96783207D01*
X166727653Y-96744823D01*
X166737089Y-96692748D01*
X166744123Y-96620670D01*
X166744154Y-96620160D01*
X166938847Y-96620160D01*
X166947004Y-96628317D01*
X166955161Y-96620160D01*
X166947004Y-96612003D01*
X166938847Y-96620160D01*
X166744154Y-96620160D01*
X166746139Y-96587533D01*
X166775713Y-96587533D01*
X166783870Y-96595690D01*
X166792026Y-96587533D01*
X166922534Y-96587533D01*
X166930690Y-96595690D01*
X166938847Y-96587533D01*
X166930690Y-96579377D01*
X166922534Y-96587533D01*
X166792026Y-96587533D01*
X166783870Y-96579377D01*
X166775713Y-96587533D01*
X166746139Y-96587533D01*
X166748124Y-96554906D01*
X166775713Y-96554906D01*
X166783870Y-96563063D01*
X166792026Y-96554906D01*
X166783870Y-96546750D01*
X166775713Y-96554906D01*
X166748124Y-96554906D01*
X166750109Y-96522280D01*
X166751483Y-96498339D01*
X166757590Y-96413167D01*
X166765762Y-96317769D01*
X166772424Y-96250754D01*
X167015370Y-96250754D01*
X167016304Y-96276963D01*
X167018876Y-96284414D01*
X167046825Y-96315554D01*
X167100578Y-96351648D01*
X167175584Y-96390280D01*
X167267292Y-96429031D01*
X167371153Y-96465485D01*
X167432900Y-96487067D01*
X167510408Y-96518109D01*
X167575071Y-96547975D01*
X167593830Y-96557548D01*
X167673817Y-96596607D01*
X167744579Y-96628464D01*
X167801204Y-96651122D01*
X167838782Y-96662581D01*
X167852399Y-96660842D01*
X167849670Y-96644654D01*
X167840057Y-96604430D01*
X167825906Y-96551624D01*
X167824754Y-96547409D01*
X167815970Y-96506314D01*
X167808985Y-96453464D01*
X167803537Y-96384684D01*
X167799362Y-96295801D01*
X167796199Y-96182642D01*
X167793785Y-96041034D01*
X167792774Y-95950972D01*
X167792460Y-95816965D01*
X167792661Y-95804489D01*
X167803459Y-95804489D01*
X167811615Y-95812646D01*
X167819772Y-95804489D01*
X167811615Y-95796332D01*
X167803459Y-95804489D01*
X167792661Y-95804489D01*
X167793046Y-95780543D01*
X167974882Y-95780543D01*
X167975133Y-95804489D01*
X167976049Y-95891795D01*
X167979315Y-96009073D01*
X167984593Y-96127937D01*
X167991795Y-96243945D01*
X168000835Y-96352658D01*
X168011625Y-96449635D01*
X168024076Y-96530436D01*
X168029978Y-96554782D01*
X168050267Y-96613422D01*
X168077619Y-96676706D01*
X168106623Y-96732648D01*
X168131870Y-96769262D01*
X168156997Y-96790475D01*
X168209055Y-96806374D01*
X168264261Y-96790173D01*
X168270630Y-96785599D01*
X168300029Y-96747308D01*
X168334588Y-96678219D01*
X168373765Y-96579377D01*
X168373982Y-96578782D01*
X168394795Y-96524313D01*
X168415658Y-96473339D01*
X168420586Y-96461252D01*
X168439151Y-96408316D01*
X168456124Y-96350989D01*
X168462082Y-96330065D01*
X168478084Y-96284687D01*
X168492215Y-96257186D01*
X168499589Y-96246797D01*
X168500799Y-96236795D01*
X168499847Y-96223735D01*
X168505332Y-96186979D01*
X168516232Y-96134836D01*
X168526074Y-96090893D01*
X168543865Y-96006697D01*
X168559072Y-95929536D01*
X168569677Y-95879478D01*
X168572459Y-95869743D01*
X168619130Y-95869743D01*
X168627286Y-95877899D01*
X168635443Y-95869743D01*
X168627286Y-95861586D01*
X168619130Y-95869743D01*
X168572459Y-95869743D01*
X168579663Y-95844532D01*
X168586503Y-95834118D01*
X168589962Y-95830585D01*
X168594933Y-95803577D01*
X168598448Y-95758012D01*
X168600035Y-95726848D01*
X168603975Y-95659401D01*
X168609118Y-95578177D01*
X168614761Y-95494534D01*
X168618561Y-95409464D01*
X168615256Y-95258323D01*
X168599975Y-95112799D01*
X168573858Y-94978172D01*
X168542549Y-94874624D01*
X168717010Y-94874624D01*
X168725167Y-94882781D01*
X168733324Y-94874624D01*
X168725167Y-94866467D01*
X168717010Y-94874624D01*
X168542549Y-94874624D01*
X168538043Y-94859721D01*
X168493667Y-94762726D01*
X168441868Y-94692468D01*
X168419557Y-94671948D01*
X168391323Y-94652490D01*
X168377759Y-94652557D01*
X168374475Y-94658719D01*
X168351101Y-94670706D01*
X168328605Y-94678732D01*
X168290376Y-94709657D01*
X168247473Y-94757485D01*
X168205814Y-94815434D01*
X168171318Y-94876722D01*
X168169863Y-94879801D01*
X168143079Y-94943886D01*
X168114705Y-95023516D01*
X168086549Y-95112085D01*
X168060417Y-95202988D01*
X168038119Y-95289620D01*
X168021460Y-95365374D01*
X168012250Y-95423645D01*
X168012295Y-95457829D01*
X168012547Y-95458986D01*
X168003204Y-95470064D01*
X167992956Y-95484599D01*
X167984851Y-95527345D01*
X167979196Y-95593877D01*
X167975902Y-95679757D01*
X167974882Y-95780543D01*
X167793046Y-95780543D01*
X167794229Y-95706912D01*
X167798370Y-95615334D01*
X167805176Y-95536751D01*
X167814935Y-95465684D01*
X167827938Y-95396653D01*
X167835975Y-95359641D01*
X167851363Y-95291265D01*
X167869538Y-95212254D01*
X167888028Y-95133228D01*
X167904365Y-95064809D01*
X167916080Y-95017615D01*
X167928771Y-94976159D01*
X167956939Y-94904391D01*
X167992775Y-94827551D01*
X168032930Y-94751512D01*
X168074054Y-94682146D01*
X168112798Y-94625328D01*
X168122874Y-94613609D01*
X168162354Y-94613609D01*
X168170511Y-94621766D01*
X168178667Y-94613609D01*
X168170511Y-94605452D01*
X168162354Y-94613609D01*
X168122874Y-94613609D01*
X168145812Y-94586930D01*
X168169746Y-94572825D01*
X168180811Y-94568284D01*
X168205343Y-94548480D01*
X168219972Y-94525276D01*
X168212999Y-94501090D01*
X168179697Y-94491258D01*
X168172894Y-94490787D01*
X168134127Y-94481958D01*
X168086857Y-94465486D01*
X168050801Y-94449877D01*
X167991174Y-94422287D01*
X167920157Y-94388190D01*
X167843586Y-94350521D01*
X167815225Y-94336281D01*
X168064473Y-94336281D01*
X168072630Y-94344438D01*
X168080787Y-94336281D01*
X168072630Y-94328124D01*
X168064473Y-94336281D01*
X167815225Y-94336281D01*
X167767295Y-94312216D01*
X167750608Y-94303654D01*
X168031846Y-94303654D01*
X168040003Y-94311811D01*
X168048160Y-94303654D01*
X168040003Y-94295497D01*
X168031846Y-94303654D01*
X167750608Y-94303654D01*
X167697118Y-94276208D01*
X167638889Y-94245434D01*
X167598444Y-94222828D01*
X167581617Y-94211325D01*
X167569540Y-94203167D01*
X167537403Y-94197556D01*
X167531379Y-94197158D01*
X167491086Y-94185726D01*
X167445811Y-94163447D01*
X167436311Y-94157786D01*
X167394382Y-94135482D01*
X167364243Y-94123371D01*
X167342688Y-94117933D01*
X167301821Y-94106637D01*
X167291929Y-94104060D01*
X167269963Y-94106856D01*
X167263918Y-94134539D01*
X167263908Y-94134852D01*
X167261400Y-94178833D01*
X167257092Y-94230244D01*
X167254182Y-94259924D01*
X167248262Y-94320677D01*
X167242006Y-94385221D01*
X167237752Y-94427434D01*
X167230752Y-94491423D01*
X167224782Y-94540199D01*
X167224445Y-94542672D01*
X167212352Y-94633034D01*
X167202421Y-94711374D01*
X167193664Y-94786595D01*
X167185091Y-94867606D01*
X167175714Y-94963312D01*
X167164543Y-95082620D01*
X167163341Y-95095327D01*
X167154912Y-95171632D01*
X167146028Y-95233674D01*
X167137675Y-95275366D01*
X167130840Y-95290616D01*
X167126602Y-95291440D01*
X167125523Y-95305427D01*
X167126787Y-95308830D01*
X167128356Y-95333982D01*
X167126139Y-95382437D01*
X167119969Y-95455994D01*
X167109684Y-95556453D01*
X167095118Y-95685613D01*
X167076107Y-95845273D01*
X167068152Y-95910857D01*
X167057544Y-95998608D01*
X167049974Y-96062257D01*
X167044887Y-96107006D01*
X167041734Y-96138058D01*
X167039960Y-96160615D01*
X167039015Y-96179879D01*
X167038346Y-96201052D01*
X167038069Y-96207168D01*
X167032496Y-96238311D01*
X167022771Y-96246408D01*
X167015370Y-96250754D01*
X166772424Y-96250754D01*
X166774622Y-96228638D01*
X166785715Y-96125500D01*
X166796431Y-96022495D01*
X166806494Y-95921010D01*
X166817583Y-95804489D01*
X166821496Y-95766432D01*
X166831033Y-95687365D01*
X166841056Y-95616885D01*
X166846362Y-95581110D01*
X166856385Y-95502983D01*
X166864226Y-95429280D01*
X166864838Y-95422647D01*
X166871738Y-95354616D01*
X166880837Y-95272546D01*
X166890336Y-95192736D01*
X166910587Y-95027358D01*
X166930748Y-94858070D01*
X166948963Y-94700386D01*
X166964016Y-94564669D01*
X166966402Y-94542712D01*
X166973848Y-94475750D01*
X166980493Y-94417848D01*
X166982124Y-94403996D01*
X166995846Y-94286084D01*
X167005674Y-94196331D01*
X167011663Y-94130904D01*
X167013868Y-94085970D01*
X167012343Y-94057694D01*
X167007142Y-94042243D01*
X166998319Y-94035784D01*
X166985930Y-94034483D01*
X166940692Y-94023934D01*
X166875269Y-93992560D01*
X166794685Y-93942937D01*
X166702817Y-93877656D01*
X166603543Y-93799305D01*
X166500742Y-93710475D01*
X166467552Y-93680583D01*
X166420441Y-93638397D01*
X166385958Y-93607829D01*
X166369881Y-93594020D01*
X166361617Y-93586616D01*
X166331539Y-93552158D01*
X166291609Y-93500372D01*
X166247057Y-93438625D01*
X166203112Y-93374283D01*
X166165001Y-93314712D01*
X166137954Y-93267278D01*
X166121492Y-93233784D01*
X166101817Y-93184251D01*
X166095365Y-93143707D01*
X166095627Y-93140811D01*
X166323633Y-93140811D01*
X166330853Y-93173956D01*
X166351736Y-93216836D01*
X166389414Y-93277500D01*
X166426195Y-93329848D01*
X166504644Y-93425151D01*
X166596463Y-93521316D01*
X166696272Y-93613767D01*
X166798694Y-93697926D01*
X166898353Y-93769218D01*
X166989869Y-93823066D01*
X167067867Y-93854892D01*
X167075835Y-93857055D01*
X167117324Y-93866702D01*
X167142765Y-93870022D01*
X167144609Y-93869743D01*
X167170638Y-93861202D01*
X167216088Y-93843464D01*
X167272672Y-93820077D01*
X167332099Y-93794583D01*
X167386083Y-93770531D01*
X167426333Y-93751464D01*
X167444563Y-93740928D01*
X167457111Y-93731133D01*
X167490718Y-93708221D01*
X167536420Y-93678678D01*
X167572774Y-93653713D01*
X167619831Y-93615564D01*
X167650614Y-93583361D01*
X167682267Y-93541028D01*
X167717813Y-93495812D01*
X167721741Y-93490883D01*
X167745014Y-93456831D01*
X167754518Y-93433969D01*
X167754760Y-93430567D01*
X167766753Y-93411854D01*
X167770262Y-93409474D01*
X167789730Y-93382536D01*
X167816008Y-93332462D01*
X167846537Y-93265582D01*
X167878757Y-93188228D01*
X167910110Y-93106732D01*
X167938036Y-93027424D01*
X167959976Y-92956636D01*
X167973371Y-92900700D01*
X167975410Y-92890109D01*
X167984783Y-92846790D01*
X167996960Y-92794662D01*
X168000566Y-92778158D01*
X168010817Y-92708988D01*
X168011077Y-92704939D01*
X168178667Y-92704939D01*
X168186824Y-92713095D01*
X168194981Y-92704939D01*
X168186824Y-92696782D01*
X168178667Y-92704939D01*
X168011077Y-92704939D01*
X168015134Y-92641766D01*
X168015496Y-92614078D01*
X168018415Y-92582313D01*
X168026603Y-92574429D01*
X168042852Y-92584669D01*
X168058881Y-92596906D01*
X168059757Y-92592235D01*
X168042406Y-92564378D01*
X168028047Y-92533924D01*
X168026549Y-92525491D01*
X168194981Y-92525491D01*
X168203137Y-92533648D01*
X168211294Y-92525491D01*
X168203137Y-92517334D01*
X168194981Y-92525491D01*
X168026549Y-92525491D01*
X168019037Y-92483187D01*
X168018213Y-92409401D01*
X168018461Y-92401371D01*
X168019293Y-92358261D01*
X168018470Y-92318986D01*
X168015245Y-92277565D01*
X168008870Y-92228019D01*
X167998597Y-92164369D01*
X167983678Y-92080634D01*
X167963366Y-91970834D01*
X167954593Y-91923736D01*
X167941436Y-91853445D01*
X167932337Y-91806286D01*
X167925995Y-91776361D01*
X167921110Y-91757769D01*
X167916383Y-91744613D01*
X167910514Y-91730993D01*
X167905813Y-91714192D01*
X167909013Y-91686131D01*
X167911848Y-91679157D01*
X167902721Y-91669036D01*
X167900403Y-91668446D01*
X167882506Y-91651222D01*
X167859391Y-91618768D01*
X167846090Y-91595626D01*
X168015533Y-91595626D01*
X168023690Y-91603782D01*
X168031846Y-91595626D01*
X168023690Y-91587469D01*
X168015533Y-91595626D01*
X167846090Y-91595626D01*
X167838690Y-91582752D01*
X167828034Y-91554842D01*
X167822878Y-91541857D01*
X167807533Y-91512125D01*
X167797617Y-91487591D01*
X167798595Y-91467263D01*
X167801074Y-91463699D01*
X167791414Y-91456962D01*
X167781854Y-91451705D01*
X167758346Y-91425094D01*
X167730911Y-91383551D01*
X167713854Y-91356154D01*
X167689466Y-91323056D01*
X167674122Y-91310141D01*
X167670643Y-91308850D01*
X167653220Y-91288525D01*
X167633403Y-91253044D01*
X167656638Y-91253044D01*
X167664794Y-91261201D01*
X167672951Y-91253044D01*
X167664794Y-91244887D01*
X167656638Y-91253044D01*
X167633403Y-91253044D01*
X167632457Y-91251350D01*
X167625438Y-91237792D01*
X167605395Y-91210634D01*
X167590741Y-91206488D01*
X167589713Y-91207846D01*
X167582680Y-91233807D01*
X167576880Y-91281858D01*
X167573483Y-91342768D01*
X167572554Y-91367070D01*
X167567415Y-91448503D01*
X167559454Y-91540781D01*
X167549960Y-91628253D01*
X167542124Y-91687532D01*
X167530403Y-91751742D01*
X167514288Y-91804125D01*
X167489770Y-91856803D01*
X167452842Y-91921894D01*
X167380156Y-92043627D01*
X167303746Y-92168218D01*
X167236109Y-92274748D01*
X167179498Y-92359674D01*
X167136170Y-92419454D01*
X167135153Y-92420753D01*
X167097184Y-92465679D01*
X167050863Y-92515602D01*
X167002202Y-92564650D01*
X166957214Y-92606954D01*
X166921908Y-92636641D01*
X166902299Y-92647842D01*
X166887672Y-92654479D01*
X166861071Y-92676390D01*
X166830806Y-92704285D01*
X166785624Y-92741681D01*
X166740061Y-92776053D01*
X166702400Y-92801214D01*
X166680923Y-92810976D01*
X166677514Y-92811218D01*
X166658800Y-92823211D01*
X166651762Y-92832651D01*
X166620452Y-92859541D01*
X166572591Y-92893233D01*
X166516294Y-92928198D01*
X166459673Y-92958906D01*
X166428589Y-92975551D01*
X166390463Y-93000424D01*
X166372319Y-93018693D01*
X166367941Y-93026575D01*
X166352573Y-93031831D01*
X166347823Y-93030527D01*
X166338242Y-93044160D01*
X166333688Y-93072403D01*
X166325879Y-93114366D01*
X166323633Y-93140811D01*
X166095627Y-93140811D01*
X166099323Y-93099968D01*
X166113005Y-93030500D01*
X166134217Y-92968887D01*
X166166798Y-92922747D01*
X166217245Y-92883391D01*
X166292054Y-92842126D01*
X166364658Y-92803672D01*
X166483733Y-92734406D01*
X166600815Y-92659608D01*
X166706550Y-92585353D01*
X166791584Y-92517716D01*
X166799519Y-92510757D01*
X166827312Y-92483885D01*
X166832027Y-92470961D01*
X166816054Y-92467034D01*
X166788857Y-92465124D01*
X166743086Y-92460095D01*
X166698760Y-92456024D01*
X166626153Y-92452241D01*
X166535825Y-92449258D01*
X166435553Y-92447192D01*
X166333112Y-92446158D01*
X166236280Y-92446272D01*
X166152834Y-92447648D01*
X166090549Y-92450403D01*
X166047993Y-92453612D01*
X165996678Y-92459103D01*
X165968240Y-92466186D01*
X165956522Y-92476795D01*
X165955367Y-92492864D01*
X165955827Y-92497022D01*
X165960225Y-92533659D01*
X165967280Y-92590112D01*
X165975698Y-92655998D01*
X165976486Y-92662104D01*
X165986025Y-92736134D01*
X165995122Y-92806924D01*
X166001904Y-92859916D01*
X166004278Y-92878264D01*
X166011272Y-92929706D01*
X166016667Y-92965953D01*
X166017706Y-92972544D01*
X166023328Y-93011385D01*
X166031382Y-93069586D01*
X166040489Y-93137244D01*
X166047084Y-93186809D01*
X166058293Y-93270233D01*
X166067000Y-93333203D01*
X166074358Y-93383761D01*
X166081523Y-93429954D01*
X166089647Y-93479826D01*
X166094122Y-93508206D01*
X166105111Y-93586541D01*
X166113798Y-93659274D01*
X166118646Y-93702425D01*
X166128379Y-93779978D01*
X166138632Y-93853856D01*
X166145165Y-93905874D01*
X166148260Y-93949580D01*
X166146610Y-93970906D01*
X166145440Y-93987722D01*
X166154652Y-94021025D01*
X166161946Y-94046809D01*
X166172895Y-94099475D01*
X166185198Y-94169167D01*
X166197322Y-94247733D01*
X166224416Y-94436514D01*
X166381792Y-94472206D01*
X166422847Y-94482287D01*
X166514767Y-94511761D01*
X166584850Y-94544960D01*
X166629521Y-94579948D01*
X166645205Y-94614791D01*
X166646734Y-94624934D01*
X166660420Y-94638079D01*
X166672260Y-94646262D01*
X166685915Y-94674784D01*
X166693935Y-94700373D01*
X166710476Y-94744116D01*
X166722144Y-94773523D01*
X166749581Y-94867860D01*
X166768599Y-94971033D01*
X166775713Y-95065856D01*
X166772687Y-95139628D01*
X166751889Y-95250984D01*
X166709512Y-95344479D01*
X166643398Y-95425986D01*
X166642925Y-95426452D01*
X166602968Y-95467924D01*
X166574494Y-95501484D01*
X166563638Y-95519907D01*
X166559262Y-95537310D01*
X166531474Y-95568192D01*
X166486739Y-95591411D01*
X166435237Y-95600571D01*
X166372090Y-95600571D01*
X166385640Y-95669903D01*
X166387621Y-95679723D01*
X166401922Y-95741305D01*
X166417192Y-95796332D01*
X166421818Y-95818752D01*
X166424253Y-95830550D01*
X166431449Y-95894434D01*
X166437179Y-95976619D01*
X166441282Y-96069845D01*
X166443595Y-96166850D01*
X166443957Y-96260373D01*
X166442205Y-96343156D01*
X166438178Y-96407936D01*
X166431714Y-96447454D01*
X166418791Y-96484841D01*
X166383963Y-96566619D01*
X166344447Y-96640660D01*
X166306329Y-96694953D01*
X166305830Y-96695523D01*
X166274010Y-96732573D01*
X166249232Y-96762545D01*
X166234618Y-96776320D01*
X166196288Y-96804061D01*
X166147646Y-96833931D01*
X166112390Y-96852565D01*
X166066191Y-96869902D01*
X166014464Y-96878107D01*
X165943728Y-96880243D01*
X165885930Y-96878418D01*
X165810376Y-96865830D01*
X165741133Y-96837406D01*
X165664472Y-96788642D01*
X165657442Y-96784159D01*
X165632995Y-96781239D01*
X165602802Y-96802721D01*
X165596439Y-96808231D01*
X165556958Y-96835406D01*
X165504154Y-96865529D01*
X165448209Y-96893437D01*
X165399305Y-96913968D01*
X165367626Y-96921958D01*
X165352049Y-96919497D01*
X165328942Y-96901270D01*
X165310605Y-96862013D01*
X165295517Y-96797860D01*
X165282153Y-96704945D01*
X165274981Y-96650244D01*
X165267919Y-96608118D01*
X165262796Y-96591069D01*
X165260395Y-96602776D01*
X165251011Y-96689172D01*
X165216746Y-96811979D01*
X165161967Y-96926928D01*
X165091250Y-97022655D01*
X165031760Y-97072739D01*
X164936745Y-97122261D01*
X164828763Y-97153518D01*
X164717107Y-97164021D01*
X164611067Y-97151282D01*
X164542429Y-97131042D01*
X164411065Y-97074158D01*
X164295532Y-96999526D01*
X164199188Y-96910550D01*
X164125391Y-96810634D01*
X164077497Y-96703179D01*
X164058865Y-96591589D01*
X164060210Y-96552153D01*
X164068657Y-96489943D01*
X164082685Y-96427226D01*
X164099994Y-96372234D01*
X164118280Y-96333202D01*
X164135244Y-96318362D01*
X164141134Y-96316251D01*
X164149252Y-96295732D01*
X164159738Y-96275547D01*
X164189204Y-96241518D01*
X164230993Y-96201930D01*
X164270805Y-96167150D01*
X164325109Y-96119423D01*
X164368566Y-96080920D01*
X164464852Y-96010837D01*
X164575437Y-95960932D01*
X164689384Y-95937061D01*
X164800950Y-95940391D01*
X164904393Y-95972088D01*
X164932446Y-95986615D01*
X165032294Y-96060595D01*
X165117342Y-96160598D01*
X165185000Y-96283056D01*
X165232678Y-96424399D01*
X165256772Y-96522280D01*
X165249153Y-96416242D01*
X165245031Y-96364306D01*
X165239324Y-96303846D01*
X165234260Y-96261265D01*
X165230063Y-96228579D01*
X165223725Y-96170424D01*
X165217582Y-96106287D01*
X165212548Y-96053728D01*
X165206646Y-96000614D01*
X165201993Y-95967623D01*
X165198451Y-95947399D01*
X165194547Y-95918683D01*
X165192859Y-95916122D01*
X165168163Y-95908877D01*
X165118723Y-95903948D01*
X165050556Y-95902031D01*
X165006793Y-95901133D01*
X164914130Y-95890564D01*
X164836965Y-95864587D01*
X164764888Y-95818810D01*
X164687490Y-95748841D01*
X164632921Y-95687356D01*
X164570899Y-95584247D01*
X164538856Y-95471909D01*
X164535221Y-95346183D01*
X164539454Y-95304782D01*
X164547302Y-95258885D01*
X164555747Y-95234244D01*
X164559002Y-95229236D01*
X164573642Y-95197051D01*
X164589607Y-95151952D01*
X164592092Y-95144299D01*
X164640596Y-95044802D01*
X164711934Y-94958309D01*
X164799495Y-94891316D01*
X164896667Y-94850317D01*
X164950074Y-94836468D01*
X165002973Y-94821504D01*
X165034107Y-94808536D01*
X165049165Y-94793665D01*
X165053836Y-94772991D01*
X165053808Y-94742616D01*
X165052971Y-94714681D01*
X165049736Y-94656303D01*
X165044816Y-94588861D01*
X165038949Y-94520680D01*
X165032871Y-94460088D01*
X165027321Y-94415408D01*
X165023034Y-94394969D01*
X165022511Y-94393765D01*
X165018094Y-94369537D01*
X165012544Y-94322970D01*
X165006934Y-94262870D01*
X165006840Y-94261732D01*
X165000783Y-94192637D01*
X164994599Y-94128627D01*
X164989613Y-94083423D01*
X164987404Y-94065596D01*
X164980387Y-94006607D01*
X164973327Y-93944759D01*
X164969718Y-93913519D01*
X164961687Y-93847059D01*
X164951709Y-93766769D01*
X164941154Y-93683744D01*
X164934783Y-93633061D01*
X164923943Y-93542012D01*
X164914435Y-93456572D01*
X164907778Y-93390102D01*
X164901778Y-93328911D01*
X164895655Y-93275664D01*
X164890865Y-93243281D01*
X164890530Y-93241557D01*
X164885695Y-93207297D01*
X164879574Y-93152541D01*
X164873409Y-93088304D01*
X164865371Y-92999827D01*
X164858492Y-92930467D01*
X164852054Y-92873401D01*
X164839163Y-92876266D01*
X164805917Y-92891631D01*
X164760080Y-92915319D01*
X164709413Y-92943075D01*
X164661675Y-92970648D01*
X164624627Y-92993784D01*
X164606028Y-93008231D01*
X164583835Y-93024736D01*
X164537320Y-93049555D01*
X164474373Y-93078595D01*
X164402373Y-93108463D01*
X164328699Y-93135765D01*
X164206349Y-93178028D01*
X164206349Y-93324849D01*
X164206346Y-93329882D01*
X164205262Y-93404274D01*
X164201267Y-93469328D01*
X164192971Y-93531705D01*
X164178986Y-93598066D01*
X164157924Y-93675071D01*
X164128395Y-93769383D01*
X164089011Y-93887662D01*
X164076792Y-93922384D01*
X164048670Y-93995495D01*
X164017284Y-94070525D01*
X163985604Y-94140990D01*
X163956596Y-94200406D01*
X163933231Y-94242288D01*
X163918478Y-94260152D01*
X163913761Y-94263217D01*
X163904550Y-94286204D01*
X163895323Y-94311173D01*
X163871924Y-94344438D01*
X163848973Y-94374349D01*
X163839297Y-94393916D01*
X163837336Y-94399532D01*
X163817790Y-94425923D01*
X163782165Y-94465434D01*
X163736512Y-94512149D01*
X163686884Y-94560147D01*
X163639335Y-94603510D01*
X163599917Y-94636321D01*
X163574682Y-94652660D01*
X163547199Y-94658680D01*
X163507822Y-94652801D01*
X163452194Y-94630478D01*
X163421516Y-94616994D01*
X163364798Y-94595118D01*
X163320634Y-94581722D01*
X163280484Y-94567525D01*
X163251143Y-94547307D01*
X163238444Y-94535199D01*
X163213311Y-94523806D01*
X163211306Y-94523586D01*
X163184762Y-94514302D01*
X163139412Y-94494086D01*
X163083811Y-94466709D01*
X163072456Y-94460897D01*
X163020816Y-94434885D01*
X162983160Y-94416599D01*
X162966975Y-94409691D01*
X162964309Y-94416356D01*
X162682624Y-94416356D01*
X162671292Y-94354452D01*
X162661494Y-94296984D01*
X162646013Y-94226226D01*
X162626846Y-94174979D01*
X162599429Y-94135296D01*
X162559200Y-94099227D01*
X162501596Y-94058823D01*
X162494907Y-94054309D01*
X162444446Y-94017920D01*
X162400127Y-93982753D01*
X162388879Y-93973195D01*
X162343090Y-93935021D01*
X162295124Y-93895818D01*
X162242038Y-93851743D01*
X162144386Y-93765754D01*
X162040743Y-93669398D01*
X161936296Y-93567870D01*
X161836233Y-93466365D01*
X161745741Y-93370078D01*
X161734626Y-93357475D01*
X161751178Y-93357475D01*
X161759335Y-93365632D01*
X161767492Y-93357475D01*
X161759335Y-93349319D01*
X161751178Y-93357475D01*
X161734626Y-93357475D01*
X161670007Y-93284204D01*
X161614221Y-93213939D01*
X161600282Y-93195056D01*
X161564900Y-93150194D01*
X161538313Y-93120925D01*
X161525436Y-93112847D01*
X161518975Y-93125490D01*
X161510986Y-93158056D01*
X161508027Y-93176300D01*
X161496332Y-93240769D01*
X161479605Y-93326940D01*
X161459334Y-93427592D01*
X161437004Y-93535502D01*
X161414104Y-93643449D01*
X161392118Y-93744211D01*
X161372536Y-93830565D01*
X161369719Y-93842681D01*
X161350946Y-93925136D01*
X161334824Y-93998720D01*
X161322990Y-94055811D01*
X161317082Y-94088785D01*
X161311087Y-94123171D01*
X161303908Y-94146494D01*
X161299282Y-94165053D01*
X161293092Y-94207468D01*
X161287063Y-94263483D01*
X161286712Y-94267273D01*
X161275384Y-94373789D01*
X161262874Y-94464915D01*
X161250358Y-94532042D01*
X161247589Y-94546094D01*
X161240649Y-94591526D01*
X161233905Y-94646236D01*
X161230115Y-94674293D01*
X161220427Y-94720299D01*
X161209980Y-94746742D01*
X161204366Y-94756650D01*
X160774876Y-94756650D01*
X160765934Y-94752273D01*
X160746654Y-94745871D01*
X160720712Y-94724980D01*
X160702406Y-94699931D01*
X160701646Y-94681617D01*
X160703524Y-94675926D01*
X160686758Y-94670706D01*
X160675471Y-94666068D01*
X160646956Y-94641303D01*
X160612492Y-94602852D01*
X160579138Y-94559492D01*
X160553950Y-94519999D01*
X160543985Y-94493151D01*
X160543294Y-94487638D01*
X160529319Y-94474945D01*
X160529038Y-94474936D01*
X160512560Y-94460917D01*
X160490926Y-94427901D01*
X160470015Y-94387278D01*
X160455704Y-94350435D01*
X160453869Y-94328759D01*
X160454723Y-94320666D01*
X160437703Y-94305817D01*
X160426229Y-94299624D01*
X160416788Y-94283716D01*
X160416901Y-94283021D01*
X160411070Y-94260892D01*
X160394405Y-94218722D01*
X160370231Y-94164990D01*
X160364925Y-94153505D01*
X160324045Y-94046511D01*
X160287994Y-93920221D01*
X160260211Y-93786462D01*
X160259047Y-93778618D01*
X160254943Y-93736715D01*
X160251529Y-93682944D01*
X160249294Y-93628402D01*
X160248726Y-93584186D01*
X160250312Y-93561393D01*
X160251875Y-93556166D01*
X160256727Y-93523900D01*
X160256331Y-93493381D01*
X160250627Y-93479826D01*
X160246454Y-93467443D01*
X160243965Y-93428064D01*
X160243577Y-93367499D01*
X160245106Y-93291729D01*
X160248368Y-93206733D01*
X160253180Y-93118494D01*
X160259357Y-93032991D01*
X160266716Y-92956205D01*
X160269250Y-92934933D01*
X160282667Y-92843211D01*
X160299555Y-92749366D01*
X160316871Y-92670720D01*
X160321499Y-92652222D01*
X160341713Y-92568348D01*
X160363504Y-92474186D01*
X160382899Y-92386827D01*
X160390469Y-92351800D01*
X160406393Y-92278644D01*
X160420155Y-92216075D01*
X160429416Y-92174752D01*
X160438959Y-92132609D01*
X160452954Y-92070005D01*
X160467782Y-92003081D01*
X160482558Y-91940376D01*
X160497959Y-91882287D01*
X160510197Y-91843382D01*
X160517249Y-91819916D01*
X160528423Y-91765744D01*
X160536783Y-91705098D01*
X160541865Y-91669272D01*
X160554785Y-91620144D01*
X160570545Y-91593113D01*
X160581941Y-91580705D01*
X160580748Y-91565555D01*
X160575330Y-91556869D01*
X160574233Y-91546685D01*
X160707119Y-91546685D01*
X160715276Y-91554842D01*
X160723433Y-91546685D01*
X160715276Y-91538529D01*
X160707119Y-91546685D01*
X160574233Y-91546685D01*
X160572039Y-91526322D01*
X160573038Y-91514059D01*
X160690806Y-91514059D01*
X160698963Y-91522215D01*
X160707119Y-91514059D01*
X160698963Y-91505902D01*
X160690806Y-91514059D01*
X160573038Y-91514059D01*
X160575181Y-91487748D01*
X160583242Y-91454679D01*
X160594710Y-91440648D01*
X160595062Y-91440634D01*
X160605087Y-91425653D01*
X160609239Y-91390963D01*
X160609376Y-91386324D01*
X160615594Y-91342933D01*
X160629223Y-91282145D01*
X160647711Y-91215593D01*
X160649360Y-91210196D01*
X160670845Y-91138352D01*
X160690864Y-91069015D01*
X160705278Y-91016499D01*
X160712013Y-90990602D01*
X160720746Y-90957432D01*
X160728545Y-90929235D01*
X160738027Y-90896965D01*
X160751806Y-90851579D01*
X160772498Y-90784033D01*
X160778302Y-90765588D01*
X160797677Y-90710536D01*
X160814409Y-90672072D01*
X160825398Y-90657604D01*
X160829791Y-90656578D01*
X160829880Y-90641954D01*
X160828903Y-90638779D01*
X160830568Y-90609793D01*
X160839569Y-90560401D01*
X160854424Y-90499211D01*
X160857676Y-90487064D01*
X160874502Y-90421922D01*
X160887926Y-90366371D01*
X160895288Y-90331335D01*
X160899723Y-90309251D01*
X160912078Y-90258446D01*
X160927790Y-90200828D01*
X160935112Y-90175125D01*
X160952844Y-90107724D01*
X160962695Y-90058125D01*
X160966775Y-90016339D01*
X160970000Y-90001185D01*
X160982091Y-89995454D01*
X160989492Y-89990725D01*
X160988398Y-89964062D01*
X160986358Y-89933818D01*
X160993344Y-89895223D01*
X160999532Y-89877765D01*
X161002715Y-89852261D01*
X161002459Y-89849135D01*
X161007346Y-89820715D01*
X161019657Y-89778850D01*
X161022783Y-89769556D01*
X161035754Y-89728383D01*
X161042278Y-89703269D01*
X161042676Y-89700806D01*
X161048576Y-89678799D01*
X161051425Y-89668636D01*
X161056503Y-89638015D01*
X161056577Y-89637445D01*
X161062980Y-89605014D01*
X161075449Y-89552573D01*
X161091354Y-89491194D01*
X161106683Y-89420709D01*
X161118593Y-89316540D01*
X161122617Y-89188997D01*
X161122635Y-89180616D01*
X161121910Y-89097355D01*
X161118407Y-89035981D01*
X161110618Y-88986614D01*
X161097038Y-88939370D01*
X161076159Y-88884369D01*
X161047336Y-88822344D01*
X161114955Y-88822344D01*
X161123112Y-88830501D01*
X161131268Y-88822344D01*
X161123112Y-88814187D01*
X161114955Y-88822344D01*
X161047336Y-88822344D01*
X161045197Y-88817742D01*
X161005021Y-88746957D01*
X160966043Y-88691309D01*
X160936451Y-88656566D01*
X160912192Y-88630501D01*
X160902880Y-88623974D01*
X160901914Y-88625251D01*
X160882739Y-88622528D01*
X160846732Y-88609614D01*
X160835587Y-88605473D01*
X160778049Y-88591150D01*
X160690237Y-88576654D01*
X160571370Y-88561869D01*
X160420663Y-88546680D01*
X160393251Y-88542108D01*
X160332126Y-88524144D01*
X160272105Y-88498836D01*
X160250594Y-88487471D01*
X160207175Y-88457822D01*
X160175278Y-88419941D01*
X160144189Y-88362401D01*
X160138714Y-88350950D01*
X160122426Y-88314205D01*
X160111321Y-88280215D01*
X160104452Y-88241906D01*
X160100874Y-88192201D01*
X160099641Y-88124024D01*
X160099728Y-88074914D01*
X160242893Y-88074914D01*
X160243469Y-88138623D01*
X160247184Y-88184357D01*
X160254330Y-88204898D01*
X160260680Y-88213061D01*
X160266657Y-88241980D01*
X160276245Y-88274935D01*
X160299458Y-88313144D01*
X160320704Y-88333874D01*
X160366107Y-88358013D01*
X160432146Y-88375783D01*
X160522755Y-88388136D01*
X160641866Y-88396023D01*
X160769060Y-88407858D01*
X160881512Y-88433734D01*
X160983575Y-88475798D01*
X160987524Y-88477870D01*
X161025804Y-88502788D01*
X161064622Y-88534307D01*
X161094709Y-88564254D01*
X161106798Y-88584458D01*
X161114841Y-88600404D01*
X161138028Y-88627516D01*
X161151801Y-88645084D01*
X161179642Y-88691706D01*
X161211361Y-88753548D01*
X161242490Y-88821224D01*
X161242945Y-88822344D01*
X161268562Y-88885349D01*
X161285110Y-88936538D01*
X161295296Y-88996113D01*
X161301359Y-89073937D01*
X161303187Y-89161939D01*
X161301156Y-89254012D01*
X161295646Y-89344044D01*
X161287036Y-89425926D01*
X161275703Y-89493549D01*
X161262027Y-89540803D01*
X161246385Y-89561578D01*
X161240160Y-89566835D01*
X161239967Y-89590129D01*
X161242098Y-89601744D01*
X161231406Y-89613545D01*
X161224369Y-89615827D01*
X161221959Y-89634651D01*
X161222766Y-89637422D01*
X161222931Y-89663321D01*
X161216040Y-89710526D01*
X161201593Y-89781545D01*
X161179088Y-89878889D01*
X161148025Y-90005067D01*
X161142734Y-90026391D01*
X161126443Y-90095215D01*
X161113553Y-90154276D01*
X161106480Y-90192671D01*
X161105231Y-90201623D01*
X161091980Y-90282555D01*
X161078587Y-90341078D01*
X161066192Y-90372119D01*
X161063733Y-90376386D01*
X161053330Y-90408155D01*
X161044092Y-90453686D01*
X161043494Y-90457407D01*
X161037350Y-90488127D01*
X161026716Y-90532207D01*
X161010769Y-90592627D01*
X160988687Y-90672365D01*
X160959646Y-90774401D01*
X160922825Y-90901714D01*
X160877400Y-91057283D01*
X160868998Y-91086278D01*
X160854876Y-91136456D01*
X160846043Y-91169788D01*
X160836319Y-91205454D01*
X160822377Y-91251355D01*
X160809262Y-91296702D01*
X160798333Y-91342768D01*
X160796081Y-91353814D01*
X160786346Y-91398181D01*
X160772198Y-91460307D01*
X160759665Y-91514059D01*
X160755861Y-91530372D01*
X160753665Y-91539697D01*
X160752039Y-91546685D01*
X160732121Y-91632270D01*
X160708833Y-91733828D01*
X160688473Y-91824014D01*
X160681795Y-91853464D01*
X160665553Y-91921591D01*
X160651141Y-91977608D01*
X160641060Y-92011618D01*
X160625074Y-92065973D01*
X160611046Y-92138711D01*
X160598160Y-92235928D01*
X160593368Y-92269183D01*
X160584515Y-92306895D01*
X160575857Y-92321573D01*
X160570075Y-92328052D01*
X160571834Y-92354006D01*
X160574635Y-92376102D01*
X160573040Y-92416201D01*
X160566662Y-92456699D01*
X160557422Y-92486591D01*
X160547239Y-92494875D01*
X160546388Y-92494493D01*
X160538573Y-92506134D01*
X160534794Y-92539284D01*
X160532687Y-92562264D01*
X160524140Y-92616015D01*
X160510624Y-92685704D01*
X160493846Y-92762036D01*
X160482334Y-92814129D01*
X160467777Y-92889408D01*
X160457883Y-92952827D01*
X160454332Y-92994502D01*
X160454268Y-93005492D01*
X160451644Y-93041249D01*
X160446341Y-93055666D01*
X160445018Y-93057489D01*
X160442169Y-93081844D01*
X160441080Y-93128629D01*
X160441997Y-93190252D01*
X160447320Y-93345884D01*
X160453871Y-93487911D01*
X160461485Y-93604473D01*
X160470457Y-93699304D01*
X160481087Y-93776142D01*
X160493672Y-93838721D01*
X160499175Y-93860485D01*
X160528772Y-93958257D01*
X160566797Y-94062893D01*
X160609284Y-94164734D01*
X160652271Y-94254122D01*
X160691791Y-94321399D01*
X160709475Y-94347761D01*
X160731245Y-94382771D01*
X160739746Y-94400395D01*
X160743064Y-94408374D01*
X160764483Y-94437164D01*
X160801009Y-94479046D01*
X160847052Y-94527974D01*
X160897024Y-94577905D01*
X160945335Y-94622790D01*
X160945794Y-94623196D01*
X160990328Y-94660226D01*
X161021654Y-94681634D01*
X161034636Y-94683904D01*
X161046400Y-94628681D01*
X161061126Y-94541084D01*
X161074439Y-94442318D01*
X161075919Y-94429961D01*
X161083996Y-94363994D01*
X161091612Y-94303654D01*
X161093857Y-94285803D01*
X161101358Y-94221913D01*
X161108348Y-94157481D01*
X161111903Y-94130052D01*
X161121435Y-94084287D01*
X161131976Y-94058100D01*
X161137935Y-94049089D01*
X161139327Y-94031665D01*
X161137677Y-94017707D01*
X161141037Y-93979529D01*
X161149359Y-93927129D01*
X161157321Y-93883772D01*
X161166604Y-93831401D01*
X161172121Y-93797938D01*
X161186456Y-93702451D01*
X161209282Y-93559593D01*
X161233025Y-93420389D01*
X161256406Y-93292016D01*
X161278148Y-93181648D01*
X161296975Y-93096461D01*
X161299005Y-93087989D01*
X161300305Y-93082335D01*
X161493049Y-93082335D01*
X161506477Y-93088304D01*
X161515113Y-93087127D01*
X161517353Y-93077428D01*
X161514962Y-93075476D01*
X161495602Y-93077428D01*
X161493049Y-93082335D01*
X161300305Y-93082335D01*
X161311828Y-93032206D01*
X161321918Y-92985050D01*
X161334158Y-92951242D01*
X161353102Y-92930454D01*
X161363993Y-92922726D01*
X161364753Y-92902733D01*
X161350438Y-92863015D01*
X161347102Y-92855261D01*
X161324506Y-92810426D01*
X161303593Y-92778946D01*
X161295979Y-92769963D01*
X161251935Y-92706704D01*
X161204021Y-92622821D01*
X161156504Y-92527343D01*
X161113653Y-92429297D01*
X161079736Y-92337711D01*
X161059019Y-92261612D01*
X161053176Y-92231400D01*
X161033849Y-92127714D01*
X161020257Y-92044463D01*
X161011453Y-91972487D01*
X161006489Y-91902629D01*
X161004418Y-91825729D01*
X161004292Y-91732630D01*
X161004516Y-91717914D01*
X161164066Y-91717914D01*
X161170232Y-91906801D01*
X161195446Y-92101342D01*
X161203474Y-92146398D01*
X161220416Y-92229018D01*
X161239853Y-92301267D01*
X161264509Y-92369315D01*
X161297106Y-92439329D01*
X161340367Y-92517479D01*
X161397014Y-92609935D01*
X161469772Y-92722864D01*
X161506057Y-92779981D01*
X161540106Y-92837037D01*
X161563216Y-92879896D01*
X161571731Y-92902134D01*
X161573883Y-92912163D01*
X161593174Y-92925170D01*
X161609571Y-92936654D01*
X161641570Y-92970616D01*
X161685141Y-93022603D01*
X161728245Y-93077428D01*
X161736661Y-93088132D01*
X161792508Y-93162718D01*
X161849059Y-93241878D01*
X161865985Y-93263075D01*
X161904143Y-93305192D01*
X161954442Y-93357475D01*
X161954640Y-93357681D01*
X162011691Y-93414855D01*
X162069508Y-93471027D01*
X162122308Y-93520511D01*
X162164304Y-93557622D01*
X162189710Y-93576674D01*
X162210549Y-93593044D01*
X162215355Y-93611556D01*
X162212716Y-93617342D01*
X162220321Y-93622973D01*
X162238410Y-93628688D01*
X162276204Y-93653487D01*
X162327648Y-93693948D01*
X162387764Y-93746132D01*
X162451575Y-93806095D01*
X162479950Y-93833151D01*
X162539261Y-93885784D01*
X162593418Y-93929075D01*
X162636472Y-93958424D01*
X162662476Y-93969229D01*
X162678795Y-93975400D01*
X162706661Y-93997177D01*
X162726477Y-94014134D01*
X162777369Y-94050049D01*
X162845798Y-94093233D01*
X162924541Y-94139363D01*
X163006374Y-94184111D01*
X163084073Y-94223154D01*
X163098315Y-94230018D01*
X163159501Y-94261807D01*
X163210564Y-94291762D01*
X163241650Y-94314192D01*
X163279091Y-94342766D01*
X163365593Y-94381366D01*
X163475001Y-94403962D01*
X163509998Y-94409112D01*
X163551714Y-94418733D01*
X163571547Y-94428305D01*
X163584163Y-94440009D01*
X163608907Y-94435819D01*
X163642871Y-94405905D01*
X163687456Y-94348932D01*
X163744064Y-94263559D01*
X163746797Y-94259230D01*
X163783969Y-94200861D01*
X163817936Y-94148363D01*
X163841652Y-94112632D01*
X163842905Y-94110789D01*
X163863442Y-94076218D01*
X163871924Y-94053486D01*
X163876971Y-94035014D01*
X163892262Y-93994740D01*
X163914218Y-93942906D01*
X163921077Y-93926642D01*
X163945294Y-93861054D01*
X163972650Y-93777753D01*
X164000830Y-93684827D01*
X164027523Y-93590363D01*
X164050418Y-93502449D01*
X164067201Y-93429169D01*
X164075560Y-93378613D01*
X164076339Y-93370950D01*
X164083314Y-93327698D01*
X164091784Y-93300979D01*
X164096262Y-93285162D01*
X164093089Y-93255922D01*
X164082157Y-93231923D01*
X164067879Y-93226848D01*
X164049189Y-93229828D01*
X164014851Y-93220183D01*
X163983507Y-93201196D01*
X163969804Y-93179882D01*
X163969516Y-93176395D01*
X163952263Y-93146004D01*
X163914434Y-93111137D01*
X163864558Y-93078514D01*
X163811163Y-93054857D01*
X163778865Y-93039741D01*
X163725480Y-93007572D01*
X163661480Y-92964168D01*
X163594595Y-92914538D01*
X163535964Y-92869005D01*
X163474383Y-92821200D01*
X163424164Y-92782237D01*
X163392507Y-92757704D01*
X163370234Y-92739705D01*
X163356110Y-92727593D01*
X163627926Y-92727593D01*
X163631606Y-92732545D01*
X163655762Y-92753992D01*
X163697447Y-92787167D01*
X163750768Y-92827289D01*
X163765381Y-92838033D01*
X163836036Y-92890174D01*
X163907170Y-92942924D01*
X163965377Y-92986345D01*
X164004725Y-93014956D01*
X164051936Y-93044552D01*
X164082723Y-93055294D01*
X164101671Y-93049300D01*
X164104578Y-93047772D01*
X164130995Y-93041392D01*
X164173722Y-93034867D01*
X164185236Y-93033402D01*
X164224475Y-93027007D01*
X164261070Y-93017214D01*
X164305809Y-93000670D01*
X164369483Y-92974021D01*
X164379376Y-92969791D01*
X164436803Y-92945252D01*
X164487755Y-92923503D01*
X164494474Y-92920563D01*
X164527381Y-92903470D01*
X164540774Y-92891605D01*
X164541632Y-92889665D01*
X164560999Y-92876593D01*
X164597871Y-92859916D01*
X164607663Y-92855916D01*
X164641358Y-92839085D01*
X164654968Y-92826863D01*
X164663027Y-92817848D01*
X164930700Y-92817848D01*
X164938881Y-92933413D01*
X164938987Y-92934899D01*
X164944217Y-92995773D01*
X164950058Y-93045241D01*
X164955267Y-93072719D01*
X164960221Y-93096399D01*
X164966729Y-93143841D01*
X164972777Y-93202498D01*
X164980747Y-93286585D01*
X164993633Y-93397225D01*
X165006669Y-93479826D01*
X165009225Y-93495828D01*
X165015372Y-93543843D01*
X165022772Y-93609597D01*
X165030341Y-93683744D01*
X165033678Y-93716924D01*
X165043370Y-93804226D01*
X165053728Y-93887663D01*
X165063014Y-93952915D01*
X165065235Y-93967066D01*
X165076094Y-94041227D01*
X165088488Y-94133901D01*
X165103022Y-94249736D01*
X165120300Y-94393378D01*
X165121584Y-94404102D01*
X165127484Y-94452349D01*
X165134360Y-94507572D01*
X165136822Y-94527717D01*
X165144662Y-94596690D01*
X165151666Y-94664070D01*
X165154463Y-94691024D01*
X165163427Y-94747231D01*
X165177503Y-94780766D01*
X165201079Y-94798956D01*
X165238544Y-94809129D01*
X165319464Y-94832277D01*
X165409248Y-94884255D01*
X165483714Y-94962910D01*
X165545380Y-95070385D01*
X165552455Y-95086133D01*
X165572022Y-95136636D01*
X165583540Y-95185354D01*
X165589057Y-95243739D01*
X165590623Y-95323243D01*
X165588262Y-95410642D01*
X165580859Y-95481663D01*
X165569134Y-95527161D01*
X165568559Y-95528445D01*
X165552339Y-95567212D01*
X165543520Y-95592854D01*
X165543181Y-95594304D01*
X165523429Y-95635867D01*
X165485120Y-95689238D01*
X165435124Y-95746517D01*
X165380311Y-95799804D01*
X165327552Y-95841199D01*
X165318277Y-95847858D01*
X165298411Y-95875186D01*
X165298998Y-95916707D01*
X165306602Y-95962088D01*
X165315789Y-96016563D01*
X165318399Y-96034003D01*
X165324919Y-96085111D01*
X165332806Y-96153284D01*
X165340891Y-96228638D01*
X165345717Y-96274002D01*
X165353329Y-96340059D01*
X165359844Y-96390238D01*
X165364228Y-96416242D01*
X165366362Y-96426658D01*
X165372527Y-96468090D01*
X165380284Y-96529768D01*
X165388631Y-96603477D01*
X165396564Y-96681003D01*
X165399287Y-96699186D01*
X165409811Y-96715224D01*
X165431111Y-96706403D01*
X165467670Y-96672164D01*
X165519567Y-96618619D01*
X165487582Y-96537822D01*
X165477207Y-96511559D01*
X165438111Y-96410838D01*
X165409738Y-96333395D01*
X165390435Y-96273707D01*
X165378552Y-96226251D01*
X165372438Y-96185504D01*
X165370442Y-96145942D01*
X165370530Y-96120505D01*
X165376034Y-96070172D01*
X165393122Y-96026308D01*
X165426839Y-95973485D01*
X165482032Y-95908912D01*
X165560704Y-95838460D01*
X165650095Y-95773865D01*
X165739810Y-95723431D01*
X165748893Y-95719445D01*
X165820238Y-95699612D01*
X165902945Y-95691539D01*
X165912259Y-95691460D01*
X165974808Y-95695003D01*
X166024817Y-95709355D01*
X166079778Y-95739235D01*
X166085458Y-95742757D01*
X166167130Y-95793184D01*
X166225042Y-95827425D01*
X166263028Y-95846291D01*
X166284921Y-95850594D01*
X166294553Y-95841144D01*
X166295758Y-95818752D01*
X166292369Y-95784231D01*
X166283905Y-95710543D01*
X166275222Y-95648023D01*
X166267146Y-95609154D01*
X166258624Y-95589097D01*
X166248605Y-95583010D01*
X166240734Y-95582274D01*
X166188840Y-95572466D01*
X166120403Y-95554662D01*
X166046749Y-95532259D01*
X165979204Y-95508652D01*
X165929096Y-95487235D01*
X165912664Y-95478520D01*
X165810396Y-95405668D01*
X165733571Y-95315536D01*
X165683946Y-95211627D01*
X165663275Y-95097446D01*
X165673312Y-94976496D01*
X165684363Y-94929576D01*
X165703429Y-94862229D01*
X165721946Y-94809370D01*
X165724377Y-94803987D01*
X165752792Y-94759868D01*
X165798144Y-94705312D01*
X165854197Y-94646290D01*
X165914714Y-94588776D01*
X165973458Y-94538741D01*
X166024193Y-94502157D01*
X166060681Y-94484997D01*
X166065745Y-94483909D01*
X166089129Y-94474515D01*
X166102524Y-94455837D01*
X166106822Y-94422199D01*
X166102911Y-94367926D01*
X166091683Y-94287341D01*
X166085571Y-94246324D01*
X166075467Y-94175141D01*
X166067636Y-94116050D01*
X166065868Y-94101999D01*
X166057624Y-94039609D01*
X166049970Y-93985542D01*
X166049294Y-93981028D01*
X166040606Y-93922963D01*
X166031672Y-93863192D01*
X166031173Y-93859826D01*
X166022749Y-93795761D01*
X166015880Y-93732684D01*
X166013739Y-93712368D01*
X166006671Y-93654930D01*
X165996877Y-93581930D01*
X165985796Y-93504296D01*
X165965706Y-93366040D01*
X165947228Y-93234338D01*
X165932772Y-93125832D01*
X165922738Y-93043526D01*
X165917526Y-92990423D01*
X165917069Y-92984261D01*
X165913303Y-92945414D01*
X165909797Y-92925170D01*
X165909229Y-92923794D01*
X165903482Y-92900700D01*
X165901868Y-92890228D01*
X165895687Y-92847447D01*
X165887145Y-92786492D01*
X165877596Y-92717222D01*
X165868394Y-92649496D01*
X165860892Y-92593175D01*
X165856444Y-92558118D01*
X165854922Y-92545207D01*
X165850703Y-92527342D01*
X165840304Y-92517141D01*
X165818567Y-92514382D01*
X165780337Y-92518844D01*
X165720458Y-92530304D01*
X165633773Y-92548542D01*
X165527679Y-92571762D01*
X165436481Y-92594311D01*
X165359428Y-92617545D01*
X165287197Y-92644627D01*
X165210463Y-92678724D01*
X165162537Y-92702156D01*
X165119902Y-92723001D01*
X165016056Y-92775059D01*
X164930700Y-92817848D01*
X164663027Y-92817848D01*
X164665872Y-92814665D01*
X164695751Y-92797631D01*
X164711489Y-92789862D01*
X164731469Y-92775059D01*
X164731250Y-92762536D01*
X164709057Y-92752010D01*
X164663115Y-92743196D01*
X164591649Y-92735810D01*
X164492882Y-92729569D01*
X164365041Y-92724189D01*
X164206349Y-92719387D01*
X164154254Y-92718010D01*
X164052055Y-92715329D01*
X163975707Y-92713451D01*
X163920451Y-92712365D01*
X163881532Y-92712058D01*
X163854191Y-92712522D01*
X163833672Y-92713743D01*
X163815218Y-92715710D01*
X163794072Y-92718413D01*
X163751418Y-92717762D01*
X163725236Y-92698763D01*
X163721603Y-92692664D01*
X163711700Y-92682220D01*
X163709285Y-92702762D01*
X163709087Y-92707223D01*
X163699045Y-92725849D01*
X163668006Y-92725416D01*
X163640997Y-92722774D01*
X163627926Y-92727593D01*
X163356110Y-92727593D01*
X163323333Y-92699484D01*
X163275086Y-92655998D01*
X163266273Y-92647860D01*
X163215819Y-92602092D01*
X163154558Y-92547433D01*
X163093809Y-92493998D01*
X163023919Y-92430818D01*
X162939450Y-92350223D01*
X162852723Y-92263905D01*
X162770435Y-92178673D01*
X162699284Y-92101336D01*
X162645966Y-92038702D01*
X162615826Y-92002446D01*
X162592210Y-91977536D01*
X162583163Y-91972988D01*
X162582254Y-91974656D01*
X162569489Y-91964371D01*
X162546458Y-91935479D01*
X162538273Y-91924197D01*
X162476980Y-91841826D01*
X162421209Y-91770386D01*
X162377263Y-91717976D01*
X162336391Y-91661995D01*
X162293685Y-91580708D01*
X162261775Y-91495036D01*
X162246696Y-91418809D01*
X162243621Y-91384348D01*
X162234649Y-91311352D01*
X162223548Y-91240918D01*
X162217397Y-91202031D01*
X162213958Y-91171477D01*
X162387402Y-91171477D01*
X162395559Y-91179633D01*
X162403715Y-91171477D01*
X162395559Y-91163320D01*
X162387402Y-91171477D01*
X162213958Y-91171477D01*
X162212877Y-91161867D01*
X162420029Y-91161867D01*
X162421274Y-91171477D01*
X162424329Y-91195065D01*
X162435909Y-91249829D01*
X162452680Y-91318470D01*
X162472552Y-91393375D01*
X162493435Y-91466936D01*
X162513241Y-91531540D01*
X162529879Y-91579576D01*
X162541260Y-91603435D01*
X162543724Y-91606391D01*
X162566619Y-91640194D01*
X162591132Y-91683902D01*
X162592048Y-91685692D01*
X162623225Y-91736587D01*
X162658353Y-91781616D01*
X162662785Y-91786456D01*
X162687341Y-91815976D01*
X162697357Y-91832992D01*
X162703406Y-91845270D01*
X162729913Y-91879299D01*
X162774633Y-91930249D01*
X162834430Y-91994889D01*
X162906170Y-92069988D01*
X162986718Y-92152316D01*
X163072939Y-92238642D01*
X163161697Y-92325738D01*
X163249859Y-92410371D01*
X163334288Y-92489312D01*
X163472245Y-92616267D01*
X163586439Y-92613935D01*
X163589524Y-92613873D01*
X163646804Y-92613019D01*
X163689577Y-92612923D01*
X163708789Y-92613610D01*
X163709799Y-92613738D01*
X163733266Y-92614790D01*
X163783387Y-92616343D01*
X163855117Y-92618260D01*
X163943408Y-92620403D01*
X164043214Y-92622638D01*
X164137430Y-92624836D01*
X164247866Y-92628211D01*
X164336087Y-92632311D01*
X164408204Y-92637617D01*
X164470332Y-92644609D01*
X164528585Y-92653769D01*
X164589075Y-92665578D01*
X164608876Y-92669668D01*
X164659932Y-92679842D01*
X164695751Y-92686467D01*
X164733712Y-92693660D01*
X164781397Y-92703789D01*
X164786930Y-92704957D01*
X164820477Y-92708139D01*
X164833912Y-92702156D01*
X164833814Y-92700642D01*
X164830864Y-92674650D01*
X164824718Y-92626841D01*
X164816534Y-92566274D01*
X164807820Y-92496269D01*
X164799639Y-92416969D01*
X164794594Y-92351843D01*
X164791714Y-92313212D01*
X164786053Y-92268094D01*
X164779919Y-92244214D01*
X164779308Y-92243020D01*
X164773438Y-92216857D01*
X164767223Y-92168671D01*
X164761912Y-92107907D01*
X164757561Y-92056356D01*
X164748943Y-91972783D01*
X164738036Y-91878997D01*
X164726203Y-91787220D01*
X164717859Y-91726133D01*
X164752848Y-91726133D01*
X164761005Y-91734290D01*
X164769162Y-91726133D01*
X164761005Y-91717976D01*
X164752848Y-91726133D01*
X164717859Y-91726133D01*
X164703096Y-91618063D01*
X164776062Y-91618063D01*
X164779699Y-91629901D01*
X164786244Y-91667411D01*
X164792552Y-91718895D01*
X164793316Y-91726133D01*
X164795899Y-91750603D01*
X164803151Y-91814315D01*
X164809528Y-91864797D01*
X164811926Y-91882621D01*
X164819358Y-91941611D01*
X164826641Y-92003461D01*
X164829969Y-92031120D01*
X164836830Y-92079552D01*
X164842491Y-92109499D01*
X164842509Y-92109566D01*
X164847282Y-92137608D01*
X164853388Y-92187384D01*
X164859510Y-92248163D01*
X164860483Y-92258642D01*
X164868364Y-92335168D01*
X164878465Y-92423974D01*
X164888850Y-92507915D01*
X164893349Y-92539551D01*
X164904098Y-92598858D01*
X164914953Y-92640811D01*
X164924139Y-92657864D01*
X164930774Y-92657152D01*
X164962344Y-92645508D01*
X165011542Y-92622790D01*
X165070977Y-92592298D01*
X165135083Y-92559372D01*
X165315077Y-92483528D01*
X165486952Y-92436867D01*
X165497752Y-92434783D01*
X165588161Y-92416605D01*
X165671410Y-92398665D01*
X165741270Y-92382404D01*
X165791516Y-92369265D01*
X165815919Y-92360689D01*
X165823931Y-92342860D01*
X165822130Y-92307785D01*
X165819127Y-92291872D01*
X165811648Y-92240683D01*
X165805173Y-92182909D01*
X165802861Y-92159686D01*
X165795535Y-92096352D01*
X165788242Y-92044245D01*
X165786170Y-92030595D01*
X165778935Y-91971917D01*
X165773188Y-91910643D01*
X165771038Y-91887440D01*
X165764431Y-91842748D01*
X165757095Y-91817429D01*
X165756724Y-91816762D01*
X165750694Y-91791280D01*
X165744709Y-91743600D01*
X165740016Y-91683480D01*
X165739738Y-91678837D01*
X165734371Y-91619839D01*
X165727041Y-91574472D01*
X165723199Y-91563503D01*
X165824836Y-91563503D01*
X165826485Y-91578312D01*
X165835035Y-91648319D01*
X165847281Y-91741881D01*
X165862343Y-91852230D01*
X165871452Y-91918524D01*
X165880538Y-91985937D01*
X165887110Y-92036088D01*
X165892288Y-92074297D01*
X165901806Y-92139713D01*
X165912196Y-92207379D01*
X165928987Y-92313416D01*
X166274861Y-92314866D01*
X166320371Y-92315080D01*
X166433338Y-92315995D01*
X166521805Y-92317686D01*
X166591819Y-92320583D01*
X166649431Y-92325117D01*
X166700689Y-92331717D01*
X166751642Y-92340815D01*
X166761283Y-92342860D01*
X166808340Y-92352841D01*
X166812537Y-92353765D01*
X166885243Y-92366761D01*
X166936201Y-92367177D01*
X166973837Y-92353860D01*
X167006581Y-92325651D01*
X167038263Y-92289018D01*
X167111621Y-92188289D01*
X167189742Y-92059408D01*
X167193527Y-92052811D01*
X167219412Y-92012095D01*
X167240824Y-91984639D01*
X167247362Y-91972389D01*
X167259169Y-91931655D01*
X167271358Y-91871624D01*
X167282130Y-91800315D01*
X167286411Y-91768655D01*
X167298624Y-91697318D01*
X167310791Y-91652170D01*
X167322132Y-91636409D01*
X167330694Y-91633877D01*
X167341245Y-91612657D01*
X167339788Y-91602268D01*
X167329202Y-91596347D01*
X167325372Y-91596220D01*
X167322861Y-91585416D01*
X167323591Y-91559826D01*
X167327911Y-91516553D01*
X167336172Y-91452694D01*
X167348724Y-91365349D01*
X167365918Y-91251619D01*
X167388103Y-91108602D01*
X167390635Y-91087893D01*
X167386335Y-91070434D01*
X167366954Y-91074095D01*
X167362374Y-91076000D01*
X167324754Y-91090713D01*
X167277653Y-91108236D01*
X167251749Y-91118244D01*
X167192614Y-91143332D01*
X167132697Y-91170887D01*
X167096033Y-91187262D01*
X167056369Y-91201318D01*
X167035908Y-91203597D01*
X167033272Y-91202296D01*
X167017729Y-91208782D01*
X167008915Y-91214024D01*
X166974312Y-91227373D01*
X166919965Y-91245800D01*
X166852737Y-91267224D01*
X166779494Y-91289565D01*
X166707098Y-91310740D01*
X166642414Y-91328668D01*
X166592306Y-91341269D01*
X166563638Y-91346462D01*
X166552692Y-91347899D01*
X166531012Y-91357753D01*
X166520380Y-91363801D01*
X166510123Y-91367238D01*
X166481369Y-91376873D01*
X166420014Y-91393440D01*
X166393316Y-91399865D01*
X166342214Y-91412163D01*
X166253866Y-91431703D01*
X166170232Y-91448805D01*
X166160867Y-91450720D01*
X166069117Y-91467876D01*
X165984512Y-91481831D01*
X165977312Y-91483134D01*
X165936078Y-91493612D01*
X165886631Y-91509062D01*
X165861280Y-91518777D01*
X165831370Y-91538700D01*
X165824836Y-91563503D01*
X165723199Y-91563503D01*
X165719249Y-91552225D01*
X165710970Y-91549789D01*
X165673995Y-91547391D01*
X165612605Y-91546984D01*
X165531919Y-91548319D01*
X165437057Y-91551148D01*
X165333138Y-91555222D01*
X165225279Y-91560293D01*
X165118601Y-91566112D01*
X165018221Y-91572431D01*
X164929260Y-91579000D01*
X164856835Y-91585573D01*
X164806065Y-91591899D01*
X164782070Y-91597730D01*
X164779358Y-91599795D01*
X164776062Y-91618063D01*
X164703096Y-91618063D01*
X164698893Y-91587292D01*
X164395524Y-91588669D01*
X164311031Y-91588839D01*
X164195757Y-91587921D01*
X164099402Y-91585173D01*
X164013510Y-91580188D01*
X163929627Y-91572559D01*
X163839297Y-91561878D01*
X163806406Y-91557910D01*
X163745068Y-91551034D01*
X163679715Y-91544139D01*
X163630633Y-91537613D01*
X163588203Y-91528583D01*
X163568637Y-91519807D01*
X163562730Y-91515695D01*
X163531597Y-91508677D01*
X163485077Y-91505902D01*
X163472882Y-91505566D01*
X163401681Y-91496165D01*
X163308445Y-91475123D01*
X163215718Y-91448805D01*
X164100311Y-91448805D01*
X164108468Y-91456962D01*
X164116625Y-91448805D01*
X165992669Y-91448805D01*
X166000825Y-91456962D01*
X166008982Y-91448805D01*
X166000825Y-91440648D01*
X165992669Y-91448805D01*
X164116625Y-91448805D01*
X164108468Y-91440648D01*
X164100311Y-91448805D01*
X163215718Y-91448805D01*
X163199359Y-91444162D01*
X163080606Y-91405002D01*
X162979463Y-91367238D01*
X163415148Y-91367238D01*
X163423304Y-91375395D01*
X163431461Y-91367238D01*
X163423304Y-91359081D01*
X163415148Y-91367238D01*
X162979463Y-91367238D01*
X162958372Y-91359363D01*
X162915914Y-91342806D01*
X162850424Y-91318298D01*
X162925745Y-91318298D01*
X162933902Y-91326454D01*
X162942058Y-91318298D01*
X162933902Y-91310141D01*
X162925745Y-91318298D01*
X162850424Y-91318298D01*
X162847848Y-91317334D01*
X162791774Y-91297639D01*
X162756803Y-91286991D01*
X162741167Y-91282208D01*
X162694547Y-91263994D01*
X162632833Y-91236958D01*
X162565120Y-91204993D01*
X162531002Y-91188457D01*
X162475331Y-91163050D01*
X162441443Y-91151090D01*
X162424591Y-91151166D01*
X162420029Y-91161867D01*
X162212877Y-91161867D01*
X162208998Y-91127400D01*
X162205433Y-91062702D01*
X162204619Y-91027507D01*
X162198727Y-90993408D01*
X162181908Y-90973664D01*
X162148161Y-90957224D01*
X162133498Y-90950402D01*
X162102648Y-90928794D01*
X162078334Y-90897243D01*
X162059594Y-90851969D01*
X162045467Y-90789195D01*
X162034991Y-90705139D01*
X162027204Y-90596025D01*
X162021144Y-90458071D01*
X162020648Y-90441575D01*
X162158868Y-90441575D01*
X162161695Y-90458392D01*
X162170616Y-90501107D01*
X162184186Y-90562533D01*
X162200924Y-90635825D01*
X162243126Y-90817964D01*
X162357694Y-90888683D01*
X162366650Y-90894218D01*
X162429236Y-90933174D01*
X162486997Y-90969548D01*
X162528437Y-90996107D01*
X162540276Y-91003564D01*
X162579274Y-91024430D01*
X162605095Y-91032813D01*
X162611525Y-91033394D01*
X162641076Y-91046981D01*
X162652409Y-91054200D01*
X162689032Y-91071310D01*
X162738141Y-91090529D01*
X162768022Y-91102068D01*
X162815628Y-91123715D01*
X162845502Y-91141650D01*
X162862486Y-91152717D01*
X162880383Y-91154303D01*
X162887547Y-91153895D01*
X162919738Y-91161815D01*
X162970922Y-91178788D01*
X163034037Y-91202595D01*
X163221310Y-91270111D01*
X163391955Y-91318298D01*
X163415923Y-91325066D01*
X163594595Y-91359017D01*
X163611780Y-91361391D01*
X163650480Y-91367238D01*
X163683561Y-91372236D01*
X163747111Y-91383160D01*
X163790356Y-91392121D01*
X163791887Y-91392491D01*
X163831751Y-91398790D01*
X163895263Y-91405397D01*
X163973997Y-91411550D01*
X164059528Y-91416485D01*
X164105025Y-91418580D01*
X164249714Y-91424438D01*
X164377090Y-91428329D01*
X164483344Y-91430179D01*
X164564669Y-91429912D01*
X164617254Y-91427455D01*
X164634636Y-91424570D01*
X164666890Y-91404837D01*
X164677726Y-91365103D01*
X164668528Y-91301984D01*
X164662815Y-91271679D01*
X164655426Y-91214076D01*
X164649959Y-91150568D01*
X164643934Y-91091829D01*
X164632060Y-91049607D01*
X164618501Y-91032813D01*
X164716421Y-91032813D01*
X164727806Y-91134772D01*
X164733188Y-91182636D01*
X164739850Y-91241055D01*
X164744584Y-91281592D01*
X164744516Y-91312560D01*
X164736349Y-91326454D01*
X164734923Y-91326789D01*
X164734359Y-91342794D01*
X164743103Y-91365103D01*
X164747137Y-91375395D01*
X164759702Y-91398172D01*
X164782738Y-91422792D01*
X164803148Y-91417633D01*
X164804874Y-91416928D01*
X164830131Y-91413528D01*
X164880224Y-91409439D01*
X164948967Y-91405114D01*
X165030177Y-91401007D01*
X165054450Y-91399865D01*
X166253683Y-91399865D01*
X166261840Y-91408021D01*
X166269997Y-91399865D01*
X166261840Y-91391708D01*
X166253683Y-91399865D01*
X165054450Y-91399865D01*
X165119852Y-91396788D01*
X165229684Y-91391264D01*
X165334976Y-91385643D01*
X165421699Y-91380654D01*
X165471869Y-91377629D01*
X165545230Y-91373314D01*
X165605095Y-91369918D01*
X165641930Y-91367990D01*
X165642906Y-91367942D01*
X165646654Y-91367238D01*
X166221056Y-91367238D01*
X166229213Y-91375395D01*
X166237370Y-91367238D01*
X166229213Y-91359081D01*
X166221056Y-91367238D01*
X165646654Y-91367238D01*
X165676039Y-91361719D01*
X165688286Y-91350183D01*
X165687666Y-91346428D01*
X165676715Y-91269357D01*
X165715340Y-91269357D01*
X165723497Y-91277514D01*
X165731654Y-91269357D01*
X165723497Y-91261201D01*
X165715340Y-91269357D01*
X165676715Y-91269357D01*
X165673754Y-91248521D01*
X165663856Y-91152602D01*
X165659525Y-91073596D01*
X165658276Y-91044887D01*
X165657776Y-91040969D01*
X165666400Y-91040969D01*
X165674557Y-91049126D01*
X165682713Y-91040969D01*
X165674557Y-91032813D01*
X165666400Y-91040969D01*
X165657776Y-91040969D01*
X165652936Y-91003001D01*
X165645972Y-90984588D01*
X165746392Y-90984588D01*
X165746840Y-90986349D01*
X165752140Y-91016698D01*
X165755523Y-91040969D01*
X165759316Y-91068175D01*
X165766948Y-91130693D01*
X165767485Y-91135378D01*
X165775266Y-91200913D01*
X165782461Y-91257672D01*
X165784113Y-91269357D01*
X165787574Y-91293827D01*
X165792155Y-91322491D01*
X165795566Y-91345278D01*
X165797204Y-91347417D01*
X165809352Y-91350183D01*
X165819949Y-91352596D01*
X165860586Y-91353435D01*
X165874547Y-91352615D01*
X165907674Y-91347557D01*
X165917774Y-91340394D01*
X165917693Y-91338167D01*
X165934973Y-91329439D01*
X165972368Y-91322020D01*
X165994325Y-91319069D01*
X166136536Y-91294750D01*
X166287387Y-91261290D01*
X166436572Y-91221405D01*
X166573786Y-91177810D01*
X166688723Y-91133223D01*
X166701008Y-91127858D01*
X166757207Y-91104433D01*
X166800914Y-91087970D01*
X166823530Y-91081753D01*
X166837231Y-91079465D01*
X166869736Y-91066608D01*
X166881339Y-91060729D01*
X166921892Y-91041647D01*
X166971474Y-91019490D01*
X167006146Y-91004225D01*
X167072657Y-90974462D01*
X167137676Y-90944911D01*
X167182146Y-90925349D01*
X167224411Y-90908704D01*
X167247074Y-90902305D01*
X167267207Y-90897594D01*
X167308780Y-90877834D01*
X167360495Y-90846883D01*
X167415965Y-90809346D01*
X167468804Y-90769831D01*
X167512625Y-90732945D01*
X167541041Y-90703293D01*
X167547666Y-90685483D01*
X167545487Y-90680747D01*
X167537776Y-90648357D01*
X167531862Y-90602179D01*
X167530285Y-90583712D01*
X167524659Y-90518763D01*
X167518937Y-90453686D01*
X167516955Y-90429774D01*
X167512832Y-90368128D01*
X167510756Y-90318613D01*
X167509817Y-90265108D01*
X167440531Y-90302300D01*
X167418014Y-90314684D01*
X167381204Y-90336479D01*
X167363042Y-90349559D01*
X167348204Y-90362811D01*
X167308723Y-90390400D01*
X167253729Y-90425018D01*
X167190384Y-90462555D01*
X167125849Y-90498903D01*
X167067287Y-90529953D01*
X167021858Y-90551596D01*
X166996725Y-90559723D01*
X166987532Y-90560723D01*
X166968755Y-90572351D01*
X166966178Y-90575649D01*
X166939419Y-90592666D01*
X166889110Y-90617184D01*
X166820948Y-90647016D01*
X166740629Y-90679972D01*
X166653849Y-90713864D01*
X166566304Y-90746501D01*
X166483690Y-90775697D01*
X166459396Y-90783649D01*
X166411703Y-90799260D01*
X166356038Y-90815004D01*
X166322393Y-90820738D01*
X166319967Y-90820795D01*
X166281493Y-90827842D01*
X166235284Y-90843089D01*
X166228881Y-90845589D01*
X166187606Y-90857241D01*
X166159881Y-90858043D01*
X166151230Y-90856300D01*
X166139489Y-90865326D01*
X166139462Y-90865660D01*
X166123608Y-90876137D01*
X166084172Y-90889330D01*
X166029374Y-90902468D01*
X165971579Y-90914436D01*
X165922571Y-90924920D01*
X165894788Y-90931275D01*
X165889554Y-90932551D01*
X165853002Y-90940226D01*
X165805064Y-90949226D01*
X165788583Y-90952537D01*
X165753365Y-90965985D01*
X165746392Y-90984588D01*
X165645972Y-90984588D01*
X165645133Y-90982369D01*
X165634128Y-90979784D01*
X165597475Y-90980497D01*
X165547253Y-90986707D01*
X165541271Y-90987634D01*
X165488390Y-90993616D01*
X165413500Y-90999738D01*
X165325700Y-91005331D01*
X165234094Y-91009727D01*
X165212458Y-91010599D01*
X165126292Y-91014413D01*
X165049875Y-91018306D01*
X164990827Y-91021864D01*
X164956766Y-91024679D01*
X164930835Y-91027025D01*
X164874323Y-91030065D01*
X164812123Y-91031712D01*
X164716421Y-91032813D01*
X164618501Y-91032813D01*
X164612621Y-91025530D01*
X164587156Y-91012335D01*
X164570106Y-91021830D01*
X164555382Y-91028907D01*
X164511878Y-91035233D01*
X164445594Y-91038807D01*
X164361944Y-91039785D01*
X164266343Y-91038320D01*
X164164202Y-91034568D01*
X164060935Y-91028684D01*
X163961956Y-91020822D01*
X163872677Y-91011136D01*
X163798513Y-90999782D01*
X163742045Y-90989268D01*
X163660046Y-90974199D01*
X163588215Y-90961215D01*
X163537498Y-90952306D01*
X163511468Y-90947455D01*
X163455767Y-90934612D01*
X163415148Y-90922071D01*
X163403420Y-90917612D01*
X163355462Y-90901422D01*
X163300954Y-90884971D01*
X163283415Y-90879581D01*
X163232676Y-90862656D01*
X163161421Y-90838026D01*
X163076030Y-90807978D01*
X162982878Y-90774801D01*
X162888345Y-90740782D01*
X162798807Y-90708211D01*
X162720643Y-90679376D01*
X162660230Y-90656564D01*
X162623947Y-90642064D01*
X162610754Y-90636320D01*
X162512854Y-90591625D01*
X162442506Y-90555049D01*
X162396551Y-90524963D01*
X162379667Y-90512256D01*
X162363351Y-90504576D01*
X162364860Y-90518081D01*
X162365714Y-90521034D01*
X162356939Y-90526680D01*
X162324602Y-90515428D01*
X162266896Y-90486697D01*
X162256144Y-90481053D01*
X162206788Y-90456888D01*
X162172045Y-90442761D01*
X162158868Y-90441575D01*
X162020648Y-90441575D01*
X162019556Y-90405226D01*
X162020064Y-90357691D01*
X162338095Y-90357691D01*
X162347711Y-90374459D01*
X162375167Y-90389060D01*
X162377819Y-90389897D01*
X162413063Y-90403587D01*
X162465940Y-90426552D01*
X162526066Y-90454303D01*
X162547782Y-90464320D01*
X162624438Y-90496987D01*
X162711918Y-90531402D01*
X162795238Y-90561595D01*
X162838608Y-90577113D01*
X162899046Y-90601286D01*
X162943117Y-90622161D01*
X162963453Y-90636458D01*
X162971526Y-90645881D01*
X162990571Y-90649711D01*
X162993626Y-90648998D01*
X163021132Y-90653796D01*
X163068259Y-90668319D01*
X163126872Y-90690152D01*
X163141872Y-90696088D01*
X163200691Y-90718008D01*
X163247450Y-90733376D01*
X163273131Y-90739171D01*
X163277566Y-90739472D01*
X163311731Y-90747763D01*
X163356058Y-90763860D01*
X163369068Y-90769041D01*
X163401968Y-90779181D01*
X163415148Y-90778176D01*
X163419456Y-90775797D01*
X163438767Y-90787406D01*
X163457027Y-90796869D01*
X163501398Y-90810687D01*
X163557040Y-90822220D01*
X163619947Y-90831975D01*
X163698999Y-90843507D01*
X163778850Y-90854545D01*
X163852888Y-90864226D01*
X163914497Y-90871689D01*
X163957064Y-90876073D01*
X163973973Y-90876517D01*
X163977556Y-90875966D01*
X164006669Y-90874123D01*
X164060411Y-90871614D01*
X164133244Y-90868644D01*
X164219631Y-90865414D01*
X164314037Y-90862128D01*
X164410924Y-90858988D01*
X164504756Y-90856197D01*
X164589995Y-90853958D01*
X164596596Y-90852886D01*
X164609900Y-90835416D01*
X164612385Y-90792190D01*
X164612070Y-90785494D01*
X164607013Y-90738228D01*
X164599058Y-90704900D01*
X164594259Y-90690612D01*
X164591730Y-90664116D01*
X164592073Y-90651486D01*
X164589207Y-90611474D01*
X164583157Y-90553606D01*
X164574849Y-90486467D01*
X164574827Y-90486313D01*
X164606028Y-90486313D01*
X164614184Y-90494470D01*
X164622341Y-90486313D01*
X164614184Y-90478156D01*
X164606028Y-90486313D01*
X164574827Y-90486313D01*
X164565212Y-90418640D01*
X164562160Y-90396452D01*
X164556015Y-90346685D01*
X164549290Y-90288133D01*
X164544751Y-90248640D01*
X164536822Y-90184745D01*
X164530039Y-90135574D01*
X164526254Y-90106085D01*
X164520301Y-90045259D01*
X164515559Y-89980597D01*
X164512682Y-89936012D01*
X164509619Y-89897523D01*
X164507599Y-89882716D01*
X164503137Y-89868120D01*
X164497334Y-89828918D01*
X164491236Y-89773140D01*
X164485848Y-89708821D01*
X164482390Y-89669847D01*
X164476405Y-89625360D01*
X164470510Y-89602323D01*
X164467533Y-89593849D01*
X164459742Y-89556303D01*
X164449875Y-89495788D01*
X164438842Y-89418495D01*
X164427555Y-89330615D01*
X164416925Y-89238336D01*
X164412267Y-89202260D01*
X164403532Y-89154498D01*
X164395019Y-89126719D01*
X164383300Y-89117543D01*
X164495894Y-89117543D01*
X164497579Y-89122026D01*
X164503322Y-89153530D01*
X164509597Y-89206032D01*
X164515319Y-89270963D01*
X164516687Y-89289065D01*
X164522342Y-89359089D01*
X164527730Y-89419394D01*
X164531845Y-89458567D01*
X164536264Y-89496457D01*
X164542704Y-89555979D01*
X164549461Y-89621702D01*
X164556031Y-89682949D01*
X164562553Y-89736161D01*
X164567481Y-89768522D01*
X164571048Y-89792641D01*
X164576335Y-89842552D01*
X164581208Y-89901874D01*
X164584925Y-89945606D01*
X164594113Y-90029068D01*
X164604702Y-90105792D01*
X164616177Y-90186367D01*
X164630239Y-90310932D01*
X164640670Y-90435259D01*
X164643173Y-90486313D01*
X164645976Y-90543491D01*
X164647641Y-90579752D01*
X164652428Y-90625505D01*
X164658713Y-90650466D01*
X164663307Y-90662426D01*
X164672269Y-90701120D01*
X164680610Y-90752710D01*
X164685847Y-90792190D01*
X164691895Y-90837784D01*
X164772520Y-90833340D01*
X164800866Y-90831661D01*
X164839595Y-90828862D01*
X164856015Y-90826900D01*
X164859272Y-90826473D01*
X164887636Y-90824637D01*
X164940331Y-90821883D01*
X165011536Y-90818505D01*
X165095430Y-90814799D01*
X165108741Y-90814223D01*
X165208443Y-90809511D01*
X165308364Y-90804191D01*
X165397563Y-90798874D01*
X165465100Y-90794170D01*
X165598225Y-90783649D01*
X165595607Y-90671837D01*
X165595545Y-90669332D01*
X165592345Y-90614148D01*
X165586678Y-90574877D01*
X165579729Y-90559874D01*
X165573186Y-90555332D01*
X165570001Y-90531175D01*
X165570581Y-90516063D01*
X165564053Y-90478156D01*
X165558740Y-90458083D01*
X165550237Y-90412480D01*
X165541892Y-90355806D01*
X165536091Y-90311025D01*
X165530202Y-90265576D01*
X165527096Y-90241612D01*
X165526083Y-90234318D01*
X165520983Y-90199772D01*
X165513716Y-90151888D01*
X165511786Y-90139189D01*
X165502169Y-90073371D01*
X165493870Y-90013224D01*
X165492756Y-90004832D01*
X165485209Y-89950797D01*
X165478583Y-89907186D01*
X165474752Y-89881774D01*
X165467382Y-89827292D01*
X165458908Y-89760449D01*
X165450405Y-89690185D01*
X165442946Y-89625443D01*
X165437606Y-89575165D01*
X165435460Y-89548291D01*
X165431298Y-89517775D01*
X165421074Y-89474881D01*
X165418170Y-89463840D01*
X165407434Y-89410563D01*
X165399182Y-89352530D01*
X165395008Y-89314187D01*
X165387326Y-89244825D01*
X165379495Y-89175188D01*
X165367698Y-89071257D01*
X165284583Y-89082551D01*
X165220144Y-89091411D01*
X165162975Y-89099735D01*
X165127272Y-89105842D01*
X165106952Y-89110800D01*
X165095929Y-89115677D01*
X165080220Y-89118740D01*
X165036665Y-89121707D01*
X164972569Y-89123820D01*
X164894575Y-89125085D01*
X164809328Y-89125508D01*
X164723473Y-89125093D01*
X164643652Y-89123847D01*
X164576510Y-89121776D01*
X164528692Y-89118885D01*
X164506842Y-89115179D01*
X164498019Y-89110967D01*
X164495894Y-89117543D01*
X164383300Y-89117543D01*
X164383023Y-89117326D01*
X164339830Y-89105661D01*
X164270114Y-89098558D01*
X164211032Y-89094557D01*
X164146850Y-89088750D01*
X164100311Y-89082931D01*
X164098256Y-89082595D01*
X164049300Y-89074785D01*
X164010433Y-89068904D01*
X163973763Y-89059917D01*
X163924601Y-89029541D01*
X163900398Y-88984644D01*
X163900299Y-88984115D01*
X163900509Y-88977622D01*
X164012520Y-88977622D01*
X164015285Y-88979547D01*
X164044465Y-88988184D01*
X164095087Y-88996360D01*
X164158113Y-89002529D01*
X164173546Y-89003635D01*
X164234557Y-89008457D01*
X164281140Y-89012837D01*
X164304229Y-89015943D01*
X164316682Y-89017202D01*
X164350522Y-89013622D01*
X164364292Y-89008410D01*
X164373201Y-88993615D01*
X164374337Y-88962264D01*
X164369058Y-88906518D01*
X164363113Y-88859251D01*
X164356391Y-88816147D01*
X164351409Y-88795508D01*
X164344509Y-88792065D01*
X164313545Y-88793423D01*
X164267790Y-88803139D01*
X164217430Y-88818792D01*
X164172653Y-88837963D01*
X164170146Y-88839261D01*
X164134174Y-88856050D01*
X164112398Y-88863027D01*
X164091230Y-88872400D01*
X164061874Y-88897703D01*
X164033628Y-88929804D01*
X164014505Y-88959508D01*
X164012520Y-88977622D01*
X163900509Y-88977622D01*
X163901340Y-88951942D01*
X163919259Y-88915292D01*
X163958080Y-88865877D01*
X163989183Y-88832008D01*
X164032323Y-88790592D01*
X164066187Y-88764192D01*
X164097719Y-88748689D01*
X164157670Y-88726339D01*
X164224403Y-88706583D01*
X164283365Y-88694118D01*
X164291063Y-88692729D01*
X164316522Y-88683088D01*
X164325012Y-88672409D01*
X164309909Y-88667366D01*
X164294768Y-88669186D01*
X164253049Y-88678325D01*
X164200791Y-88692576D01*
X164166626Y-88701574D01*
X164123421Y-88709106D01*
X164099950Y-88707926D01*
X164093942Y-88705492D01*
X164083998Y-88715344D01*
X164074366Y-88726579D01*
X164044177Y-88732620D01*
X164016761Y-88736305D01*
X163994274Y-88748933D01*
X163987946Y-88755650D01*
X163959790Y-88765247D01*
X163930871Y-88771490D01*
X163871559Y-88794202D01*
X163784768Y-88833411D01*
X163670785Y-88888996D01*
X163661987Y-88893359D01*
X163606216Y-88919386D01*
X163561276Y-88937744D01*
X163536199Y-88944694D01*
X163526200Y-88945955D01*
X163513028Y-88957491D01*
X163512994Y-88958011D01*
X163499265Y-88974824D01*
X163468166Y-88996793D01*
X163438529Y-89016542D01*
X163380483Y-89061582D01*
X163308654Y-89122346D01*
X163226879Y-89195121D01*
X163138999Y-89276190D01*
X163101576Y-89311746D01*
X163048852Y-89361839D01*
X162960278Y-89448354D01*
X162877115Y-89532019D01*
X162803204Y-89609120D01*
X162742383Y-89675942D01*
X162698492Y-89728770D01*
X162675370Y-89763890D01*
X162666971Y-89779905D01*
X162645052Y-89818383D01*
X162616592Y-89866403D01*
X162596069Y-89901238D01*
X162568557Y-89950498D01*
X162551055Y-89985103D01*
X162527854Y-90037053D01*
X162481985Y-90135128D01*
X162441334Y-90215816D01*
X162407652Y-90275899D01*
X162382688Y-90312162D01*
X162368190Y-90321388D01*
X162359459Y-90317624D01*
X162361374Y-90328815D01*
X162364761Y-90337346D01*
X162355738Y-90347649D01*
X162350630Y-90347948D01*
X162338095Y-90357691D01*
X162020064Y-90357691D01*
X162020105Y-90353814D01*
X162025319Y-90320626D01*
X162036797Y-90297313D01*
X162056141Y-90275524D01*
X162096252Y-90235412D01*
X162152600Y-90267060D01*
X162180922Y-90282256D01*
X162217494Y-90296361D01*
X162235666Y-90290995D01*
X162240581Y-90266101D01*
X162240609Y-90264798D01*
X162247266Y-90236047D01*
X162266275Y-90187157D01*
X162298570Y-90116065D01*
X162345084Y-90020709D01*
X162406749Y-89899030D01*
X162427004Y-89860920D01*
X162465444Y-89794055D01*
X162504623Y-89731398D01*
X162540469Y-89679066D01*
X162568910Y-89643180D01*
X162585875Y-89629858D01*
X162590854Y-89628446D01*
X162599728Y-89609466D01*
X162600139Y-89606742D01*
X162614519Y-89580986D01*
X162644281Y-89542702D01*
X162682367Y-89499564D01*
X162721718Y-89459247D01*
X162755277Y-89429429D01*
X162775986Y-89417784D01*
X162782617Y-89416935D01*
X162791159Y-89405096D01*
X162791066Y-89403599D01*
X162803437Y-89383361D01*
X162834180Y-89348827D01*
X162871770Y-89311746D01*
X162876805Y-89311746D01*
X162884961Y-89319903D01*
X162893118Y-89311746D01*
X162884961Y-89303590D01*
X162876805Y-89311746D01*
X162871770Y-89311746D01*
X162877694Y-89305902D01*
X162928373Y-89260491D01*
X162935561Y-89253983D01*
X162965105Y-89224724D01*
X163000934Y-89187080D01*
X163018861Y-89168079D01*
X163064656Y-89122181D01*
X163107867Y-89081959D01*
X163141882Y-89053422D01*
X163160083Y-89042575D01*
X163160655Y-89042515D01*
X163178626Y-89031085D01*
X163207635Y-89005870D01*
X163212696Y-89001090D01*
X163259274Y-88959573D01*
X163313756Y-88916009D01*
X163385889Y-88862563D01*
X163396134Y-88855479D01*
X163443374Y-88826748D01*
X163505365Y-88792755D01*
X163574901Y-88757027D01*
X163644777Y-88723095D01*
X163707786Y-88694487D01*
X163756724Y-88674735D01*
X163784384Y-88667366D01*
X163793600Y-88666008D01*
X163806670Y-88652280D01*
X163810925Y-88646301D01*
X163837695Y-88631940D01*
X163879784Y-88616344D01*
X163926310Y-88602880D01*
X163966388Y-88594917D01*
X163989135Y-88595821D01*
X163994206Y-88597497D01*
X164002431Y-88584860D01*
X164011374Y-88573731D01*
X164043779Y-88573586D01*
X164069532Y-88576497D01*
X164075956Y-88572319D01*
X164085008Y-88564393D01*
X164118519Y-88551919D01*
X164169193Y-88537768D01*
X164169356Y-88537728D01*
X164224683Y-88522859D01*
X164254930Y-88509956D01*
X164266957Y-88494408D01*
X164267622Y-88471605D01*
X164257741Y-88406715D01*
X164242436Y-88369179D01*
X164220494Y-88357411D01*
X164204602Y-88353914D01*
X164165560Y-88338620D01*
X164118886Y-88316513D01*
X164076763Y-88293494D01*
X164051371Y-88275467D01*
X164050884Y-88274983D01*
X164031266Y-88260251D01*
X163997574Y-88237876D01*
X163993414Y-88235061D01*
X164051371Y-88235061D01*
X164059528Y-88243217D01*
X164067685Y-88235061D01*
X164059528Y-88226904D01*
X164051371Y-88235061D01*
X163993414Y-88235061D01*
X163991095Y-88233492D01*
X163953336Y-88198910D01*
X163920404Y-88156087D01*
X163898905Y-88114898D01*
X163895445Y-88085215D01*
X163896736Y-88077284D01*
X163883242Y-88059311D01*
X163880213Y-88057184D01*
X163871430Y-88031466D01*
X163867160Y-87984625D01*
X163867171Y-87950086D01*
X163995861Y-87950086D01*
X164003263Y-88013446D01*
X164025086Y-88062477D01*
X164035929Y-88073423D01*
X164070640Y-88100970D01*
X164115740Y-88131810D01*
X164143711Y-88148971D01*
X164181530Y-88169824D01*
X164202196Y-88177964D01*
X164207424Y-88168444D01*
X164209972Y-88134403D01*
X164207572Y-88084161D01*
X164206994Y-88077763D01*
X164201375Y-88011689D01*
X164194946Y-87931051D01*
X164188985Y-87851848D01*
X164187156Y-87827917D01*
X164181579Y-87767138D01*
X164176094Y-87722232D01*
X164171663Y-87701544D01*
X164164346Y-87700548D01*
X164140339Y-87715896D01*
X164106799Y-87746259D01*
X164070196Y-87785075D01*
X164037001Y-87825777D01*
X164013685Y-87861804D01*
X164003752Y-87887751D01*
X163995861Y-87950086D01*
X163867171Y-87950086D01*
X163867178Y-87925523D01*
X163871261Y-87863022D01*
X163879185Y-87805983D01*
X163890724Y-87763266D01*
X163897637Y-87747344D01*
X163956138Y-87651933D01*
X163981454Y-87624369D01*
X164022744Y-87624369D01*
X164026901Y-87639621D01*
X164030253Y-87644450D01*
X164045140Y-87655934D01*
X164047371Y-87654872D01*
X164046992Y-87653483D01*
X164345104Y-87653483D01*
X164345210Y-87654872D01*
X164349514Y-87711399D01*
X164360395Y-87770128D01*
X164367652Y-87798142D01*
X164375431Y-87831982D01*
X164381946Y-87867766D01*
X164387619Y-87909870D01*
X164392874Y-87962673D01*
X164398132Y-88030551D01*
X164403816Y-88117880D01*
X164404787Y-88134403D01*
X164410349Y-88229038D01*
X164410686Y-88235061D01*
X164418153Y-88368403D01*
X164420034Y-88397413D01*
X164426806Y-88468135D01*
X164435372Y-88527213D01*
X164444332Y-88564164D01*
X164446616Y-88571017D01*
X164455575Y-88615265D01*
X164463185Y-88678066D01*
X164467997Y-88748169D01*
X164468652Y-88762779D01*
X164473047Y-88836037D01*
X164478635Y-88902310D01*
X164484368Y-88948783D01*
X164486646Y-88962264D01*
X164494963Y-89011497D01*
X164775183Y-89006795D01*
X164836071Y-89005767D01*
X164926925Y-89004055D01*
X164995012Y-89002177D01*
X165046728Y-88999650D01*
X165088467Y-88995992D01*
X165126625Y-88990721D01*
X165167598Y-88983354D01*
X165217781Y-88973409D01*
X165263204Y-88964531D01*
X165308234Y-88956258D01*
X165331975Y-88952591D01*
X165340824Y-88951119D01*
X165345056Y-88943964D01*
X165344319Y-88924524D01*
X165341113Y-88903911D01*
X165389072Y-88903911D01*
X165397229Y-88912068D01*
X165405385Y-88903911D01*
X165397229Y-88895754D01*
X165389072Y-88903911D01*
X165341113Y-88903911D01*
X165338356Y-88886188D01*
X165332165Y-88851660D01*
X165464425Y-88851660D01*
X165477150Y-88888106D01*
X165489812Y-88902454D01*
X165506708Y-88903444D01*
X165535233Y-88883255D01*
X165573944Y-88851909D01*
X165523685Y-88826837D01*
X165489489Y-88811545D01*
X165473510Y-88812860D01*
X165465602Y-88831688D01*
X165464425Y-88851660D01*
X165332165Y-88851660D01*
X165326909Y-88822344D01*
X165316527Y-88761591D01*
X165307188Y-88702487D01*
X165474189Y-88702487D01*
X165478491Y-88711471D01*
X165496469Y-88724591D01*
X165500443Y-88724918D01*
X165534854Y-88736181D01*
X165580198Y-88758351D01*
X165623342Y-88784405D01*
X165651157Y-88807320D01*
X165663472Y-88825668D01*
X165673593Y-88851909D01*
X165677274Y-88861454D01*
X165669598Y-88892727D01*
X165661342Y-88903911D01*
X165640144Y-88932628D01*
X165627220Y-88943964D01*
X165596265Y-88971115D01*
X165545681Y-89000058D01*
X165539096Y-89002861D01*
X165518201Y-89013973D01*
X165504357Y-89029081D01*
X165497429Y-89052856D01*
X165497282Y-89089970D01*
X165503780Y-89145094D01*
X165516787Y-89222900D01*
X165536168Y-89328060D01*
X165542869Y-89368361D01*
X165552850Y-89441991D01*
X165560502Y-89513999D01*
X165565705Y-89564950D01*
X165571854Y-89608986D01*
X165577048Y-89630460D01*
X165577266Y-89630855D01*
X165581932Y-89653593D01*
X165586992Y-89699030D01*
X165591387Y-89757773D01*
X165591545Y-89760376D01*
X165596343Y-89819496D01*
X165602260Y-89865581D01*
X165608052Y-89888849D01*
X165613664Y-89909944D01*
X165619860Y-89954595D01*
X165624870Y-90012015D01*
X165629412Y-90065826D01*
X165635307Y-90111157D01*
X165640971Y-90134023D01*
X165645977Y-90152940D01*
X165651855Y-90196064D01*
X165656631Y-90252261D01*
X165661033Y-90304172D01*
X165670965Y-90388412D01*
X165682831Y-90466142D01*
X165691123Y-90524362D01*
X165694983Y-90579318D01*
X165692861Y-90614698D01*
X165692687Y-90615413D01*
X165694133Y-90658325D01*
X165711539Y-90708280D01*
X165713115Y-90711310D01*
X165745549Y-90752089D01*
X165788172Y-90764984D01*
X165846902Y-90751902D01*
X165874913Y-90745152D01*
X165906805Y-90746552D01*
X165916773Y-90748969D01*
X165920580Y-90741309D01*
X165920630Y-90739086D01*
X165939019Y-90728012D01*
X165980464Y-90713773D01*
X166038005Y-90698881D01*
X166042878Y-90697769D01*
X166113792Y-90680772D01*
X166180523Y-90663494D01*
X166229213Y-90649510D01*
X166236850Y-90647119D01*
X166296408Y-90630089D01*
X166350913Y-90616666D01*
X166367510Y-90612586D01*
X166423807Y-90594823D01*
X166481421Y-90572524D01*
X166505760Y-90562287D01*
X166551473Y-90544611D01*
X166580956Y-90535318D01*
X166590440Y-90532749D01*
X166631017Y-90517890D01*
X166688747Y-90493929D01*
X166754926Y-90464562D01*
X166820853Y-90433482D01*
X166826049Y-90430999D01*
X166868044Y-90414298D01*
X166898342Y-90407465D01*
X166909279Y-90406179D01*
X166922534Y-90395642D01*
X166924205Y-90392251D01*
X166945892Y-90377072D01*
X166984633Y-90358971D01*
X166995536Y-90354356D01*
X167039497Y-90330913D01*
X167068197Y-90308260D01*
X167082723Y-90293520D01*
X167102433Y-90282395D01*
X167106424Y-90281297D01*
X167133437Y-90267969D01*
X167178175Y-90242702D01*
X167233388Y-90209529D01*
X167253373Y-90197269D01*
X167306431Y-90165349D01*
X167346789Y-90141980D01*
X167366964Y-90131533D01*
X167369012Y-90126632D01*
X167363789Y-90100245D01*
X167349790Y-90059991D01*
X167331079Y-90015879D01*
X167311717Y-89977921D01*
X167295768Y-89956127D01*
X167284023Y-89938762D01*
X167262517Y-89900336D01*
X167236031Y-89849326D01*
X167190369Y-89770753D01*
X167123287Y-89674246D01*
X167043845Y-89572703D01*
X166958703Y-89474196D01*
X166874523Y-89386795D01*
X166797968Y-89318571D01*
X166737637Y-89271998D01*
X166677852Y-89228058D01*
X166625136Y-89191330D01*
X166585686Y-89166129D01*
X166565694Y-89156769D01*
X166563270Y-89156629D01*
X166544606Y-89144534D01*
X166544397Y-89144101D01*
X166530806Y-89130529D01*
X166497325Y-89106084D01*
X166441211Y-89068876D01*
X166359721Y-89017012D01*
X166304287Y-88984585D01*
X166217794Y-88939694D01*
X166120069Y-88893589D01*
X166017778Y-88849037D01*
X165917590Y-88808805D01*
X165826171Y-88775660D01*
X165750188Y-88752369D01*
X165696308Y-88741698D01*
X165694022Y-88741301D01*
X165673197Y-88728542D01*
X165670037Y-88726381D01*
X165641235Y-88719203D01*
X165597355Y-88716307D01*
X165589507Y-88716178D01*
X165538763Y-88710314D01*
X165500306Y-88698409D01*
X165494338Y-88695292D01*
X165474302Y-88688869D01*
X165474189Y-88702487D01*
X165307188Y-88702487D01*
X165303634Y-88679991D01*
X165292239Y-88602113D01*
X165287977Y-88571419D01*
X165276526Y-88489461D01*
X165263525Y-88396895D01*
X165251044Y-88308471D01*
X165244160Y-88259360D01*
X165233583Y-88182032D01*
X165224864Y-88116066D01*
X165219403Y-88071926D01*
X165213976Y-88027900D01*
X165205102Y-87961555D01*
X165195318Y-87892479D01*
X165187925Y-87832888D01*
X165179808Y-87742837D01*
X165175361Y-87660880D01*
X165174120Y-87616166D01*
X165318400Y-87616166D01*
X165322255Y-87649407D01*
X165330206Y-87703156D01*
X165341221Y-87770128D01*
X165367803Y-87925106D01*
X165394751Y-87864454D01*
X165412226Y-87814175D01*
X165422201Y-87745071D01*
X165416484Y-87683512D01*
X165396055Y-87636995D01*
X165361893Y-87613013D01*
X165335099Y-87607998D01*
X165318469Y-87609113D01*
X165318400Y-87616166D01*
X165174120Y-87616166D01*
X165173639Y-87598837D01*
X165421699Y-87598837D01*
X165429855Y-87606994D01*
X165438012Y-87598837D01*
X165429855Y-87590680D01*
X165421699Y-87598837D01*
X165173639Y-87598837D01*
X165172103Y-87543476D01*
X165082942Y-87532336D01*
X165080091Y-87531989D01*
X164993875Y-87526629D01*
X164885617Y-87527270D01*
X164764834Y-87533268D01*
X164641043Y-87543981D01*
X164523760Y-87558765D01*
X164422502Y-87576977D01*
X164387261Y-87585239D01*
X164358204Y-87597406D01*
X164346946Y-87617392D01*
X164345104Y-87653483D01*
X164046992Y-87653483D01*
X164043214Y-87639621D01*
X164039863Y-87634792D01*
X164024975Y-87623307D01*
X164022744Y-87624369D01*
X163981454Y-87624369D01*
X164037147Y-87563731D01*
X164132049Y-87490859D01*
X164232230Y-87441433D01*
X164245985Y-87436627D01*
X164310402Y-87414283D01*
X164369483Y-87393999D01*
X164391759Y-87388178D01*
X164456633Y-87378893D01*
X164546112Y-87372497D01*
X164654968Y-87369440D01*
X164661111Y-87369381D01*
X164852136Y-87373821D01*
X165026819Y-87390124D01*
X165180247Y-87417640D01*
X165307505Y-87455719D01*
X165318383Y-87459572D01*
X165355748Y-87469846D01*
X165401922Y-87486739D01*
X165464795Y-87528154D01*
X165523440Y-87583748D01*
X165534704Y-87598837D01*
X165569106Y-87644920D01*
X165593040Y-87703067D01*
X165598489Y-87745071D01*
X165599223Y-87750728D01*
X165602668Y-87811711D01*
X165602783Y-87872294D01*
X165599569Y-87921791D01*
X165593026Y-87949517D01*
X165584442Y-87970579D01*
X165574822Y-88009179D01*
X165573458Y-88015547D01*
X165555034Y-88066060D01*
X165523633Y-88128861D01*
X165485455Y-88192507D01*
X165446702Y-88245559D01*
X165440562Y-88252969D01*
X165424421Y-88276886D01*
X165417823Y-88302784D01*
X165419596Y-88340690D01*
X165428568Y-88400634D01*
X165446887Y-88512389D01*
X165519938Y-88522507D01*
X165555005Y-88524871D01*
X165648954Y-88510456D01*
X165745989Y-88468674D01*
X165840091Y-88401793D01*
X165881158Y-88365677D01*
X165921246Y-88327045D01*
X165950324Y-88291198D01*
X165976511Y-88247702D01*
X166007928Y-88186120D01*
X166069648Y-88032080D01*
X166111885Y-87855801D01*
X166128962Y-87675406D01*
X166119245Y-87500957D01*
X166116244Y-87484643D01*
X166155803Y-87484643D01*
X166163959Y-87492800D01*
X166172116Y-87484643D01*
X166163959Y-87476486D01*
X166155803Y-87484643D01*
X166116244Y-87484643D01*
X166112741Y-87465597D01*
X166083948Y-87368696D01*
X166040871Y-87266204D01*
X165988765Y-87171389D01*
X165976899Y-87154056D01*
X165919387Y-87087745D01*
X165842642Y-87016706D01*
X165754872Y-86947551D01*
X165664287Y-86886894D01*
X165579095Y-86841348D01*
X165520689Y-86817482D01*
X165437606Y-86788966D01*
X165353818Y-86765013D01*
X165279517Y-86748475D01*
X165224895Y-86742206D01*
X165207469Y-86740776D01*
X165158877Y-86731683D01*
X165103587Y-86717010D01*
X165090875Y-86713576D01*
X165026004Y-86702910D01*
X164940781Y-86695884D01*
X164844764Y-86692859D01*
X164747510Y-86694193D01*
X164658573Y-86700248D01*
X164658323Y-86700274D01*
X164613759Y-86697863D01*
X164589584Y-86676886D01*
X164583260Y-86656815D01*
X164592239Y-86638533D01*
X164674167Y-86638533D01*
X164687595Y-86644502D01*
X164696231Y-86643324D01*
X164698470Y-86633626D01*
X164696079Y-86631674D01*
X164676719Y-86633626D01*
X164674167Y-86638533D01*
X164592239Y-86638533D01*
X164595943Y-86630992D01*
X164638049Y-86612464D01*
X164690777Y-86603718D01*
X165013863Y-86603718D01*
X165022020Y-86611875D01*
X165030177Y-86603718D01*
X165022020Y-86595562D01*
X165013863Y-86603718D01*
X164690777Y-86603718D01*
X164710938Y-86600374D01*
X164737693Y-86597600D01*
X164773721Y-86591408D01*
X164793492Y-86578544D01*
X164799828Y-86552614D01*
X164795549Y-86507226D01*
X164790753Y-86478924D01*
X164890833Y-86478924D01*
X164891693Y-86532836D01*
X164901893Y-86563074D01*
X164925523Y-86576318D01*
X164966668Y-86579248D01*
X164997948Y-86578226D01*
X165023132Y-86569348D01*
X165032020Y-86544397D01*
X165030844Y-86495208D01*
X165030713Y-86484127D01*
X165036053Y-86435322D01*
X165047926Y-86381014D01*
X165052449Y-86363653D01*
X165062561Y-86311849D01*
X165065483Y-86273371D01*
X165067495Y-86250398D01*
X165078788Y-86236666D01*
X165085278Y-86233685D01*
X165085500Y-86213457D01*
X165088823Y-86187904D01*
X165110482Y-86156360D01*
X165133885Y-86128902D01*
X165144371Y-86107904D01*
X165153171Y-86093186D01*
X165186847Y-86078983D01*
X165237581Y-86073532D01*
X165248072Y-86074756D01*
X165290505Y-86095269D01*
X165337149Y-86135220D01*
X165380159Y-86186979D01*
X165411694Y-86242916D01*
X165426261Y-86284556D01*
X165444008Y-86376321D01*
X165446084Y-86468426D01*
X165431576Y-86546932D01*
X165418628Y-86588997D01*
X165417400Y-86603718D01*
X165415715Y-86623908D01*
X165424804Y-86633626D01*
X165431250Y-86640518D01*
X165467523Y-86645080D01*
X165505113Y-86650881D01*
X165552206Y-86668972D01*
X165573431Y-86679879D01*
X165614753Y-86692435D01*
X165640140Y-86687352D01*
X165643670Y-86664894D01*
X165637051Y-86639377D01*
X165628059Y-86595562D01*
X165625804Y-86583084D01*
X165612706Y-86522098D01*
X165595479Y-86452884D01*
X165576861Y-86385477D01*
X165559588Y-86329910D01*
X165546397Y-86296216D01*
X165543864Y-86291505D01*
X165508770Y-86236394D01*
X165461721Y-86174665D01*
X165407904Y-86111821D01*
X165352508Y-86053363D01*
X165300721Y-86004795D01*
X165257733Y-85971619D01*
X165228732Y-85959338D01*
X165194350Y-85966740D01*
X165140175Y-86000051D01*
X165083270Y-86055022D01*
X165027464Y-86125999D01*
X164976584Y-86207329D01*
X164934461Y-86293358D01*
X164904922Y-86378432D01*
X164891797Y-86456897D01*
X164890833Y-86478924D01*
X164790753Y-86478924D01*
X164783477Y-86435984D01*
X164775730Y-86344180D01*
X164788855Y-86248589D01*
X164825220Y-86171413D01*
X164829087Y-86165721D01*
X164849893Y-86130626D01*
X164873830Y-86085767D01*
X164881767Y-86070949D01*
X164903643Y-86037815D01*
X164919330Y-86024592D01*
X164919900Y-86024565D01*
X164940769Y-86012758D01*
X164969780Y-85985951D01*
X164976064Y-85979593D01*
X165018404Y-85945258D01*
X165067462Y-85914286D01*
X165100730Y-85893426D01*
X165113399Y-85874033D01*
X165101596Y-85853667D01*
X165063262Y-85828918D01*
X164996342Y-85796375D01*
X164956895Y-85777204D01*
X164916566Y-85754778D01*
X164896478Y-85739751D01*
X164891666Y-85734683D01*
X164874596Y-85734272D01*
X164866605Y-85736399D01*
X164834168Y-85732691D01*
X164788063Y-85720614D01*
X164738871Y-85705611D01*
X164578039Y-85667264D01*
X164420449Y-85648265D01*
X164255723Y-85647808D01*
X164073484Y-85665086D01*
X164053352Y-85667710D01*
X163992953Y-85674875D01*
X163947729Y-85679179D01*
X163926245Y-85679768D01*
X163902529Y-85681127D01*
X163863767Y-85688873D01*
X163848369Y-85692707D01*
X163738502Y-85719553D01*
X163641061Y-85742479D01*
X163562419Y-85760018D01*
X163508950Y-85770698D01*
X163472858Y-85780855D01*
X163450158Y-85794974D01*
X163448822Y-85807264D01*
X163473290Y-85812517D01*
X163477445Y-85812632D01*
X163527191Y-85824418D01*
X163588659Y-85851774D01*
X163653386Y-85889317D01*
X163712911Y-85931663D01*
X163758770Y-85973429D01*
X163782502Y-86009232D01*
X163791472Y-86026865D01*
X163806570Y-86032810D01*
X163812506Y-86034427D01*
X163833417Y-86053845D01*
X163861495Y-86087099D01*
X163889953Y-86125356D01*
X163912005Y-86159785D01*
X163920864Y-86181552D01*
X163925998Y-86191798D01*
X163946272Y-86215465D01*
X163959800Y-86234849D01*
X163963502Y-86262186D01*
X163961567Y-86271895D01*
X163971500Y-86288891D01*
X163971509Y-86288894D01*
X163983200Y-86306980D01*
X163998103Y-86349883D01*
X164014506Y-86410177D01*
X164030697Y-86480432D01*
X164044965Y-86553221D01*
X164055461Y-86620253D01*
X164055596Y-86621117D01*
X164060879Y-86676690D01*
X164061170Y-86684102D01*
X164059723Y-86741493D01*
X164048217Y-86789073D01*
X164022634Y-86834177D01*
X163978953Y-86884141D01*
X163913157Y-86946300D01*
X163892359Y-86965105D01*
X163843435Y-87009346D01*
X163804830Y-87044259D01*
X163783486Y-87063568D01*
X163776233Y-87069549D01*
X163728906Y-87098354D01*
X163660941Y-87130448D01*
X163581262Y-87162207D01*
X163498790Y-87190006D01*
X163422448Y-87210221D01*
X163355291Y-87222414D01*
X163246516Y-87234084D01*
X163137910Y-87237357D01*
X163037356Y-87232406D01*
X162952740Y-87219406D01*
X162891944Y-87198530D01*
X162871789Y-87190414D01*
X162828287Y-87182845D01*
X162804025Y-87179551D01*
X162758646Y-87163738D01*
X162713388Y-87139997D01*
X162678624Y-87114102D01*
X162664730Y-87091827D01*
X162662668Y-87080393D01*
X162649844Y-87075925D01*
X162641098Y-87069311D01*
X162640896Y-87040183D01*
X162641145Y-87037976D01*
X162640406Y-86997822D01*
X162633924Y-86938812D01*
X162622977Y-86872890D01*
X162620147Y-86857543D01*
X162606422Y-86725830D01*
X162606549Y-86566755D01*
X162608180Y-86522410D01*
X162608627Y-86498226D01*
X162704965Y-86498226D01*
X162705937Y-86558396D01*
X162709631Y-86630004D01*
X162715655Y-86705730D01*
X162723617Y-86778256D01*
X162733124Y-86840263D01*
X162742394Y-86893727D01*
X162748517Y-86937306D01*
X162749619Y-86958535D01*
X162749318Y-86961718D01*
X162762611Y-86970770D01*
X162773872Y-86983070D01*
X162779174Y-87015632D01*
X162779304Y-87025756D01*
X162782463Y-87055483D01*
X162794002Y-87078001D01*
X162819423Y-87098088D01*
X162864223Y-87120520D01*
X162933902Y-87150078D01*
X162970569Y-87159785D01*
X163034682Y-87168438D01*
X163111849Y-87173823D01*
X163191588Y-87175503D01*
X163263421Y-87173043D01*
X163316864Y-87166007D01*
X163323422Y-87164554D01*
X163363217Y-87158816D01*
X163386196Y-87160646D01*
X163390238Y-87162243D01*
X163398834Y-87151373D01*
X163400535Y-87147231D01*
X163423286Y-87134156D01*
X163464088Y-87123856D01*
X163478934Y-87121137D01*
X163514938Y-87110800D01*
X163529342Y-87100292D01*
X163537624Y-87089392D01*
X163566047Y-87075570D01*
X163570245Y-87074152D01*
X163623968Y-87045216D01*
X163688023Y-86996095D01*
X163755711Y-86933434D01*
X163820337Y-86863880D01*
X163875204Y-86794077D01*
X163913614Y-86730672D01*
X163922947Y-86710469D01*
X163938527Y-86664819D01*
X163941749Y-86620253D01*
X163932480Y-86566400D01*
X163910589Y-86492888D01*
X163901888Y-86465746D01*
X163888218Y-86421187D01*
X163881039Y-86395008D01*
X163871691Y-86365892D01*
X163847510Y-86312150D01*
X163814136Y-86248471D01*
X163776179Y-86182750D01*
X163738250Y-86122881D01*
X163704959Y-86076760D01*
X163680915Y-86052281D01*
X163679116Y-86051131D01*
X163651566Y-86029904D01*
X163616578Y-85999245D01*
X163578397Y-85971741D01*
X163498408Y-85940350D01*
X163402159Y-85924732D01*
X163297128Y-85924686D01*
X163190790Y-85940006D01*
X163090622Y-85970489D01*
X163004099Y-86015932D01*
X162987189Y-86027103D01*
X162950091Y-86048658D01*
X162927970Y-86057219D01*
X162925133Y-86057449D01*
X162906713Y-86072280D01*
X162896227Y-86087710D01*
X162868683Y-86120603D01*
X162831045Y-86162004D01*
X162798421Y-86198166D01*
X162776218Y-86226009D01*
X162771867Y-86236666D01*
X162774076Y-86242135D01*
X162761245Y-86262782D01*
X162755098Y-86270618D01*
X162741492Y-86295721D01*
X162733065Y-86331453D01*
X162726813Y-86388806D01*
X162721094Y-86422184D01*
X162711769Y-86441759D01*
X162707108Y-86456812D01*
X162706259Y-86473211D01*
X162704965Y-86498226D01*
X162608627Y-86498226D01*
X162609089Y-86473211D01*
X162632103Y-86473211D01*
X162640260Y-86481368D01*
X162648417Y-86473211D01*
X162640260Y-86465054D01*
X162632103Y-86473211D01*
X162609089Y-86473211D01*
X162609397Y-86456510D01*
X162607657Y-86417326D01*
X162602666Y-86400987D01*
X162594128Y-86403620D01*
X162584929Y-86414018D01*
X162552601Y-86457726D01*
X162512959Y-86518429D01*
X162500781Y-86538465D01*
X162469585Y-86589792D01*
X162426062Y-86665475D01*
X162385974Y-86739142D01*
X162352904Y-86804456D01*
X162330434Y-86855079D01*
X162322148Y-86884674D01*
X162321244Y-86892519D01*
X162309913Y-86905550D01*
X162306452Y-86907174D01*
X162302229Y-86916942D01*
X162298815Y-86938585D01*
X162296036Y-86975562D01*
X162293719Y-87031332D01*
X162291690Y-87109352D01*
X162289776Y-87213082D01*
X162287802Y-87345979D01*
X162287475Y-87375657D01*
X162287288Y-87472834D01*
X162288144Y-87581032D01*
X162289900Y-87695403D01*
X162292408Y-87811096D01*
X162295526Y-87923261D01*
X162299107Y-88027050D01*
X162303007Y-88117611D01*
X162305941Y-88169807D01*
X162307081Y-88190096D01*
X162311183Y-88239654D01*
X162315169Y-88261436D01*
X162315867Y-88263233D01*
X162319155Y-88290559D01*
X162322139Y-88345451D01*
X162324795Y-88423697D01*
X162327102Y-88521087D01*
X162329035Y-88633410D01*
X162329357Y-88659210D01*
X162330572Y-88756454D01*
X162331689Y-88886010D01*
X162332198Y-88985478D01*
X162332364Y-89017865D01*
X162332574Y-89147810D01*
X162332317Y-89262443D01*
X162332296Y-89271633D01*
X162331506Y-89385124D01*
X162330182Y-89484072D01*
X162328300Y-89564265D01*
X162325838Y-89621493D01*
X162322772Y-89651546D01*
X162318733Y-89670031D01*
X162305873Y-89733917D01*
X162296108Y-89789216D01*
X162284967Y-89838256D01*
X162263114Y-89899010D01*
X162236244Y-89952497D01*
X162208578Y-89990566D01*
X162184335Y-90005067D01*
X162183990Y-90004993D01*
X162180357Y-89988202D01*
X162179582Y-89947697D01*
X162181847Y-89891721D01*
X162188995Y-89778374D01*
X162053501Y-89920269D01*
X162022091Y-89953174D01*
X161942439Y-90036784D01*
X161881504Y-90101139D01*
X161836365Y-90149427D01*
X161804098Y-90184837D01*
X161781782Y-90210558D01*
X161766495Y-90229780D01*
X161755315Y-90245690D01*
X161733422Y-90269935D01*
X161707556Y-90282395D01*
X161697428Y-90284525D01*
X161694382Y-90299195D01*
X161695470Y-90305711D01*
X161684554Y-90333745D01*
X161658639Y-90370277D01*
X161643274Y-90388407D01*
X161617436Y-90419344D01*
X161591470Y-90451372D01*
X161558751Y-90492722D01*
X161512656Y-90551621D01*
X161465798Y-90619586D01*
X161411435Y-90716419D01*
X161351225Y-90841130D01*
X161344403Y-90855176D01*
X161323659Y-90888842D01*
X161307895Y-90902305D01*
X161303217Y-90903200D01*
X161301758Y-90917322D01*
X161302326Y-90919223D01*
X161300064Y-90945505D01*
X161290523Y-90995547D01*
X161276344Y-91057283D01*
X161275024Y-91063029D01*
X161268137Y-91089910D01*
X161254887Y-91141632D01*
X161210854Y-91325174D01*
X161177442Y-91526700D01*
X161164066Y-91717914D01*
X161004516Y-91717914D01*
X161005840Y-91630968D01*
X161011303Y-91522699D01*
X161021795Y-91428971D01*
X161038521Y-91339721D01*
X161062687Y-91244887D01*
X161073137Y-91206620D01*
X161084372Y-91162573D01*
X161089352Y-91138850D01*
X161090095Y-91134418D01*
X161098582Y-91102827D01*
X161102569Y-91089910D01*
X161147582Y-91089910D01*
X161155739Y-91098066D01*
X161163895Y-91089910D01*
X161155739Y-91081753D01*
X161147582Y-91089910D01*
X161102569Y-91089910D01*
X161112640Y-91057283D01*
X161131268Y-91057283D01*
X161139425Y-91065439D01*
X161147582Y-91057283D01*
X161139425Y-91049126D01*
X161131268Y-91057283D01*
X161112640Y-91057283D01*
X161113624Y-91054095D01*
X161131787Y-90998762D01*
X161149639Y-90947370D01*
X161163744Y-90910462D01*
X161166109Y-90904904D01*
X161197236Y-90833878D01*
X161234927Y-90750586D01*
X161272731Y-90669121D01*
X161304197Y-90603579D01*
X161327739Y-90562328D01*
X161363630Y-90509267D01*
X161405190Y-90454072D01*
X161447607Y-90402562D01*
X161486070Y-90360552D01*
X161515768Y-90333860D01*
X161531889Y-90328302D01*
X161536545Y-90331114D01*
X161532475Y-90318898D01*
X161531327Y-90310443D01*
X161546226Y-90276912D01*
X161584257Y-90224158D01*
X161644279Y-90153558D01*
X161725153Y-90066490D01*
X161825740Y-89964332D01*
X161849816Y-89940463D01*
X161918399Y-89873080D01*
X161971074Y-89822957D01*
X162013231Y-89785465D01*
X162050255Y-89755975D01*
X162087535Y-89729858D01*
X162130456Y-89702483D01*
X162172476Y-89673407D01*
X162203746Y-89639585D01*
X162218064Y-89600526D01*
X162223157Y-89553723D01*
X162226640Y-89478554D01*
X162228553Y-89379933D01*
X162229001Y-89262443D01*
X162228088Y-89130673D01*
X162225919Y-88989207D01*
X162225834Y-88985478D01*
X162256895Y-88985478D01*
X162265051Y-88993635D01*
X162273208Y-88985478D01*
X162265051Y-88977321D01*
X162256895Y-88985478D01*
X162225834Y-88985478D01*
X162222597Y-88842632D01*
X162218226Y-88695534D01*
X162216876Y-88659210D01*
X162289521Y-88659210D01*
X162297678Y-88667366D01*
X162305835Y-88659210D01*
X162297678Y-88651053D01*
X162289521Y-88659210D01*
X162216876Y-88659210D01*
X162212911Y-88552499D01*
X162206755Y-88418113D01*
X162199863Y-88296962D01*
X162192340Y-88193632D01*
X162189969Y-88169807D01*
X162273208Y-88169807D01*
X162281365Y-88177964D01*
X162289521Y-88169807D01*
X162281365Y-88161650D01*
X162273208Y-88169807D01*
X162189969Y-88169807D01*
X162184288Y-88112710D01*
X162183123Y-88102825D01*
X162174496Y-88010813D01*
X162167186Y-87901670D01*
X162161986Y-87789124D01*
X162159690Y-87686902D01*
X162158580Y-87640041D01*
X162152819Y-87594502D01*
X162139123Y-87561834D01*
X162114152Y-87530563D01*
X162105950Y-87521618D01*
X162062800Y-87473621D01*
X162020350Y-87425274D01*
X162006396Y-87409726D01*
X161935075Y-87343029D01*
X161860488Y-87288882D01*
X161897999Y-87288882D01*
X161906156Y-87297039D01*
X161914313Y-87288882D01*
X161906156Y-87280725D01*
X161897999Y-87288882D01*
X161860488Y-87288882D01*
X161856893Y-87286272D01*
X161783805Y-87248395D01*
X161776454Y-87245521D01*
X161735906Y-87227452D01*
X161711211Y-87212857D01*
X161701359Y-87206724D01*
X161668346Y-87199158D01*
X161651244Y-87195625D01*
X161620820Y-87174868D01*
X161607021Y-87162729D01*
X161586533Y-87159309D01*
X161568166Y-87160008D01*
X161535363Y-87147630D01*
X161505478Y-87135895D01*
X161467989Y-87131889D01*
X161451852Y-87132045D01*
X161446011Y-87122997D01*
X161446535Y-87120501D01*
X161431075Y-87112189D01*
X161394776Y-87108232D01*
X161376081Y-87107517D01*
X161314437Y-87103103D01*
X161239962Y-87095991D01*
X161166381Y-87087567D01*
X161107414Y-87079216D01*
X161078809Y-87079086D01*
X161024796Y-87084990D01*
X160957918Y-87095660D01*
X160888219Y-87109283D01*
X160825742Y-87124050D01*
X160780530Y-87138150D01*
X160748554Y-87151772D01*
X160619255Y-87227846D01*
X160503689Y-87330117D01*
X160405182Y-87454555D01*
X160327058Y-87597131D01*
X160272641Y-87753815D01*
X160266108Y-87784742D01*
X160257062Y-87848146D01*
X160249982Y-87922456D01*
X160245161Y-88000452D01*
X160242893Y-88074914D01*
X160099728Y-88074914D01*
X160099807Y-88030299D01*
X160100370Y-87963633D01*
X160102465Y-87882317D01*
X160106961Y-87819675D01*
X160114894Y-87767244D01*
X160127299Y-87716562D01*
X160145211Y-87659168D01*
X160153887Y-87633699D01*
X160174837Y-87578301D01*
X160192433Y-87539833D01*
X160203565Y-87525427D01*
X160209947Y-87522822D01*
X160217717Y-87501351D01*
X160218046Y-87497394D01*
X160228884Y-87464924D01*
X160250283Y-87423862D01*
X160257689Y-87412145D01*
X160275686Y-87388360D01*
X160282922Y-87386763D01*
X160285138Y-87388068D01*
X160297540Y-87370688D01*
X160317196Y-87333985D01*
X160318974Y-87330485D01*
X160359728Y-87270800D01*
X160420220Y-87204485D01*
X160491810Y-87139439D01*
X160565854Y-87083559D01*
X160633709Y-87044743D01*
X160643937Y-87040191D01*
X160738132Y-87000781D01*
X160754362Y-86995240D01*
X160870254Y-86995240D01*
X160878410Y-87003397D01*
X160886567Y-86995240D01*
X160878410Y-86987084D01*
X160870254Y-86995240D01*
X160754362Y-86995240D01*
X160821589Y-86972288D01*
X160862612Y-86962614D01*
X161392283Y-86962614D01*
X161400440Y-86970770D01*
X161408597Y-86962614D01*
X161400440Y-86954457D01*
X161392283Y-86962614D01*
X160862612Y-86962614D01*
X160902956Y-86953100D01*
X160990879Y-86941605D01*
X161094009Y-86936189D01*
X161220992Y-86935241D01*
X161298745Y-86936192D01*
X161386299Y-86939722D01*
X161458404Y-86946801D01*
X161525043Y-86958510D01*
X161541805Y-86962614D01*
X161596201Y-86975932D01*
X161599829Y-86976912D01*
X161656251Y-86995240D01*
X161754953Y-87027302D01*
X161893108Y-87088855D01*
X162009126Y-87158906D01*
X162097839Y-87234787D01*
X162148760Y-87288882D01*
X162159014Y-87299775D01*
X162161922Y-87196448D01*
X162163038Y-87146918D01*
X162163577Y-87093764D01*
X162163110Y-87060494D01*
X162164443Y-87033363D01*
X162175444Y-86971874D01*
X162194845Y-86896264D01*
X162219790Y-86816214D01*
X162247423Y-86741404D01*
X162274890Y-86681515D01*
X162305983Y-86627138D01*
X162351382Y-86553023D01*
X162360680Y-86538465D01*
X162387402Y-86538465D01*
X162395559Y-86546621D01*
X162403715Y-86538465D01*
X162395559Y-86530308D01*
X162387402Y-86538465D01*
X162360680Y-86538465D01*
X162403527Y-86471377D01*
X162456613Y-86391122D01*
X162504833Y-86321180D01*
X162542380Y-86270476D01*
X162543118Y-86269556D01*
X162568241Y-86241433D01*
X162610735Y-86196862D01*
X162664847Y-86141783D01*
X162724823Y-86082135D01*
X162803922Y-86007466D01*
X162873111Y-85950303D01*
X162941372Y-85904075D01*
X163018447Y-85861457D01*
X163058214Y-85840971D01*
X163113615Y-85811716D01*
X163153250Y-85789863D01*
X163170429Y-85779040D01*
X163172637Y-85777138D01*
X163196803Y-85762958D01*
X163235700Y-85743890D01*
X163278354Y-85724780D01*
X163414451Y-85668618D01*
X163489117Y-85641226D01*
X163953491Y-85641226D01*
X163961647Y-85649383D01*
X163969804Y-85641226D01*
X163961647Y-85633070D01*
X163953491Y-85641226D01*
X163489117Y-85641226D01*
X163553954Y-85617440D01*
X163688843Y-85573893D01*
X163811100Y-85540627D01*
X163912707Y-85520288D01*
X164000932Y-85507460D01*
X164091244Y-85494859D01*
X164160807Y-85486192D01*
X164216101Y-85480860D01*
X164263607Y-85478265D01*
X164309805Y-85477810D01*
X164361174Y-85478895D01*
X164427584Y-85482953D01*
X164486819Y-85492066D01*
X164519746Y-85504901D01*
X164527387Y-85511004D01*
X164540080Y-85518572D01*
X164533212Y-85504094D01*
X164528589Y-85492875D01*
X164539058Y-85487322D01*
X164574942Y-85492975D01*
X164625740Y-85503530D01*
X164671281Y-85512599D01*
X164722833Y-85524271D01*
X164814173Y-85550682D01*
X164912199Y-85584274D01*
X165007287Y-85621438D01*
X165051269Y-85641226D01*
X165089813Y-85658567D01*
G37*
%TD*%
D12*
%TO.C,D3*%
X156289300Y-96856700D03*
D13*
X154656620Y-94910946D03*
%TD*%
D14*
%TO.C,D5*%
X152572300Y-56816700D03*
D13*
X155112300Y-56816701D03*
%TD*%
D15*
%TO.C,D2*%
X135074600Y-92375800D03*
D13*
X133804599Y-94575504D03*
%TD*%
D16*
%TO.C,D1*%
X175522300Y-38191700D03*
D13*
X173322596Y-36921699D03*
%TD*%
D17*
%TO.C,R4*%
X157002341Y-126951708D03*
D18*
X157002341Y-116791708D03*
%TD*%
D17*
%TO.C,R2*%
X167162341Y-126951708D03*
D18*
X167162341Y-116791708D03*
%TD*%
D14*
%TO.C,D6*%
X136262300Y-143891700D03*
D13*
X133722300Y-143891701D03*
%TD*%
D17*
%TO.C,R6*%
X146842341Y-126951708D03*
D18*
X146842341Y-116791708D03*
%TD*%
D17*
%TO.C,R5*%
X151922341Y-126951708D03*
D18*
X151922341Y-116791708D03*
%TD*%
D14*
%TO.C,D4*%
X95547300Y-46266700D03*
D13*
X93007300Y-46266701D03*
%TD*%
D19*
%TO.C,BT3*%
X168350000Y-144000000D03*
X145650000Y-144000000D03*
D20*
X157000000Y-144000000D03*
%TD*%
D17*
%TO.C,R1*%
X172242341Y-126951708D03*
D18*
X172242341Y-116791708D03*
%TD*%
D19*
%TO.C,BT1*%
X126072300Y-143991700D03*
X103372300Y-143991700D03*
D20*
X114722300Y-143991700D03*
%TD*%
D17*
%TO.C,R3*%
X162082341Y-126951708D03*
D18*
X162082341Y-116791708D03*
%TD*%
M02*
